<?xml version="1.0" encoding="UTF-8"?>
<svg id="Layer_2" data-name="Layer 2" xmlns="http://www.w3.org/2000/svg" viewBox="0 0 50 50">
  <defs>
    <style>
      .cls-1 {
        fill: #fffee9;
        fill-rule: evenodd;
        stroke-width: 0px;
      }

      .cls-2 {
        fill: none;
        stroke: #fffee9;
        stroke-miterlimit: 10;
        stroke-width: 2px;
      }
    </style>
  </defs>
  <g id="Layer_1-2" data-name="Layer 1">
    <g id="Grupo_176" data-name="Grupo 176">
      <path id="Trazado_1261" data-name="Trazado 1261" class="cls-1" d="M28.61,31.07c.78.79,1.18,1.88,1.09,2.99,0,2.16-.03,3.9-.03,4.43,0,.05,0,.09,0,.14v.65h-7.94v-.67s.01-.08,0-.12c0-.15,0-.47,0-.88,0-.57-.02-1.33-.02-2.11-4.45.96-5.38-1.92-5.38-1.92-.28-.98-.91-1.82-1.78-2.35-1.45-.98.11-.98.11-.98,1.03.14,1.95.75,2.47,1.65.88,1.65,2.93,2.27,4.58,1.38.03-.01.05-.03.08-.04.07-.82.43-1.59,1.01-2.17-3.55-.37-7.29-1.76-7.29-7.95-.02-1.6.57-3.14,1.64-4.33-.48-1.39-.42-2.92.16-4.27,0,0,1.35-.43,4.4,1.65,1.31-.35,2.65-.52,4-.53,1.35,0,2.7.18,4,.53,3.05-2.08,4.4-1.65,4.4-1.65.59,1.35.65,2.88.16,4.27,1.08,1.18,1.67,2.73,1.64,4.33,0,6.19-3.73,7.55-7.31,7.95Z"/>
      <path id="Trazado_1262" data-name="Trazado 1262" class="cls-1" d="M21.75,38.49s0,.08,0,.12v-1c0,.41,0,.73,0,.88Z"/>
      <path id="Trazado_1263" data-name="Trazado 1263" class="cls-1" d="M38.4,5.08c-3.61-2.43-7.81-3.83-12.16-4.05,4.35.2,8.56,1.6,12.16,4.05Z"/>
      <circle id="Elipse_18" data-name="Elipse 18" class="cls-2" cx="25" cy="25" r="24"/>
    </g>
  </g>
</svg>