<?xml version="1.0" encoding="UTF-8"?>
<svg id="Layer_2" data-name="Layer 2" xmlns="http://www.w3.org/2000/svg" viewBox="0 0 50 50">
  <defs>
    <style>
      .cls-1 {
        fill: #fffee9;
        stroke-width: 0px;
      }

      .cls-2 {
        fill: none;
        stroke: #fffee9;
        stroke-miterlimit: 10;
        stroke-width: 2px;
      }
    </style>
  </defs>
  <g id="Layer_1-2" data-name="Layer 1">
    <g id="Grupo_172" data-name="Grupo 172">
      <path id="Trazado_1259" data-name="Trazado 1259" class="cls-1" d="M26.27,25c-.03,4.31-3.55,7.78-7.85,7.75s-7.78-3.55-7.75-7.85c.03-4.29,3.51-7.75,7.8-7.75,4.32.02,7.81,3.53,7.8,7.85ZM34.83,25c0,4.08-1.75,7.39-3.9,7.39s-3.9-3.31-3.9-7.39,1.75-7.39,3.9-7.39,3.9,3.31,3.9,7.39ZM38.33,25c0,3.66-.61,6.62-1.37,6.62s-1.37-2.97-1.37-6.62.61-6.62,1.37-6.62,1.37,2.97,1.37,6.62h0Z"/>
      <circle id="Elipse_16" data-name="Elipse 16" class="cls-2" cx="25" cy="25" r="24"/>
    </g>
  </g>
</svg>