<svg id="_02_skills_logo_tgl" data-name="02_skills_logo_tgl" xmlns="http://www.w3.org/2000/svg" xmlns:xlink="http://www.w3.org/1999/xlink" width="90.651" height="52.244" viewBox="0 0 90.651 52.244">
  <defs>
    <clipPath id="clip-path">
      <rect id="Rectángulo_34" data-name="Rectángulo 34" width="90.651" height="52.244" fill="#fffee9"/>
    </clipPath>
  </defs>
  <g id="Grupo_30" data-name="Grupo 30" clip-path="url(#clip-path)">
    <path id="Trazado_352" data-name="Trazado 352" d="M45.257.028q18.062,0,36.123,0c.683,0,1.367-.045,2.049-.019A7.318,7.318,0,0,1,87.64,1.474a7.194,7.194,0,0,1,2.89,4.744,7.831,7.831,0,0,1,.118,1.257q.007,18.281,0,36.563a10.345,10.345,0,0,1-.183,2.324,7.2,7.2,0,0,1-4.334,5.28,6.878,6.878,0,0,1-3.179.584c-.454-.024-.911.016-1.366.016q-36.319,0-72.637-.005a25.967,25.967,0,0,1-2.868-.146,6.112,6.112,0,0,1-3.093-1.34,7.236,7.236,0,0,1-2.771-4.4,11.768,11.768,0,0,1-.212-2.229q-.018-17.5,0-35A24.539,24.539,0,0,1,.2,6.014,6.361,6.361,0,0,1,1.6,2.891,7.11,7.11,0,0,1,5.738.234,9.863,9.863,0,0,1,7.766.041C12.924.024,18.083.029,23.241.028H45.257m.109,1.451v0H17.639c-3.433,0-6.867-.046-10.3.018A5.721,5.721,0,0,0,1.975,5.131a7.7,7.7,0,0,0-.537,3.293q-.016,17.329,0,34.658c0,.65.029,1.3.065,1.949a5.9,5.9,0,0,0,1.425,3.652A6.241,6.241,0,0,0,7.895,50.84q36.635-.009,73.269-.006c.716,0,1.432,0,2.148,0a5.159,5.159,0,0,0,2.26-.524,5.938,5.938,0,0,0,3.64-5.735q.013-18.4,0-36.805a8.378,8.378,0,0,0-.11-1.406,5.832,5.832,0,0,0-2.52-3.85A4.193,4.193,0,0,0,84.69,1.66a19.019,19.019,0,0,0-2.275-.174Q63.89,1.471,45.366,1.479" transform="translate(0 0)" fill="#fffee9"/>
    <path id="Trazado_353" data-name="Trazado 353" d="M56.573,52.587q0,10.59,0,21.179c0,.114,0,.228-.008.341-.049.539-.187.677-.737.685-.716.011-1.431,0-2.147,0l-19.52,0a3.427,3.427,0,0,1-3.07-1.657,3.3,3.3,0,0,1-.532-1.8q0-18.617-.008-37.234A3.585,3.585,0,0,1,33,30.612a2.888,2.888,0,0,1,.76-.142c.731-.023,1.464-.019,2.2-.019q9.736,0,19.471,0c1.109,0,1.142.044,1.142,1.153q0,10.492,0,20.984ZM45.883,33.619c-.4.077-1.162.175-1.893.371A1.838,1.838,0,0,0,42.5,35.706a.988.988,0,0,1-.68.868c-.313.13-.6.316-.905.471A2.517,2.517,0,0,0,40,40.723a6.4,6.4,0,0,0,.945,1.038.993.993,0,0,1,.354.908c-.11.837-.235,1.671-.341,2.509-.2,1.594-.388,3.191-.6,4.785-.2,1.512-.417,3.021-.622,4.532a5.089,5.089,0,0,0,.277,2.634,5,5,0,0,0,1.7,2.208c.267.2.536.4.486.785a4.2,4.2,0,0,1-.206.95.867.867,0,0,1-.414.44c-.548.244-1.117.44-1.678.652-1.519.572-3.044,1.127-4.553,1.726a1.52,1.52,0,0,0-.723.6c-.429.763-.8,1.56-1.167,2.356-.309.671-.159,1.011.51,1.317,2.718,1.241,5.432,2.49,8.153,3.725,1.767.8,1.224.718,2.851.036,1.3-.545,2.582-1.144,3.87-1.724,1.451-.654,2.905-1.3,4.347-1.975.673-.314.76-.6.456-1.29s-.647-1.348-.92-2.042A1.988,1.988,0,0,0,51.42,63.7c-1.651-.587-3.287-1.219-4.925-1.84-.7-.267-.827-.558-.634-1.28.1-.368.359-.5.667-.641a4.622,4.622,0,0,0,2.89-3.209c.306-1.357.461-2.75.654-4.132.227-1.623.425-3.25.634-4.875.153-1.19.309-2.38.451-3.572a1.1,1.1,0,0,1,.7-1.007,4.216,4.216,0,0,0,1.1-.71,2.355,2.355,0,0,0,.459-3.28,5.81,5.81,0,0,0-1.1-1.16,1.072,1.072,0,0,1-.443-1.141,1.724,1.724,0,0,0-.06-.811,2.159,2.159,0,0,0-.973-1.178,9.435,9.435,0,0,0-4.959-1.25" transform="translate(-26.573 -26.485)" fill="#fffee9"/>
    <path id="Trazado_354" data-name="Trazado 354" d="M401.694,50.977q2.879,0,5.758,0a4.148,4.148,0,0,1,.679.058c.418.071.569.246.523.67a6.772,6.772,0,0,1-.213,1c-.283,1.065-.587,2.125-.86,3.192-.261,1.021-.455,1.186-1.509,1.185l-7.906-.005h-.2c-.925.009-1.17.171-1.423,1.074-.442,1.577-.854,3.162-1.281,4.743q-.627,2.324-1.26,4.646c-.177.65,0,.939.674.96.861.027,1.724.009,2.586.009a1.019,1.019,0,0,0,1.017-.764c.157-.459.262-.937.374-1.41a.549.549,0,0,0-.35-.666c-.576-.288-.639-.41-.473-1.037.385-1.456.791-2.907,1.179-4.363a.889.889,0,0,1,.914-.725c.959-.021,1.918-.024,2.878-.027.846,0,1.692.012,2.538,0,.951-.009,1.19.306.936,1.23-.433,1.578-.857,3.159-1.283,4.739q-.906,3.356-1.809,6.713c-.139.516-.27,1.034-.408,1.55a.993.993,0,0,1-.965.812c-.226.021-.455.026-.682.026-3.595,0-7.19-.017-10.784.014a1.908,1.908,0,0,1-1.927-1.112c-.277-.55-.6-1.077-.922-1.6a2.33,2.33,0,0,1-.24-1.918q.855-3.092,1.686-6.191c.569-2.13,1.117-4.265,1.682-6.4.2-.767.417-1.531.651-2.29a3.121,3.121,0,0,1,.829-1.356c.68-.654,1.355-1.314,2-2a2.328,2.328,0,0,1,1.827-.751c1.919.016,3.839.005,5.758.005v-.018" transform="translate(-336.752 -44.34)" fill="#fffee9"/>
    <path id="Trazado_355" data-name="Trazado 355" d="M284.954,51.018q3.563,0,7.125,0a7.314,7.314,0,0,1,.827.043c.513.059.682.274.609.786a6.4,6.4,0,0,1-.185.756c-.326,1.2-.645,2.411-.985,3.612-.2.7-.467.888-1.193.9-.634.007-1.269.01-1.9,0a1.024,1.024,0,0,0-1.128.8c-.218.78-.438,1.56-.65,2.342q-.648,2.394-1.287,4.79-.479,1.785-.957,3.569-.7,2.6-1.407,5.207a.909.909,0,0,1-.976.783c-1.5.024-2.993.024-4.489.015-.457,0-.656-.234-.606-.69a6.976,6.976,0,0,1,.216-1.046c.557-2.066,1.129-4.129,1.683-6.2.676-2.52,1.339-5.044,2.007-7.566.1-.391.231-.778.3-1.176.1-.6-.1-.821-.695-.827-.8-.009-1.595-.014-2.391,0a1.457,1.457,0,0,1-1.424-.831c-.4-.742-.854-1.458-1.255-2.2a2.641,2.641,0,0,1,.145-2.6,1.072,1.072,0,0,1,.672-.407,4.956,4.956,0,0,1,1.068-.054q3.441-.005,6.881,0" transform="translate(-239.985 -44.375)" fill="#fffee9"/>
    <path id="Trazado_356" data-name="Trazado 356" d="M534.876,74.862q-2.684,0-5.368,0c-.682,0-.918-.282-.744-.957.419-1.633.857-3.26,1.294-4.888q.908-3.383,1.824-6.764,1.2-4.46,2.407-8.92c.114-.422.223-.846.348-1.265a.964.964,0,0,1,.984-.785c.811,0,1.625-.018,2.432.043a1.2,1.2,0,0,1,.788.411,12.227,12.227,0,0,1,1.087,1.782A2.048,2.048,0,0,1,539.942,55c-.474,1.736-.955,3.47-1.422,5.209q-1.014,3.782-2.009,7.568c-.193.734.022,1.008.775,1.008,1.529,0,3.059.019,4.588-.016.758-.017,1.019.381.827,1.087-.361,1.33-.715,2.661-1.085,3.988-.224.8-.577,1.039-1.421,1.037-1.773,0-3.546,0-5.32,0v-.018" transform="translate(-459.875 -44.605)" fill="#fffee9"/>
    <path id="Trazado_357" data-name="Trazado 357" d="M302.139,261.064H279.884c-.228,0-.456,0-.683-.014s-.386-.1-.4-.34a.378.378,0,0,1,.335-.414,2.468,2.468,0,0,1,.529-.065q22.353,0,44.706,0a5.834,5.834,0,0,1,.825.064.365.365,0,0,1,.331.413c-.013.237-.177.332-.4.343-.162.008-.325.01-.488.01h-22.5Z" transform="translate(-242.5 -226.349)" fill="#fffee9"/>
    <path id="Trazado_358" data-name="Trazado 358" d="M441.973,295.644q0,1.415,0,2.83c0,.283,0,.628-.316.691a2.637,2.637,0,0,1-1.082-.044c-.111-.026-.208-.349-.215-.539-.026-.7.006-1.4-.023-2.1-.011-.257-.076-.689-.21-.73-.34-.1-.369.314-.506.528-.174.272-.293.582-.475.848a.782.782,0,0,1-1.435-.075c-.162-.282-.31-.57-.468-.854a.822.822,0,0,0-.16-.241c-.08-.067-.208-.152-.282-.128s-.145.164-.168.264a2,2,0,0,0-.024.437c0,.651.005,1.3,0,1.952-.007.545-.168.739-.6.76-.821.04-1.036-.076-1.08-.691-.039-.55,0-1.1,0-1.657,0-1.35,0-2.7,0-4.049,0-.556.129-.8.44-.879a1.115,1.115,0,0,1,1.3.4c.446.754.85,1.534,1.3,2.288a3.968,3.968,0,0,0,.534.593,4.445,4.445,0,0,0,.475-.578c.415-.716.8-1.453,1.21-2.17a1.1,1.1,0,0,1,1.376-.516.619.619,0,0,1,.422.687c0,.992,0,1.984,0,2.976" transform="translate(-378.285 -253.907)" fill="#fffee9"/>
    <path id="Trazado_359" data-name="Trazado 359" d="M290.723,295.039c0-.325.013-.651,0-.976a2.488,2.488,0,0,1,1.985-2.6,3.861,3.861,0,0,1,3.517.6,2.54,2.54,0,0,1,.677.923c.2.443.012.679-.472.715a1.659,1.659,0,0,1-1.574-.548,1.316,1.316,0,0,0-1.483-.321,1.131,1.131,0,0,0-.861,1.06,7.372,7.372,0,0,0,.056,2.565,1.223,1.223,0,0,0,1.175.932,1.338,1.338,0,0,0,1.419-.729q.368-.817-.52-.883c-.515-.039-.7-.2-.686-.616.013-.394.249-.6.723-.611q.829-.015,1.658,0c.548.011.694.161.7.7.006.341,0,.683,0,1.024a2.234,2.234,0,0,1-1.27,2.1,3.951,3.951,0,0,1-3.79.005,2.321,2.321,0,0,1-1.239-2.025c-.03-.437-.005-.878-.005-1.317h-.007" transform="translate(-252.869 -253.371)" fill="#fffee9"/>
    <path id="Trazado_360" data-name="Trazado 360" d="M582.438,298.917a3.354,3.354,0,0,1-2.358-.791,2.529,2.529,0,0,1-.565-.826c-.182-.414-.012-.67.429-.714a1.487,1.487,0,0,1,1.451.47,1.659,1.659,0,0,0,1.9.224.947.947,0,0,0,.358-.525.487.487,0,0,0-.349-.575c-.423-.162-.857-.294-1.287-.437a11.64,11.64,0,0,1-1.2-.4,1.805,1.805,0,0,1-1.2-1.574,1.926,1.926,0,0,1,1-1.965,3.638,3.638,0,0,1,3.988.317,1.34,1.34,0,0,1,.579,1.026c0,.216-.067.421-.295.44-.524.043-1.073.166-1.486-.337a1.353,1.353,0,0,0-1.381-.394.61.61,0,0,0-.574.567.6.6,0,0,0,.418.69c.427.151.874.244,1.3.391a12.768,12.768,0,0,1,1.537.59,1.453,1.453,0,0,1,.79,1.259,2.141,2.141,0,0,1-1.809,2.4,9.04,9.04,0,0,1-1.251.17" transform="translate(-504.006 -253.424)" fill="#fffee9"/>
    <path id="Trazado_361" data-name="Trazado 361" d="M515.938,295.732c0-.927,0-1.854,0-2.78,0-.625.2-.823.813-.824q1.878,0,3.756,0c.556,0,.73.158.747.662.018.539-.161.751-.707.764-.715.017-1.431,0-2.146.006-.256,0-.553-.036-.667.277a1.1,1.1,0,0,0,.072,1.03.718.718,0,0,0,.509.2c.666.023,1.333.005,2,.011.567.005.762.222.723.783-.029.41-.206.587-.669.6-.52.018-1.04.006-1.561.006-.114,0-.228-.009-.341-.007-.661.012-.837.2-.8.859.029.58.192.748.779.756.748.01,1.5,0,2.244.006.508.007.641.15.646.639.006.515-.149.7-.644.7q-2.049.011-4.1,0c-.411,0-.554-.128-.629-.528a2.685,2.685,0,0,1-.031-.485c0-.894,0-1.789,0-2.683h.008" transform="translate(-448.761 -254.095)" fill="#fffee9"/>
    <path id="Trazado_362" data-name="Trazado 362" d="M365.227,299.374c-.462.075-.765-.17-.921-.66a.955.955,0,0,0-1.079-.711c-.454.026-.911.016-1.366.007a.82.82,0,0,0-.894.6c-.287.869-.574.787-1.4.752-.35-.015-.5-.3-.365-.684.277-.8.58-1.584.874-2.374.435-1.17.874-2.339,1.3-3.511.207-.564.36-.688.953-.717,1.2-.058,1.284.017,1.689,1.142.61,1.694,1.242,3.379,1.865,5.068.017.046.035.091.051.137.271.744.129.953-.712.955m-2.623-2.694c.1,0,.195,0,.292,0,.513-.016.65-.191.5-.667-.139-.43-.288-.858-.456-1.277a1.68,1.68,0,0,0-.281-.365c-.118.118-.28.217-.346.359-.15.321-.246.666-.376,1-.255.649-.326,1.025.672.954" transform="translate(-312.396 -254.034)" fill="#fffee9"/>
    <path id="Trazado_363" data-name="Trazado 363" d="M113.818,185.678a3.874,3.874,0,0,1-3.707-4.4c.246-1.569.43-3.148.635-4.724.082-.631.267-.727.82-.39a7.744,7.744,0,0,0,3.9,1.05,16.065,16.065,0,0,0,2.175-.182c.42-.046.59.06.543.44-.206,1.657-.392,3.318-.648,4.968a3.7,3.7,0,0,1-2.4,2.959,7.179,7.179,0,0,1-1.321.283m.741-6.748a1.246,1.246,0,0,0-1.259-1.319,1.281,1.281,0,0,0-1.322,1.267,1.294,1.294,0,0,0,1.293,1.3,1.269,1.269,0,0,0,1.288-1.247m2.371,3.247a.945.945,0,0,0-.948-.959.975.975,0,0,0-.964.957.959.959,0,0,0,.953.962.978.978,0,0,0,.958-.96m-3.984,2.649a.742.742,0,0,0,.729-.709.817.817,0,0,0-.738-.769.767.767,0,0,0-.745.749.719.719,0,0,0,.754.729" transform="translate(-95.738 -153.06)" fill="#fffee9"/>
    <path id="Trazado_364" data-name="Trazado 364" d="M114.159,97.37c-.509.095-1.2.2-1.872.356-.449.1-.6.031-.559-.42q.107-1.162.281-2.318c.074-.49.266-.563.758-.42q1.237.36,2.486.677a2.063,2.063,0,0,0,.629.04.627.627,0,0,0,.6-.543.642.642,0,0,0-.388-.714,2.361,2.361,0,0,0-.515-.14,9.448,9.448,0,0,1-3.432-1.175,6.414,6.414,0,0,1-1.305-1.077,1.131,1.131,0,0,1,.209-1.749c.372-.288.617-.208.737.245a2.608,2.608,0,0,0,1.1,1.5,6.876,6.876,0,0,0,2.933,1.112,8.145,8.145,0,0,0,3.049-.071,3.049,3.049,0,0,0,2.092-1.373c.233-.387.419-.381.7-.026a1.134,1.134,0,0,1-.262,1.8,5.812,5.812,0,0,1-2.594.908,1.746,1.746,0,0,0-.423.1c-.492.223-.628.817-.182,1.094.718.445.74,1.129.816,1.813a6.906,6.906,0,0,1,.017,1.071c-.019.426-.2.535-.564.333a7.551,7.551,0,0,0-2.434-.819c-.559-.093-1.128-.124-1.883-.2" transform="translate(-96.131 -78.038)" fill="#fffee9"/>
    <path id="Trazado_365" data-name="Trazado 365" d="M72.183,294.312c.144.051.268.089.388.137,2.112.84,4.226,1.673,6.332,2.527a1.657,1.657,0,0,0,1.309-.006c2.167-.83,4.347-1.627,6.526-2.427.1-.036.227.02.342.033-.062.1-.1.252-.19.3-.31.176-.636.325-.962.472q-2.24,1.014-4.484,2.021c-.252.113-.5.237-.761.325a.96.96,0,0,0-.691.954q-.048.9-.11,1.8c-.017.251.017.632-.288.635-.337,0-.325-.386-.344-.654q-.065-.923-.1-1.849a.879.879,0,0,0-.592-.81q-2.845-1.332-5.682-2.684a7.7,7.7,0,0,1-.8-.458c-.067-.042-.091-.15-.135-.228l.245-.092" transform="translate(-62.572 -255.995)" fill="#fffee9"/>
    <path id="Trazado_366" data-name="Trazado 366" d="M136.562,65.6a8.031,8.031,0,0,1,3.87.871c.236.138.546.263.5.586-.045.342-.388.423-.666.477a7.6,7.6,0,0,1-5.051-.689.953.953,0,0,1-.124-.077c-.185-.134-.43-.276-.333-.53a.725.725,0,0,1,.436-.39c.531-.131,1.078-.2,1.365-.249" transform="translate(-117.198 -57.061)" fill="#fffee9"/>
    <path id="Trazado_367" data-name="Trazado 367" d="M134.946,87.967a9.3,9.3,0,0,1-2.964-.844,2.266,2.266,0,0,1-.658-.488,1.175,1.175,0,0,1-.273-.6c-.055-.412.167-.548.567-.418.66.214,1.316.451,1.99.609a8.855,8.855,0,0,0,3.285.109c.232-.033.559-.124.632.172a1.079,1.079,0,0,1-.18.705.818.818,0,0,1-.471.317c-.637.166-1.285.294-1.928.437" transform="translate(-113.982 -74.429)" fill="#fffee9"/>
    <path id="Trazado_368" data-name="Trazado 368" d="M109.881,281.968c-.523-.114-1.249-.266-1.971-.437a1.514,1.514,0,0,1-.435-.214c-.327-.206-.614-.447-.556-.892a1.16,1.16,0,0,1,.689-.825.381.381,0,0,1,.573.165,2.385,2.385,0,0,0,2.969,1.059,1.863,1.863,0,0,1,1.285-.011c.129.051.294.2.3.318s-.142.285-.265.346a7.652,7.652,0,0,1-2.591.49" transform="translate(-92.993 -243.138)" fill="#fffee9"/>
    <path id="Trazado_369" data-name="Trazado 369" d="M126.532,159.016c.369.041.743.059,1.106.129.3.059.381.23.225.493a1.06,1.06,0,0,0-.135.966c.087.241-.051.368-.3.363a5.107,5.107,0,0,1-2.777-.888c-.412-.276-.365-.624.117-.769a17.515,17.515,0,0,1,1.744-.35l.019.057" transform="translate(-108.18 -138.264)" fill="#fffee9"/>
    <path id="Trazado_370" data-name="Trazado 370" d="M126.43,265.832c.072-.364.121-.736.224-1.091.094-.325.311-.384.6-.214a1.449,1.449,0,0,1,.422,1.9.566.566,0,0,1-.645.221.648.648,0,0,1-.572-.52,1.656,1.656,0,0,1,0-.291l-.028,0" transform="translate(-109.97 -230.008)" fill="#fffee9"/>
    <path id="Trazado_371" data-name="Trazado 371" d="M160.673,165.881c-.241,0-.37-.1-.332-.357.031-.207.069-.414.091-.622.024-.235.15-.31.366-.257a.989.989,0,0,1,.179.074c.46.216.648.432.591.679-.051.22-.557.493-.9.483" transform="translate(-139.46 -143.196)" fill="#fffee9"/>
  </g>
</svg>
