<svg id="_02_skills_logo_gauchodevs" data-name="02_skills_logo_gauchodevs" xmlns="http://www.w3.org/2000/svg" xmlns:xlink="http://www.w3.org/1999/xlink" width="50.855" height="45.765" viewBox="0 0 50.855 45.765">
  <defs>
    <clipPath id="clip-path">
      <rect id="Rectángulo_29" data-name="Rectángulo 29" width="50.855" height="45.765" fill="#fffee9"/>
    </clipPath>
  </defs>
  <path id="Trazado_315" data-name="Trazado 315" d="M238.221,93.48l-1.585,2.608H235.3L233.83,93.48Z" transform="translate(-212.792 -85.069)" fill="#fffee9"/>
  <g id="Grupo_26" data-name="Grupo 26">
    <g id="Grupo_25" data-name="Grupo 25" clip-path="url(#clip-path)">
      <path id="Trazado_316" data-name="Trazado 316" d="M411.908,143.268a6.072,6.072,0,0,1-.1,6.123l-3.384,5.556-2.713-4.823.352-.568a6.379,6.379,0,0,0,.109-6.441l-.87-1.547,4.61-7.586h5.644l-4.606,7.58Z" transform="translate(-368.834 -121.925)" fill="#fffee9"/>
      <path id="Trazado_317" data-name="Trazado 317" d="M452.3,157.675l-4.651,7.649-3.689-6.559,3.565-5.862a6.7,6.7,0,0,0,.114-6.76l-.78-1.386,4.423-7.278,1.319,2.345a17.683,17.683,0,0,1-.3,17.851" transform="translate(-404.016 -125.111)" fill="#fffee9"/>
      <path id="Trazado_318" data-name="Trazado 318" d="M103.083,390.2H82.736L78.9,383.384,76.15,378.49h9.8l2.93,5.209H99.426l1.761,3.131Z" transform="translate(-69.298 -344.436)" fill="#fffee9"/>
      <path id="Trazado_319" data-name="Trazado 319" d="M40.086,0l-13.2,21.724H.16l3.362-5.533L8.442,8.1,13.363,0h6.566L9.9,16.505H21.392l3.334-5.487,1.764-2.9.2-.334H21.566L26.237.1l.006-.1Z" transform="translate(-0.146)" fill="#fffee9"/>
      <path id="Trazado_320" data-name="Trazado 320" d="M309.76,25.233l-.593.977.877,1.56,2.579,4.584,2.7,4.8,3.866,6.873-2.81,4.625L303.21,25.239h0L316.415,3.51,319.562,9.1h0l-1.328,2.185-3.282,5.4-1.638,2.694-3.177,5.227Z" transform="translate(-275.929 -3.194)" fill="#fffee9"/>
      <path id="Trazado_321" data-name="Trazado 321" d="M39.9,271.862H34.507l-3.835-6.817-2.93-5.209-3.582-6.368H2.822L0,248.45H26.731Z" transform="translate(0 -226.096)" fill="#fffee9"/>
      <path id="Trazado_322" data-name="Trazado 322" d="M132.382,8.115l-7.1,11.683H120.83L130.243,4.31Z" transform="translate(-109.959 -3.922)" fill="#fffee9"/>
      <path id="Trazado_323" data-name="Trazado 323" d="M99.217,322.935H89.4l-2.927-5.2,0-.006H76.31l3.23-5.316H89.7l.192.355,2.674,4.961,3.729.022.729,1.295Z" transform="translate(-69.444 -284.302)" fill="#fffee9"/>
    </g>
  </g>
</svg>
