<svg id="_02_skills_logo_minagame" data-name="02_skills_logo_minagame" xmlns="http://www.w3.org/2000/svg" xmlns:xlink="http://www.w3.org/1999/xlink" width="140.903" height="57.122" viewBox="0 0 140.903 57.122">
  <defs>
    <clipPath id="clip-path">
      <rect id="Rectángulo_26" data-name="Rectángulo 26" width="140.903" height="57.122" fill="#fffee9"/>
    </clipPath>
  </defs>
  <g id="Grupo_19" data-name="Grupo 19" clip-path="url(#clip-path)">
    <path id="Trazado_294" data-name="Trazado 294" d="M0,57.122H57.279V0H0ZM19.647,44.4l-4.205-4.35-4.317,4.291L6.706,39.928l8.924-8.877L19.9,35.3l4.285-4.265,4.4,4.427L19.647,44.4m26.436.161-4.16-4.493-4.314,4.276-4.394-4.37L42,31.208l8.726,8.7-4.639,4.646m-7.3-33.022H45.12V24.186H38.783Zm-23.255-.306,4.352,4.492,4.355-4.755c3.259,3.019,6.218,5.988,8.989,8.933L28.56,24.53l-4.075-4.3-4.556,4.713-4.362-4.78-4.438,4.416L6.641,20.113l8.888-8.882" fill="#fffee9"/>
    <path id="Trazado_295" data-name="Trazado 295" d="M310.222,37.366l-3.2-6.874a7.786,7.786,0,0,0-2.259.127V41.126a9.861,9.861,0,0,0,2.252-.04v-4.9l.258-.036L309.6,41.1a2.088,2.088,0,0,0,1.279-.059c.827-1.6,1.456-3.34,2.379-4.924l.263.078v4.934a9.422,9.422,0,0,0,2.137-.034V30.549h-2.252l-3.186,6.817" transform="translate(-240.989 -24.099)" fill="#fffee9"/>
    <path id="Trazado_296" data-name="Trazado 296" d="M447.726,122.2V112.112a10.2,10.2,0,0,0-2.268,0l-3.035,6.517-3.024-6.492a10.012,10.012,0,0,0-2.174-.055v10.167a5.7,5.7,0,0,0,2.217-.154v-4.514c.964,1.533,1.583,3.191,2.465,4.662a2.15,2.15,0,0,0,1.146-.092l2.143-4.478.265.074v4.447a7.794,7.794,0,0,0,2.264.01" transform="translate(-345.736 -88.601)" fill="#fffee9"/>
    <path id="Trazado_297" data-name="Trazado 297" d="M414.25,41.012V35.121l.218-.048,3.966,6.051h2.353V30.584a9.781,9.781,0,0,0-2.4-.012v6.106l-.215.056-4-6.148a10.343,10.343,0,0,0-2.37-.028V41.151a6.726,6.726,0,0,0,2.454-.139" transform="translate(-325.627 -24.121)" fill="#fffee9"/>
    <path id="Trazado_298" data-name="Trazado 298" d="M575.457,191.876a5.211,5.211,0,0,0-5.468,5.3c-.023,3.221,2.173,5.366,5.5,5.369a5.051,5.051,0,0,0,5.371-5.2,5.179,5.179,0,0,0-5.4-5.467m.086,8.586c-2.352-.577-3.371-1.734-3.185-3.574a3.186,3.186,0,0,1,3.1-2.816,3.069,3.069,0,0,1,3,2.451c.214,1.622-.148,3.36-2.913,3.939" transform="translate(-450.717 -151.725)" fill="#fffee9"/>
    <path id="Trazado_299" data-name="Trazado 299" d="M482.692,192.861a30.228,30.228,0,0,0-4.943-.149v10.2h3.786a7.006,7.006,0,0,0,.895-.008,6.024,6.024,0,0,0,2.168-.7,5.006,5.006,0,0,0,2.126-5.32,4.653,4.653,0,0,0-4.031-4.022m1.315,6.6c-.744,1.593-2.254,1.52-3.826,1.649V194.82c1.449-.276,2.745-.135,3.634,1.143a3.365,3.365,0,0,1,.193,3.5" transform="translate(-377.779 -152.366)" fill="#fffee9"/>
    <path id="Trazado_300" data-name="Trazado 300" d="M312.7,115.982a2.437,2.437,0,0,0,.071,1.5c.446.247,1-.011,1.44.22a1.1,1.1,0,0,1,.136.759,1.572,1.572,0,0,1-.1.866,3.234,3.234,0,0,1-4.432-1.646,3.148,3.148,0,0,1,1.988-4.192,4.816,4.816,0,0,1,3.367.215c.364.153.667.527,1.166.383V112.1c-2.585-1.577-6.277-1.2-7.912.767a5.831,5.831,0,0,0,.066,7.274,6.642,6.642,0,0,0,8.058.616v-4.873a33.347,33.347,0,0,0-3.847.1" transform="translate(-242.903 -87.87)" fill="#fffee9"/>
    <path id="Trazado_301" data-name="Trazado 301" d="M477.2,41.137l.945-2.194H482.1l.927,2.228a12.628,12.628,0,0,0,2.487-.061l-4.205-10.573a13.178,13.178,0,0,0-2.4.073l-4.216,10.51a10.278,10.278,0,0,0,2.507.017m2.908-7.833,1.278,3.471a10.219,10.219,0,0,1-2.614.118l1.336-3.589" transform="translate(-375.363 -24.133)" fill="#fffee9"/>
    <path id="Trazado_302" data-name="Trazado 302" d="M423.01,192.765a10.573,10.573,0,0,0-2.347.039c0,1.833,0,3.61,0,5.388a5.321,5.321,0,0,1-.082,1.267,2.087,2.087,0,0,1-2.265,1.646,2.024,2.024,0,0,1-1.968-1.82,12.347,12.347,0,0,1-.137-2.538,27.72,27.72,0,0,0-.028-3.947,8.049,8.049,0,0,0-2.249,0c.038,2.547-.271,5.092.2,7.611a3.247,3.247,0,0,0,1.981,2.363,5.951,5.951,0,0,0,4.243.181,3.34,3.34,0,0,0,2.482-2.8,49.456,49.456,0,0,0,.171-7.39" transform="translate(-327.264 -152.393)" fill="#fffee9"/>
    <path id="Trazado_303" data-name="Trazado 303" d="M375.974,112.075a13.347,13.347,0,0,0-2.32.068l-4.035,10.091h2.346c.517-.571.458-1.447,1.068-2.032a27.794,27.794,0,0,1,3.7.068c.481.661.477,1.456,1.015,2a8.67,8.67,0,0,0,2.253-.134l-4.03-10.063m-2.265,6.074a15.672,15.672,0,0,1,1.125-3.362l1.229,3.292a9.784,9.784,0,0,1-2.354.069" transform="translate(-292.275 -88.611)" fill="#fffee9"/>
    <path id="Trazado_304" data-name="Trazado 304" d="M508.325,122.347h7a4.283,4.283,0,0,0-.128-1.98h-4.6V118.4c1.174-.23,2.33.087,3.457-.2a3.3,3.3,0,0,0-.1-1.653c-1.126-.143-2.235.074-3.371-.137a5.637,5.637,0,0,1,.093-2.231h4.641a4.428,4.428,0,0,0-.08-1.942h-6.909Z" transform="translate(-401.957 -88.746)" fill="#fffee9"/>
    <path id="Trazado_305" data-name="Trazado 305" d="M312.758,196.7c-.65-.313-1.335-.553-1.985-.864s-1.007-.787-.57-1.518c1.3-1.036,2.6-.131,4.006.048a7.564,7.564,0,0,0-.1-1.942,6.855,6.855,0,0,0-4.4-.376,2.86,2.86,0,0,0-2.3,2.443,2.768,2.768,0,0,0,1.49,2.866,19,19,0,0,0,2.191,1.033c.609.289,1.27.609,1,1.623-1.5,1.08-3.082.271-4.648-.057a5.77,5.77,0,0,0-.031,1.943,8.206,8.206,0,0,0,4.951.5,2.79,2.79,0,0,0,2.366-3.367,3.077,3.077,0,0,0-1.977-2.33" transform="translate(-243.037 -151.695)" fill="#fffee9"/>
    <path id="Trazado_306" data-name="Trazado 306" d="M643.356,196.816c-.715-.374-1.465-.679-2.194-1.027a1.051,1.051,0,0,1-.634-1.531c1.319-.969,2.617-.214,3.93.04a4.459,4.459,0,0,0,.053-1.909,6.248,6.248,0,0,0-5.047-.155,2.415,2.415,0,0,0-1.64,2.1,2.74,2.74,0,0,0,1.25,2.855,12.45,12.45,0,0,0,1.478.744,3.79,3.79,0,0,1,1.888,1.229c.15.843-.3,1.217-1.04,1.275a6.392,6.392,0,0,1-2.524-.25c-.361-.118-.723-.5-1.221-.185a6.41,6.41,0,0,0,.071,1.844,8.556,8.556,0,0,0,4.8.517,2.9,2.9,0,0,0,.825-5.545" transform="translate(-504.201 -151.643)" fill="#fffee9"/>
    <path id="Trazado_307" data-name="Trazado 307" d="M357.279,194.949c.97.2,1.915-.1,2.939.224v8.014h2.36v-8.08c.977-.222,1.885.086,2.721-.207v-1.821h-8.1a4.306,4.306,0,0,0,.082,1.871" transform="translate(-282.405 -152.676)" fill="#fffee9"/>
    <path id="Trazado_308" data-name="Trazado 308" d="M381.724,30.546a10.292,10.292,0,0,0-2.2.042V41.151h2.2Z" transform="translate(-300.107 -24.124)" fill="#fffee9"/>
    <path id="Trazado_309" data-name="Trazado 309" d="M540.123,192.79v10.1a6.14,6.14,0,0,0,2.126-.043V192.763a10.032,10.032,0,0,0-2.126.027" transform="translate(-427.101 -152.393)" fill="#fffee9"/>
  </g>
</svg>
