<svg id="_02_skills_logo_scubalights" data-name="02_skills_logo_scubalights" xmlns="http://www.w3.org/2000/svg" xmlns:xlink="http://www.w3.org/1999/xlink" width="45.145" height="45.026" viewBox="0 0 45.145 45.026">
  <defs>
    <clipPath id="clip-path">
      <rect id="Rectángulo_27" data-name="Rectángulo 27" width="45.145" height="45.026" fill="#fffee9"/>
    </clipPath>
  </defs>
  <g id="Grupo_21" data-name="Grupo 21" clip-path="url(#clip-path)">
    <path id="Trazado_310" data-name="Trazado 310" d="M0,21.482c.072-.527.152-1.054.214-1.582A21.991,21.991,0,0,1,6.236,7.044,21.673,21.673,0,0,1,19.279.249,21.99,21.99,0,0,1,38.1,6.192a21.658,21.658,0,0,1,6.809,13.08A22.536,22.536,0,0,1,.845,28.346C.465,26.923.351,25.43.112,23.97.084,23.8.038,23.64,0,23.475V21.482M22.62,1.638A20.87,20.87,0,1,0,43.5,22.582,20.883,20.883,0,0,0,22.62,1.638" transform="translate(0 0)" fill="#fffee9"/>
    <path id="Trazado_311" data-name="Trazado 311" d="M44.45,61.741A18.081,18.081,0,1,1,62.043,79.826,18.061,18.061,0,0,1,44.45,61.741m23.5-15.464c-.072.81-.139,1.5-.195,2.194-.182,2.262-.344,4.526-.561,6.785a1.119,1.119,0,0,1-.546.734c-1.177.611-2.391,1.153-3.582,1.739a1.143,1.143,0,0,1-1.095-.009c-1.113-.546-2.224-1.1-3.363-1.589a1.229,1.229,0,0,1-.8-1.206c-.167-2.351-.36-4.7-.548-7.05-.04-.5-.1-.992-.149-1.489-3.484.453-9.8,6.745-9.927,9.854.168.029.338.072.51.087,2.718.223,5.436.452,8.156.652a1.017,1.017,0,0,1,.977.632c.54,1.173,1.1,2.335,1.671,3.495a1.159,1.159,0,0,1,.009,1.1c-.522,1.066-1.079,2.119-1.516,3.22a1.449,1.449,0,0,1-1.478.973c-2.355.156-4.706.361-7.059.551-.46.037-.919.094-1.383.142.736,3.835,6.518,9.625,10,10.052a2.278,2.278,0,0,0,.082-.347c.116-1.409.226-2.819.339-4.229.115-1.445.234-2.889.345-4.334a.918.918,0,0,1,.581-.848c1.207-.552,2.391-1.154,3.605-1.689a1.3,1.3,0,0,1,.937-.035q1.9.826,3.739,1.774a1.056,1.056,0,0,1,.492.717c.214,2.277.378,4.558.562,6.837.059.728.134,1.454.2,2.186,3.807-.742,9.638-6.618,10-10.062a1.653,1.653,0,0,0-.284-.074c-.958-.079-1.917-.153-2.875-.229-1.882-.15-3.764-.309-5.647-.445a1.1,1.1,0,0,1-1.037-.719c-.522-1.162-1.113-2.293-1.621-3.46a1.368,1.368,0,0,1-.028-.982c.55-1.263,1.149-2.507,1.778-3.733a1,1,0,0,1,.684-.457c2.263-.21,4.53-.374,6.795-.557.737-.06,1.473-.138,2.284-.215a16.755,16.755,0,0,0-10.054-9.963M71.141,63.64,75.19,61.3l-4.049-2.328Zm-18.082-.015v-4.64L49.037,61.3l4.022,2.32m11.808,6.989H60.225l2.322,4.013,2.319-4.013m.015-18.756-2.34-4.039-2.326,4.039Z" transform="translate(-39.931 -39.263)" fill="#fffee9"/>
  </g>
</svg>
