<svg id="_02_skills_logo_krakensea" data-name="02_skills_logo_krakensea" xmlns="http://www.w3.org/2000/svg" xmlns:xlink="http://www.w3.org/1999/xlink" width="65.141" height="40.745" viewBox="0 0 65.141 40.745">
  <defs>
    <clipPath id="clip-path">
      <rect id="Rectángulo_28" data-name="Rectángulo 28" width="65.141" height="40.745" fill="#fffee9"/>
    </clipPath>
  </defs>
  <g id="Grupo_23" data-name="Grupo 23" clip-path="url(#clip-path)">
    <path id="Trazado_312" data-name="Trazado 312" d="M55.233,8.243A18.719,18.719,0,0,1,72.4,19.866a.759.759,0,0,1,.033.09,2.052,2.052,0,0,0,2.13,1.679,13.769,13.769,0,0,1,6.988,2.68c2.577,1.946,3.807,4.452,3.189,7.7A4.814,4.814,0,0,1,81.8,35.561q-2.3,1.07-4.589,2.181a9.706,9.706,0,0,0-1.231.746c-2.033,1.4-2.435,3.045-1.289,5.228a3.669,3.669,0,0,0,4.353,2.177,2.313,2.313,0,0,0,1.972-1.616,2.164,2.164,0,0,0-.62-2.284.966.966,0,0,0-1.3-.19,7.148,7.148,0,0,1-.916.521c-.526.216-1.09.317-1.462-.254a1,1,0,0,1,.306-1.437,3.66,3.66,0,0,1,3.9-.777A4.318,4.318,0,0,1,83.172,43.8a4.428,4.428,0,0,1-4.4,4.2c-4.117.04-6.9-2.724-6.765-6.762a4.862,4.862,0,0,1,2.077-3.847c1.492-1.094,3.1-2.027,4.673-3.013a15.222,15.222,0,0,1,1.593-.884c2.448-1.156,2.038-3.671.809-5.165a8.427,8.427,0,0,0-4.7-2.594c-.526-.134-1.078-.161-1.614-.259-.6-.109-.909.076-.924.734-.023.992-.086,1.984-.156,2.974-.035.5.162.62.626.537a4.256,4.256,0,0,0,3.122-2.162c.312-.559.684-.678,1.168-.437a8.479,8.479,0,0,1,1.526.984c.5.4.331.909.074,1.393a8.343,8.343,0,0,1-4.919,3.9c-.629.221-1.323.267-1.937.516a2.02,2.02,0,0,0-1.05.847,18.516,18.516,0,0,1-10.155,9.975A17.769,17.769,0,0,1,52.73,45.96a18.2,18.2,0,0,1-11.705-6.515,32.352,32.352,0,0,1-2.876-4.627,1.635,1.635,0,0,0-1.219-.943,11.181,11.181,0,0,1-4.332-1.72,7.405,7.405,0,0,1-2.417-2.688,1.026,1.026,0,0,1,.338-1.573,6.985,6.985,0,0,1,.8-.524c.985-.567,1.087-.512,1.735.4a4.46,4.46,0,0,0,2.971,1.942c.523.086.7-.064.651-.6-.081-.957-.118-1.918-.144-2.879-.015-.55-.194-.859-.807-.768a12.2,12.2,0,0,0-4.892,1.559,5.119,5.119,0,0,0-2.449,3.292,2.679,2.679,0,0,0,1.1,2.767c1.671,1.008,3.374,1.961,5.054,2.953a13.93,13.93,0,0,1,1.347.919c2.951,2.248,3.228,4.848,1.646,7.966a5.94,5.94,0,0,1-8.491,2.165,4.126,4.126,0,0,1-1.693-4.042,4.056,4.056,0,0,1,2.641-3.372c1.169-.512,3.3.554,3.784,1.313a.919.919,0,0,1-.82,1.467,2.719,2.719,0,0,1-1.217-.474c-1.137-.744-1.852-.161-2.245.976a2.261,2.261,0,0,0,2.019,2.974c2.331.273,3.667-.733,4.571-2.9a3.462,3.462,0,0,0-1.585-4.513c-1.607-.917-3.293-1.7-4.95-2.524-1.406-.7-2.847-1.339-3.474-2.973a6.729,6.729,0,0,1,.364-5.916,10.364,10.364,0,0,1,6.2-4.7,29.019,29.019,0,0,1,4.113-.868,1.092,1.092,0,0,0,.955-.787A18.415,18.415,0,0,1,48.857,9.438a17.706,17.706,0,0,1,6.375-1.2M39.48,27.33a15.82,15.82,0,0,0,6.334,12.678A21.71,21.71,0,0,0,49.307,42c.7.344.944.106.885-.647-.01-.128-.028-.255-.05-.382q-.646-3.742-1.294-7.484c-.486-2.843-.957-5.689-1.45-8.531q-.764-4.4-1.567-8.8a5.464,5.464,0,0,0-.394-1,5.173,5.173,0,0,0-.942.57A15.862,15.862,0,0,0,39.48,27.33m15.6,15.809a15.7,15.7,0,0,0,11.339-4.87c.661-.685.654-.849,0-1.5q-4.356-4.284-8.728-8.551c-.588-.574-.8-.563-1.3.085-1.025,1.313-1.98,2.685-3.058,3.953a2.816,2.816,0,0,0-.585,2.578c.44,2.329.833,4.667,1.229,7,.188,1.112.4,1.311,1.108,1.3m.167-31.61a14.128,14.128,0,0,0-5.435.886.9.9,0,0,0-.693,1.159c.18,1.008.338,2.02.51,3.03q.731,4.307,1.466,8.613c.124.726.217,1.459.388,2.174.142.6.424.642.849.193a5.412,5.412,0,0,0,.364-.446q4.749-6.225,9.5-12.451c.787-1.032.754-1.209-.413-1.736a14.125,14.125,0,0,0-6.532-1.423M70.877,27.335c-.207-1.356-.33-2.732-.64-4.064a15.006,15.006,0,0,0-3.722-6.841c-.376-.407-.714-.476-1.1.029q-2.839,3.757-5.708,7.492a.774.774,0,0,0,.086,1.177c2.883,2.825,5.75,5.666,8.638,8.487.617.6.788.565,1.141-.268a16.64,16.64,0,0,0,1.3-6.011" transform="translate(-22.696 -7.32)" fill="#fffee9"/>
    <path id="Trazado_313" data-name="Trazado 313" d="M.011,5.752C-.09,2,3.114-.615,7.083.125A5.909,5.909,0,0,1,10.31,2.1c1.387,1.529,2.521,3.209,2.421,5.365a13.86,13.86,0,0,1-2.163,6.482,1.559,1.559,0,0,1-.676.514c-.633.3-1.282.564-1.935.814a2.487,2.487,0,0,1-.637.069c-.016-.211-.109-.456-.034-.626a23.149,23.149,0,0,1,1.162-2.4,13.657,13.657,0,0,0,1.992-4.935C10.809,4.92,7.848,1.6,5.02,2.136A3.613,3.613,0,0,0,2.538,7.548,2.244,2.244,0,0,0,5.3,8.116c.352-.237.337-.523,0-.771-.1-.073-.255-.062-.358-.13A1.049,1.049,0,0,1,5.81,5.3a2.393,2.393,0,0,1,1.94,2.41,2.807,2.807,0,0,1-2.093,2.561A4.239,4.239,0,0,1,.011,5.752" transform="translate(0 0.001)" fill="#fffee9"/>
    <path id="Trazado_314" data-name="Trazado 314" d="M474.695.145a5.453,5.453,0,0,1,5.759,4.243,5.491,5.491,0,0,1-.813,4.676,4.3,4.3,0,0,1-5.781.751,2.472,2.472,0,0,1-.943-2.733c.246-1.041,1.1-1.436,2.012-1.712a.957.957,0,0,1,1.247.618,1.082,1.082,0,0,1-.51,1.32,6.461,6.461,0,0,0-.61.6,3,3,0,0,0,.774.433c1.616.342,2.549-.477,2.691-2.119a3.555,3.555,0,0,0-4.093-3.981,3.968,3.968,0,0,0-1.676.625c-2.737,1.865-3.315,4.037-1.813,7.346.606,1.334,1.434,2.566,2.095,3.877a4.835,4.835,0,0,1,.248,1.344c-.378-.108-.761-.2-1.133-.327a8.014,8.014,0,0,1-1.334-.519,2.569,2.569,0,0,1-.912-.78,12.826,12.826,0,0,1-1.994-5.549c-.347-3.177,1.342-5.422,3.756-7.2a4.1,4.1,0,0,1,3.032-.915" transform="translate(-415.506 -0.095)" fill="#fffee9"/>
  </g>
</svg>
