<svg xmlns="http://www.w3.org/2000/svg" xmlns:xlink="http://www.w3.org/1999/xlink" width="346.91" height="236.284" viewBox="0 0 346.91 236.284">
  <defs>
    <clipPath id="clip-path">
      <path id="Trazado_1153" data-name="Trazado 1153" d="M270.548,195.642l-.009.006.009-.006m.044-.024h0m-.016.008c-.156.082-.564.265-1.005.444-.357.144-.841.312-1.2.447-.428.158-1.011.332-1.449.461a48.631,48.631,0,0,1-4.9,1.162,71.625,71.625,0,0,1-24.713.093,39.131,39.131,0,0,1-8.644-2.456c-13.976-7.964-32.258-5.29-50.515,5.47,39.026,22.237,101.871,22.492,141.684.293q.653-.365,1.294-.734c-11.034-6.408-22.059-9.887-32.129-9.886a36.444,36.444,0,0,0-18.423,4.707" transform="translate(-178.15 -190.919)" fill="none" stroke="#fffee9" stroke-width="1"/>
    </clipPath>
    <clipPath id="clip-path-2">
      <path id="Trazado_1163" data-name="Trazado 1163" d="M304.531,200.476c-2.4.711-4.746,1.133-4.767,1.138-1.83.319-3.41.6-5.918.827-.817.076-3.3.3-6.483.318-10.739.041-18.307-2.17-21.086-3.483,11.429,6.512,29.835,6.587,41.494.086q.192-.107.379-.215l.053-.03a23.4,23.4,0,0,1-3.672,1.36" transform="translate(-266.276 -199.116)" fill="none" stroke="#fffee9" stroke-width="1"/>
    </clipPath>
    <clipPath id="clip-path-3">
      <path id="Trazado_1185" data-name="Trazado 1185" d="M156.609,49.43c-40.494,22.58-41.826,59.839-2.976,83.221q.98.59,1.981,1.161c18.257-10.76,36.539-13.434,50.515-5.47q-.293-.168-.581-.339c-11.255-6.774-10.994-17.524.49-24.156.126-.073.253-.145.382-.217,11.661-6.5,30.069-6.427,41.5.087.195.111.387.224.578.338,14.271-24.157,33.014-42.707,51.779-53.171-19.871-11.959-46.4-17.972-73-17.971-25.408,0-50.881,5.487-70.663,16.518" transform="translate(-125.345 -32.912)" fill="none" stroke="#fffee9" stroke-width="1"/>
    </clipPath>
    <clipPath id="clip-path-4">
      <path id="Trazado_1195" data-name="Trazado 1195" d="M339.819,117.435c11.256,6.774,10.995,17.525-.493,24.158,13.943-8.05,32.255-5.49,50.589,5.158,39.224-22.645,40.114-59.356,1.682-82.487-18.765,10.463-37.507,29.014-51.779,53.171" transform="translate(-339.326 -64.264)" fill="none" stroke="#fffee9" stroke-width="1"/>
    </clipPath>
    <clipPath id="clip-path-5">
      <path id="Trazado_1198" data-name="Trazado 1198" d="M340.257,361.076q-.285-.172-.577-.338l-.077-.045.655.383m-.655-.383-.028-.017.028.017" transform="translate(-339.574 -360.676)" fill="none" stroke="#fffee9" stroke-width="1"/>
    </clipPath>
    <clipPath id="clip-path-6">
      <path id="Trazado_1204" data-name="Trazado 1204" d="M324.026,273.54l.05.029-.077-.045.027.015m.628.367-.628-.367-.029-.017q.326.2.657.384m-.682-.4.027.016-.027-.016m.025.015-.025-.015h0c-13.907-8.343-20.9-25.338-20.957-46.2-.061-21.2,7.037-46.386,21.307-70.54-.191-.114-.383-.227-.578-.338C296,205.145,296.125,257.536,324,273.524" transform="translate(-303.014 -156.433)" fill="none" stroke="#fffee9" stroke-width="1"/>
    </clipPath>
    <clipPath id="clip-path-7">
      <path id="Trazado_1218" data-name="Trazado 1218" d="M266.45,270.032l.382-.217c11.661-6.5,30.068-6.426,41.5.088-13.947-7.949-20.973-24.989-21.062-46.125.031,21.137-6.9,38.219-20.818,46.254m20.818-46.254c0-.088,0-.177,0-.265,0,.088,0,.177,0,.265m-20.768-71.1c-.129.072-.256.144-.382.217,14.006,24.243,21.06,49.446,21.149,70.617-.032-21.171,6.874-46.417,20.73-70.746-5.75-3.278-13.266-4.925-20.8-4.925-7.441,0-14.9,1.607-20.7,4.838" transform="translate(-266.118 -147.841)" fill="none" stroke="#fffee9" stroke-width="1"/>
    </clipPath>
    <clipPath id="clip-path-8">
      <path id="Trazado_1222" data-name="Trazado 1222" d="M332.136,303.062c-67.964,37.9-175.246,37.461-241.866-.5l101.221,57.676c11.429,6.513,29.835,6.587,41.5.086.127-.072.254-.143.379-.216l100.98-58.3q-1.093.631-2.209,1.253" transform="translate(-90.27 -301.809)" fill="none" stroke="#fffee9" stroke-width="1"/>
    </clipPath>
    <clipPath id="clip-path-9">
      <path id="Trazado_1227" data-name="Trazado 1227" d="M53.5,30.834c-69.127,38.545-71.4,102.15-5.081,142.065q1.672,1.008,3.383,1.982l101.221,57.676q-.293-.167-.58-.34c-11.378-6.848-10.988-17.76.872-24.373s30.7-6.422,42.075.426L298.745,33.314C264.824,12.9,219.536,2.635,174.125,2.636,130.752,2.637,87.266,12,53.5,30.834" transform="translate(-0.125 -2.636)" fill="none" stroke="#fffee9" stroke-width="1"/>
    </clipPath>
    <clipPath id="clip-path-10">
      <path id="Trazado_1230" data-name="Trazado 1230" d="M340.4,231.111c11.256,6.774,10.995,17.525-.492,24.158l100.98-58.3c66.959-38.658,68.479-101.327,2.871-140.812Z" transform="translate(-339.906 -56.156)" fill="none" stroke="#fffee9" stroke-width="1"/>
    </clipPath>
    <clipPath id="clip-path-11">
      <path id="Trazado_1236" data-name="Trazado 1236" d="M89.35,31.025c.444-.252.939-.537,1.451-.828q-.731.412-1.451.828m244.108-.754q-2.488-1.418-5.051-2.766c1.76.96,3.534,1.954,5.051,2.766M210.888.126c-3.7.011-8.649.067-12.344.33s-8.595.53-12.269.874c-3.642.342-8.478.986-12.111,1.412-3.618.424-8.4,1.323-11.982,1.952-3.646.64-8.471,1.7-12.073,2.557-3.943.936-9.192,2.249-13.055,3.474-6.405,2.031-14.892,4.927-21.15,7.376-3.959,1.549-9.135,3.876-12.957,5.737-2.848,1.386-6.59,3.345-9.39,4.825-.828.438-1.818,1-2.755,1.534l.775-.434C157.853-7.194,261.521-7.7,328.408,27.5c-1.459-.8-2.907-1.565-4.189-2.189-4.517-2.195-10.576-5.06-15.234-6.938-6.231-2.513-14.714-5.422-21.119-7.452-4.364-1.383-10.29-2.879-14.748-3.918-3.908-.912-9.146-2.026-13.1-2.692-3.587-.6-8.366-1.455-11.981-1.855-3.774-.417-8.795-1.119-12.584-1.357-7.209-.453-16.785-.978-24.1-.978h-.457" transform="translate(-89.35 -0.125)" fill="none" stroke="#fffee9" stroke-width="1"/>
    </clipPath>
    <clipPath id="clip-path-12">
      <path id="Trazado_1258" data-name="Trazado 1258" d="M247.206,36.683l-.375.208.375-.208m31.34-9.351c-9.884.16-20.6,3.429-31.322,9.341,10.72-5.913,21.437-9.181,31.322-9.341m1.549,0q-.393-.007-.787-.007.394,0,.787.007M100.19,118.658c-38.85-23.382-37.518-60.641,2.976-83.221s104.815-21.929,143.665,1.453,37.518,60.641-2.976,83.221C224.07,131.143,198.6,136.63,173.192,136.63c-26.6,0-53.133-6.014-73-17.971M148.131,1.337c-3.8.316-8.845.95-12.618,1.486-3.606.512-8.4,1.291-11.978,1.978-3.971.763-9.249,1.88-13.174,2.851a239.617,239.617,0,0,0-25.49,7.734c-3.657,1.34-8.514,3.2-12.057,4.813-5.746,2.624-13.338,6.289-18.883,9.316-.805.44-2.25.688-2.66,1.509-66.943,38.659-68.457,101.32-2.855,140.8,66.32,39.916,176.122,41.027,245.249,2.481s71.4-102.15,5.08-142.065a36.078,36.078,0,0,0-4.88-2.318,36.081,36.081,0,0,1,4.881,2.318q-1.665-1-3.366-1.972c-4.43-2.433-10.4-5.561-14.967-7.733-3.762-1.79-8.875-3.98-12.767-5.465-6.271-2.391-14.788-5.165-21.207-7.123-3.843-1.172-9.06-2.417-12.98-3.3-4.5-1.019-12.94-2.814-24.035-4.254-3.607-.468-8.433-.942-12.053-1.288C193.681.751,188.744.569,185.046.34c-3.681-.227-8.6-.2-12.293-.214H172.2c-9.531,0-18.6.755-24.065,1.211" transform="translate(-0.125 -0.126)" fill="none" stroke="#fffee9" stroke-width="1"/>
    </clipPath>
  </defs>
  <g id="_07_reel_ilustracion" data-name="07_reel_ilustracion" transform="translate(-0.125 -0.125)">
    <g id="Grupo_149" data-name="Grupo 149" transform="translate(102.172 109.491)">
      <g id="Grupo_148" data-name="Grupo 148" clip-path="url(#clip-path)">
        <path id="Trazado_1140" data-name="Trazado 1140" d="M174.694,199.789c18.765-10.463,37.552-12.84,51.916-4.649,11.378,6.848,30.215,7.038,42.075.426,13.69-7.907,31.671-5.158,49.674,5.677C277.865,223.821,213.544,223.171,174.694,199.789Z" transform="translate(-176.675 -190.622)" fill="none" stroke="#fffee9" stroke-miterlimit="10" stroke-width="0.25"/>
        <path id="Trazado_1141" data-name="Trazado 1141" d="M207.156,193.52c28.994,17.45,77,17.936,107.22,1.085" transform="translate(-190.529 -192.029)" fill="none" stroke="#fffee9" stroke-miterlimit="10" stroke-width="0.25"/>
        <path id="Trazado_1142" data-name="Trazado 1142" d="M237.92,190.5c19.662,11.834,52.216,12.163,72.711.735" transform="translate(-203.659 -190.738)" fill="none" stroke="#fffee9" stroke-miterlimit="10" stroke-width="0.25"/>
        <path id="Trazado_1143" data-name="Trazado 1143" d="M254.1,221.385c7.116-14.5,14.256-20.92,19.731-15.812" transform="translate(-210.563 -196.431)" fill="none" stroke="#fffee9" stroke-miterlimit="10" stroke-width="0.25"/>
        <path id="Trazado_1144" data-name="Trazado 1144" d="M331.565,222.075c-6.074-14.637-12.126-21.187-16.714-16.181" transform="translate(-236.492 -196.6)" fill="none" stroke="#fffee9" stroke-miterlimit="10" stroke-width="0.25"/>
        <path id="Trazado_1145" data-name="Trazado 1145" d="M388.34,147.485c-18-10.835-35.984-13.583-49.674-5.677,11.859-6.613,12.25-17.525.871-24.373,14.272-24.158,33.014-42.708,51.779-53.171C430.166,87.647,428.833,124.906,388.34,147.485Z" transform="translate(-246.656 -136.865)" fill="none" stroke="#fffee9" stroke-miterlimit="10" stroke-width="0.25"/>
        <path id="Trazado_1146" data-name="Trazado 1146" d="M394.206,149.17c30.22-16.851,31.216-44.659,2.221-62.109" transform="translate(-270.359 -146.594)" fill="none" stroke="#fffee9" stroke-miterlimit="10" stroke-width="0.25"/>
        <path id="Trazado_1147" data-name="Trazado 1147" d="M364.768,160.419c20.495-11.428,21.169-30.285,1.506-42.119" transform="translate(-257.796 -159.926)" fill="none" stroke="#fffee9" stroke-miterlimit="10" stroke-width="0.25"/>
        <path id="Trazado_1148" data-name="Trazado 1148" d="M265.263,198.8c28.723,16.378,28.872,68.824.332,117.137,11.378,6.848,30.216,7.039,42.075.425-27.561-48.88-27.709-101.325-.332-117.136C295.479,205.839,276.641,205.648,265.263,198.8Z" transform="translate(-215.329 -194.282)" fill="none" stroke="#fffee9" stroke-miterlimit="10" stroke-width="0.25"/>
        <path id="Trazado_1149" data-name="Trazado 1149" d="M288.518,206.866c10.95,10.214,11.1,62.659.332,117.137" transform="translate(-225.253 -197.725)" fill="none" stroke="#fffee9" stroke-miterlimit="10" stroke-width="0.25"/>
        <path id="Trazado_1150" data-name="Trazado 1150" d="M309.8,207.132c-9.176,10.011-9.028,62.456.332,117.137" transform="translate(-231.439 -197.838)" fill="none" stroke="#fffee9" stroke-miterlimit="10" stroke-width="0.25"/>
        <path id="Trazado_1151" data-name="Trazado 1151" d="M323.449,181.4c-27.377,15.811-27.228,68.256.332,117.137,11.86-6.613,12.25-17.525.872-24.373-28.723-16.382-28.872-68.828-.332-117.137C335.7,163.871,335.309,174.784,323.449,181.4Z" transform="translate(-231.44 -176.453)" fill="none" stroke="#fffee9" stroke-miterlimit="10" stroke-width="0.25"/>
        <path id="Trazado_1152" data-name="Trazado 1152" d="M228.666,195.776a39.193,39.193,0,0,0,8.644,2.456,71.661,71.661,0,0,0,24.713-.093,48.7,48.7,0,0,0,4.9-1.162c.437-.129,1.021-.3,1.448-.462.361-.134.845-.3,1.2-.446.457-.185.878-.375,1.02-.452l-.052.03c13.943-8.05,32.254-5.489,50.589,5.158q-.641.369-1.294.734c-39.813,22.2-102.658,21.944-141.683-.292C196.408,190.486,214.689,187.812,228.666,195.776Z" transform="translate(-178.15 -190.919)" fill="none" stroke="#fffee9" stroke-miterlimit="10" stroke-width="0.25"/>
      </g>
    </g>
    <g id="Grupo_151" data-name="Grupo 151" transform="translate(152.687 114.19)">
      <g id="Grupo_150" data-name="Grupo 150" clip-path="url(#clip-path-2)">
        <path id="Trazado_1154" data-name="Trazado 1154" d="M174.694,199.789c18.765-10.463,37.552-12.84,51.916-4.649,11.378,6.848,30.215,7.038,42.075.426,13.69-7.907,31.671-5.158,49.674,5.677C277.865,223.821,213.544,223.171,174.694,199.789Z" transform="translate(-227.19 -195.32)" fill="none" stroke="#fffee9" stroke-miterlimit="10" stroke-width="0.25"/>
        <path id="Trazado_1155" data-name="Trazado 1155" d="M254.1,221.385c7.116-14.5,14.256-20.92,19.731-15.812" transform="translate(-261.078 -201.13)" fill="none" stroke="#fffee9" stroke-miterlimit="10" stroke-width="0.25"/>
        <path id="Trazado_1156" data-name="Trazado 1156" d="M331.565,222.075c-6.074-14.637-12.126-21.187-16.714-16.181" transform="translate(-287.007 -201.299)" fill="none" stroke="#fffee9" stroke-miterlimit="10" stroke-width="0.25"/>
        <path id="Trazado_1157" data-name="Trazado 1157" d="M388.34,147.485c-18-10.835-35.984-13.583-49.674-5.677,11.859-6.613,12.25-17.525.871-24.373,14.272-24.158,33.014-42.708,51.779-53.171C430.166,87.647,428.833,124.906,388.34,147.485Z" transform="translate(-297.171 -141.563)" fill="none" stroke="#fffee9" stroke-miterlimit="10" stroke-width="0.25"/>
        <path id="Trazado_1158" data-name="Trazado 1158" d="M265.263,198.8c28.723,16.378,28.872,68.824.332,117.137,11.378,6.848,30.216,7.039,42.075.425-27.561-48.88-27.709-101.325-.332-117.136C295.479,205.839,276.641,205.648,265.263,198.8Z" transform="translate(-265.844 -198.981)" fill="none" stroke="#fffee9" stroke-miterlimit="10" stroke-width="0.25"/>
        <path id="Trazado_1159" data-name="Trazado 1159" d="M288.518,206.866c10.95,10.214,11.1,62.659.332,117.137" transform="translate(-275.769 -202.424)" fill="none" stroke="#fffee9" stroke-miterlimit="10" stroke-width="0.25"/>
        <path id="Trazado_1160" data-name="Trazado 1160" d="M309.8,207.132c-9.176,10.011-9.028,62.456.332,117.137" transform="translate(-281.955 -202.537)" fill="none" stroke="#fffee9" stroke-miterlimit="10" stroke-width="0.25"/>
        <path id="Trazado_1161" data-name="Trazado 1161" d="M323.449,181.4c-27.377,15.811-27.228,68.256.332,117.137,11.86-6.613,12.25-17.525.872-24.373-28.723-16.382-28.872-68.828-.332-117.137C335.7,163.871,335.309,174.784,323.449,181.4Z" transform="translate(-281.955 -181.151)" fill="none" stroke="#fffee9" stroke-miterlimit="10" stroke-width="0.25"/>
        <path id="Trazado_1162" data-name="Trazado 1162" d="M308.2,199.115l-.053.03q-.187.108-.379.215c-11.66,6.5-30.065,6.427-41.494-.085,2.779,1.313,10.347,3.523,21.086,3.482,3.179-.012,5.666-.241,6.482-.317,2.508-.232,4.088-.507,5.918-.827.022,0,2.365-.426,4.768-1.138A23.378,23.378,0,0,0,308.2,199.115Z" transform="translate(-266.276 -199.116)" fill="none" stroke="#fffee9" stroke-miterlimit="10" stroke-width="0.25"/>
      </g>
    </g>
    <g id="Grupo_153" data-name="Grupo 153" transform="translate(71.903 18.919)">
      <g id="Grupo_152" data-name="Grupo 152" clip-path="url(#clip-path-3)">
        <path id="Trazado_1164" data-name="Trazado 1164" d="M323.551,50.884c-18.765,10.463-37.507,29.014-51.779,53.171-11.378-6.848-30.215-7.039-42.075-.425-13.782-24.441-31.808-43.364-49.811-54.2C220.38,26.851,284.7,27.5,323.551,50.884Z" transform="translate(-148.622 -32.912)" fill="none" stroke="#fffee9" stroke-miterlimit="10" stroke-width="0.25"/>
        <path id="Trazado_1165" data-name="Trazado 1165" d="M318.251,77.074c-28.994-17.45-77-17.936-107.22-1.085" transform="translate(-161.914 -46.036)" fill="none" stroke="#fffee9" stroke-miterlimit="10" stroke-width="0.25"/>
        <path id="Trazado_1166" data-name="Trazado 1166" d="M313.26,111.529c-19.662-11.834-52.216-12.163-72.711-.735" transform="translate(-174.512 -62.583)" fill="none" stroke="#fffee9" stroke-miterlimit="10" stroke-width="0.25"/>
        <path id="Trazado_1167" data-name="Trazado 1167" d="M336.526,36.724c-7.116,14.5-14.21,37.094-19.594,64.334" transform="translate(-207.111 -34.539)" fill="none" stroke="#fffee9" stroke-miterlimit="10" stroke-width="0.25"/>
        <path id="Trazado_1168" data-name="Trazado 1168" d="M261.2,35.814c6.074,14.637,12.171,37.361,16.852,64.7" transform="translate(-183.326 -34.151)" fill="none" stroke="#fffee9" stroke-miterlimit="10" stroke-width="0.25"/>
        <path id="Trazado_1169" data-name="Trazado 1169" d="M156.609,61.729c18,10.835,36.029,29.757,49.811,54.2-11.859,6.613-12.25,17.525-.871,24.373-14.364-8.19-33.151-5.814-51.916,4.649C114.782,121.568,116.115,84.309,156.609,61.729Z" transform="translate(-125.345 -45.211)" fill="none" stroke="#fffee9" stroke-miterlimit="10" stroke-width="0.25"/>
        <path id="Trazado_1170" data-name="Trazado 1170" d="M193.659,85.168c-30.221,16.851-31.216,44.659-2.221,62.109" transform="translate(-144.542 -55.214)" fill="none" stroke="#fffee9" stroke-miterlimit="10" stroke-width="0.25"/>
        <path id="Trazado_1171" data-name="Trazado 1171" d="M228.767,117.017c-20.495,11.428-21.169,30.285-1.506,42.119" transform="translate(-162.731 -68.807)" fill="none" stroke="#fffee9" stroke-miterlimit="10" stroke-width="0.25"/>
        <path id="Trazado_1172" data-name="Trazado 1172" d="M132.081,107.811a127.343,127.343,0,0,1,69.188,35.52" transform="translate(-128.22 -64.878)" fill="none" stroke="#fffee9" stroke-miterlimit="10" stroke-width="0.25"/>
        <path id="Trazado_1173" data-name="Trazado 1173" d="M130.219,159.025c25.289-3.566,50.6.955,69.943,14.408" transform="translate(-127.425 -86.235)" fill="none" stroke="#fffee9" stroke-miterlimit="10" stroke-width="0.25"/>
        <path id="Trazado_1174" data-name="Trazado 1174" d="M174.694,199.789c18.765-10.463,37.552-12.84,51.916-4.649,11.378,6.848,30.215,7.038,42.075.426,13.69-7.907,31.671-5.158,49.674,5.677C277.865,223.821,213.544,223.171,174.694,199.789Z" transform="translate(-146.406 -100.05)" fill="none" stroke="#fffee9" stroke-miterlimit="10" stroke-width="0.25"/>
        <path id="Trazado_1175" data-name="Trazado 1175" d="M207.156,193.52c28.994,17.45,77,17.936,107.22,1.085" transform="translate(-160.26 -101.457)" fill="none" stroke="#fffee9" stroke-miterlimit="10" stroke-width="0.25"/>
        <path id="Trazado_1176" data-name="Trazado 1176" d="M237.92,190.5c19.662,11.834,52.216,12.163,72.711.735" transform="translate(-173.39 -100.166)" fill="none" stroke="#fffee9" stroke-miterlimit="10" stroke-width="0.25"/>
        <path id="Trazado_1177" data-name="Trazado 1177" d="M308.859,153.1c-28.539,48.308-28.391,100.753.332,117.137-11.378-6.848-30.215-7.039-42.075-.426,27.377-15.815,27.229-68.26-.332-117.137C278.643,146.066,297.481,146.257,308.859,153.1Z" transform="translate(-185.709 -81.962)" fill="none" stroke="#fffee9" stroke-miterlimit="10" stroke-width="0.25"/>
        <path id="Trazado_1178" data-name="Trazado 1178" d="M310.991,148.957c-10.766,54.473-10.618,106.918.332,117.137" transform="translate(-201.17 -82.438)" fill="none" stroke="#fffee9" stroke-miterlimit="10" stroke-width="0.25"/>
        <path id="Trazado_1179" data-name="Trazado 1179" d="M290.6,148.691c9.359,54.676,9.508,107.121.331,117.137" transform="translate(-195.873 -82.325)" fill="none" stroke="#fffee9" stroke-miterlimit="10" stroke-width="0.25"/>
        <path id="Trazado_1180" data-name="Trazado 1180" d="M259.967,156.281c27.561,48.876,27.709,101.321.332,117.137-11.859,6.613-12.25,17.525-.871,24.373,28.539-48.312,28.391-100.757-.332-117.136C247.717,173.806,248.108,162.894,259.967,156.281Z" transform="translate(-178.892 -85.564)" fill="none" stroke="#fffee9" stroke-miterlimit="10" stroke-width="0.25"/>
        <path id="Trazado_1181" data-name="Trazado 1181" d="M252.784,169.777c38.261,38.561,38.409,91.006.332,117.137" transform="translate(-179.734 -91.324)" fill="none" stroke="#fffee9" stroke-miterlimit="10" stroke-width="0.25"/>
        <path id="Trazado_1182" data-name="Trazado 1182" d="M252.238,185.031c38.678,26.9,38.827,79.348.332,117.137" transform="translate(-179.501 -97.834)" fill="none" stroke="#fffee9" stroke-miterlimit="10" stroke-width="0.25"/>
        <path id="Trazado_1183" data-name="Trazado 1183" d="M265.263,198.8c28.723,16.378,28.872,68.824.332,117.137,11.378,6.848,30.216,7.039,42.075.425-27.561-48.88-27.709-101.325-.332-117.136C295.479,205.839,276.641,205.648,265.263,198.8Z" transform="translate(-185.06 -103.71)" fill="none" stroke="#fffee9" stroke-miterlimit="10" stroke-width="0.25"/>
        <path id="Trazado_1184" data-name="Trazado 1184" d="M206.129,128.342c-13.976-7.964-32.257-5.29-50.515,5.47q-1-.571-1.982-1.161c-38.85-23.382-37.518-60.641,2.976-83.221S261.423,27.5,300.273,50.884c-18.765,10.463-37.507,29.014-51.779,53.171q-.285-.172-.578-.338c-11.429-6.514-29.836-6.59-41.5-.087q-.193.107-.382.217c-11.485,6.632-11.745,17.382-.49,24.156Q205.835,128.175,206.129,128.342Z" transform="translate(-125.345 -32.912)" fill="none" stroke="#fffee9" stroke-miterlimit="10" stroke-width="0.25"/>
      </g>
    </g>
    <g id="Grupo_155" data-name="Grupo 155" transform="translate(194.56 36.89)">
      <g id="Grupo_154" data-name="Grupo 154" clip-path="url(#clip-path-4)">
        <path id="Trazado_1186" data-name="Trazado 1186" d="M388.34,147.485c-18-10.835-35.984-13.583-49.674-5.677,11.859-6.613,12.25-17.525.871-24.373,14.272-24.158,33.014-42.708,51.779-53.171C430.166,87.647,428.833,124.906,388.34,147.485Z" transform="translate(-339.044 -64.264)" fill="none" stroke="#fffee9" stroke-miterlimit="10" stroke-width="0.25"/>
        <path id="Trazado_1187" data-name="Trazado 1187" d="M394.206,149.17c30.22-16.851,31.216-44.659,2.221-62.109" transform="translate(-362.748 -73.993)" fill="none" stroke="#fffee9" stroke-miterlimit="10" stroke-width="0.25"/>
        <path id="Trazado_1188" data-name="Trazado 1188" d="M364.768,160.419c20.495-11.428,21.169-30.285,1.506-42.119" transform="translate(-350.184 -87.326)" fill="none" stroke="#fffee9" stroke-miterlimit="10" stroke-width="0.25"/>
        <path id="Trazado_1189" data-name="Trazado 1189" d="M421.717,162.229c-25.016-4.075-50.01-.063-69.051,13" transform="translate(-345.019 -105.423)" fill="none" stroke="#fffee9" stroke-miterlimit="10" stroke-width="0.25"/>
        <path id="Trazado_1190" data-name="Trazado 1190" d="M423.018,111.28a125.576,125.576,0,0,0-69.806,34.114" transform="translate(-345.252 -84.33)" fill="none" stroke="#fffee9" stroke-miterlimit="10" stroke-width="0.25"/>
        <path id="Trazado_1191" data-name="Trazado 1191" d="M323.449,181.4c-27.377,15.811-27.228,68.256.332,117.137,11.86-6.613,12.25-17.525.872-24.373-28.723-16.382-28.872-68.828-.332-117.137C335.7,163.871,335.309,174.784,323.449,181.4Z" transform="translate(-323.828 -103.852)" fill="none" stroke="#fffee9" stroke-miterlimit="10" stroke-width="0.25"/>
        <path id="Trazado_1192" data-name="Trazado 1192" d="M331.475,186.047c-38.078,26.126-37.929,78.571.332,117.137" transform="translate(-323.829 -116.239)" fill="none" stroke="#fffee9" stroke-miterlimit="10" stroke-width="0.25"/>
        <path id="Trazado_1193" data-name="Trazado 1193" d="M331.787,170.793c-38.495,37.785-38.346,90.23.332,117.137" transform="translate(-323.828 -109.729)" fill="none" stroke="#fffee9" stroke-miterlimit="10" stroke-width="0.25"/>
        <path id="Trazado_1194" data-name="Trazado 1194" d="M389.916,146.751c-18.334-10.647-36.646-13.208-50.589-5.158,11.487-6.632,11.748-17.384.492-24.158,14.271-24.158,33.014-42.708,51.779-53.171C430.03,87.394,429.139,124.1,389.916,146.751Z" transform="translate(-339.326 -64.264)" fill="none" stroke="#fffee9" stroke-miterlimit="10" stroke-width="0.25"/>
      </g>
    </g>
    <g id="Grupo_157" data-name="Grupo 157" transform="translate(194.702 206.798)">
      <g id="Grupo_156" data-name="Grupo 156" clip-path="url(#clip-path-5)">
        <path id="Trazado_1196" data-name="Trazado 1196" d="M308.859,153.1c-28.539,48.308-28.391,100.753.332,117.137-11.378-6.848-30.215-7.039-42.075-.426,27.377-15.815,27.229-68.26-.332-117.137C278.643,146.066,297.481,146.257,308.859,153.1Z" transform="translate(-308.508 -269.841)" fill="none" stroke="#fffee9" stroke-miterlimit="10" stroke-width="0.25"/>
        <path id="Trazado_1197" data-name="Trazado 1197" d="M339.574,360.676l.1.061q.292.166.578.338Z" transform="translate(-339.574 -360.676)" fill="none" stroke="#fffee9" stroke-miterlimit="10" stroke-width="0.25"/>
      </g>
    </g>
    <g id="Grupo_159" data-name="Grupo 159" transform="translate(173.746 89.723)">
      <g id="Grupo_158" data-name="Grupo 158" clip-path="url(#clip-path-6)">
        <path id="Trazado_1199" data-name="Trazado 1199" d="M323.551,50.884c-18.765,10.463-37.507,29.014-51.779,53.171-11.378-6.848-30.215-7.039-42.075-.425-13.782-24.441-31.808-43.364-49.811-54.2C220.38,26.851,284.7,27.5,323.551,50.884Z" transform="translate(-250.465 -103.716)" fill="none" stroke="#fffee9" stroke-miterlimit="10" stroke-width="0.25"/>
        <path id="Trazado_1200" data-name="Trazado 1200" d="M308.859,153.1c-28.539,48.308-28.391,100.753.332,117.137-11.378-6.848-30.215-7.039-42.075-.426,27.377-15.815,27.229-68.26-.332-117.137C278.643,146.066,297.481,146.257,308.859,153.1Z" transform="translate(-287.552 -152.766)" fill="none" stroke="#fffee9" stroke-miterlimit="10" stroke-width="0.25"/>
        <path id="Trazado_1201" data-name="Trazado 1201" d="M303.592,240.673a5.153,5.153,0,0,0-4.675-.048" transform="translate(-301.266 -192.136)" fill="none" stroke="#fffee9" stroke-miterlimit="10" stroke-width="0.25"/>
        <path id="Trazado_1202" data-name="Trazado 1202" d="M303.8,313.984a5.151,5.151,0,0,0-4.675-.047" transform="translate(-301.354 -223.424)" fill="none" stroke="#fffee9" stroke-miterlimit="10" stroke-width="0.25"/>
        <path id="Trazado_1203" data-name="Trazado 1203" d="M324.653,273.908l-.683-.4.1.061c-27.952-15.932-28.1-68.377-.332-117.137.195.111.387.224.578.338-14.27,24.154-21.368,49.342-21.308,70.54S310.292,265.716,324.653,273.908Z" transform="translate(-303.014 -156.433)" fill="none" stroke="#fffee9" stroke-miterlimit="10" stroke-width="0.25"/>
      </g>
    </g>
    <g id="Grupo_161" data-name="Grupo 161" transform="translate(152.596 84.798)">
      <g id="Grupo_160" data-name="Grupo 160" clip-path="url(#clip-path-7)">
        <path id="Trazado_1205" data-name="Trazado 1205" d="M323.551,50.884c-18.765,10.463-37.507,29.014-51.779,53.171-11.378-6.848-30.215-7.039-42.075-.425-13.782-24.441-31.808-43.364-49.811-54.2C220.38,26.851,284.7,27.5,323.551,50.884Z" transform="translate(-229.316 -98.791)" fill="none" stroke="#fffee9" stroke-miterlimit="10" stroke-width="0.25"/>
        <path id="Trazado_1206" data-name="Trazado 1206" d="M336.526,36.724c-7.116,14.5-14.21,37.094-19.594,64.334" transform="translate(-287.805 -100.418)" fill="none" stroke="#fffee9" stroke-miterlimit="10" stroke-width="0.25"/>
        <path id="Trazado_1207" data-name="Trazado 1207" d="M261.2,35.814c6.074,14.637,12.171,37.361,16.852,64.7" transform="translate(-264.019 -100.03)" fill="none" stroke="#fffee9" stroke-miterlimit="10" stroke-width="0.25"/>
        <path id="Trazado_1208" data-name="Trazado 1208" d="M156.609,61.729c18,10.835,36.029,29.757,49.811,54.2-11.859,6.613-12.25,17.525-.871,24.373-14.364-8.19-33.151-5.814-51.916,4.649C114.782,121.568,116.115,84.309,156.609,61.729Z" transform="translate(-206.038 -111.09)" fill="none" stroke="#fffee9" stroke-miterlimit="10" stroke-width="0.25"/>
        <path id="Trazado_1209" data-name="Trazado 1209" d="M308.859,153.1c-28.539,48.308-28.391,100.753.332,117.137-11.378-6.848-30.215-7.039-42.075-.426,27.377-15.815,27.229-68.26-.332-117.137C278.643,146.066,297.481,146.257,308.859,153.1Z" transform="translate(-266.402 -147.841)" fill="none" stroke="#fffee9" stroke-miterlimit="10" stroke-width="0.25"/>
        <path id="Trazado_1210" data-name="Trazado 1210" d="M303.592,240.673a5.153,5.153,0,0,0-4.675-.048" transform="translate(-280.116 -187.211)" fill="none" stroke="#fffee9" stroke-miterlimit="10" stroke-width="0.25"/>
        <path id="Trazado_1211" data-name="Trazado 1211" d="M303.8,313.984a5.151,5.151,0,0,0-4.675-.047" transform="translate(-280.205 -218.499)" fill="none" stroke="#fffee9" stroke-miterlimit="10" stroke-width="0.25"/>
        <path id="Trazado_1212" data-name="Trazado 1212" d="M310.991,148.957c-10.766,54.473-10.618,106.918.332,117.137" transform="translate(-281.864 -148.317)" fill="none" stroke="#fffee9" stroke-miterlimit="10" stroke-width="0.25"/>
        <path id="Trazado_1213" data-name="Trazado 1213" d="M290.6,148.691c9.359,54.676,9.508,107.121.331,117.137" transform="translate(-276.566 -148.204)" fill="none" stroke="#fffee9" stroke-miterlimit="10" stroke-width="0.25"/>
        <path id="Trazado_1214" data-name="Trazado 1214" d="M259.967,156.281c27.561,48.876,27.709,101.321.332,117.137-11.859,6.613-12.25,17.525-.871,24.373,28.539-48.312,28.391-100.757-.332-117.136C247.717,173.806,248.108,162.894,259.967,156.281Z" transform="translate(-259.585 -151.443)" fill="none" stroke="#fffee9" stroke-miterlimit="10" stroke-width="0.25"/>
        <path id="Trazado_1215" data-name="Trazado 1215" d="M298.16,241.025c-1.318.735-1.361,1.947-.1,2.708" transform="translate(-279.359 -187.611)" fill="none" stroke="#fffee9" stroke-miterlimit="10" stroke-width="0.25"/>
        <path id="Trazado_1216" data-name="Trazado 1216" d="M298.368,314.336c-1.318.735-1.361,1.947-.1,2.708" transform="translate(-279.447 -218.899)" fill="none" stroke="#fffee9" stroke-miterlimit="10" stroke-width="0.25"/>
        <path id="Trazado_1217" data-name="Trazado 1217" d="M308,152.766c-27.769,48.759-27.621,101.2.332,117.137-11.429-6.514-29.836-6.59-41.5-.088l-.382.217c27.886-16.1,27.737-68.549-.332-117.136q.188-.109.382-.217C278.161,146.176,296.568,146.252,308,152.766Z" transform="translate(-266.118 -147.841)" fill="none" stroke="#fffee9" stroke-miterlimit="10" stroke-width="0.25"/>
      </g>
    </g>
    <g id="Grupo_163" data-name="Grupo 163" transform="translate(51.797 173.055)">
      <g id="Grupo_162" data-name="Grupo 162" clip-path="url(#clip-path-8)">
        <path id="Trazado_1219" data-name="Trazado 1219" d="M188.393,358.985,84.369,299.668c66.32,39.915,176.123,41.026,245.249,2.481l-99.15,57.262C218.609,366.024,199.77,365.833,188.393,358.985Z" transform="translate(-87.752 -300.895)" fill="none" stroke="#fffee9" stroke-miterlimit="10" stroke-width="0.25"/>
        <line id="Línea_25" data-name="Línea 25" x1="39.656" y1="36.992" transform="translate(74.315 25.722)" fill="none" stroke="#fffee9" stroke-miterlimit="10" stroke-width="0.25"/>
        <line id="Línea_26" data-name="Línea 26" y1="36.255" x2="33.233" transform="translate(129.065 26.612)" fill="none" stroke="#fffee9" stroke-miterlimit="10" stroke-width="0.25"/>
        <path id="Trazado_1220" data-name="Trazado 1220" d="M339.245,255.484l99.15-57.262c69.127-38.545,71.4-102.15,5.081-142.066L340.117,231.111C351.495,237.959,351.1,248.872,339.245,255.484Z" transform="translate(-196.529 -196.968)" fill="none" stroke="#fffee9" stroke-miterlimit="10" stroke-width="0.25"/>
        <path id="Trazado_1221" data-name="Trazado 1221" d="M191.491,360.239,90.27,302.563c66.62,37.96,173.9,38.4,241.866.5q1.116-.623,2.209-1.254l-100.98,58.3-.379.216C221.326,366.826,202.921,366.751,191.491,360.239Z" transform="translate(-90.27 -301.809)" fill="none" stroke="#fffee9" stroke-miterlimit="10" stroke-width="0.25"/>
      </g>
    </g>
    <g id="Grupo_165" data-name="Grupo 165" transform="translate(0.125 1.564)">
      <g id="Grupo_164" data-name="Grupo 164" clip-path="url(#clip-path-9)">
        <path id="Trazado_1223" data-name="Trazado 1223" d="M235.122,208.269,338.481,33.314C272.161-6.6,162.359-7.712,93.232,30.834l99.815,177.01C204.906,201.231,223.744,201.422,235.122,208.269Z" transform="translate(-39.861 -2.636)" fill="none" stroke="#fffee9" stroke-miterlimit="10" stroke-width="0.25"/>
        <line id="Línea_27" data-name="Línea 27" y1="197.281" x2="38.992" transform="translate(181.931 3.73)" fill="none" stroke="#fffee9" stroke-miterlimit="10" stroke-width="0.25"/>
        <line id="Línea_28" data-name="Línea 28" x1="33.897" y1="198.018" transform="translate(132.939 2.84)" fill="none" stroke="#fffee9" stroke-miterlimit="10" stroke-width="0.25"/>
        <path id="Trazado_1224" data-name="Trazado 1224" d="M153.31,228.839,53.5,51.828c-69.127,38.545-71.4,102.15-5.081,142.066l104.024,59.318C141.06,246.363,141.45,235.451,153.31,228.839Z" transform="translate(-0.125 -23.63)" fill="none" stroke="#fffee9" stroke-miterlimit="10" stroke-width="0.25"/>
        <line id="Línea_29" data-name="Línea 29" x1="138.567" y1="139.654" transform="translate(6.593 73.29)" fill="none" stroke="#fffee9" stroke-miterlimit="10" stroke-width="0.25"/>
        <line id="Línea_30" data-name="Línea 30" x1="140.077" y1="97.431" transform="translate(4.77 124.257)" fill="none" stroke="#fffee9" stroke-miterlimit="10" stroke-width="0.25"/>
        <path id="Trazado_1225" data-name="Trazado 1225" d="M188.393,358.985,84.369,299.668c66.32,39.915,176.123,41.026,245.249,2.481l-99.15,57.262C218.609,366.024,199.77,365.833,188.393,358.985Z" transform="translate(-36.079 -129.405)" fill="none" stroke="#fffee9" stroke-miterlimit="10" stroke-width="0.25"/>
        <path id="Trazado_1226" data-name="Trazado 1226" d="M51.8,174.88q-1.709-.974-3.383-1.981C-17.906,132.984-15.632,69.379,53.5,30.834S232.424-6.6,298.744,33.314L195.385,208.269c-11.378-6.848-30.216-7.039-42.075-.425s-12.25,17.525-.872,24.373q.287.173.581.34Z" transform="translate(-0.125 -2.636)" fill="none" stroke="#fffee9" stroke-miterlimit="10" stroke-width="0.25"/>
      </g>
    </g>
    <g id="Grupo_167" data-name="Grupo 167" transform="translate(194.893 32.243)">
      <g id="Grupo_166" data-name="Grupo 166" clip-path="url(#clip-path-10)">
        <path id="Trazado_1228" data-name="Trazado 1228" d="M339.245,255.484l99.15-57.262c69.127-38.545,71.4-102.15,5.081-142.066L340.117,231.111C351.495,237.959,351.1,248.872,339.245,255.484Z" transform="translate(-339.624 -56.156)" fill="none" stroke="#fffee9" stroke-miterlimit="10" stroke-width="0.25"/>
        <line id="Línea_31" data-name="Línea 31" y1="94.619" x2="137.904" transform="translate(7.646 96.972)" fill="none" stroke="#fffee9" stroke-miterlimit="10" stroke-width="0.25"/>
        <line id="Línea_32" data-name="Línea 32" y1="136.841" x2="139.413" transform="translate(7.959 46.007)" fill="none" stroke="#fffee9" stroke-miterlimit="10" stroke-width="0.25"/>
        <path id="Trazado_1229" data-name="Trazado 1229" d="M339.906,255.268c11.487-6.632,11.748-17.384.492-24.158L443.758,56.155c65.607,39.486,64.087,102.154-2.872,140.813Z" transform="translate(-339.906 -56.156)" fill="none" stroke="#fffee9" stroke-miterlimit="10" stroke-width="0.25"/>
      </g>
    </g>
    <g id="Grupo_169" data-name="Grupo 169" transform="translate(51.27 0.125)">
      <g id="Grupo_168" data-name="Grupo 168" clip-path="url(#clip-path-11)">
        <path id="Trazado_1231" data-name="Trazado 1231" d="M338.482,33.314c-14.361-8.191-33.148-5.815-51.913,4.648C247.719,14.58,183.4,13.929,142.9,36.509c-18-10.835-35.982-13.583-49.671-5.675C162.359-7.712,272.162-6.6,338.482,33.314Z" transform="translate(-91.007 -1.197)" fill="none" stroke="#fffee9" stroke-miterlimit="10" stroke-width="0.25"/>
        <path id="Trazado_1232" data-name="Trazado 1232" d="M370.844,7.848c-5.475-5.109-12.614,1.307-19.73,15.81" transform="translate(-201.067 -2.679)" fill="none" stroke="#fffee9" stroke-miterlimit="10" stroke-width="0.25"/>
        <path id="Trazado_1233" data-name="Trazado 1233" d="M232.043,6.351c4.588-5.008,10.639,1.542,16.713,16.179" transform="translate(-150.249 -2.072)" fill="none" stroke="#fffee9" stroke-miterlimit="10" stroke-width="0.25"/>
        <path id="Trazado_1234" data-name="Trazado 1234" d="M53.5,48.446c13.688-7.908,31.668-5.16,49.671,5.675C62.672,76.7,61.34,113.96,100.19,137.342c-18.764,10.463-37.505,29.013-51.775,53.17C-17.906,150.6-15.632,86.992,53.5,48.446Z" transform="translate(-51.27 -18.809)" fill="none" stroke="#fffee9" stroke-miterlimit="10" stroke-width="0.25"/>
        <path id="Trazado_1235" data-name="Trazado 1235" d="M333.458,30.271c-2.772-1.486-6.411-3.58-9.24-4.955-4.517-2.195-10.576-5.06-15.234-6.938-6.231-2.512-14.714-5.421-21.118-7.452-4.364-1.383-10.29-2.879-14.749-3.919-3.908-.911-9.146-2.026-13.1-2.691-3.587-.6-8.366-1.455-11.981-1.855-3.774-.417-8.795-1.119-12.584-1.357-7.36-.463-17.187-1-24.561-.977-3.7.011-8.649.066-12.345.33s-8.595.53-12.269.875c-3.642.342-8.478.986-12.111,1.412-3.618.424-8.4,1.323-11.982,1.952-3.647.64-8.471,1.7-12.073,2.556-3.943.937-9.192,2.249-13.054,3.475-6.405,2.031-14.893,4.927-21.15,7.376-3.959,1.549-9.135,3.876-12.957,5.737-2.848,1.386-6.59,3.345-9.39,4.825-1.279.676-2.947,1.649-4.206,2.363q1.1-.636,2.225-1.263C159.545-8.139,266.84-7.7,333.458,30.271Z" transform="translate(-89.35 -0.125)" fill="none" stroke="#fffee9" stroke-miterlimit="10" stroke-width="0.25"/>
      </g>
    </g>
    <g id="Grupo_171" data-name="Grupo 171" transform="translate(0.125 0.126)">
      <g id="Grupo_170" data-name="Grupo 170" clip-path="url(#clip-path-12)">
        <path id="Trazado_1237" data-name="Trazado 1237" d="M338.482,33.314c-14.361-8.191-33.148-5.815-51.913,4.648C247.719,14.58,183.4,13.929,142.9,36.509c-18-10.835-35.982-13.583-49.671-5.675C162.359-7.712,272.162-6.6,338.482,33.314Z" transform="translate(-39.862 -1.197)" fill="none" stroke="#fffee9" stroke-miterlimit="10" stroke-width="0.25"/>
        <path id="Trazado_1238" data-name="Trazado 1238" d="M333.948,27.861c-58.037-34.93-154.124-35.9-214.616-2.171" transform="translate(-51.001 -0.505)" fill="none" stroke="#fffee9" stroke-miterlimit="10" stroke-width="0.25"/>
        <path id="Trazado_1239" data-name="Trazado 1239" d="M328.877,34.1C280.172,4.786,199.534,3.97,148.768,32.278" transform="translate(-63.563 -5.01)" fill="none" stroke="#fffee9" stroke-miterlimit="10" stroke-width="0.25"/>
        <path id="Trazado_1240" data-name="Trazado 1240" d="M370.844,7.848c-5.475-5.109-12.614,1.307-19.73,15.81" transform="translate(-149.922 -2.68)" fill="none" stroke="#fffee9" stroke-miterlimit="10" stroke-width="0.25"/>
        <path id="Trazado_1241" data-name="Trazado 1241" d="M232.043,6.351c4.588-5.008,10.639,1.542,16.713,16.179" transform="translate(-99.104 -2.072)" fill="none" stroke="#fffee9" stroke-miterlimit="10" stroke-width="0.25"/>
        <path id="Trazado_1242" data-name="Trazado 1242" d="M53.5,48.446c13.688-7.908,31.668-5.16,49.671,5.675C62.672,76.7,61.34,113.96,100.19,137.342c-18.764,10.463-37.505,29.013-51.775,53.17C-17.906,150.6-15.632,86.992,53.5,48.446Z" transform="translate(-0.125 -18.81)" fill="none" stroke="#fffee9" stroke-miterlimit="10" stroke-width="0.25"/>
        <path id="Trazado_1243" data-name="Trazado 1243" d="M84.559,44.063c-60.493,33.731-62.483,89.391-4.446,124.321" transform="translate(-16.227 -18.878)" fill="none" stroke="#fffee9" stroke-miterlimit="10" stroke-width="0.25"/>
        <path id="Trazado_1244" data-name="Trazado 1244" d="M119.586,47.695C68.819,76,67.149,122.713,115.855,152.027" transform="translate(-34.381 -20.428)" fill="none" stroke="#fffee9" stroke-miterlimit="10" stroke-width="0.25"/>
        <path id="Trazado_1245" data-name="Trazado 1245" d="M11.626,119.679c19.039-13.065,44.031-17.077,69.047-13" transform="translate(-5.033 -44.949)" fill="none" stroke="#fffee9" stroke-miterlimit="10" stroke-width="0.25"/>
        <path id="Trazado_1246" data-name="Trazado 1246" d="M8.446,194.008a125.562,125.562,0,0,1,69.8-34.113" transform="translate(-3.676 -68.313)" fill="none" stroke="#fffee9" stroke-miterlimit="10" stroke-width="0.25"/>
        <path id="Trazado_1247" data-name="Trazado 1247" d="M84.369,260.081c14.27-24.156,33.011-42.706,51.776-53.169,38.85,23.382,103.171,24.033,143.665,1.453,18,10.835,36.028,29.757,49.808,54.2C260.492,301.107,150.689,300,84.369,260.081Z" transform="translate(-36.079 -88.379)" fill="none" stroke="#fffee9" stroke-miterlimit="10" stroke-width="0.25"/>
        <path id="Trazado_1248" data-name="Trazado 1248" d="M111.576,260.946c58.037,34.93,154.124,35.9,214.616,2.171" transform="translate(-47.69 -111.44)" fill="none" stroke="#fffee9" stroke-miterlimit="10" stroke-width="0.25"/>
        <path id="Trazado_1249" data-name="Trazado 1249" d="M142.259,229.707c48.706,29.314,129.343,30.129,180.109,1.822" transform="translate(-60.785 -98.108)" fill="none" stroke="#fffee9" stroke-miterlimit="10" stroke-width="0.25"/>
        <path id="Trazado_1250" data-name="Trazado 1250" d="M219.916,298.783c5.383-27.239,12.477-49.828,19.592-64.332" transform="translate(-93.928 -100.132)" fill="none" stroke="#fffee9" stroke-miterlimit="10" stroke-width="0.25"/>
        <path id="Trazado_1251" data-name="Trazado 1251" d="M360.861,300.062c-4.68-27.34-10.777-50.063-16.851-64.7" transform="translate(-146.89 -100.521)" fill="none" stroke="#fffee9" stroke-miterlimit="10" stroke-width="0.25"/>
        <path id="Trazado_1252" data-name="Trazado 1252" d="M475.132,194.56c-13.78-24.44-31.806-43.362-49.809-54.2,40.494-22.58,41.826-59.839,2.977-83.221,18.764-10.463,37.551-12.839,51.913-4.648C546.533,92.41,544.259,156.015,475.132,194.56Z" transform="translate(-181.593 -20.378)" fill="none" stroke="#fffee9" stroke-miterlimit="10" stroke-width="0.25"/>
        <path id="Trazado_1253" data-name="Trazado 1253" d="M485.984,172.172c60.493-33.731,62.483-89.391,4.446-124.321" transform="translate(-207.482 -20.494)" fill="none" stroke="#fffee9" stroke-miterlimit="10" stroke-width="0.25"/>
        <path id="Trazado_1254" data-name="Trazado 1254" d="M456.468,155.205C507.234,126.9,508.9,80.188,460.2,50.874" transform="translate(-194.885 -21.784)" fill="none" stroke="#fffee9" stroke-miterlimit="10" stroke-width="0.25"/>
        <path id="Trazado_1255" data-name="Trazado 1255" d="M542.313,198.883a127.327,127.327,0,0,0-69.185-35.519" transform="translate(-201.995 -69.793)" fill="none" stroke="#fffee9" stroke-miterlimit="10" stroke-width="0.25"/>
        <path id="Trazado_1256" data-name="Trazado 1256" d="M544.93,124.817c-19.339-13.453-44.651-17.974-69.94-14.408" transform="translate(-202.79 -46.693)" fill="none" stroke="#fffee9" stroke-miterlimit="10" stroke-width="0.25"/>
        <path id="Trazado_1257" data-name="Trazado 1257" d="M53.93,29.515c5.545-3.027,13.137-6.692,18.883-9.316,3.542-1.618,8.4-3.473,12.057-4.814a239.679,239.679,0,0,1,25.49-7.734c3.925-.971,9.2-2.089,13.174-2.851,3.577-.687,8.372-1.467,11.978-1.979,3.774-.535,8.819-1.169,12.618-1.485C153.7.872,163.019.1,172.754.126c3.689.011,8.611-.014,12.293.214s8.635.41,12.321.763c3.62.346,8.447.82,12.054,1.288,11.1,1.44,19.538,3.235,24.036,4.254,3.919.887,9.136,2.132,12.979,3.3,6.419,1.958,14.936,4.732,21.207,7.123,3.893,1.485,9.005,3.675,12.767,5.465,4.564,2.172,10.537,5.3,14.967,7.733q1.7.97,3.366,1.972c-14.362-8.192-33.148-5.816-51.913,4.648-38.85-23.382-103.171-24.033-143.665-1.453s-41.826,59.839-2.976,83.221,103.171,24.033,143.665,1.453,41.826-59.839,2.976-83.221c18.764-10.463,37.551-12.839,51.913-4.648,66.32,39.915,64.046,103.52-5.081,142.065s-178.929,37.435-245.249-2.481c-65.6-39.482-64.087-102.144,2.855-140.8C51.681,30.2,53.125,29.955,53.93,29.515Z" transform="translate(-0.125 -0.126)" fill="none" stroke="#fffee9" stroke-miterlimit="10" stroke-width="0.25"/>
      </g>
    </g>
  </g>
</svg>
