<svg xmlns="http://www.w3.org/2000/svg" xmlns:xlink="http://www.w3.org/1999/xlink" width="277.577" height="488.236" viewBox="0 0 277.577 488.236">
  <defs>
    <clipPath id="clip-path">
      <path id="Trazado_963" data-name="Trazado 963" d="M339.613,200.9a46.671,46.671,0,0,1-8.335.645,47.241,47.241,0,0,1-6.236-.472,31.423,31.423,0,0,1-3.452-.663,22.6,22.6,0,0,1-3.279-1.047c-.066-.029-.152-.106-.222-.091l.022.013a17.346,17.346,0,0,1,3.049,2.477,37.88,37.88,0,0,1,2.873,3.29,37.3,37.3,0,0,1,4.06,6.824c.651,1.437,1.381,3.413,1.889,4.905a32.384,32.384,0,0,1,.877,3.227c.384,1.776.744,4.177.951,5.982.134,1.172.127,2.75.181,3.929.054-1.252.054-2.927.18-4.174.158-1.556.461-3.623.768-5.156a43.044,43.044,0,0,1,2.519-7.991,56.174,56.174,0,0,1,2.657-5.107,38.768,38.768,0,0,1,2.4-3.4,27.349,27.349,0,0,1,2.72-2.943c.481-.45,1.162-1.008,1.681-1.413a10.328,10.328,0,0,1,.916-.61,25.9,25.9,0,0,1-6.22,1.772" transform="translate(-318.089 -199.127)" fill="none" stroke="#fffee9" stroke-width="1"/>
    </clipPath>
    <clipPath id="clip-path-2">
      <path id="Trazado_978" data-name="Trazado 978" d="M244.736,193.856c0-1.4-.073-2.8-.2-4.169.114,1.262.141,2.921.2,4.169m-.2-4.169-.008-.086q-.013-.134-.027-.27c.012.119.024.237.035.356m.2,4.169c.016-1.592.135-3.715.3-5.3a45.317,45.317,0,0,0-.3,5.3m.3-5.31v.009q.086-.748.2-1.49c-.081.52-.149,1.028-.2,1.481m-1.793-6.069a64.619,64.619,0,0,1,1.258,6.852,44.765,44.765,0,0,0-1.311-7.076c.019.076.037.151.053.224m-.053-.224c-.135-.548-.32-1.169-.515-1.762.184.585.354,1.169.515,1.762m15.392-19.19h0m-2.963,1.056c-1.052.3-2.429.579-3.277.72-1.19.2-2.789.4-3.993.495-1.744.134-2.553.138-4.325.147-.073,0-1.832.006-4.27-.232-1.4-.137-1.873-.218-3.846-.559-.105-.018-.929-.165-2.219-.513-12.063-14.54-32.831-23.677-56.4-22.815.917,8.933,7.113,17.721,18.649,24.664,12.525,7.538,29.035,11.515,45.787,11.894.2.491.38.968.542,1.4.132.353.274.755.41,1.171-.272-.865-.57-1.724-.893-2.57q2.911.064,5.824-.016a45.033,45.033,0,0,0-2.375,9.16c.136-.876.306-1.789.456-2.54.305-1.526.9-3.519,1.37-5,.155-.491.366-1.06.586-1.617,15.757-.441,31.337-4.069,43.612-10.914,12.811-7.143,19.714-16.5,20.637-26.02-.864-.027-1.722-.04-2.579-.04-22.5,0-42.156,9.109-53.7,23.188" transform="translate(-177.284 -140.931)" fill="none" stroke="#fffee9" stroke-width="1"/>
    </clipPath>
    <clipPath id="clip-path-3">
      <path id="Trazado_989" data-name="Trazado 989" d="M197.713,43.874c-14.842,8.276-21.755,19.525-20.624,30.552,37.167-1.36,67.366,22.142,67.452,52.493-.086-30.351,21.624-67.1,48.491-82.081C279.849,36.9,262.247,32.915,244.6,32.915c-16.858,0-33.759,3.641-46.885,10.959" transform="translate(-176.97 -32.915)" fill="none" stroke="#fffee9" stroke-width="1"/>
    </clipPath>
    <clipPath id="clip-path-4">
      <path id="Trazado_995" data-name="Trazado 995" d="M354.643,146.348C354.557,116,384.622,92.32,421.8,93.463c1.012-10.443-5.177-21.08-18.662-29.2-26.867,14.982-48.577,51.73-48.491,82.081" transform="translate(-354.642 -64.267)" fill="none" stroke="#fffee9" stroke-width="1"/>
    </clipPath>
    <clipPath id="clip-path-5">
      <path id="Trazado_996" data-name="Trazado 996" d="M41.61,96.661c-53.733,29.961-55.5,79.4-3.949,110.428s136.9,31.89,190.634,1.929,55.5-79.4,3.95-110.429c-26.367-15.87-61.57-23.848-96.868-23.847-33.714,0-67.516,7.281-93.766,21.919" transform="translate(-0.125 -74.742)" fill="none" stroke="#fffee9" stroke-width="1"/>
    </clipPath>
    <clipPath id="clip-path-6">
      <path id="Trazado_1005" data-name="Trazado 1005" d="M.125,107.01c.027-.989.06-2.065.1-3.182q-.107,1.59-.1,3.182M137.03.157c-4.9.059-11.443.228-16.335.559-6.208.419-12.74,1.466-16.25,2.027-2.455.393-5.7,1.061-8.131,1.6-2.492.554-5.8,1.375-8.257,2.057C83.289,7.725,77.022,9.83,72.413,11.63a142.879,142.879,0,0,0-15.667,7.3c-2.539,1.392-5.862,3.36-8.306,4.911C46.4,25.139,43.767,27,41.808,28.411c-2.52,1.818-5.706,4.479-8.055,6.514-1.741,1.508-3.909,3.689-5.568,5.287a93.046,93.046,0,0,0-7.653,8.7A97.863,97.863,0,0,0,9.557,66.342a117.371,117.371,0,0,0-5.322,13.37c-.736,2.227-1.489,5.269-2,7.558-.467,2.1-.938,4.925-1.257,7.05a92.131,92.131,0,0,0-.751,9.509c1.309-19.5,15.156-38.765,41.383-53.389,53.733-29.962,139.083-29.1,190.634,1.929-.042-14.9-5.329-25.489-13.88-30.635-2.149-1.248-5.016-2.913-7.226-4.048-2.656-1.363-6.235-3.12-8.988-4.277-2.278-.957-5.325-2.212-7.645-3.06-2.553-.934-5.98-2.121-8.591-2.88-2.361-.686-5.515-1.585-7.9-2.177-2.492-.617-5.831-1.387-8.356-1.851C167.244,3,164.024,2.42,161.6,2.063s-5.675-.729-8.112-1c-2.474-.276-5.788-.469-8.271-.64-2.208-.153-5.087-.269-7.432-.269-.258,0-.509,0-.753,0" transform="translate(-0.125 -0.153)" fill="none" stroke="#fffee9" stroke-width="1"/>
    </clipPath>
    <clipPath id="clip-path-7">
      <path id="Trazado_1027" data-name="Trazado 1027" d="M218.364,21.717l-.181-.108.181.108m-.181-.108-.081-.047.081.047m-.081-.047-.02-.011.02.011m-13.155-3.384c-6.444,0-13.688,2.015-21.341,6.253,7.654-4.239,14.9-6.25,21.341-6.253m.022,0h0M86.15,78.772C60.373,63.259,61.258,38.538,88.124,23.557s69.544-14.549,95.32.964,24.893,40.235-1.975,55.216C168.342,87.056,151.445,90.7,134.585,90.7c-17.647,0-35.253-3.99-48.435-11.924M120.689.7c-2.475.168-5.764.529-8.225.838-2.524.316-5.885.788-8.385,1.253-2.42.45-5.653,1.028-8.047,1.6-2.6.622-6.08,1.427-8.647,2.183-4.749,1.4-11.011,3.511-15.626,5.3-2.722,1.055-6.27,2.665-8.906,3.918-2.259,1.074-5.2,2.641-7.4,3.837-2.855,1.554-6.521,3.875-9.237,5.66-2.008,1.32-4.585,3.229-6.5,4.684a117.993,117.993,0,0,0-9.072,7.794,112.955,112.955,0,0,0-9.3,10.1c-2.753,3.46-6.02,8.386-8.386,12.121a75.256,75.256,0,0,0-3.7,6.952,107.181,107.181,0,0,0-5.224,13.41A91.711,91.711,0,0,0,1.226,92.622C.6,96.9.284,102.674.125,106.995c.055,19.4,12.516,38.8,37.536,53.857,51.552,31.027,136.9,31.89,190.634,1.929,27.654-15.42,41.544-36,41.485-56.572-.076-3.27-.278-7.636-.683-10.882a95.674,95.674,0,0,0-2.045-10.973,118.541,118.541,0,0,0-4.546-13.56,96.584,96.584,0,0,0-5.445-10.851A108.487,108.487,0,0,0,249,48.2a132.25,132.25,0,0,0-10.18-11.055,86.4,86.4,0,0,0-7.28-6.3c-3.84-2.895-9.14-6.515-13.18-9.123l-.338-.2.057.033-.057-.033c-2.549-1.5-5.874-3.336-8.439-4.643-2.426-1.236-5.713-2.787-8.23-3.823C196.8,11.176,190.591,9,185.914,7.452c-2.441-.81-5.769-1.651-8.266-2.267-2.383-.588-5.588-1.263-7.992-1.761-2.438-.506-5.712-1.087-8.184-1.394-2.439-.3-5.68-.808-8.13-1C148.456.655,141.931.2,137.03.142q-1.1-.014-2.132-.014c-5.752,0-10.218.3-14.209.573" transform="translate(-0.125 -0.128)" fill="none" stroke="#fffee9" stroke-width="1"/>
    </clipPath>
    <clipPath id="clip-path-8">
      <path id="Trazado_1032" data-name="Trazado 1032" d="M625.383,141.386a45.611,45.611,0,0,0-.247-4.61c.1,1.623.187,3.194.247,4.61M587.847,87.53c23.039,13.865,35.428,31.408,37.289,49.247-.214-3.323-.523-6.864-.932-9.737a87.178,87.178,0,0,0-2.374-10.573,89.929,89.929,0,0,0-3.721-10.5,125.348,125.348,0,0,0-6.66-12.873,98.545,98.545,0,0,0-7.134-10.089,139.258,139.258,0,0,0-9.888-10.689,143.906,143.906,0,0,0-12.2-10.005c-2.275-1.715-5.472-3.71-7.963-5.235,8.374,5.212,13.538,15.726,13.58,30.45m-13.58-30.45q-.15-.094-.3-.184l.3.184" transform="translate(-573.967 -56.895)" fill="none" stroke="#fffee9" stroke-width="1"/>
    </clipPath>
    <clipPath id="clip-path-9">
      <path id="Trazado_1033" data-name="Trazado 1033" d="M62.172,820.261c-53.734,29.962-55.5,79.4-3.949,110.431s136.9,31.891,190.639,1.929,55.5-79.4,3.949-110.431c-26.368-15.87-61.572-23.848-96.871-23.847-33.715,0-67.518,7.281-93.768,21.919" transform="translate(-20.686 -798.342)" fill="none" stroke="#fffee9" stroke-width="1"/>
    </clipPath>
    <clipPath id="clip-path-10">
      <path id="Trazado_1042" data-name="Trazado 1042" d="M352.421,1008.485a38.1,38.1,0,0,1-.612,4.068c-.335,1.523-.829,3.549-1.317,5.03a44.036,44.036,0,0,1-1.951,4.874c-.378.78-.888,1.821-1.343,2.559a42.881,42.881,0,0,1-2.768,4.132,35.613,35.613,0,0,1-2.8,3.111c-.471.448-1.128,1.016-1.638,1.42-.335.265-.813.579-1.176.806.223-.12.681-.3.771-.339.288-.114.68-.245.971-.349.343-.123.813-.252,1.165-.351,1.059-.3,2.47-.593,3.334-.737.681-.113,2.1-.348,3.994-.495,1.294-.1,3.026-.14,4.324-.147.073,0,1.832-.006,4.27.232,1.4.136,1.873.218,3.846.559a29.67,29.67,0,0,1,3.034.743,16.622,16.622,0,0,1,2.045.749l-.031-.023c-8.551-5.146-13.838-15.733-13.88-30.632-.006,1.439-.1,3.357-.239,4.789" transform="translate(-338.818 -1003.696)" fill="none" stroke="#fffee9" stroke-width="1"/>
    </clipPath>
    <clipPath id="clip-path-11">
      <path id="Trazado_1058" data-name="Trazado 1058" d="M279.673,1034.328l.02.012-.02-.012m-14.731-21.775a43.289,43.289,0,0,1-2.051,7.092c-15.756.441-31.339,4.069-43.615,10.914-12.811,7.143-19.715,16.5-20.637,26.02,23.579.725,44.3-8.535,56.276-23.149,1.148-.315,2.321-.561,3.256-.716a47.889,47.889,0,0,1,14.57-.174,31.409,31.409,0,0,1,3.452.663,22.613,22.613,0,0,1,3.279,1.047c.066.029.152.107.222.091,8.866,5.323,21.234,4.8,34.9-2.818-13.989-8.42-32.953-12.4-51.669-11.879a44.915,44.915,0,0,0,2.68-11.711c-.136,1.4-.4,3.246-.666,4.62m.666-4.62,0-.034c.011-.115.021-.234.03-.356-.011.131-.022.259-.034.39m.034-.39q.156-1.9.152-3.847c-.05,1.145-.06,2.641-.152,3.847" transform="translate(-198.64 -1003.696)" fill="none" stroke="#fffee9" stroke-width="1"/>
    </clipPath>
    <clipPath id="clip-path-12">
      <path id="Trazado_1080" data-name="Trazado 1080" d="M198.466,1056.578c-1.012,10.443,5.176,21.08,18.662,29.2,25.776,15.513,68.452,15.945,95.319.964,14.843-8.276,21.755-19.526,20.624-30.552-37.167,1.36-67.366-22.141-67.452-52.49.086,30.349-29.979,54.026-67.153,52.882" transform="translate(-198.36 -1003.696)" fill="none" stroke="#fffee9" stroke-width="1"/>
    </clipPath>
    <clipPath id="clip-path-13">
      <path id="Trazado_1085" data-name="Trazado 1085" d="M389.094,1034.328a24.352,24.352,0,0,1-5.424-5.124,38.757,38.757,0,0,1-2.4-3.438c-.886-1.507-1.942-3.591-2.664-5.183a42.555,42.555,0,0,1-2.485-8.035c-.278-1.382-.552-3.246-.7-4.649-.128-1.256-.145-2.942-.206-4.2.042,14.9,5.329,25.486,13.88,30.632" transform="translate(-375.214 -1003.696)" fill="none" stroke="#fffee9" stroke-width="1"/>
    </clipPath>
    <clipPath id="clip-path-14">
      <path id="Trazado_1093" data-name="Trazado 1093" d="M442.666,1056.186c-.917-8.933-7.113-17.72-18.649-24.663-13.678,7.627-26.056,8.142-34.923,2.8-.468-.3-1.062-.735-1.5-1.079-.373-.3-.846-.722-1.192-1.05a29.377,29.377,0,0,1-2.825-3.106,45.043,45.043,0,0,1-2.787-4.113,40.26,40.26,0,0,1-2.194-4.4c-.371-.893-.855-2.092-1.141-3.016-.46-1.489-1.038-3.49-1.344-5.019-.234-1.168-.418-2.283-.558-3.4,3.439,27.659,32.2,48.313,67.108,47.036m-67.108-47.036c-.028-.225-.054-.446-.078-.672q.037.337.078.672m-.078-.672h0m0,0,0-.027,0,.027m0-.027c-.164-1.519-.246-3.058-.262-4.754a45.369,45.369,0,0,0,.262,4.754" transform="translate(-375.214 -1003.696)" fill="none" stroke="#fffee9" stroke-width="1"/>
    </clipPath>
    <clipPath id="clip-path-15">
      <path id="Trazado_1105" data-name="Trazado 1105" d="M21.183,1012.691a102.451,102.451,0,0,0,1.837,10.97,118.786,118.786,0,0,0,4.295,13.637,95.659,95.659,0,0,0,5.187,10.834,106.6,106.6,0,0,0,7.66,11.66A127.144,127.144,0,0,0,50.071,1071a101.785,101.785,0,0,0,8.866,7.825c3.808,2.928,9.081,6.585,13.165,9.112,2.557,1.582,6.1,3.469,8.777,4.842,2.192,1.125,5.181,2.494,7.437,3.483,2.5,1.095,5.89,2.422,8.454,3.356,2.417.881,5.669,1.983,8.141,2.693,2.364.679,5.52,1.571,7.907,2.158,2.421.6,5.663,1.338,8.116,1.786,2.413.44,5.626,1.071,8.06,1.37s5.676.725,8.113,1,5.711.495,8.164.629,5.716.211,8.167.264,5.725-.069,8.178-.1,5.716-.295,8.163-.461c2.475-.168,5.764-.53,8.226-.838,2.439-.305,5.674-.825,8.1-1.2,2.517-.394,5.845-1.092,8.331-1.65,2.61-.586,6.071-1.461,8.648-2.183,4.767-1.335,11.015-3.5,15.626-5.3,2.719-1.062,6.27-2.665,8.906-3.918,2.258-1.074,5.2-2.641,7.4-3.837,2.854-1.554,6.541-3.846,9.237-5.66,1.994-1.342,4.623-3.181,6.5-4.684,2.8-2.244,6.479-5.314,9.072-7.794a94.41,94.41,0,0,0,9.3-10.1,139.205,139.205,0,0,0,8.386-12.121,94.2,94.2,0,0,0,6.573-13.551c.785-2.015,1.79-4.724,2.355-6.811.986-3.644,2.112-8.556,2.806-12.266a80.451,80.451,0,0,0,.968-10.761c-1.482,19.353-15.317,38.445-41.353,52.962-53.734,29.962-139.086,29.1-190.639-1.929-24.366-14.664-36.821-33.443-37.507-52.335.063,2.514.2,5.44.467,7.718m-.467-7.718c-.013-.529-.023-1.041-.03-1.523q0,.762.03,1.523m269.5,1.3q.138-1.805.133-3.611c-.041,1.122-.082,2.343-.133,3.611" transform="translate(-20.686 -1002.663)" fill="none" stroke="#fffee9" stroke-width="1"/>
    </clipPath>
    <clipPath id="clip-path-16">
      <path id="Trazado_1139" data-name="Trazado 1139" d="M107.026,958.519c-13.485-8.117-19.674-18.753-18.662-29.2.922-9.518,7.826-18.876,20.637-26.02,26.867-14.981,69.543-14.55,95.319.964,11.536,6.943,17.733,15.73,18.649,24.663,1.131,11.027-5.781,22.276-20.624,30.552-13.127,7.32-30.025,10.96-46.884,10.959-17.647,0-35.253-3.99-48.435-11.924M62.172,820.261c-27.654,15.42-41.545,36-41.486,56.573.092,2.165.129,5.057.307,7.218.226,2.75.688,6.409,1.219,9.117.414,2.113.985,4.933,1.587,7,.93,3.193,2.247,7.439,3.515,10.513.828,2.007,1.949,4.683,2.96,6.605,1.679,3.19,3.987,7.419,6,10.413a119.88,119.88,0,0,0,9.115,11.783,103.656,103.656,0,0,0,10.447,10.172c1.838,1.5,4.262,3.542,6.19,4.925,2.957,2.121,6.949,4.891,10.081,6.744,2.138,1.265,5.016,2.913,7.226,4.048,2.656,1.364,6.235,3.12,8.988,4.277,4.545,1.91,10.743,4.118,15.416,5.69,2.574.866,6.086,1.771,8.722,2.427,6.866,1.709,12.714,2.683,16.416,3.227,2.464.362,5.757.795,8.238,1.014,2.441.216,5.7.494,8.146.628s5.729.292,8.185.265c4.9-.057,11.441-.281,16.336-.559,2.453-.139,5.71-.523,8.147-.828,2.464-.308,5.744-.764,8.185-1.214,2.42-.447,5.635-1.11,8.049-1.587s5.591-1.363,7.978-1.981c2.475-.641,5.73-1.664,8.154-2.478,2.552-.856,5.929-2.077,8.424-3.088,2.3-.931,5.342-2.225,7.581-3.29,2.655-1.263,6.176-3,8.726-4.466,2.127-1.222,4.964-2.852,7.013-4.2,2.675-1.758,6.211-4.159,8.721-6.145,1.822-1.441,4.256-3.362,5.965-4.935,2.618-2.41,6.072-5.677,8.442-8.33a122.989,122.989,0,0,0,9.124-11.625,95.955,95.955,0,0,0,9.548-18.039c.8-2.008,1.727-4.739,2.4-6.792a66.857,66.857,0,0,0,2-7.558c.4-2.11.964-4.921,1.258-7.049.521-3.78.748-8.875.853-12.689-.055-19.4-12.516-38.8-37.537-53.858,0,.059,0,.119,0,.178,0-.059,0-.119,0-.178-26.368-15.87-61.572-23.848-96.871-23.847-33.715,0-67.518,7.281-93.768,21.919" transform="translate(-20.686 -798.342)" fill="none" stroke="#fffee9" stroke-width="1"/>
    </clipPath>
    <clipPath id="clip-path-17">
      <rect id="Rectángulo_51" data-name="Rectángulo 51" width="277.577" height="488.236" fill="none" stroke="#fffee9" stroke-width="1"/>
    </clipPath>
  </defs>
  <g id="_05_projects_ilustracion" data-name="05_projects_ilustracion" transform="translate(0 -0.003)">
    <g id="Grupo_114" data-name="Grupo 114" transform="translate(120.973 75.732)">
      <g id="Grupo_113" data-name="Grupo 113" clip-path="url(#clip-path)">
        <path id="Trazado_952" data-name="Trazado 952" d="M197.714,61.732c25.777,15.514,46.742,52.694,46.828,83.045-.086-30.351-21.935-42.81-48.8-27.829C169.963,101.434,170.847,76.714,197.714,61.732Z" transform="translate(-230.64 -113.985)" fill="none" stroke="#fffee9" stroke-miterlimit="10" stroke-width="0.25"/>
        <path id="Trazado_953" data-name="Trazado 953" d="M333.068,197.076c-3.668,2.045-3.789,5.42-.27,7.539" transform="translate(-325.616 -197.856)" fill="none" stroke="#fffee9" stroke-miterlimit="10" stroke-width="0.25"/>
        <path id="Trazado_954" data-name="Trazado 954" d="M181.845,158.628c36.21-5.106,65.632,15.359,65.718,45.71" transform="translate(-233.66 -173.547)" fill="none" stroke="#fffee9" stroke-miterlimit="10" stroke-width="0.25"/>
        <path id="Trazado_955" data-name="Trazado 955" d="M226.32,196.581c26.868-14.981,48.717-2.522,48.8,27.829-.086-30.351,20.74-42.379,46.517-26.865C294.772,212.526,252.1,212.095,226.32,196.581Z" transform="translate(-261.221 -193.618)" fill="none" stroke="#fffee9" stroke-miterlimit="10" stroke-width="0.25"/>
        <path id="Trazado_956" data-name="Trazado 956" d="M336.973,216.9a14.336,14.336,0,0,0,13.014.132" transform="translate(-329.791 -210.139)" fill="none" stroke="#fffee9" stroke-miterlimit="10" stroke-width="0.25"/>
        <path id="Trazado_957" data-name="Trazado 957" d="M305.724,215.494c10.189-20.766,18.519-13,18.6,17.355" transform="translate(-310.427 -202.058)" fill="none" stroke="#fffee9" stroke-miterlimit="10" stroke-width="0.25"/>
        <path id="Trazado_958" data-name="Trazado 958" d="M370.234,216.085c-8.7-20.957-15.677-13.342-15.591,17.009" transform="translate(-340.74 -202.302)" fill="none" stroke="#fffee9" stroke-miterlimit="10" stroke-width="0.25"/>
        <path id="Trazado_959" data-name="Trazado 959" d="M401.159,119.484c-25.777-15.514-46.6-3.486-46.517,26.865-.086-30.351,21.624-67.1,48.491-82.08C428.91,79.782,428.026,104.5,401.159,119.484Z" transform="translate(-340.741 -115.557)" fill="none" stroke="#fffee9" stroke-miterlimit="10" stroke-width="0.25"/>
        <path id="Trazado_960" data-name="Trazado 960" d="M371.192,204.961c3.668-2.045,3.789-5.421.27-7.539" transform="translate(-350.996 -198.07)" fill="none" stroke="#fffee9" stroke-miterlimit="10" stroke-width="0.25"/>
        <path id="Trazado_961" data-name="Trazado 961" d="M419.34,161.714c-35.818-5.834-64.784,14.04-64.7,44.391" transform="translate(-340.741 -175.312)" fill="none" stroke="#fffee9" stroke-miterlimit="10" stroke-width="0.25"/>
        <path id="Trazado_962" data-name="Trazado 962" d="M318.111,199.285l-.022-.013c.07-.016.156.062.222.091a22.6,22.6,0,0,0,3.279,1.047,31.464,31.464,0,0,0,3.452.663,47.184,47.184,0,0,0,6.235.471,46.6,46.6,0,0,0,8.336-.645,25.922,25.922,0,0,0,6.22-1.772,10.405,10.405,0,0,0-.916.61c-.52.405-1.2.963-1.681,1.413a27.391,27.391,0,0,0-2.72,2.943,38.819,38.819,0,0,0-2.4,3.4,56.231,56.231,0,0,0-2.657,5.108,43,43,0,0,0-2.519,7.991c-.307,1.533-.61,3.6-.768,5.156-.127,1.247-.126,2.922-.18,4.174-.054-1.179-.047-2.757-.181-3.929-.206-1.806-.567-4.206-.951-5.982a32.357,32.357,0,0,0-.877-3.227c-.508-1.493-1.239-3.469-1.889-4.905a37.3,37.3,0,0,0-4.06-6.824,37.889,37.889,0,0,0-2.874-3.29A17.346,17.346,0,0,0,318.111,199.285Z" transform="translate(-318.089 -199.127)" fill="none" stroke="#fffee9" stroke-miterlimit="10" stroke-width="0.25"/>
      </g>
    </g>
    <g id="Grupo_116" data-name="Grupo 116" transform="translate(67.423 53.6)">
      <g id="Grupo_115" data-name="Grupo 115" clip-path="url(#clip-path-2)">
        <path id="Trazado_964" data-name="Trazado 964" d="M197.714,61.732c25.777,15.514,46.742,52.694,46.828,83.045-.086-30.351-21.935-42.81-48.8-27.829C169.963,101.434,170.847,76.714,197.714,61.732Z" transform="translate(-177.09 -91.852)" fill="none" stroke="#fffee9" stroke-miterlimit="10" stroke-width="0.25"/>
        <path id="Trazado_965" data-name="Trazado 965" d="M276.769,118.74c-13.307,7.42-13.744,19.664-.978,27.347" transform="translate(-232.567 -127.18)" fill="none" stroke="#fffee9" stroke-miterlimit="10" stroke-width="0.25"/>
        <path id="Trazado_966" data-name="Trazado 966" d="M333.068,197.076c-3.668,2.045-3.789,5.42-.27,7.539" transform="translate(-272.066 -175.723)" fill="none" stroke="#fffee9" stroke-miterlimit="10" stroke-width="0.25"/>
        <path id="Trazado_967" data-name="Trazado 967" d="M181.845,158.628c36.21-5.106,65.632,15.359,65.718,45.71" transform="translate(-180.11 -151.414)" fill="none" stroke="#fffee9" stroke-miterlimit="10" stroke-width="0.25"/>
        <path id="Trazado_968" data-name="Trazado 968" d="M226.32,196.581c26.868-14.981,48.717-2.522,48.8,27.829-.086-30.351,20.74-42.379,46.517-26.865C294.772,212.526,252.1,212.095,226.32,196.581Z" transform="translate(-207.671 -171.485)" fill="none" stroke="#fffee9" stroke-miterlimit="10" stroke-width="0.25"/>
        <path id="Trazado_969" data-name="Trazado 969" d="M290.937,190.646c12.766,7.683,33.9,7.9,47.21.478" transform="translate(-247.713 -171.739)" fill="none" stroke="#fffee9" stroke-miterlimit="10" stroke-width="0.25"/>
        <path id="Trazado_970" data-name="Trazado 970" d="M336.973,216.9a14.336,14.336,0,0,0,13.014.132" transform="translate(-276.241 -188.006)" fill="none" stroke="#fffee9" stroke-miterlimit="10" stroke-width="0.25"/>
        <path id="Trazado_971" data-name="Trazado 971" d="M305.724,215.494c10.189-20.766,18.519-13,18.6,17.355" transform="translate(-256.877 -179.925)" fill="none" stroke="#fffee9" stroke-miterlimit="10" stroke-width="0.25"/>
        <path id="Trazado_972" data-name="Trazado 972" d="M370.234,216.085c-8.7-20.957-15.677-13.342-15.591,17.009" transform="translate(-287.191 -180.17)" fill="none" stroke="#fffee9" stroke-miterlimit="10" stroke-width="0.25"/>
        <path id="Trazado_973" data-name="Trazado 973" d="M401.159,119.484c-25.777-15.514-46.6-3.486-46.517,26.865-.086-30.351,21.624-67.1,48.491-82.08C428.91,79.782,428.026,104.5,401.159,119.484Z" transform="translate(-287.191 -93.424)" fill="none" stroke="#fffee9" stroke-miterlimit="10" stroke-width="0.25"/>
        <path id="Trazado_974" data-name="Trazado 974" d="M415.071,147.342c13.307-7.42,13.744-19.664.978-27.347" transform="translate(-324.638 -127.957)" fill="none" stroke="#fffee9" stroke-miterlimit="10" stroke-width="0.25"/>
        <path id="Trazado_975" data-name="Trazado 975" d="M371.192,204.961c3.668-2.045,3.789-5.421.27-7.539" transform="translate(-297.446 -175.938)" fill="none" stroke="#fffee9" stroke-miterlimit="10" stroke-width="0.25"/>
        <path id="Trazado_976" data-name="Trazado 976" d="M419.34,161.714c-35.818-5.834-64.784,14.04-64.7,44.391" transform="translate(-287.191 -153.18)" fill="none" stroke="#fffee9" stroke-miterlimit="10" stroke-width="0.25"/>
        <path id="Trazado_977" data-name="Trazado 977" d="M244.736,193.856c-.064-1.277-.091-2.983-.211-4.255a61.986,61.986,0,0,0-1.285-7.122,27.571,27.571,0,0,0-.978-3.158c-.5-1.348-1.223-3.131-1.859-4.423-.385-.782-.923-1.814-1.381-2.556a35.816,35.816,0,0,0-2.38-3.533,39.183,39.183,0,0,0-2.737-3.11c-.56-.54-1.344-1.222-1.949-1.713a12.715,12.715,0,0,0-1.1-.764l-.03-.024a16.542,16.542,0,0,0,2.044.749,29.412,29.412,0,0,0,3.035.743c1.973.342,2.442.423,3.846.559,2.438.237,4.2.232,4.27.232,1.772-.009,2.581-.013,4.325-.147,1.2-.093,2.8-.3,3.992-.494.864-.143,2.275-.435,3.334-.737.351-.1.821-.229,1.165-.351.291-.1.683-.236.971-.35.09-.035.548-.218.771-.338-.354.222-.82.531-1.15.788-.451.351-1.031.845-1.447,1.236a28.092,28.092,0,0,0-2.764,3,45.668,45.668,0,0,0-2.8,4.077,40.018,40.018,0,0,0-2.212,4.372c-.373.885-.86,2.072-1.149,2.988-.468,1.484-1.064,3.477-1.37,5-.24,1.2-.529,2.806-.652,4.021-.161,1.587-.28,3.714-.3,5.309-.086-30.351,29.979-54.028,67.153-52.885-.922,9.518-7.826,18.876-20.637,26.02-26.867,14.981-69.543,14.549-95.32-.964-11.536-6.943-17.732-15.73-18.649-24.664C214.452,140,244.65,163.5,244.736,193.856Z" transform="translate(-177.284 -140.931)" fill="none" stroke="#fffee9" stroke-miterlimit="10" stroke-width="0.25"/>
      </g>
    </g>
    <g id="Grupo_118" data-name="Grupo 118" transform="translate(67.304 12.52)">
      <g id="Grupo_117" data-name="Grupo 117" clip-path="url(#clip-path-3)">
        <path id="Trazado_979" data-name="Trazado 979" d="M326.832,44.839c-26.868,14.981-48.577,51.729-48.491,82.081-.086-30.351-21.051-67.531-46.828-83.045C258.379,28.894,301.055,29.326,326.832,44.839Z" transform="translate(-210.769 -32.915)" fill="none" stroke="#fffee9" stroke-miterlimit="10" stroke-width="0.25"/>
        <path id="Trazado_980" data-name="Trazado 980" d="M340.718,110.372c-12.766-7.683-33.9-7.9-47.209-.478" transform="translate(-249.188 -77.255)" fill="none" stroke="#fffee9" stroke-miterlimit="10" stroke-width="0.25"/>
        <path id="Trazado_981" data-name="Trazado 981" d="M350.7,194.77a14.338,14.338,0,0,0-13.014-.132" transform="translate(-276.561 -132.206)" fill="none" stroke="#fffee9" stroke-miterlimit="10" stroke-width="0.25"/>
        <path id="Trazado_982" data-name="Trazado 982" d="M372.936,36.727c-10.189,20.766-18.379,62.2-18.293,92.555" transform="translate(-287.071 -35.277)" fill="none" stroke="#fffee9" stroke-miterlimit="10" stroke-width="0.25"/>
        <path id="Trazado_983" data-name="Trazado 983" d="M312.828,35.818c8.7,20.957,15.817,62.549,15.9,92.9" transform="translate(-261.16 -34.714)" fill="none" stroke="#fffee9" stroke-miterlimit="10" stroke-width="0.25"/>
        <path id="Trazado_984" data-name="Trazado 984" d="M197.714,61.732c25.777,15.514,46.742,52.694,46.828,83.045-.086-30.351-21.935-42.81-48.8-27.829C169.963,101.434,170.847,76.714,197.714,61.732Z" transform="translate(-176.97 -50.773)" fill="none" stroke="#fffee9" stroke-miterlimit="10" stroke-width="0.25"/>
        <path id="Trazado_985" data-name="Trazado 985" d="M276.769,118.74c-13.307,7.42-13.744,19.664-.978,27.347" transform="translate(-232.448 -86.1)" fill="none" stroke="#fffee9" stroke-miterlimit="10" stroke-width="0.25"/>
        <path id="Trazado_986" data-name="Trazado 986" d="M333.068,197.076c-3.668,2.045-3.789,5.42-.27,7.539" transform="translate(-271.947 -134.644)" fill="none" stroke="#fffee9" stroke-miterlimit="10" stroke-width="0.25"/>
        <path id="Trazado_987" data-name="Trazado 987" d="M183.707,107.816c35.818,5.834,64.923,35.167,65.009,65.519" transform="translate(-181.145 -79.33)" fill="none" stroke="#fffee9" stroke-miterlimit="10" stroke-width="0.25"/>
        <path id="Trazado_988" data-name="Trazado 988" d="M244.542,126.92c-.086-30.351-30.285-53.853-67.452-52.493-1.131-11.027,5.782-22.276,20.624-30.552,26.867-14.981,69.543-14.55,95.32.964C266.165,59.821,244.456,96.569,244.542,126.92Z" transform="translate(-176.97 -32.915)" fill="none" stroke="#fffee9" stroke-miterlimit="10" stroke-width="0.25"/>
      </g>
    </g>
    <g id="Grupo_120" data-name="Grupo 120" transform="translate(134.875 24.443)">
      <g id="Grupo_119" data-name="Grupo 119" clip-path="url(#clip-path-4)">
        <path id="Trazado_990" data-name="Trazado 990" d="M401.159,119.484c-25.777-15.514-46.6-3.486-46.517,26.865-.086-30.351,21.624-67.1,48.491-82.08C428.91,79.782,428.026,104.5,401.159,119.484Z" transform="translate(-354.642 -64.268)" fill="none" stroke="#fffee9" stroke-miterlimit="10" stroke-width="0.25"/>
        <path id="Trazado_991" data-name="Trazado 991" d="M415.071,147.342c13.307-7.42,13.744-19.664.978-27.347" transform="translate(-392.089 -98.801)" fill="none" stroke="#fffee9" stroke-miterlimit="10" stroke-width="0.25"/>
        <path id="Trazado_992" data-name="Trazado 992" d="M371.192,204.961c3.668-2.045,3.789-5.421.27-7.539" transform="translate(-364.898 -146.782)" fill="none" stroke="#fffee9" stroke-miterlimit="10" stroke-width="0.25"/>
        <path id="Trazado_993" data-name="Trazado 993" d="M420.049,111.285c-36.21,5.106-65.492,33.848-65.406,64.2" transform="translate(-354.642 -93.403)" fill="none" stroke="#fffee9" stroke-miterlimit="10" stroke-width="0.25"/>
        <path id="Trazado_994" data-name="Trazado 994" d="M421.8,93.464c-37.174-1.143-67.239,22.534-67.153,52.885-.086-30.351,21.624-67.1,48.491-82.081C416.619,72.384,422.807,83.02,421.8,93.464Z" transform="translate(-354.642 -64.268)" fill="none" stroke="#fffee9" stroke-miterlimit="10" stroke-width="0.25"/>
      </g>
    </g>
    <g id="Grupo_122" data-name="Grupo 122" transform="translate(0.048 28.427)">
      <g id="Grupo_121" data-name="Grupo 121" clip-path="url(#clip-path-5)">
        <ellipse id="Elipse_13" data-name="Elipse 13" cx="134.828" cy="78.096" rx="134.828" ry="78.096" transform="translate(-0.221 0.383) rotate(-0.162)" fill="none" stroke="#fffee9" stroke-miterlimit="10" stroke-width="0.25"/>
      </g>
    </g>
    <g id="Grupo_124" data-name="Grupo 124" transform="translate(0.047 0.06)">
      <g id="Grupo_123" data-name="Grupo 123" clip-path="url(#clip-path-6)">
        <path id="Trazado_997" data-name="Trazado 997" d="M299.841,72.669c-.086-30.351-21.935-42.81-48.8-27.83-25.776-15.513-68.452-15.945-95.319-.964-25.775-15.513-46.6-3.485-46.514,26.866C162.939,40.78,248.289,41.643,299.841,72.669Z" transform="translate(-67.721 -20.455)" fill="none" stroke="#fffee9" stroke-miterlimit="10" stroke-width="0.25"/>
        <path id="Trazado_998" data-name="Trazado 998" d="M303.376,38.047C255.343,9.138,175.82,8.334,125.755,36.251" transform="translate(-77.976 -9.867)" fill="none" stroke="#fffee9" stroke-miterlimit="10" stroke-width="0.25"/>
        <path id="Trazado_999" data-name="Trazado 999" d="M421.348,35.122c-.086-30.351-8.416-38.121-18.6-17.357" transform="translate(-249.623 -3.856)" fill="none" stroke="#fffee9" stroke-miterlimit="10" stroke-width="0.25"/>
        <path id="Trazado_1000" data-name="Trazado 1000" d="M271.833,33.548c-.086-30.351,6.894-37.966,15.591-17.011" transform="translate(-168.498 -2.973)" fill="none" stroke="#fffee9" stroke-miterlimit="10" stroke-width="0.25"/>
        <path id="Trazado_1001" data-name="Trazado 1001" d="M41.61,77.559c-.086-30.351,20.74-42.379,46.514-26.866-26.867,14.981-27.751,39.7-1.975,55.216-26.865,14.98-48.575,51.728-48.489,82.079C-13.891,156.961-12.123,107.521,41.61,77.559Z" transform="translate(-0.125 -27.273)" fill="none" stroke="#fffee9" stroke-miterlimit="10" stroke-width="0.25"/>
        <path id="Trazado_1002" data-name="Trazado 1002" d="M62.772,69.527c-50.065,27.916-51.712,73.982-3.68,102.89" transform="translate(-14.994 -43.143)" fill="none" stroke="#fffee9" stroke-miterlimit="10" stroke-width="0.25"/>
        <path id="Trazado_1003" data-name="Trazado 1003" d="M13.6,150.551c-.086-30.351,28.879-50.225,64.694-44.391" transform="translate(-8.474 -65.214)" fill="none" stroke="#fffee9" stroke-miterlimit="10" stroke-width="0.25"/>
        <path id="Trazado_1004" data-name="Trazado 1004" d="M218.365,21.733c8.551,5.146,13.838,15.734,13.88,30.635-51.551-31.027-136.9-31.89-190.634-1.929C13.957,65.859.067,86.438.126,107.011A116.069,116.069,0,0,1,.978,94.32c.32-2.124.79-4.953,1.257-7.05.511-2.289,1.265-5.331,2-7.559a117.467,117.467,0,0,1,5.322-13.37,97.885,97.885,0,0,1,10.975-17.43,93.1,93.1,0,0,1,7.653-8.7c1.659-1.6,3.827-3.779,5.569-5.287,2.349-2.035,5.535-4.7,8.055-6.514C43.768,27,46.4,25.139,48.44,23.846c2.445-1.551,5.768-3.519,8.306-4.911a142.84,142.84,0,0,1,15.667-7.3C77.023,9.83,83.289,7.726,88.058,6.4c2.46-.682,5.765-1.5,8.256-2.057,2.427-.54,5.677-1.208,8.131-1.6,3.51-.562,10.042-1.608,16.25-2.028,4.892-.331,11.432-.5,16.336-.559,2.456-.03,5.734.095,8.185.264,2.483.172,5.8.364,8.271.64,2.437.272,5.686.645,8.112,1s5.646.934,8.059,1.376c2.525.464,5.864,1.234,8.356,1.851,2.387.591,5.541,1.49,7.9,2.177,2.61.759,6.038,1.946,8.591,2.88,2.32.849,5.367,2.1,7.645,3.06,2.753,1.157,6.331,2.913,8.988,4.277C213.349,18.82,216.216,20.485,218.365,21.733Z" transform="translate(-0.125 -0.153)" fill="none" stroke="#fffee9" stroke-miterlimit="10" stroke-width="0.25"/>
      </g>
    </g>
    <g id="Grupo_126" data-name="Grupo 126" transform="translate(0.048 0.051)">
      <g id="Grupo_125" data-name="Grupo 125" clip-path="url(#clip-path-7)">
        <path id="Trazado_1006" data-name="Trazado 1006" d="M299.841,72.669c-.086-30.351-21.935-42.81-48.8-27.83-25.776-15.513-68.452-15.945-95.319-.964-25.775-15.513-46.6-3.485-46.514,26.866C162.939,40.78,248.289,41.643,299.841,72.669Z" transform="translate(-67.721 -20.446)" fill="none" stroke="#fffee9" stroke-miterlimit="10" stroke-width="0.25"/>
        <path id="Trazado_1007" data-name="Trazado 1007" d="M303.376,38.047C255.343,9.138,175.82,8.334,125.755,36.251" transform="translate(-77.976 -9.857)" fill="none" stroke="#fffee9" stroke-miterlimit="10" stroke-width="0.25"/>
        <path id="Trazado_1008" data-name="Trazado 1008" d="M313.059,18.765c-38.785-23.343-103-23.993-143.426-1.451" transform="translate(-105.167 -0.559)" fill="none" stroke="#fffee9" stroke-miterlimit="10" stroke-width="0.25"/>
        <path id="Trazado_1009" data-name="Trazado 1009" d="M421.348,35.122c-.086-30.351-8.416-38.121-18.6-17.357" transform="translate(-249.623 -3.846)" fill="none" stroke="#fffee9" stroke-miterlimit="10" stroke-width="0.25"/>
        <path id="Trazado_1010" data-name="Trazado 1010" d="M271.833,33.548c-.086-30.351,6.894-37.966,15.591-17.011" transform="translate(-168.498 -2.964)" fill="none" stroke="#fffee9" stroke-miterlimit="10" stroke-width="0.25"/>
        <path id="Trazado_1011" data-name="Trazado 1011" d="M41.61,77.559c-.086-30.351,20.74-42.379,46.514-26.866-26.867,14.981-27.751,39.7-1.975,55.216-26.865,14.98-48.575,51.728-48.489,82.079C-13.891,156.961-12.123,107.521,41.61,77.559Z" transform="translate(-0.125 -27.264)" fill="none" stroke="#fffee9" stroke-miterlimit="10" stroke-width="0.25"/>
        <path id="Trazado_1012" data-name="Trazado 1012" d="M62.772,69.527c-50.065,27.916-51.712,73.982-3.68,102.89" transform="translate(-14.994 -43.134)" fill="none" stroke="#fffee9" stroke-miterlimit="10" stroke-width="0.25"/>
        <path id="Trazado_1013" data-name="Trazado 1013" d="M118.776,44.184c-40.426,22.542-41.757,59.739-2.971,83.082" transform="translate(-54.31 -27.429)" fill="none" stroke="#fffee9" stroke-miterlimit="10" stroke-width="0.25"/>
        <path id="Trazado_1014" data-name="Trazado 1014" d="M13.6,150.551c-.086-30.351,28.879-50.225,64.694-44.391" transform="translate(-8.474 -65.205)" fill="none" stroke="#fffee9" stroke-miterlimit="10" stroke-width="0.25"/>
        <path id="Trazado_1015" data-name="Trazado 1015" d="M9.874,224.1c-.086-30.351,29.2-59.094,65.4-64.2" transform="translate(-6.166 -99.137)" fill="none" stroke="#fffee9" stroke-miterlimit="10" stroke-width="0.25"/>
        <path id="Trazado_1016" data-name="Trazado 1016" d="M98.823,289c-.086-30.351,21.624-67.1,48.489-82.079,25.776,15.514,68.452,15.945,95.32.964,25.775,15.513,46.74,52.692,46.826,83.043C235.724,320.887,150.374,320.024,98.823,289Z" transform="translate(-61.287 -128.273)" fill="none" stroke="#fffee9" stroke-miterlimit="10" stroke-width="0.25"/>
        <path id="Trazado_1017" data-name="Trazado 1017" d="M116.08,340.068c48.032,28.909,127.556,29.713,177.621,1.8" transform="translate(-71.981 -210.785)" fill="none" stroke="#fffee9" stroke-miterlimit="10" stroke-width="0.25"/>
        <path id="Trazado_1018" data-name="Trazado 1018" d="M161.82,262.643c38.785,23.343,103,23.993,143.426,1.451" transform="translate(-100.325 -162.805)" fill="none" stroke="#fffee9" stroke-miterlimit="10" stroke-width="0.25"/>
        <path id="Trazado_1019" data-name="Trazado 1019" d="M257.625,327.011c-.086-30.351,8.1-71.789,18.292-92.552" transform="translate(-159.694 -145.34)" fill="none" stroke="#fffee9" stroke-miterlimit="10" stroke-width="0.25"/>
        <path id="Trazado_1020" data-name="Trazado 1020" d="M411.542,328.267c-.086-30.351-7.206-71.943-15.9-92.9" transform="translate(-245.221 -145.903)" fill="none" stroke="#fffee9" stroke-miterlimit="10" stroke-width="0.25"/>
        <path id="Trazado_1021" data-name="Trazado 1021" d="M523.781,192.191c-.086-30.351-21.051-67.531-46.826-83.043,26.867-14.981,27.751-39.7,1.975-55.216,26.865-14.979,48.714-2.521,48.8,27.831C579.282,112.789,577.514,162.23,523.781,192.191Z" transform="translate(-295.611 -29.539)" fill="none" stroke="#fffee9" stroke-miterlimit="10" stroke-width="0.25"/>
        <path id="Trazado_1022" data-name="Trazado 1022" d="M583.119,177.141c50.065-27.916,51.712-73.982,3.68-102.89" transform="translate(-361.399 -46.061)" fill="none" stroke="#fffee9" stroke-miterlimit="10" stroke-width="0.25"/>
        <path id="Trazado_1023" data-name="Trazado 1023" d="M538.947,131.082C579.373,108.54,580.7,71.343,541.918,48" transform="translate(-334.026 -29.794)" fill="none" stroke="#fffee9" stroke-miterlimit="10" stroke-width="0.25"/>
        <path id="Trazado_1024" data-name="Trazado 1024" d="M589.766,228.888c-.086-30.351-29.191-59.684-65.006-65.518" transform="translate(-325.235 -101.287)" fill="none" stroke="#fffee9" stroke-miterlimit="10" stroke-width="0.25"/>
        <path id="Trazado_1025" data-name="Trazado 1025" d="M592.338,155.722c-.086-30.351-29.508-50.816-65.715-45.71" transform="translate(-326.389 -67.738)" fill="none" stroke="#fffee9" stroke-miterlimit="10" stroke-width="0.25"/>
        <path id="Trazado_1026" data-name="Trazado 1026" d="M55.452,19.631c2.2-1.2,5.142-2.763,7.4-3.837,2.636-1.254,6.184-2.863,8.906-3.918,4.615-1.789,10.877-3.9,15.626-5.3,2.567-.756,6.045-1.561,8.647-2.183,2.394-.572,5.627-1.15,8.047-1.6,2.5-.466,5.861-.937,8.385-1.253,2.461-.308,5.751-.67,8.225-.838C125.16.4,130.226.055,137.03.143c4.9.063,11.426.513,16.312.89,2.45.189,5.692.694,8.13,1,2.472.307,5.745.888,8.184,1.394,2.4.5,5.608,1.174,7.992,1.761,2.5.616,5.826,1.457,8.266,2.267,4.677,1.552,10.885,3.724,15.442,5.6,2.518,1.036,5.8,2.587,8.231,3.823,2.679,1.365,6.19,3.309,8.777,4.843-8.867-5.337-21.243-4.822-34.92,2.8-25.776-15.514-68.452-15.945-95.32-.964S60.373,63.26,86.15,78.773s68.452,15.945,95.32.964,27.751-39.7,1.975-55.216c13.676-7.626,26.053-8.141,34.92-2.8,4.04,2.608,9.34,6.228,13.18,9.123a86.473,86.473,0,0,1,7.28,6.3A132.255,132.255,0,0,1,249,48.2a108.426,108.426,0,0,1,8.056,11.745,96.581,96.581,0,0,1,5.445,10.851,118.4,118.4,0,0,1,4.546,13.56A95.573,95.573,0,0,1,269.1,95.327c.405,3.246.608,7.612.684,10.882.059,20.573-13.832,41.152-41.485,56.572-53.732,29.961-139.082,29.1-190.634-1.929C12.64,145.794.18,126.4.125,107,.284,102.674.6,96.9,1.226,92.623A91.657,91.657,0,0,1,4.033,80.355a107.117,107.117,0,0,1,5.224-13.41,75.3,75.3,0,0,1,3.7-6.952c2.366-3.736,5.633-8.661,8.386-12.121a112.846,112.846,0,0,1,9.3-10.1,117.842,117.842,0,0,1,9.072-7.794c1.912-1.455,4.49-3.363,6.5-4.684C48.932,23.506,52.6,21.185,55.452,19.631Z" transform="translate(-0.125 -0.129)" fill="none" stroke="#fffee9" stroke-miterlimit="10" stroke-width="0.25"/>
      </g>
    </g>
    <g id="Grupo_128" data-name="Grupo 128" transform="translate(218.287 21.64)">
      <g id="Grupo_127" data-name="Grupo 127" clip-path="url(#clip-path-8)">
        <path id="Trazado_1028" data-name="Trazado 1028" d="M523.781,192.191c-.086-30.351-21.051-67.531-46.826-83.043,26.867-14.981,27.751-39.7,1.975-55.216,26.865-14.979,48.714-2.521,48.8,27.831C579.282,112.789,577.514,162.23,523.781,192.191Z" transform="translate(-513.85 -51.128)" fill="none" stroke="#fffee9" stroke-miterlimit="10" stroke-width="0.25"/>
        <path id="Trazado_1029" data-name="Trazado 1029" d="M583.119,177.141c50.065-27.916,51.712-73.982,3.68-102.89" transform="translate(-579.638 -67.65)" fill="none" stroke="#fffee9" stroke-miterlimit="10" stroke-width="0.25"/>
        <path id="Trazado_1030" data-name="Trazado 1030" d="M592.338,155.722c-.086-30.351-29.508-50.816-65.715-45.71" transform="translate(-544.628 -89.327)" fill="none" stroke="#fffee9" stroke-miterlimit="10" stroke-width="0.25"/>
        <path id="Trazado_1031" data-name="Trazado 1031" d="M625.383,141.386c-.055-19.4-12.515-38.8-37.536-53.857-.042-14.9-5.329-25.488-13.88-30.635,2.529,1.547,5.9,3.635,8.263,5.42a143.834,143.834,0,0,1,12.2,10,139.167,139.167,0,0,1,9.888,10.689A98.491,98.491,0,0,1,611.449,93.1a125.345,125.345,0,0,1,6.66,12.873,89.929,89.929,0,0,1,3.721,10.5A87.178,87.178,0,0,1,624.2,127.04C624.814,131.315,625.2,137.072,625.383,141.386Z" transform="translate(-573.967 -56.895)" fill="none" stroke="#fffee9" stroke-miterlimit="10" stroke-width="0.25"/>
      </g>
    </g>
    <g id="Grupo_130" data-name="Grupo 130" transform="translate(7.867 303.621)">
      <g id="Grupo_129" data-name="Grupo 129" clip-path="url(#clip-path-9)">
        <ellipse id="Elipse_14" data-name="Elipse 14" cx="134.831" cy="78.098" rx="134.831" ry="78.098" transform="matrix(1, -0.003, 0.003, 1, -0.221, 0.384)" fill="none" stroke="#fffee9" stroke-miterlimit="10" stroke-width="0.25"/>
      </g>
    </g>
    <g id="Grupo_132" data-name="Grupo 132" transform="translate(128.857 381.72)">
      <g id="Grupo_131" data-name="Grupo 131" clip-path="url(#clip-path-10)">
        <path id="Trazado_1034" data-name="Trazado 1034" d="M299.419,1003.7c.086,30.349,21.935,42.808,48.8,27.826-25.776-15.514-68.452-15.945-95.319-.964C278.679,1046.073,299.5,1034.046,299.419,1003.7Z" transform="translate(-285.577 -1003.697)" fill="none" stroke="#fffee9" stroke-miterlimit="10" stroke-width="0.25"/>
        <path id="Trazado_1035" data-name="Trazado 1035" d="M371.68,1064.234a14.337,14.337,0,0,0-13.014-.132" transform="translate(-351.118 -1040.202)" fill="none" stroke="#fffee9" stroke-miterlimit="10" stroke-width="0.25"/>
        <path id="Trazado_1036" data-name="Trazado 1036" d="M375.214,1003.7c.086,30.349,8.415,38.118,18.6,17.352" transform="translate(-361.372 -1003.697)" fill="none" stroke="#fffee9" stroke-miterlimit="10" stroke-width="0.25"/>
        <path id="Trazado_1037" data-name="Trazado 1037" d="M349.809,1003.7c.086,30.349-6.895,37.964-15.592,17.006" transform="translate(-335.967 -1003.697)" fill="none" stroke="#fffee9" stroke-miterlimit="10" stroke-width="0.25"/>
        <path id="Trazado_1038" data-name="Trazado 1038" d="M265.619,1003.7c.086,30.349-20.74,42.376-46.517,26.862-26.867,14.981-27.751,39.7-1.975,55.216C244,1070.793,265.705,1034.046,265.619,1003.7Z" transform="translate(-251.778 -1003.697)" fill="none" stroke="#fffee9" stroke-miterlimit="10" stroke-width="0.25"/>
        <path id="Trazado_1039" data-name="Trazado 1039" d="M354.051,1066.54c-3.668,2.045-3.789,5.421-.27,7.539" transform="translate(-346.502 -1042.64)" fill="none" stroke="#fffee9" stroke-miterlimit="10" stroke-width="0.25"/>
        <path id="Trazado_1040" data-name="Trazado 1040" d="M269.794,1003.7c.086,30.349-28.88,50.223-64.7,44.388" transform="translate(-255.952 -1003.697)" fill="none" stroke="#fffee9" stroke-miterlimit="10" stroke-width="0.25"/>
        <path id="Trazado_1041" data-name="Trazado 1041" d="M366.539,1034.328l.031.024a16.5,16.5,0,0,0-2.044-.749,29.457,29.457,0,0,0-3.034-.743c-1.973-.341-2.442-.422-3.846-.559-2.438-.237-4.2-.232-4.27-.232-1.3.006-3.03.047-4.324.147-1.9.146-3.313.381-3.994.494-.863.143-2.275.435-3.334.736-.351.1-.821.229-1.164.352-.291.1-.683.235-.971.349-.089.035-.548.218-.771.339.362-.227.84-.541,1.176-.807.51-.4,1.166-.972,1.638-1.42a35.657,35.657,0,0,0,2.8-3.112,42.9,42.9,0,0,0,2.768-4.132c.454-.739.964-1.78,1.343-2.56a43.976,43.976,0,0,0,1.951-4.873c.489-1.481.983-3.506,1.318-5.03a38,38,0,0,0,.612-4.068c.138-1.432.234-3.35.239-4.789C352.7,1018.595,357.988,1029.182,366.539,1034.328Z" transform="translate(-338.818 -1003.697)" fill="none" stroke="#fffee9" stroke-miterlimit="10" stroke-width="0.25"/>
      </g>
    </g>
    <g id="Grupo_134" data-name="Grupo 134" transform="translate(75.545 381.72)">
      <g id="Grupo_133" data-name="Grupo 133" clip-path="url(#clip-path-11)">
        <path id="Trazado_1043" data-name="Trazado 1043" d="M299.419,1003.7c.086,30.349,21.935,42.808,48.8,27.826-25.776-15.514-68.452-15.945-95.319-.964C278.679,1046.073,299.5,1034.046,299.419,1003.7Z" transform="translate(-232.265 -1003.697)" fill="none" stroke="#fffee9" stroke-miterlimit="10" stroke-width="0.25"/>
        <path id="Trazado_1044" data-name="Trazado 1044" d="M371.68,1064.234a14.337,14.337,0,0,0-13.014-.132" transform="translate(-297.806 -1040.202)" fill="none" stroke="#fffee9" stroke-miterlimit="10" stroke-width="0.25"/>
        <path id="Trazado_1045" data-name="Trazado 1045" d="M362,1083.513c-12.766-7.684-33.9-7.9-47.209-.478" transform="translate(-270.615 -1049.498)" fill="none" stroke="#fffee9" stroke-miterlimit="10" stroke-width="0.25"/>
        <path id="Trazado_1046" data-name="Trazado 1046" d="M375.214,1003.7c.086,30.349,8.415,38.118,18.6,17.352" transform="translate(-308.061 -1003.697)" fill="none" stroke="#fffee9" stroke-miterlimit="10" stroke-width="0.25"/>
        <path id="Trazado_1047" data-name="Trazado 1047" d="M349.809,1003.7c.086,30.349-6.895,37.964-15.592,17.006" transform="translate(-282.655 -1003.697)" fill="none" stroke="#fffee9" stroke-miterlimit="10" stroke-width="0.25"/>
        <path id="Trazado_1048" data-name="Trazado 1048" d="M265.619,1003.7c.086,30.349-20.74,42.376-46.517,26.862-26.867,14.981-27.751,39.7-1.975,55.216C244,1070.793,265.705,1034.046,265.619,1003.7Z" transform="translate(-198.466 -1003.697)" fill="none" stroke="#fffee9" stroke-miterlimit="10" stroke-width="0.25"/>
        <path id="Trazado_1049" data-name="Trazado 1049" d="M354.051,1066.54c-3.668,2.045-3.789,5.421-.27,7.539" transform="translate(-293.191 -1042.64)" fill="none" stroke="#fffee9" stroke-miterlimit="10" stroke-width="0.25"/>
        <path id="Trazado_1050" data-name="Trazado 1050" d="M298.046,1091.879c-13.307,7.42-13.745,19.664-.978,27.347" transform="translate(-253.874 -1058.342)" fill="none" stroke="#fffee9" stroke-miterlimit="10" stroke-width="0.25"/>
        <path id="Trazado_1051" data-name="Trazado 1051" d="M269.794,1003.7c.086,30.349-28.88,50.223-64.7,44.388" transform="translate(-202.641 -1003.697)" fill="none" stroke="#fffee9" stroke-miterlimit="10" stroke-width="0.25"/>
        <path id="Trazado_1052" data-name="Trazado 1052" d="M271.919,904.268c26.868-14.981,48.577-51.729,48.491-82.078-51.553-31.027-136.9-31.891-190.639-1.928.086,30.348,21.051,67.528,46.828,83.042C203.466,888.323,246.142,888.754,271.919,904.268Z" transform="translate(-155.963 -876.441)" fill="none" stroke="#fffee9" stroke-miterlimit="10" stroke-width="0.25"/>
        <path id="Trazado_1053" data-name="Trazado 1053" d="M424.133,898.518c10.189-20.766,18.379-62.2,18.293-92.552" transform="translate(-338.375 -881.165)" fill="none" stroke="#fffee9" stroke-miterlimit="10" stroke-width="0.25"/>
        <path id="Trazado_1054" data-name="Trazado 1054" d="M308.3,897.044c-8.7-20.957-15.817-62.549-15.9-92.9" transform="translate(-256.743 -880.037)" fill="none" stroke="#fffee9" stroke-miterlimit="10" stroke-width="0.25"/>
        <path id="Trazado_1055" data-name="Trazado 1055" d="M109,939.018C83.224,923.5,62.259,886.325,62.173,855.976c-53.734,29.962-55.5,79.4-3.949,110.431.086,30.349,21.935,42.808,48.8,27.826C81.25,978.72,82.134,954,109,939.018Z" transform="translate(-88.364 -912.156)" fill="none" stroke="#fffee9" stroke-miterlimit="10" stroke-width="0.25"/>
        <path id="Trazado_1056" data-name="Trazado 1056" d="M99.169,1013.658c-35.818-5.834-64.923-35.167-65.009-65.516" transform="translate(-96.714 -969.27)" fill="none" stroke="#fffee9" stroke-miterlimit="10" stroke-width="0.25"/>
        <path id="Trazado_1057" data-name="Trazado 1057" d="M251.952,1034.486a12.3,12.3,0,0,0,1.066-.722c.542-.429,1.245-1.029,1.747-1.5a27.724,27.724,0,0,0,2.723-3.015,37.622,37.622,0,0,0,2.387-3.456c.875-1.509,1.912-3.6,2.627-5.187a41.938,41.938,0,0,0,2.44-8.049c.27-1.384.534-3.249.669-4.653.121-1.257.128-2.942.183-4.2.086,30.349-29.979,54.025-67.153,52.882.922-9.518,7.826-18.876,20.637-26.02,26.867-14.981,69.543-14.55,95.32.964-13.678,7.627-26.056,8.142-34.923,2.805l.022.013c-.07.016-.156-.062-.222-.091a22.662,22.662,0,0,0-3.279-1.047,31.649,31.649,0,0,0-3.452-.663,47.074,47.074,0,0,0-6.235-.471,46.579,46.579,0,0,0-8.336.645A25.918,25.918,0,0,0,251.952,1034.486Z" transform="translate(-198.64 -1003.697)" fill="none" stroke="#fffee9" stroke-miterlimit="10" stroke-width="0.25"/>
      </g>
    </g>
    <g id="Grupo_136" data-name="Grupo 136" transform="translate(75.439 381.72)">
      <g id="Grupo_135" data-name="Grupo 135" clip-path="url(#clip-path-12)">
        <path id="Trazado_1059" data-name="Trazado 1059" d="M265.619,1003.7c.086,30.349-20.74,42.376-46.517,26.862-26.867,14.981-27.751,39.7-1.975,55.216C244,1070.793,265.705,1034.046,265.619,1003.7Z" transform="translate(-198.36 -1003.697)" fill="none" stroke="#fffee9" stroke-miterlimit="10" stroke-width="0.25"/>
        <path id="Trazado_1060" data-name="Trazado 1060" d="M354.051,1066.54c-3.668,2.045-3.789,5.421-.27,7.539" transform="translate(-293.084 -1042.64)" fill="none" stroke="#fffee9" stroke-miterlimit="10" stroke-width="0.25"/>
        <path id="Trazado_1061" data-name="Trazado 1061" d="M298.046,1091.879c-13.307,7.42-13.745,19.664-.978,27.347" transform="translate(-253.767 -1058.342)" fill="none" stroke="#fffee9" stroke-miterlimit="10" stroke-width="0.25"/>
        <path id="Trazado_1062" data-name="Trazado 1062" d="M268.64,1003.7c.086,30.349-29.2,59.091-65.406,64.2" transform="translate(-201.38 -1003.697)" fill="none" stroke="#fffee9" stroke-miterlimit="10" stroke-width="0.25"/>
        <path id="Trazado_1063" data-name="Trazado 1063" d="M296.2,1003.7c.086,30.349-21.624,67.1-48.491,82.078,25.776,15.514,68.452,15.945,95.319.964C317.252,1071.225,296.287,1034.046,296.2,1003.7Z" transform="translate(-228.941 -1003.697)" fill="none" stroke="#fffee9" stroke-miterlimit="10" stroke-width="0.25"/>
        <path id="Trazado_1064" data-name="Trazado 1064" d="M357.957,1086.361a14.337,14.337,0,0,0,13.014.132" transform="translate(-297.26 -1054.922)" fill="none" stroke="#fffee9" stroke-miterlimit="10" stroke-width="0.25"/>
        <path id="Trazado_1065" data-name="Trazado 1065" d="M312.215,1163.786c12.766,7.683,33.9,7.9,47.21.478" transform="translate(-268.914 -1102.902)" fill="none" stroke="#fffee9" stroke-miterlimit="10" stroke-width="0.25"/>
        <path id="Trazado_1066" data-name="Trazado 1066" d="M345.406,1003.7c.086,30.349-8.1,71.786-18.293,92.552" transform="translate(-278.146 -1003.697)" fill="none" stroke="#fffee9" stroke-miterlimit="10" stroke-width="0.25"/>
        <path id="Trazado_1067" data-name="Trazado 1067" d="M375.214,1003.7c.086,30.349,7.205,71.941,15.9,92.9" transform="translate(-307.954 -1003.697)" fill="none" stroke="#fffee9" stroke-miterlimit="10" stroke-width="0.25"/>
        <path id="Trazado_1068" data-name="Trazado 1068" d="M375.214,1003.7c.086,30.349,21.051,67.528,46.828,83.042,26.868-14.981,27.751-39.7,1.975-55.216C397.149,1046.5,375.3,1034.046,375.214,1003.7Z" transform="translate(-307.954 -1003.697)" fill="none" stroke="#fffee9" stroke-miterlimit="10" stroke-width="0.25"/>
        <path id="Trazado_1069" data-name="Trazado 1069" d="M392.175,1074.425c3.668-2.045,3.789-5.421.27-7.539" transform="translate(-318.465 -1042.854)" fill="none" stroke="#fffee9" stroke-miterlimit="10" stroke-width="0.25"/>
        <path id="Trazado_1070" data-name="Trazado 1070" d="M436.348,1120.482c13.307-7.42,13.744-19.664.978-27.347" transform="translate(-345.838 -1059.12)" fill="none" stroke="#fffee9" stroke-miterlimit="10" stroke-width="0.25"/>
        <path id="Trazado_1071" data-name="Trazado 1071" d="M375.214,1003.7c.086,30.349,29.19,59.682,65.009,65.516" transform="translate(-307.954 -1003.697)" fill="none" stroke="#fffee9" stroke-miterlimit="10" stroke-width="0.25"/>
        <path id="Trazado_1072" data-name="Trazado 1072" d="M109,939.018C83.224,923.5,62.259,886.325,62.173,855.976c-53.734,29.962-55.5,79.4-3.949,110.431.086,30.349,21.935,42.808,48.8,27.826C81.25,978.72,82.134,954,109,939.018Z" transform="translate(-88.258 -912.156)" fill="none" stroke="#fffee9" stroke-miterlimit="10" stroke-width="0.25"/>
        <path id="Trazado_1073" data-name="Trazado 1073" d="M96.153,1098.021c-36.21,5.106-65.632-15.359-65.718-45.707" transform="translate(-94.299 -1033.824)" fill="none" stroke="#fffee9" stroke-miterlimit="10" stroke-width="0.25"/>
        <path id="Trazado_1074" data-name="Trazado 1074" d="M168.19,1174.172c-26.868,14.981-48.717,2.522-48.8-27.826,51.553,31.027,136.9,31.891,190.639,1.929.086,30.349-20.74,42.376-46.516,26.862C236.642,1190.118,193.966,1189.686,168.19,1174.172Z" transform="translate(-149.421 -1092.094)" fill="none" stroke="#fffee9" stroke-miterlimit="10" stroke-width="0.25"/>
        <path id="Trazado_1075" data-name="Trazado 1075" d="M296.8,1218.78c-10.189,20.766-18.519,13-18.6-17.352" transform="translate(-247.832 -1126.228)" fill="none" stroke="#fffee9" stroke-miterlimit="10" stroke-width="0.25"/>
        <path id="Trazado_1076" data-name="Trazado 1076" d="M417.029,1220.253c8.7,20.957,15.677,13.342,15.591-17.006" transform="translate(-333.866 -1127.355)" fill="none" stroke="#fffee9" stroke-miterlimit="10" stroke-width="0.25"/>
        <path id="Trazado_1077" data-name="Trazado 1077" d="M498.344,998.34c25.777,15.514,46.6,3.486,46.517-26.862,53.734-29.963,55.5-79.4,3.949-110.432.086,30.349-21.624,67.1-48.491,82.078C526.095,958.639,525.211,983.359,498.344,998.34Z" transform="translate(-384.256 -915.298)" fill="none" stroke="#fffee9" stroke-miterlimit="10" stroke-width="0.25"/>
        <path id="Trazado_1078" data-name="Trazado 1078" d="M546.15,1103.639c35.818,5.834,64.784-14.04,64.7-44.388" transform="translate(-413.881 -1038.123)" fill="none" stroke="#fffee9" stroke-miterlimit="10" stroke-width="0.25"/>
        <path id="Trazado_1079" data-name="Trazado 1079" d="M265.619,1003.7c.086,30.349,30.284,53.85,67.451,52.49,1.132,11.027-5.781,22.276-20.624,30.552-26.867,14.981-69.543,14.55-95.319-.964-13.485-8.116-19.674-18.753-18.662-29.2C235.64,1057.722,265.7,1034.046,265.619,1003.7Z" transform="translate(-198.359 -1003.697)" fill="none" stroke="#fffee9" stroke-miterlimit="10" stroke-width="0.25"/>
      </g>
    </g>
    <g id="Grupo_138" data-name="Grupo 138" transform="translate(142.699 381.72)">
      <g id="Grupo_137" data-name="Grupo 137" clip-path="url(#clip-path-13)">
        <path id="Trazado_1081" data-name="Trazado 1081" d="M375.214,1003.7c.086,30.349,21.051,67.528,46.828,83.042,26.868-14.981,27.751-39.7,1.975-55.216C397.149,1046.5,375.3,1034.046,375.214,1003.7Z" transform="translate(-375.214 -1003.697)" fill="none" stroke="#fffee9" stroke-miterlimit="10" stroke-width="0.25"/>
        <path id="Trazado_1082" data-name="Trazado 1082" d="M392.175,1074.425c3.668-2.045,3.789-5.421.27-7.539" transform="translate(-385.725 -1042.854)" fill="none" stroke="#fffee9" stroke-miterlimit="10" stroke-width="0.25"/>
        <path id="Trazado_1083" data-name="Trazado 1083" d="M375.214,1003.7c.086,30.349,29.508,50.813,65.717,45.707" transform="translate(-375.214 -1003.697)" fill="none" stroke="#fffee9" stroke-miterlimit="10" stroke-width="0.25"/>
        <path id="Trazado_1084" data-name="Trazado 1084" d="M375.214,1003.7c.062,1.261.078,2.947.207,4.2.143,1.4.417,3.266.694,4.648a42.518,42.518,0,0,0,2.486,8.035c.721,1.592,1.777,3.676,2.663,5.182a38.763,38.763,0,0,0,2.405,3.438,24.347,24.347,0,0,0,5.424,5.124C380.543,1029.182,375.256,1018.595,375.214,1003.7Z" transform="translate(-375.214 -1003.697)" fill="none" stroke="#fffee9" stroke-miterlimit="10" stroke-width="0.25"/>
      </g>
    </g>
    <g id="Grupo_140" data-name="Grupo 140" transform="translate(142.699 381.72)">
      <g id="Grupo_139" data-name="Grupo 139" clip-path="url(#clip-path-14)">
        <path id="Trazado_1086" data-name="Trazado 1086" d="M375.214,1003.7c.086,30.349,21.051,67.528,46.828,83.042,26.868-14.981,27.751-39.7,1.975-55.216C397.149,1046.5,375.3,1034.046,375.214,1003.7Z" transform="translate(-375.214 -1003.697)" fill="none" stroke="#fffee9" stroke-miterlimit="10" stroke-width="0.25"/>
        <path id="Trazado_1087" data-name="Trazado 1087" d="M392.175,1074.425c3.668-2.045,3.789-5.421.27-7.539" transform="translate(-385.725 -1042.854)" fill="none" stroke="#fffee9" stroke-miterlimit="10" stroke-width="0.25"/>
        <path id="Trazado_1088" data-name="Trazado 1088" d="M436.348,1120.482c13.307-7.42,13.744-19.664.978-27.347" transform="translate(-413.098 -1059.12)" fill="none" stroke="#fffee9" stroke-miterlimit="10" stroke-width="0.25"/>
        <path id="Trazado_1089" data-name="Trazado 1089" d="M375.214,1003.7c.086,30.349,29.508,50.813,65.717,45.707" transform="translate(-375.214 -1003.697)" fill="none" stroke="#fffee9" stroke-miterlimit="10" stroke-width="0.25"/>
        <path id="Trazado_1090" data-name="Trazado 1090" d="M498.344,998.34c25.777,15.514,46.6,3.486,46.517-26.862,53.734-29.963,55.5-79.4,3.949-110.432.086,30.349-21.624,67.1-48.491,82.078C526.095,958.639,525.211,983.359,498.344,998.34Z" transform="translate(-451.516 -915.298)" fill="none" stroke="#fffee9" stroke-miterlimit="10" stroke-width="0.25"/>
        <path id="Trazado_1091" data-name="Trazado 1091" d="M548.013,1019.277c36.209-5.106,65.492-33.848,65.406-64.2" transform="translate(-482.295 -973.569)" fill="none" stroke="#fffee9" stroke-miterlimit="10" stroke-width="0.25"/>
        <path id="Trazado_1092" data-name="Trazado 1092" d="M389.092,1034.328c8.867,5.337,21.245,4.822,34.923-2.805,11.536,6.943,17.732,15.731,18.649,24.664-37.167,1.36-67.366-22.142-67.452-52.49a44.882,44.882,0,0,0,.9,8.851c.307,1.529.884,3.53,1.345,5.019.286.924.77,2.123,1.141,3.016a40.284,40.284,0,0,0,2.194,4.4,45.186,45.186,0,0,0,2.787,4.112,29.33,29.33,0,0,0,2.825,3.106c.345.328.818.754,1.192,1.05C388.031,1033.593,388.625,1034.033,389.092,1034.328Z" transform="translate(-375.213 -1003.697)" fill="none" stroke="#fffee9" stroke-miterlimit="10" stroke-width="0.25"/>
      </g>
    </g>
    <g id="Grupo_142" data-name="Grupo 142" transform="translate(7.867 381.327)">
      <g id="Grupo_141" data-name="Grupo 141" clip-path="url(#clip-path-15)">
        <path id="Trazado_1094" data-name="Trazado 1094" d="M109,939.018C83.224,923.5,62.259,886.325,62.173,855.976c-53.734,29.962-55.5,79.4-3.949,110.431.086,30.349,21.935,42.808,48.8,27.826C81.25,978.72,82.134,954,109,939.018Z" transform="translate(-20.686 -911.763)" fill="none" stroke="#fffee9" stroke-miterlimit="10" stroke-width="0.25"/>
        <path id="Trazado_1095" data-name="Trazado 1095" d="M83.749,938.987c-50.066,27.917-51.713,73.984-3.68,102.893" transform="translate(-35.812 -963.204)" fill="none" stroke="#fffee9" stroke-miterlimit="10" stroke-width="0.25"/>
        <path id="Trazado_1096" data-name="Trazado 1096" d="M96.153,1098.021c-36.21,5.106-65.632-15.359-65.718-45.707" transform="translate(-26.727 -1033.431)" fill="none" stroke="#fffee9" stroke-miterlimit="10" stroke-width="0.25"/>
        <path id="Trazado_1097" data-name="Trazado 1097" d="M168.19,1174.172c-26.868,14.981-48.717,2.522-48.8-27.826,51.553,31.027,136.9,31.891,190.639,1.929.086,30.349-20.74,42.376-46.516,26.862C236.642,1190.118,193.966,1189.686,168.19,1174.172Z" transform="translate(-81.85 -1091.702)" fill="none" stroke="#fffee9" stroke-miterlimit="10" stroke-width="0.25"/>
        <path id="Trazado_1098" data-name="Trazado 1098" d="M137.057,1209.536c48.034,28.909,127.559,29.714,177.625,1.8" transform="translate(-92.8 -1130.86)" fill="none" stroke="#fffee9" stroke-miterlimit="10" stroke-width="0.25"/>
        <path id="Trazado_1099" data-name="Trazado 1099" d="M296.8,1218.78c-10.189,20.766-18.519,13-18.6-17.352" transform="translate(-180.261 -1125.835)" fill="none" stroke="#fffee9" stroke-miterlimit="10" stroke-width="0.25"/>
        <path id="Trazado_1100" data-name="Trazado 1100" d="M417.029,1220.253c8.7,20.957,15.677,13.342,15.591-17.006" transform="translate(-266.295 -1126.962)" fill="none" stroke="#fffee9" stroke-miterlimit="10" stroke-width="0.25"/>
        <path id="Trazado_1101" data-name="Trazado 1101" d="M498.344,998.34c25.777,15.514,46.6,3.486,46.517-26.862,53.734-29.963,55.5-79.4,3.949-110.432.086,30.349-21.624,67.1-48.491,82.078C526.095,958.639,525.211,983.359,498.344,998.34Z" transform="translate(-316.685 -914.905)" fill="none" stroke="#fffee9" stroke-miterlimit="10" stroke-width="0.25"/>
        <path id="Trazado_1102" data-name="Trazado 1102" d="M604.108,1046.6c50.066-27.917,51.713-73.984,3.68-102.893" transform="translate(-382.225 -966.131)" fill="none" stroke="#fffee9" stroke-miterlimit="10" stroke-width="0.25"/>
        <path id="Trazado_1103" data-name="Trazado 1103" d="M546.15,1103.639c35.818,5.834,64.784-14.04,64.7-44.388" transform="translate(-346.31 -1037.73)" fill="none" stroke="#fffee9" stroke-miterlimit="10" stroke-width="0.25"/>
        <path id="Trazado_1104" data-name="Trazado 1104" d="M72.1,1087.939c-4.084-2.528-9.357-6.184-13.165-9.112A101.8,101.8,0,0,1,50.072,1071a127.035,127.035,0,0,1-9.909-11.211,106.708,106.708,0,0,1-7.66-11.66,95.659,95.659,0,0,1-5.187-10.834,118.936,118.936,0,0,1-4.295-13.637,102.442,102.442,0,0,1-1.837-10.97c-.318-2.758-.458-6.465-.5-9.241.055,19.4,12.516,38.8,37.537,53.858,51.553,31.027,136.9,31.891,190.639,1.928,27.654-15.42,41.545-36,41.486-56.573a108.3,108.3,0,0,1-1.1,14.372c-.694,3.711-1.821,8.622-2.807,12.266-.564,2.087-1.57,4.8-2.354,6.811a94.223,94.223,0,0,1-6.573,13.551,139.144,139.144,0,0,1-8.386,12.121,94.344,94.344,0,0,1-9.3,10.1c-2.593,2.48-6.273,5.55-9.072,7.794-1.875,1.5-4.5,3.342-6.5,4.684-2.7,1.814-6.382,4.107-9.237,5.66-2.2,1.2-5.142,2.763-7.4,3.837-2.636,1.253-6.187,2.856-8.906,3.918-4.611,1.8-10.86,3.966-15.627,5.3-2.576.722-6.037,1.6-8.648,2.183-2.486.558-5.813,1.256-8.331,1.649-2.428.379-5.664.9-8.1,1.2-2.461.308-5.751.67-8.225.838-2.447.166-5.711.431-8.164.461s-5.725.15-8.178.1-5.72-.13-8.167-.264-5.723-.357-8.164-.628-5.679-.7-8.113-1-5.647-.93-8.06-1.37c-2.453-.447-5.7-1.19-8.116-1.786-2.388-.588-5.544-1.479-7.907-2.158-2.473-.711-5.724-1.813-8.141-2.693-2.564-.934-5.955-2.261-8.454-3.356-2.257-.989-5.246-2.357-7.437-3.482C78.205,1091.408,74.661,1089.521,72.1,1087.939Z" transform="translate(-20.687 -1002.663)" fill="none" stroke="#fffee9" stroke-miterlimit="10" stroke-width="0.25"/>
      </g>
    </g>
    <g id="Grupo_144" data-name="Grupo 144" transform="translate(7.867 303.621)">
      <g id="Grupo_143" data-name="Grupo 143" clip-path="url(#clip-path-16)">
        <path id="Trazado_1106" data-name="Trazado 1106" d="M299.419,1003.7c.086,30.349,21.935,42.808,48.8,27.826-25.776-15.514-68.452-15.945-95.319-.964C278.679,1046.073,299.5,1034.046,299.419,1003.7Z" transform="translate(-164.587 -925.598)" fill="none" stroke="#fffee9" stroke-miterlimit="10" stroke-width="0.25"/>
        <path id="Trazado_1107" data-name="Trazado 1107" d="M375.214,1003.7c.086,30.349,8.415,38.118,18.6,17.352" transform="translate(-240.382 -925.598)" fill="none" stroke="#fffee9" stroke-miterlimit="10" stroke-width="0.25"/>
        <path id="Trazado_1108" data-name="Trazado 1108" d="M349.809,1003.7c.086,30.349-6.895,37.964-15.592,17.006" transform="translate(-214.977 -925.598)" fill="none" stroke="#fffee9" stroke-miterlimit="10" stroke-width="0.25"/>
        <path id="Trazado_1109" data-name="Trazado 1109" d="M265.619,1003.7c.086,30.349-20.74,42.376-46.517,26.862-26.867,14.981-27.751,39.7-1.975,55.216C244,1070.793,265.705,1034.046,265.619,1003.7Z" transform="translate(-130.788 -925.598)" fill="none" stroke="#fffee9" stroke-miterlimit="10" stroke-width="0.25"/>
        <path id="Trazado_1110" data-name="Trazado 1110" d="M269.794,1003.7c.086,30.349-28.88,50.223-64.7,44.388" transform="translate(-134.962 -925.598)" fill="none" stroke="#fffee9" stroke-miterlimit="10" stroke-width="0.25"/>
        <path id="Trazado_1111" data-name="Trazado 1111" d="M268.64,1003.7c.086,30.349-29.2,59.091-65.406,64.2" transform="translate(-133.809 -925.598)" fill="none" stroke="#fffee9" stroke-miterlimit="10" stroke-width="0.25"/>
        <path id="Trazado_1112" data-name="Trazado 1112" d="M296.2,1003.7c.086,30.349-21.624,67.1-48.491,82.078,25.776,15.514,68.452,15.945,95.319.964C317.252,1071.225,296.287,1034.046,296.2,1003.7Z" transform="translate(-161.37 -925.598)" fill="none" stroke="#fffee9" stroke-miterlimit="10" stroke-width="0.25"/>
        <path id="Trazado_1113" data-name="Trazado 1113" d="M345.406,1003.7c.086,30.349-8.1,71.786-18.293,92.552" transform="translate(-210.575 -925.598)" fill="none" stroke="#fffee9" stroke-miterlimit="10" stroke-width="0.25"/>
        <path id="Trazado_1114" data-name="Trazado 1114" d="M375.214,1003.7c.086,30.349,7.205,71.941,15.9,92.9" transform="translate(-240.382 -925.598)" fill="none" stroke="#fffee9" stroke-miterlimit="10" stroke-width="0.25"/>
        <path id="Trazado_1115" data-name="Trazado 1115" d="M375.214,1003.7c.086,30.349,21.051,67.528,46.828,83.042,26.868-14.981,27.751-39.7,1.975-55.216C397.149,1046.5,375.3,1034.046,375.214,1003.7Z" transform="translate(-240.382 -925.598)" fill="none" stroke="#fffee9" stroke-miterlimit="10" stroke-width="0.25"/>
        <path id="Trazado_1116" data-name="Trazado 1116" d="M375.214,1003.7c.086,30.349,29.19,59.682,65.009,65.516" transform="translate(-240.382 -925.598)" fill="none" stroke="#fffee9" stroke-miterlimit="10" stroke-width="0.25"/>
        <path id="Trazado_1117" data-name="Trazado 1117" d="M375.214,1003.7c.086,30.349,29.508,50.813,65.717,45.707" transform="translate(-240.382 -925.598)" fill="none" stroke="#fffee9" stroke-miterlimit="10" stroke-width="0.25"/>
        <path id="Trazado_1118" data-name="Trazado 1118" d="M271.919,904.268c26.868-14.981,48.577-51.729,48.491-82.078-51.553-31.027-136.9-31.891-190.639-1.928.086,30.348,21.051,67.528,46.828,83.042C203.466,888.323,246.142,888.754,271.919,904.268Z" transform="translate(-88.284 -798.343)" fill="none" stroke="#fffee9" stroke-miterlimit="10" stroke-width="0.25"/>
        <path id="Trazado_1119" data-name="Trazado 1119" d="M334.335,991.9c-38.787-23.344-103-23.993-143.429-1.451" transform="translate(-126.169 -907.17)" fill="none" stroke="#fffee9" stroke-miterlimit="10" stroke-width="0.25"/>
        <path id="Trazado_1120" data-name="Trazado 1120" d="M324.358,907.507c-48.034-28.909-127.56-29.714-177.625-1.8" transform="translate(-98.796 -852.221)" fill="none" stroke="#fffee9" stroke-miterlimit="10" stroke-width="0.25"/>
        <path id="Trazado_1121" data-name="Trazado 1121" d="M424.133,898.518c10.189-20.766,18.379-62.2,18.293-92.552" transform="translate(-270.697 -803.066)" fill="none" stroke="#fffee9" stroke-miterlimit="10" stroke-width="0.25"/>
        <path id="Trazado_1122" data-name="Trazado 1122" d="M308.3,897.044c-8.7-20.957-15.817-62.549-15.9-92.9" transform="translate(-189.065 -801.939)" fill="none" stroke="#fffee9" stroke-miterlimit="10" stroke-width="0.25"/>
        <path id="Trazado_1123" data-name="Trazado 1123" d="M109,939.018C83.224,923.5,62.259,886.325,62.173,855.976c-53.734,29.962-55.5,79.4-3.949,110.431.086,30.349,21.935,42.808,48.8,27.826C81.25,978.72,82.134,954,109,939.018Z" transform="translate(-20.686 -834.057)" fill="none" stroke="#fffee9" stroke-miterlimit="10" stroke-width="0.25"/>
        <path id="Trazado_1124" data-name="Trazado 1124" d="M140.047,1017.321c-40.428,22.543-41.758,59.741-2.971,83.085" transform="translate(-75.31 -934.041)" fill="none" stroke="#fffee9" stroke-miterlimit="10" stroke-width="0.25"/>
        <path id="Trazado_1125" data-name="Trazado 1125" d="M83.749,938.987c-50.066,27.917-51.713,73.984-3.68,102.893" transform="translate(-35.812 -885.498)" fill="none" stroke="#fffee9" stroke-miterlimit="10" stroke-width="0.25"/>
        <path id="Trazado_1126" data-name="Trazado 1126" d="M99.169,1013.658c-35.818-5.834-64.923-35.167-65.009-65.516" transform="translate(-29.035 -891.171)" fill="none" stroke="#fffee9" stroke-miterlimit="10" stroke-width="0.25"/>
        <path id="Trazado_1127" data-name="Trazado 1127" d="M96.153,1098.021c-36.21,5.106-65.632-15.359-65.718-45.707" transform="translate(-26.727 -955.725)" fill="none" stroke="#fffee9" stroke-miterlimit="10" stroke-width="0.25"/>
        <path id="Trazado_1128" data-name="Trazado 1128" d="M168.19,1174.172c-26.868,14.981-48.717,2.522-48.8-27.826,51.553,31.027,136.9,31.891,190.639,1.929.086,30.349-20.74,42.376-46.516,26.862C236.642,1190.118,193.966,1189.686,168.19,1174.172Z" transform="translate(-81.85 -1013.996)" fill="none" stroke="#fffee9" stroke-miterlimit="10" stroke-width="0.25"/>
        <path id="Trazado_1129" data-name="Trazado 1129" d="M183.093,1235.785c38.787,23.344,103,23.994,143.429,1.451" transform="translate(-121.327 -1069.42)" fill="none" stroke="#fffee9" stroke-miterlimit="10" stroke-width="0.25"/>
        <path id="Trazado_1130" data-name="Trazado 1130" d="M137.057,1209.536c48.034,28.909,127.559,29.714,177.625,1.8" transform="translate(-92.8 -1053.154)" fill="none" stroke="#fffee9" stroke-miterlimit="10" stroke-width="0.25"/>
        <path id="Trazado_1131" data-name="Trazado 1131" d="M296.8,1218.78c-10.189,20.766-18.519,13-18.6-17.352" transform="translate(-180.26 -1048.129)" fill="none" stroke="#fffee9" stroke-miterlimit="10" stroke-width="0.25"/>
        <path id="Trazado_1132" data-name="Trazado 1132" d="M417.029,1220.253c8.7,20.957,15.677,13.342,15.591-17.006" transform="translate(-266.295 -1049.257)" fill="none" stroke="#fffee9" stroke-miterlimit="10" stroke-width="0.25"/>
        <path id="Trazado_1133" data-name="Trazado 1133" d="M498.344,998.34c25.777,15.514,46.6,3.486,46.517-26.862,53.734-29.963,55.5-79.4,3.949-110.432.086,30.349-21.624,67.1-48.491,82.078C526.095,958.639,525.211,983.359,498.344,998.34Z" transform="translate(-316.685 -837.2)" fill="none" stroke="#fffee9" stroke-miterlimit="10" stroke-width="0.25"/>
        <path id="Trazado_1134" data-name="Trazado 1134" d="M560.229,1104.221c40.428-22.543,41.758-59.741,2.971-83.085" transform="translate(-355.034 -936.405)" fill="none" stroke="#fffee9" stroke-miterlimit="10" stroke-width="0.25"/>
        <path id="Trazado_1135" data-name="Trazado 1135" d="M604.108,1046.6c50.066-27.917,51.713-73.984,3.68-102.893" transform="translate(-382.225 -888.425)" fill="none" stroke="#fffee9" stroke-miterlimit="10" stroke-width="0.25"/>
        <path id="Trazado_1136" data-name="Trazado 1136" d="M546.15,1103.639c35.818,5.834,64.784-14.04,64.7-44.388" transform="translate(-346.309 -960.024)" fill="none" stroke="#fffee9" stroke-miterlimit="10" stroke-width="0.25"/>
        <path id="Trazado_1137" data-name="Trazado 1137" d="M548.013,1019.277c36.209-5.106,65.492-33.848,65.406-64.2" transform="translate(-347.464 -895.471)" fill="none" stroke="#fffee9" stroke-miterlimit="10" stroke-width="0.25"/>
        <path id="Trazado_1138" data-name="Trazado 1138" d="M20.687,876.835c-.059-20.573,13.832-41.153,41.486-56.573,53.734-29.963,139.086-29.1,190.639,1.928.086,30.349-21.624,67.1-48.491,82.078-25.776-15.514-68.452-15.945-95.32-.964-12.811,7.143-19.714,16.5-20.637,26.019-1.012,10.443,5.176,21.08,18.662,29.2,25.776,15.514,68.452,15.945,95.32.964,14.842-8.276,21.755-19.525,20.624-30.552-.917-8.933-7.113-17.721-18.649-24.664,26.868-14.981,48.577-51.729,48.491-82.078,25.021,15.059,37.482,34.456,37.537,53.858-.1,3.814-.332,8.91-.853,12.69-.293,2.128-.854,4.939-1.257,7.049a66.951,66.951,0,0,1-2,7.558c-.678,2.053-1.605,4.784-2.4,6.792a95.939,95.939,0,0,1-9.547,18.039,123.054,123.054,0,0,1-9.124,11.625c-2.37,2.653-5.824,5.92-8.442,8.33-1.709,1.573-4.143,3.5-5.966,4.935-2.51,1.985-6.047,4.387-8.721,6.145-2.049,1.347-4.887,2.978-7.013,4.2-2.55,1.464-6.07,3.2-8.726,4.466-2.239,1.065-5.283,2.359-7.581,3.29-2.495,1.01-5.872,2.231-8.424,3.088-2.424.813-5.679,1.837-8.154,2.478-2.387.618-5.559,1.5-7.978,1.981s-5.629,1.139-8.049,1.587c-2.441.451-5.722.907-8.185,1.214-2.438.3-5.695.689-8.147.828-4.9.277-11.433.5-16.336.559-2.456.028-5.732-.131-8.185-.265s-5.7-.411-8.146-.628c-2.48-.219-5.774-.652-8.238-1.014-3.7-.544-9.55-1.518-16.416-3.227-2.636-.656-6.147-1.562-8.722-2.428-4.673-1.571-10.872-3.78-15.416-5.69-2.753-1.157-6.332-2.913-8.988-4.277-2.21-1.135-5.087-2.783-7.226-4.048-3.132-1.853-7.124-4.623-10.081-6.743-1.928-1.383-4.353-3.423-6.19-4.925a103.7,103.7,0,0,1-10.447-10.172A119.925,119.925,0,0,1,36.27,927.7c-2.008-2.994-4.317-7.224-6-10.414-1.011-1.922-2.131-4.6-2.96-6.605-1.269-3.074-2.585-7.32-3.515-10.513-.6-2.067-1.174-4.887-1.587-7a91.894,91.894,0,0,1-1.219-9.117C20.815,881.893,20.778,879,20.687,876.835Z" transform="translate(-20.686 -798.343)" fill="none" stroke="#fffee9" stroke-miterlimit="10" stroke-width="0.25"/>
      </g>
    </g>
    <g id="Grupo_146" data-name="Grupo 146" transform="translate(0 0.003)">
      <g id="Grupo_145" data-name="Grupo 145" clip-path="url(#clip-path-17)">
        <circle id="Elipse_15" data-name="Elipse 15" cx="30.954" cy="30.954" r="30.954" transform="translate(107.06 214.984) rotate(-0.609)" fill="none" stroke="#fffee9" stroke-miterlimit="10" stroke-width="0.25"/>
      </g>
    </g>
  </g>
</svg>
