<svg id="_03_tech_logo_unity" data-name="03_tech_logo_unity" xmlns="http://www.w3.org/2000/svg" xmlns:xlink="http://www.w3.org/1999/xlink" width="205.065" height="231.62" viewBox="0 0 205.065 231.62">
  <defs>
    <clipPath id="clip-path">
      <rect id="Rectángulo_43" data-name="Rectángulo 43" width="205.065" height="231.62" fill="#fffee9"/>
    </clipPath>
  </defs>
  <g id="Grupo_48" data-name="Grupo 48" clip-path="url(#clip-path)">
    <path id="Trazado_604" data-name="Trazado 604" d="M111.5,41.44,148.167,62.6a2.065,2.065,0,0,1,0,3.547L104.593,91.315a4.048,4.048,0,0,1-4.1,0L56.922,66.15a2.057,2.057,0,0,1,0-3.547L93.569,41.439V0L0,54.022V162.067L35.879,141.36V99.033a2.063,2.063,0,0,1,3.069-1.774L82.52,122.425a4.1,4.1,0,0,1,2.061,3.548v50.307a2.063,2.063,0,0,1-3.068,1.774L44.843,156.89,8.964,177.6l93.569,54.023L196.1,177.6l-35.88-20.708-36.669,21.164a2.063,2.063,0,0,1-3.068-1.774V125.972a4.1,4.1,0,0,1,2.061-3.548l43.573-25.166a2.055,2.055,0,0,1,3.068,1.774V141.36l35.879,20.707V54.022L111.5,0Z" fill="#fffee9"/>
  </g>
</svg>
