<svg id="_03_tech_logo_notion" data-name="03_tech_logo_notion" xmlns="http://www.w3.org/2000/svg" xmlns:xlink="http://www.w3.org/1999/xlink" width="115.742" height="120.926" viewBox="0 0 115.742 120.926">
  <defs>
    <clipPath id="clip-path">
      <rect id="Rectángulo_47" data-name="Rectángulo 47" width="115.742" height="120.926" fill="#fffee9"/>
    </clipPath>
  </defs>
  <g id="Grupo_55" data-name="Grupo 55" clip-path="url(#clip-path)">
    <path id="Trazado_625" data-name="Trazado 625" d="M115.649,23.777a4.221,4.221,0,0,0-.214-.782c-.025-.061-.05-.122-.075-.178s-.054-.118-.086-.175a.979.979,0,0,0-.093-.172c-.032-.054-.064-.111-.1-.164s-.075-.111-.114-.164a4.55,4.55,0,0,0-.407-.493c-.046-.05-.1-.1-.146-.15a8.49,8.49,0,0,0-.679-.618c-.064-.054-.129-.107-.2-.161-.536-.436-1.182-.914-1.961-1.482l-.014-.011c-.164-.121-.339-.246-.518-.379L89.687,3.8C84.518.044,82.407-.432,74.187.276L7.276,5.216C1.875,5.684,0,9.213,0,13.439V86.794c0,3.29,1.168,6.108,3.99,9.874l15.728,20.454a13.822,13.822,0,0,0,1.068,1.222c.214.218.429.418.646.6.143.121.289.239.439.35.221.164.447.314.679.454.153.089.311.175.468.25l.086.043c.1.05.2.1.3.139a8.4,8.4,0,0,0,1.8.525c.129.025.261.046.393.064a18.664,18.664,0,0,0,3.176.143c.132,0,.264-.007.4-.014s.272-.011.411-.014l38.851-2.354,38.851-2.354c.347-.025.682-.057,1-.093s.629-.086.925-.139a11.927,11.927,0,0,0,1.632-.407,7.491,7.491,0,0,0,2.315-1.179,6.325,6.325,0,0,0,.564-.5,6.158,6.158,0,0,0,1.5-2.533,9.593,9.593,0,0,0,.361-1.583q.059-.423.1-.868c.032-.45.05-.914.05-1.4V24.96a6.97,6.97,0,0,0-.089-1.182M19.954,21.2,10.8,13.914c-.932-.943-.464-2.118,1.882-2.354L77,6.859A13.237,13.237,0,0,1,87.329,9.917L98.36,17.912c.472.236,1.643,1.643.232,1.643l-66.428,4-.821.057c-6.344.425-7.784.525-11.388-2.408m87.8,80.4c0,3.061-.472,5.648-4.694,5.883l-73.012,4.229c-4.226.236-6.1-1.172-6.1-4.937h0V36.723c0-3.061.94-4.472,3.754-4.708l76.295-4.465c2.59-.236,3.758,1.411,3.758,4.465Z" transform="translate(0 0)" fill="#fffee9"/>
    <path id="Trazado_626" data-name="Trazado 626" d="M208.747,164.891c.468,2.118,0,4.229-2.115,4.472l-3.519.7v51.725a18.323,18.323,0,0,1-8.22,2.583c-3.758,0-4.7-1.175-7.509-4.7l-23.012-36.2v35.029l7.276,1.647s0,4.233-5.873,4.233l-16.193.94c-.472-.943,0-3.294,1.643-3.762l4.229-1.172V174.064l-5.869-.475a4.4,4.4,0,0,1,3.99-5.412l17.371-1.168,23.944,36.672V171.239l-6.1-.7a3.971,3.971,0,0,1,3.751-4.7Z" transform="translate(-112.731 -124.41)" fill="#fffee9"/>
    <path id="Trazado_627" data-name="Trazado 627" d="M96.017,40.48l-16.2.943a3.971,3.971,0,0,0-3.751,4.7l6.1.7V79.271L58.219,42.6,40.848,43.767a4.4,4.4,0,0,0-3.99,5.412l5.869.475V95.967L38.5,97.139c-1.643.468-2.115,2.818-1.643,3.762l16.193-.94c5.873,0,5.873-4.233,5.873-4.233l-7.276-1.647V59.052l23.012,36.2c2.811,3.526,3.751,4.7,7.509,4.7a18.322,18.322,0,0,0,8.22-2.583V45.649l3.519-.7c2.115-.243,2.583-2.354,2.115-4.472m0,0-16.2.943a3.971,3.971,0,0,0-3.751,4.7l6.1.7V79.271L58.219,42.6,40.848,43.767a4.4,4.4,0,0,0-3.99,5.412l5.869.475V95.967L38.5,97.139c-1.643.468-2.115,2.818-1.643,3.762l16.193-.94c5.873,0,5.873-4.233,5.873-4.233l-7.276-1.647V59.052l23.012,36.2c2.811,3.526,3.751,4.7,7.509,4.7a18.322,18.322,0,0,0,8.22-2.583V45.649l3.519-.7c2.115-.243,2.583-2.354,2.115-4.472m19.633-16.7a3.743,3.743,0,0,0-.214-.782c-.025-.061-.05-.122-.075-.179s-.054-.118-.086-.175a1,1,0,0,0-.093-.171c-.032-.054-.064-.111-.1-.164s-.075-.111-.114-.164a4.574,4.574,0,0,0-.407-.493c-.046-.05-.1-.1-.146-.15a8.483,8.483,0,0,0-.679-.618c-.064-.054-.129-.107-.2-.161-.536-.436-1.182-.914-1.961-1.482l-.014-.011L89.687,3.8C84.518.043,82.407-.432,74.187.276L7.276,5.216C1.875,5.684,0,9.213,0,13.439V86.794c0,3.29,1.168,6.108,3.99,9.873l15.728,20.454a13.783,13.783,0,0,0,1.068,1.222c.215.218.429.418.647.6.143.122.289.239.439.35.221.164.447.314.679.454.153.089.311.175.468.25l.086.043c.1.05.2.1.3.139a8.413,8.413,0,0,0,1.8.525c.128.025.257.046.393.064a18.663,18.663,0,0,0,3.176.143c.132,0,.264-.007.4-.014s.272-.011.411-.018l38.851-2.35,38.851-2.351c.347-.025.682-.057,1-.1s.629-.086.925-.139a12,12,0,0,0,1.633-.407,7.5,7.5,0,0,0,2.315-1.179,6.282,6.282,0,0,0,.564-.5,6.158,6.158,0,0,0,1.5-2.533,9.569,9.569,0,0,0,.361-1.583c.043-.279.075-.572.1-.868.036-.447.054-.911.054-1.4V24.959a6.558,6.558,0,0,0-.093-1.182M19.954,21.2,10.8,13.914c-.932-.943-.464-2.118,1.882-2.354L77,6.859A13.237,13.237,0,0,1,87.329,9.917L98.36,17.911c.472.236,1.643,1.643.232,1.643l-66.428,4-.822.057c-6.344.425-7.784.525-11.388-2.408m10.092,90.512c-4.226.236-6.1-1.172-6.1-4.937h0V36.723c0-3.061.94-4.473,3.754-4.708l76.295-4.465c2.59-.236,3.758,1.411,3.758,4.465V101.6c0,3.061-.472,5.647-4.694,5.883Zm49.768-70.29a3.971,3.971,0,0,0-3.751,4.7l6.1.7V79.271L58.219,42.6,40.848,43.767a4.4,4.4,0,0,0-3.99,5.412l5.869.475V95.967L38.5,97.139c-1.643.468-2.115,2.818-1.643,3.762l16.193-.94c5.873,0,5.873-4.233,5.873-4.233l-7.276-1.647V59.052l23.012,36.2c2.811,3.526,3.751,4.7,7.509,4.7a18.322,18.322,0,0,0,8.22-2.583V45.649l3.519-.7c2.115-.243,2.583-2.354,2.115-4.472Zm16.2-.943-16.2.943a3.971,3.971,0,0,0-3.751,4.7l6.1.7V79.271L58.219,42.6,40.848,43.767a4.4,4.4,0,0,0-3.99,5.412l5.869.475V95.967L38.5,97.139c-1.643.468-2.115,2.818-1.643,3.762l16.193-.94c5.873,0,5.873-4.233,5.873-4.233l-7.276-1.647V59.052l23.012,36.2c2.811,3.526,3.751,4.7,7.509,4.7a18.322,18.322,0,0,0,8.22-2.583V45.649l3.519-.7c2.115-.243,2.583-2.354,2.115-4.472m0,0-16.2.943a3.971,3.971,0,0,0-3.751,4.7l6.1.7V79.271L58.219,42.6,40.848,43.767a4.4,4.4,0,0,0-3.99,5.412l5.869.475V95.967L38.5,97.139c-1.643.468-2.115,2.818-1.643,3.762l16.193-.94c5.873,0,5.873-4.233,5.873-4.233l-7.276-1.647V59.052l23.012,36.2c2.811,3.526,3.751,4.7,7.509,4.7a18.322,18.322,0,0,0,8.22-2.583V45.649l3.519-.7c2.115-.243,2.583-2.354,2.115-4.472" transform="translate(0 0)" fill="#fffee9" fill-rule="evenodd"/>
  </g>
</svg>
