<svg xmlns="http://www.w3.org/2000/svg" width="130.946" height="132.141" viewBox="0 0 130.946 132.141"><g transform="translate(-1195.999 -5338.527)"><path d="M194.221,145.7h0c-1.871,9.028-10.2,32.183-36.744,44.726l-10.652-11.984L128.85,196.521a66.39,66.39,0,0,1-52.5-26.93,25.887,25.887,0,0,0,5.885,1.105c2.943.053,6.132-1.025,6.132-5.992V115.937A8.029,8.029,0,0,0,78.258,107.9c-8.322,1.9-14.98,22.683-14.98,22.683a66.5,66.5,0,0,1,56.583-66.2c-9.088,5.18-14.2,13.635-14.2,20.732,0,11.378,6.871,10.033,8.908,8.355v65.857a10.645,10.645,0,0,0,1.332,2.324,9.713,9.713,0,0,0,7.969,4.021c6.884,0,15.812-7.856,15.812-7.856V104.486c0-5.426-4.088-11.984-8.182-14.221,0,0,7.576-1.332,13.435,3.136a49.344,49.344,0,0,1,3.5-3.855c13.622-13.382,26.477-17.177,37.183-19.081,0,0-19.487,15.313-19.487,35.818,0,15.266.393,52.489.393,52.489,7.25,6.964,17.989-3.089,27.7-13.076" transform="translate(1132.724 5274.147)" fill="#fffee9" fill-rule="evenodd"/></g></svg>