<svg id="_03_tech_logo_c_" data-name="03_tech_logo_c#" xmlns="http://www.w3.org/2000/svg" xmlns:xlink="http://www.w3.org/1999/xlink" width="240.585" height="269.966" viewBox="0 0 240.585 269.966">
  <defs>
    <clipPath id="clip-path">
      <rect id="Rectángulo_42" data-name="Rectángulo 42" width="240.585" height="269.966" fill="#fffee9"/>
    </clipPath>
  </defs>
  <g id="Grupo_46" data-name="Grupo 46" clip-path="url(#clip-path)">
    <path id="Trazado_599" data-name="Trazado 599" d="M120.287,269.966a26.986,26.986,0,0,1-13.812-4.124C98.91,261.378,72.681,246.3,49.54,233c-15.275-8.78-29.7-17.072-37.114-21.366a24.508,24.508,0,0,1-9.416-9.308A25.561,25.561,0,0,1,0,189.8q.009-27.408.006-54.814T.012,80.169c0-9.719,4.182-17.067,12.424-21.838,7.431-4.3,21.9-12.625,37.228-21.434C72.754,23.623,98.925,8.579,106.48,4.123c9.17-5.41,18.037-5.5,27.109-.258,17.991,10.388,36.3,20.925,54,31.115q20.281,11.674,40.558,23.359a24.591,24.591,0,0,1,9.279,9.061,25.478,25.478,0,0,1,3.147,12.776c.012,36.544.012,109.609.012,109.609a25.587,25.587,0,0,1-3.008,12.53,24.526,24.526,0,0,1-9.417,9.308Q208.3,223.073,188.443,234.5c-17.983,10.35-36.578,21.052-54.852,31.6a26.387,26.387,0,0,1-13.3,3.865m0-266.049a23.142,23.142,0,0,0-11.845,3.539c-7.574,4.467-33.754,19.517-56.852,32.8C36.273,49.06,21.8,57.379,14.376,61.68,7.316,65.767,3.884,71.815,3.883,80.17q-.01,27.407-.006,54.813T3.87,189.8A21.746,21.746,0,0,0,6.4,200.452a20.708,20.708,0,0,0,7.969,7.834c7.407,4.29,21.832,12.581,37.1,21.36,23.15,13.306,49.389,28.388,56.973,32.863,7.864,4.639,15.456,4.719,23.214.24,18.277-10.553,36.873-21.256,54.857-31.607q19.858-11.429,39.712-22.869a20.713,20.713,0,0,0,7.966-7.83,21.778,21.778,0,0,0,2.524-10.657s0-73.063-.012-109.608a21.68,21.68,0,0,0-2.639-10.862,20.781,20.781,0,0,0-7.853-7.627Q205.944,50,185.659,38.335c-17.7-10.191-36.012-20.729-54.006-31.118a22.535,22.535,0,0,0-11.362-3.3" transform="translate(0 0)" fill="#fffee9"/>
    <path id="Trazado_600" data-name="Trazado 600" d="M123.056,445.453a26.982,26.982,0,0,1-13.812-4.124c-7.566-4.464-33.794-19.541-56.935-32.842-15.275-8.78-29.7-17.072-37.114-21.366a24.512,24.512,0,0,1-9.416-9.308l-.921-1.665,118.569-68.27.967.56,116.871,67.705-.92,1.66a24.521,24.521,0,0,1-9.416,9.307q-19.857,11.448-39.718,22.872c-17.982,10.35-36.578,21.052-54.852,31.6a26.392,26.392,0,0,1-13.3,3.865m-112.884-67.9a21.447,21.447,0,0,0,6.962,6.218c7.407,4.29,21.832,12.581,37.1,21.36,23.15,13.306,49.389,28.387,56.973,32.863,7.864,4.64,15.456,4.719,23.214.24,18.277-10.553,36.873-21.256,54.857-31.607q19.858-11.428,39.712-22.869a21.43,21.43,0,0,0,6.962-6.219L123.42,312.348Z" transform="translate(-2.768 -175.487)" fill="#fffee9"/>
    <path id="Trazado_601" data-name="Trazado 601" d="M391.422,291.146,271.586,221.724l119.678-68.91.963,1.688a25.485,25.485,0,0,1,3.147,12.777c.012,36.543.012,109.609.012,109.609a25.606,25.606,0,0,1-3.008,12.53Zm-112.1-69.413,110.529,64.031a22.792,22.792,0,0,0,1.662-8.877s0-73.062-.012-109.607a22.651,22.651,0,0,0-1.767-9.122Z" transform="translate(-154.8 -87.102)" fill="#fffee9"/>
    <path id="Trazado_602" data-name="Trazado 602" d="M414.531,255.035v12.479H427.01V255.035h6.239v12.479h12.479v6.24H433.25v12.479h12.479v6.239H433.25v12.479H427.01V292.472H414.531v12.479h-6.24V292.472H395.812v-6.239h12.479V273.754H395.812v-6.24h12.479V255.035Zm12.479,18.719H414.531v12.479H427.01Z" transform="translate(-225.607 -145.366)" fill="#fffee9"/>
    <path id="Trazado_603" data-name="Trazado 603" d="M164.548,109.289a87.954,87.954,0,0,1,76.189,43.953l-.148-.252-38.3,22.051a43.789,43.789,0,0,0-37.245-21.574l-.5,0a43.813,43.813,0,1,0,38.178,65.3l-.182.319,38.239,22.153a87.959,87.959,0,0,1-75.255,44.027l-.98.005a87.987,87.987,0,1,1,0-175.974" transform="translate(-43.638 -62.293)" fill="#fffee9"/>
  </g>
</svg>
