<svg id="_03_tech_logo_godot" data-name="03_tech_logo_godot" xmlns="http://www.w3.org/2000/svg" xmlns:xlink="http://www.w3.org/1999/xlink" width="133.246" height="125.653" viewBox="0 0 133.246 125.653">
  <defs>
    <clipPath id="clip-path">
      <rect id="Rectángulo_46" data-name="Rectángulo 46" width="133.246" height="125.653" fill="#fffee9"/>
    </clipPath>
  </defs>
  <g id="Grupo_53" data-name="Grupo 53" clip-path="url(#clip-path)">
    <path id="Trazado_618" data-name="Trazado 618" d="M140.144,261.48a8.652,8.652,0,1,0,8.654,8.654,8.655,8.655,0,0,0-8.654-8.654m58.838,0a8.652,8.652,0,1,0,8.654,8.654,8.652,8.652,0,0,0-8.654-8.654m-58.838,0a8.652,8.652,0,1,0,8.654,8.654,8.655,8.655,0,0,0-8.654-8.654m58.838,0a8.652,8.652,0,1,0,8.654,8.654,8.652,8.652,0,0,0-8.654-8.654m0,0a8.652,8.652,0,1,0,8.654,8.654,8.652,8.652,0,0,0-8.654-8.654m-58.838,0a8.652,8.652,0,1,0,8.654,8.654,8.655,8.655,0,0,0-8.654-8.654m0,0a8.652,8.652,0,1,0,8.654,8.654,8.655,8.655,0,0,0-8.654-8.654m0,0a8.652,8.652,0,1,0,8.654,8.654,8.655,8.655,0,0,0-8.654-8.654" transform="translate(-102.941 -204.709)" fill="#fffee9"/>
    <path id="Trazado_619" data-name="Trazado 619" d="M121.307,23.053a116.938,116.938,0,0,0-11.85,6.9,61.535,61.535,0,0,0-6.088-5,73.335,73.335,0,0,0-6.544-4.255A134.657,134.657,0,0,0,97.93,6.077,76.022,76.022,0,0,0,80.172,0a126.843,126.843,0,0,0-6.589,12.836,45.129,45.129,0,0,0-6.915-.551v0c-.015,0-.03,0-.043,0s-.03,0-.043,0v0a45.113,45.113,0,0,0-6.917.551A125.534,125.534,0,0,0,53.072,0,75.989,75.989,0,0,0,35.318,6.077a134.115,134.115,0,0,0,1.105,14.612,73.058,73.058,0,0,0-6.546,4.255,61.786,61.786,0,0,0-6.088,5,116.733,116.733,0,0,0-11.852-6.9A90.6,90.6,0,0,0,0,38.7,127.282,127.282,0,0,0,8.062,50.327h.08V85.615h0c.061,0,.126,0,.187.009L29.969,87.71a2.328,2.328,0,0,1,2.1,2.158l.667,9.549,18.872,1.346,1.3-8.813a2.329,2.329,0,0,1,2.3-1.991H78.036a2.328,2.328,0,0,1,2.3,1.991l1.3,8.813,18.872-1.346.667-9.549a2.334,2.334,0,0,1,2.1-2.158L124.9,85.624c.063,0,.128-.009.193-.009V82.8l.009,0V50.327h.08A127.262,127.262,0,0,0,133.246,38.7a90.4,90.4,0,0,0-11.939-15.65M97.292,51.621A13.035,13.035,0,1,1,84.254,64.653,13.033,13.033,0,0,1,97.292,51.621M62.425,63.061a4.218,4.218,0,0,1,8.4,0v12a4.219,4.219,0,0,1-8.4,0ZM35.957,51.621A13.035,13.035,0,1,1,22.921,64.653,13.032,13.032,0,0,1,35.957,51.621" fill="#fffee9"/>
    <path id="Trazado_620" data-name="Trazado 620" d="M154.36,415.83c-.011,2.093-.037,4.373-.037,4.837,0,20.546-26.054,30.42-58.435,30.533h-.08c-32.381-.113-58.441-9.987-58.441-30.533,0-.456-.028-2.746-.037-4.837h.007l19.447,1.876.669,9.6a2.332,2.332,0,0,0,2.158,2.16l23.045,1.646a2.329,2.329,0,0,0,2.471-1.984l1.322-8.963h18.8l1.32,8.963a2.33,2.33,0,0,0,2.3,1.989c.054,0,.111,0,.167,0l23.045-1.646a2.328,2.328,0,0,0,2.158-2.16l.669-9.6,19.425-1.874.013,0Z" transform="translate(-29.225 -325.547)" fill="#fffee9"/>
    <path id="Trazado_621" data-name="Trazado 621" d="M148.8,270.134a8.654,8.654,0,1,1-8.654-8.654,8.65,8.65,0,0,1,8.654,8.654" transform="translate(-102.941 -204.709)" fill="#fffee9"/>
    <path id="Trazado_622" data-name="Trazado 622" d="M148.8,270.134a8.654,8.654,0,1,1-8.654-8.654,8.65,8.65,0,0,1,8.654,8.654" transform="translate(-102.941 -204.709)" fill="#fffee9"/>
    <path id="Trazado_623" data-name="Trazado 623" d="M419.814,270.134a8.652,8.652,0,1,1-8.654-8.654,8.649,8.649,0,0,1,8.654,8.654" transform="translate(-315.119 -204.709)" fill="#fffee9"/>
    <path id="Trazado_624" data-name="Trazado 624" d="M419.814,270.134a8.652,8.652,0,1,1-8.654-8.654,8.649,8.649,0,0,1,8.654,8.654" transform="translate(-315.119 -204.709)" fill="#fffee9"/>
  </g>
</svg>
