<svg id="_03_tech_logo_c_" data-name="03_tech_logo_c++" xmlns="http://www.w3.org/2000/svg" xmlns:xlink="http://www.w3.org/1999/xlink" width="137.353" height="154.264" viewBox="0 0 137.353 154.264">
  <defs>
    <clipPath id="clip-path">
      <rect id="Rectángulo_41" data-name="Rectángulo 41" width="137.353" height="154.264" fill="#fffee9"/>
    </clipPath>
  </defs>
  <g id="Grupo_44" data-name="Grupo 44" clip-path="url(#clip-path)">
    <path id="Trazado_593" data-name="Trazado 593" d="M339.207,232.229,270.741,192.7l68.467-39.529.552.956a13.008,13.008,0,0,1,1.867,6.317v64.511a13.018,13.018,0,0,1-1.867,6.317ZM275.16,192.7l63.2,36.487a10.3,10.3,0,0,0,1.059-4.232V160.444a10.3,10.3,0,0,0-1.058-4.232Z" transform="translate(-204.274 -115.567)" fill="#fffee9"/>
    <path id="Trazado_594" data-name="Trazado 594" d="M72.718,387.4a13.092,13.092,0,0,1-6.4-1.53L10.445,353.611a13.009,13.009,0,0,1-4.537-4.775l-.552-.957,67.362-38.891,67.361,38.891-.552.957a13.011,13.011,0,0,1-4.537,4.775L79.122,385.866a13.1,13.1,0,0,1-6.4,1.529m-64.3-38.731A10.3,10.3,0,0,0,11.55,351.7l55.868,32.255a11.908,11.908,0,0,0,10.6,0h0L133.885,351.7a10.3,10.3,0,0,0,3.136-3.033l-64.3-37.126Z" transform="translate(-4.041 -233.131)" fill="#fffee9"/>
    <path id="Trazado_595" data-name="Trazado 595" d="M2.42,116.661l-.552-.956A13.01,13.01,0,0,1,0,109.387V44.877A14.175,14.175,0,0,1,6.4,33.784L62.273,1.529a14.174,14.174,0,0,1,12.808,0l55.868,32.255a13.017,13.017,0,0,1,4.538,4.775l.552.957ZM68.677,2.2a10.886,10.886,0,0,0-5.3,1.244L7.509,35.7a11.91,11.91,0,0,0-5.3,9.179v64.51a10.3,10.3,0,0,0,1.059,4.233L132.98,38.731a10.3,10.3,0,0,0-3.136-3.033L73.976,3.443a10.885,10.885,0,0,0-5.3-1.244" transform="translate(0 0)" fill="#fffee9"/>
    <path id="Trazado_596" data-name="Trazado 596" d="M141.295,220.786A45.048,45.048,0,1,1,180.306,153.2l-19.5,11.281a22.523,22.523,0,1,0,0,22.512l19.5,11.281a45.209,45.209,0,0,1-39.012,22.511" transform="translate(-72.618 -98.606)" fill="#fffee9"/>
    <path id="Trazado_597" data-name="Trazado 597" d="M417.085,288.607H412.08V283.6h-5v5.005h-5.006v5.005h5.006v5.006h5v-5.006h5.005Z" transform="translate(-303.361 -213.977)" fill="#fffee9"/>
    <path id="Trazado_598" data-name="Trazado 598" d="M493.541,288.607h-5.005V283.6h-5v5.005h-5.006v5.005h5.006v5.006h5v-5.006h5.005Z" transform="translate(-361.047 -213.977)" fill="#fffee9"/>
  </g>
</svg>
