<svg xmlns="http://www.w3.org/2000/svg" xmlns:xlink="http://www.w3.org/1999/xlink" width="246.851" height="606.559" viewBox="0 0 246.851 606.559">
  <defs>
    <clipPath id="clip-path">
      <rect id="Rectángulo_50" data-name="Rectángulo 50" width="606.559" height="246.851" fill="none"/>
    </clipPath>
  </defs>
  <g id="_00_portada_barralateral" data-name="00_portada_barralateral" transform="translate(246.851) rotate(90)">
    <g id="Grupo_86" data-name="Grupo 86" clip-path="url(#clip-path)">
      <path id="Trazado_798" data-name="Trazado 798" d="M227.3,246.849H157.879a5.171,5.171,0,0,1-4.754-3.136L50.8,4.6A3.3,3.3,0,0,1,53.842,0h69.416a5.17,5.17,0,0,1,4.754,3.136L230.333,242.245a3.3,3.3,0,0,1-3.038,4.6" transform="translate(-26.601)" fill="#fffee9"/>
      <path id="Trazado_799" data-name="Trazado 799" d="M493.841,246.849H424.425a5.171,5.171,0,0,1-4.754-3.136L317.35,4.6A3.3,3.3,0,0,1,320.388,0H389.8a5.17,5.17,0,0,1,4.754,3.136L496.879,242.245a3.3,3.3,0,0,1-3.038,4.6" transform="translate(-166.911)" fill="#fffee9"/>
      <path id="Trazado_800" data-name="Trazado 800" d="M760.388,246.849H690.972a5.171,5.171,0,0,1-4.754-3.136L583.9,4.6A3.3,3.3,0,0,1,586.935,0h69.416A5.17,5.17,0,0,1,661.1,3.136L763.426,242.245a3.3,3.3,0,0,1-3.037,4.6" transform="translate(-307.221)" fill="#fffee9"/>
      <path id="Trazado_801" data-name="Trazado 801" d="M1026.935,246.849H957.519a5.171,5.171,0,0,1-4.754-3.136L850.444,4.6A3.3,3.3,0,0,1,853.482,0H922.9a5.17,5.17,0,0,1,4.754,3.136l102.322,239.109a3.3,3.3,0,0,1-3.038,4.6" transform="translate(-447.531)" fill="#fffee9"/>
      <path id="Trazado_802" data-name="Trazado 802" d="M226.9,246.851H157.484a5.174,5.174,0,0,1-4.755-3.14L50.408,4.6A3.3,3.3,0,0,1,53.449,0h69.416a5.169,5.169,0,0,1,4.755,3.135L229.941,242.248a3.3,3.3,0,0,1-3.041,4.6" transform="translate(-26.393 -0.001)" fill="#fffee9"/>
      <path id="Trazado_803" data-name="Trazado 803" d="M74.171,326.272H4.755A5.174,5.174,0,0,1,0,323.132V153.367a2.486,2.486,0,0,1,4.772-.978l72.439,169.28a3.3,3.3,0,0,1-3.041,4.6" transform="translate(0 -79.422)" fill="#fffee9"/>
      <path id="Trazado_804" data-name="Trazado 804" d="M493.655,246.851H424.239a5.174,5.174,0,0,1-4.755-3.14L317.163,4.6A3.3,3.3,0,0,1,320.2,0h69.42a5.163,5.163,0,0,1,4.75,3.135L496.691,242.248a3.3,3.3,0,0,1-3.036,4.6" transform="translate(-166.812 -0.001)" fill="#fffee9"/>
      <path id="Trazado_805" data-name="Trazado 805" d="M760.4,246.851H690.981a5.167,5.167,0,0,1-4.75-3.14L583.909,4.6A3.3,3.3,0,0,1,586.945,0h69.416a5.169,5.169,0,0,1,4.755,3.135L763.437,242.248a3.3,3.3,0,0,1-3.036,4.6" transform="translate(-307.227 -0.001)" fill="#fffee9"/>
      <path id="Trazado_806" data-name="Trazado 806" d="M1027.147,246.851H957.731a5.174,5.174,0,0,1-4.755-3.14L850.655,4.6A3.3,3.3,0,0,1,853.7,0h69.416a5.169,5.169,0,0,1,4.755,3.135l102.321,239.111a3.3,3.3,0,0,1-3.041,4.6" transform="translate(-447.642 -0.001)" fill="#fffee9"/>
      <path id="Trazado_807" data-name="Trazado 807" d="M1194.621,3.507V176.973a1.652,1.652,0,0,1-3.171.65L1117.41,4.6a3.3,3.3,0,0,1,3.041-4.6h69.416a5.171,5.171,0,0,1,4.6,2.8,1.542,1.542,0,0,1,.158.706" transform="translate(-588.062 -0.001)" fill="#fffee9"/>
    </g>
  </g>
</svg>
