<svg xmlns="http://www.w3.org/2000/svg" xmlns:xlink="http://www.w3.org/1999/xlink" width="317.434" height="97.95" viewBox="0 0 317.434 97.95">
  <defs>
    <clipPath id="clip-path">
      <path id="Trazado_1320" data-name="Trazado 1320" d="M168.995,20.1c1.985,1.579-.951,3.315-6.56,3.877s-11.763-.265-13.749-1.844c-1.662-1.322.126-2.754,4.043-3.515a31.275,31.275,0,0,0-19.187,11.489c-.683.925-1.555,2.188-2.174,3.157-.347.543-.731,1.314-1.041,1.878a30.989,30.989,0,0,0-1.6,3.736c-.208.6-.482,1.4-.632,2.014-.282,1.162-.605,2.726-.808,3.906a30.06,30.06,0,0,0-.3,4.192,30.4,30.4,0,0,0,.269,4.192,31.043,31.043,0,0,0,.812,4.029,30.712,30.712,0,0,0,3.2,7.554c.616.976,1.483,2.252,2.165,3.184.373.512.943,1.139,1.35,1.625a28.408,28.408,0,0,0,2.9,2.853,31.32,31.32,0,0,0,7.586,4.842,32.653,32.653,0,0,0,8.708,2.515,36.405,36.405,0,0,0,8.481.154q.68-.069,1.3-.158a32.43,32.43,0,0,0,7.775-2.123,32.041,32.041,0,0,0,6.708-3.8,31.135,31.135,0,0,0,5.917-5.765c.683-.925,1.555-2.188,2.174-3.157.347-.543.731-1.315,1.041-1.879a28.593,28.593,0,0,0,1.6-3.736,30.887,30.887,0,0,0,1.669-12.284c-.078-.938-.224-2.187-.366-3.118-.1-.628-.266-1.458-.426-2.072a30.762,30.762,0,0,0-1.219-3.886,29.466,29.466,0,0,0-1.709-3.663,30.154,30.154,0,0,0-2.175-3.409c-.707-.9-1.685-2.081-2.45-2.936-.43-.481-1.049-1.08-1.529-1.511-.507-.455-1.182-1.065-1.725-1.478-.864-.657-2.053-1.487-2.958-2.086a31.468,31.468,0,0,0-8.334-3.63,29.007,29.007,0,0,0-3-.664,10.3,10.3,0,0,1,4.235,1.521M152.729,18.62c.444-.08.848-.145,1.211-.2q-.635.092-1.211.2m12.031-.039c-.332-.062-.677-.118-1.031-.169q.534.082,1.031.169" fill="none" stroke="#fffee9" stroke-width="1"/>
    </clipPath>
    <clipPath id="clip-path-2">
      <path id="Trazado_1340" data-name="Trazado 1340" d="M153.976,79.786c-.289-.045-.672-.105-1.123-.185q.542.1,1.123.185m-.036-61.369a34.444,34.444,0,0,0-5.269,1.208,31.145,31.145,0,0,0-17.5,13.968c-.59,1-1.255,2.408-1.741,3.465-.262.57-.53,1.366-.753,1.953a18.139,18.139,0,0,0-.618,2c-.277,1.165-.6,2.731-.793,3.912a30.262,30.262,0,0,0-.281,4.188,31.521,31.521,0,0,0,.3,4.309c.2,1.18.527,2.745.811,3.907a18.288,18.288,0,0,0,.631,2.01c.212.548.479,1.285.71,1.825.25.581.623,1.336.892,1.907s.709,1.319,1.037,1.869a32.132,32.132,0,0,0,3.6,4.846,30.52,30.52,0,0,0,4.349,3.967,32.282,32.282,0,0,0,4.528,2.837,30.05,30.05,0,0,0,5.184,2.1,30.455,30.455,0,0,0,3.819.912,10.156,10.156,0,0,1-4.144-1.5c-1.986-1.58.951-3.316,6.559-3.876-4.087-7.124-7.041-20.533-7.046-33.579s2.939-21.763,7.024-22.384q-.68.069-1.306.159" fill="none" stroke="#fffee9" stroke-width="1"/>
    </clipPath>
    <clipPath id="clip-path-3">
      <path id="Trazado_1362" data-name="Trazado 1362" d="M163.761,79.782q.663-.1,1.261-.213c-.505.093-.93.16-1.261.213m-8.515-61.524c-4.085.621-7.03,9.338-7.024,22.384s2.959,26.455,7.046,33.579c5.609-.562,11.764.263,13.749,1.843,1.655,1.316-.112,2.742-3.995,3.5a31.493,31.493,0,0,0,15.038-7.174c.491-.425,1.139-1,1.587-1.474.783-.822,1.786-1.959,2.514-2.831a30.446,30.446,0,0,0,2.285-3.343,29.842,29.842,0,0,0,1.823-3.606,30.7,30.7,0,0,0,2.445-12.055c-.017-.952-.081-2.222-.162-3.171-.055-.638-.2-1.483-.293-2.116a31.043,31.043,0,0,0-.971-3.987,28.424,28.424,0,0,0-1.481-3.787c-.289-.569-.645-1.345-.971-1.894-.592-.995-1.428-2.292-2.085-3.245a31.19,31.19,0,0,0-9.362-8.433,30.583,30.583,0,0,0-3.787-1.888,33.044,33.044,0,0,0-7.873-2.153,34.908,34.908,0,0,0-4.876-.329c-1.2,0-2.414.056-3.607.175" fill="none" stroke="#fffee9" stroke-width="1"/>
    </clipPath>
    <clipPath id="clip-path-4">
      <path id="Trazado_1396" data-name="Trazado 1396" d="M148.709,78.1c-1.986-1.58.951-3.316,6.559-3.876-11.915-13.352-49.348-54.2-49.353-67.24,0,13.045,37.438,53.888,49.353,67.24,5.609-.562,11.764.263,13.749,1.843s-.952,3.314-6.56,3.876c-1.193.12-2.411.176-3.609.176-4.429,0-8.576-.776-10.139-2.019M110.593,2.512l-.267.03q.132-.017.267-.03M144.917.331c-6.133.113-8.347.253-22.752,1.169-3.477.221-8.1.666-11.572,1.012q-.135.013-.267.03c-3.35.377-7.718.828-11.006,1.244-3.355.425-7.82,1.049-11.161,1.567C76.395,7.179,68.188,9.028,67.29,9.232c-5.57,1.272-11.33,2.587-18.952,4.89a171.039,171.039,0,0,0-16.55,5.837,110.787,110.787,0,0,0-13.6,6.681,62.354,62.354,0,0,0-9.721,7.022,28.977,28.977,0,0,0-6.318,7.87A16.943,16.943,0,0,0,.172,49.163,16.684,16.684,0,0,0,.7,53.112a19.526,19.526,0,0,0,1.832,4.375,28.542,28.542,0,0,0,2.79,3.925,47.407,47.407,0,0,0,5.542,5.269,71.423,71.423,0,0,0,12.042,7.585,134.312,134.312,0,0,0,15.3,6.56c2.467.86,5.762,1.993,8.259,2.764,2.829.873,6.616,2,9.491,2.712,5.648,1.391,13.218,3.093,18.914,4.283,3.141.656,7.367,1.341,10.533,1.869,7.948,1.326,18.771,2.617,21.122,2.845,3.268.318,7.619.812,10.894,1.052,3.245.237,7.571.588,10.819.788,3.31.2,7.727.433,11.042.553,6.667.24,15.564.331,22.236.366,3.38.018,7.885-.131,11.264-.191,2.04-.036,13.343-.436,22.752-1.168,3.474-.271,8.109-.621,11.573-1.013,6.649-.75,15.5-1.863,22.127-2.793.338-.048,8.4-1.189,20.7-3.824,9.051-1.939,17.764-4.453,19.422-4.993,4.826-1.566,11.219-3.788,15.96-5.594,2.3-.877,5.291-2.262,7.506-3.344a83.743,83.743,0,0,0,11.977-7.023,42.354,42.354,0,0,0,8.261-7.647,20.272,20.272,0,0,0,4.084-8.078,16.348,16.348,0,0,0-.151-7.3,15.221,15.221,0,0,0-1.833-4.375,57.391,57.391,0,0,0-6.657-7.8,42.15,42.15,0,0,0-6.916-5.106c-1.813-1.075-4.22-2.534-6.091-3.505-2.25-1.168-5.31-2.614-7.637-3.622-2.479-1.074-5.818-2.44-8.377-3.305-5.074-1.716-11.9-3.818-17.053-5.292-2.955-.846-6.944-1.813-9.954-2.445-12.793-2.691-12.793-2.691-20.19-3.891C215.5,3.016,199.732,1.691,189.46,1.06,181.949.6,174.923.325,167.35.2c-3.1-.051-5.333-.076-7.579-.076-3.663,0-7.352.068-14.854.2" fill="none" stroke="#fffee9" stroke-width="1"/>
    </clipPath>
    <clipPath id="clip-path-5">
      <path id="Trazado_1430" data-name="Trazado 1430" d="M110.593,2.512c.086-.009.175-.016.263-.023h0c-.089.007-.177.014-.264.023m58.4,17.59c1.985,1.579-.951,3.315-6.56,3.877s-11.763-.265-13.749-1.844.952-3.315,6.56-3.877l-.1-.048.1.048c5.608-.561,11.763.264,13.749,1.844m-14.166-2.04.305.144-.305-.144m-.077-.037.039.019-.039-.019m-.455-.215.025.012-.025-.012m-.4-.189.177.085-.177-.085M112.779,2.472c10.828.536,31.619,10.637,41.114,15.146-9.5-4.51-30.286-14.612-41.114-15.146m-.08,0c-.268-.012-.531-.018-.786-.018.255,0,.518.006.786.018M144.9.331c-3.441.064-8.025.279-11.461.457s-7.983.5-11.4.722c-3.351.213-7.777.677-11.176.979q.505-.039,1.053-.039-.548,0-1.054.039l-.263.023C97.2,3.858,87.731,5.418,87.644,5.433,81.521,6.48,73.376,7.991,67.29,9.232c-3.044.621-7.067,1.626-10.074,2.408-2.887.75-6.738,1.765-9.573,2.693-4.8,1.569-11.149,3.8-15.855,5.626-2.307.893-5.3,2.3-7.514,3.4a75.634,75.634,0,0,0-6.652,3.622c-1.577,1.015-3.7,2.336-5.207,3.458A37.907,37.907,0,0,0,7.673,34.4a31.726,31.726,0,0,0-3.342,3.718c-1.3,2.016-3.055,4.794-3.641,7.12a12.49,12.49,0,0,0-.512,4.347,31.422,31.422,0,0,0,2.356,7.9,25.669,25.669,0,0,0,4.073,5.342,47.606,47.606,0,0,0,4.259,3.852,57.582,57.582,0,0,0,5.863,4.1c1.8,1.134,4.289,2.505,6.179,3.482a135.676,135.676,0,0,0,15.3,6.56c1.694.63,7.98,2.886,17.75,5.476,7.758,2.057,13.981,3.3,19.472,4.391.885.177,8.987,1.769,20.623,3.336,11.363,1.53,21.355,2.322,21.446,2.329,6.53.48,15.244,1.007,21.783,1.334,3.319.165,7.751.215,11.073.306,7.323.2,17.921-.032,22.446-.131,3.716-.081,23.39-.631,45.9-3.495a333.627,333.627,0,0,0,41.786-7.812c2.887-.751,6.718-1.828,9.572-2.694,2.495-.757,5.8-1.842,8.254-2.716a137.53,137.53,0,0,0,15.116-6.306,81.5,81.5,0,0,0,11.858-7.079,40.957,40.957,0,0,0,8.085-7.688,29.994,29.994,0,0,0,3.64-7.121,11.335,11.335,0,0,0,.512-4.347,25.46,25.46,0,0,0-2.356-7.9,20.562,20.562,0,0,0-4.072-5.343,49.768,49.768,0,0,0-4.786-4.265c-1.6-1.109-3.68-2.668-5.337-3.69-1.99-1.228-4.694-2.8-6.806-3.8-4.321-2.055-10.178-4.615-14.677-6.24-2.651-.959-6.223-2.136-8.917-2.966-2.632-.813-6.182-1.758-8.832-2.511-2.909-.825-6.835-1.765-9.795-2.382-2.9-.6-6.765-1.452-9.678-2.008-3.1-.593-7.238-1.32-10.352-1.822-13.282-2.144-27.594-3.7-42.537-4.629C182.209.609,174.794.322,167.343.2c-3.115-.051-5.361-.076-7.61-.076-3.67,0-7.351.068-14.835.2" fill="none" stroke="#fffee9" stroke-width="1"/>
    </clipPath>
    <clipPath id="clip-path-6">
      <path id="Trazado_1433" data-name="Trazado 1433" d="M153.944,18.417c.338-.045.764-.1,1.142-.142q-.591.062-1.142.142m1.142-.142.16-.017.094-.012-.254.029m.254-.029.064-.007-.064.007" fill="none" stroke="#fffee9" stroke-width="1"/>
    </clipPath>
    <clipPath id="clip-path-7">
      <path id="Trazado_1467" data-name="Trazado 1467" d="M155.4,18.239l.065-.006-.065.006m2.347,1.514c-.212-.169.1-.355.7-.415-.054-.043-.108-.085-.161-.125.053.04.107.082.161.125a2.6,2.6,0,0,1,1.474.2c.212.169-.1.355-.7.415a3.783,3.783,0,0,1-.384.019,2.113,2.113,0,0,1-1.09-.217m-2.045-1.53c-.049,0-.1,0-.147,0,.049,0,.1,0,.147,0m.133,0q-.062,0-.123,0,.062,0,.123,0m-.37.007.09-.006-.09.006-.065.006c-.438.048-1.022.119-1.46.178-4.747.682-7.083,2.266-5.258,3.718,1.986,1.579,8.141,2.405,13.749,1.844s8.545-2.3,6.56-3.877a12.054,12.054,0,0,0-5.269-1.691,35.3,35.3,0,0,0-4.865-.345c-1.46,0-2.6.1-3.392.167" fill="none" stroke="#fffee9" stroke-width="1"/>
    </clipPath>
    <clipPath id="clip-path-8">
      <path id="Trazado_1471" data-name="Trazado 1471" d="M163.726,18.411c-.509-.072-1.039-.134-1.583-.183.551.054,1.076.117,1.583.183m-8.322-.172c-.052,0-.105.011-.158.019a37.26,37.26,0,0,1,6.9-.03c-.983-.1-2.05-.16-3.251-.16-1.049,0-2.2.049-3.488.171" fill="none" stroke="#fffee9" stroke-width="1"/>
    </clipPath>
    <clipPath id="clip-path-9">
      <path id="Trazado_1476" data-name="Trazado 1476" d="M155.8,79.991a32.728,32.728,0,0,0,6.244-.012,37.319,37.319,0,0,1-6.244.012m0,0c-.59-.053-1.2-.122-1.826-.2.584.084,1.2.152,1.826.2m6.244-.012q.209-.018.414-.039.681-.069,1.307-.158c-.593.079-1.164.144-1.721.2" fill="none" stroke="#fffee9" stroke-width="1"/>
    </clipPath>
    <clipPath id="clip-path-10">
      <path id="Trazado_1485" data-name="Trazado 1485" d="M154.035,79.795l-.062-.009.062.009m9.586.005c.048-.005.1-.012.143-.018l-.143.018m-4.372-.939a3.972,3.972,0,0,1-.91-.016,6.937,6.937,0,0,1-4.3.95,34.726,34.726,0,0,0,8.264.165c.394-.04.9-.1,1.322-.16a6.99,6.99,0,0,1-4.232-.956l-.14.017" fill="none" stroke="#fffee9" stroke-width="1"/>
    </clipPath>
    <clipPath id="clip-path-11">
      <path id="Trazado_1496" data-name="Trazado 1496" d="M148.709,78.1a12.032,12.032,0,0,0,5.264,1.689,6.907,6.907,0,0,0,4.366-.941,1.3,1.3,0,0,1-.565-.182c-.212-.169.1-.356.7-.415a14.12,14.12,0,0,1-3.21-4.027c-5.608.56-8.545,2.3-6.559,3.876" fill="none" stroke="#fffee9" stroke-width="1"/>
    </clipPath>
    <clipPath id="clip-path-12">
      <path id="Trazado_1508" data-name="Trazado 1508" d="M155.268,74.221a14.12,14.12,0,0,0,3.21,4.027,2.619,2.619,0,0,1,1.474.2c.2.156-.054.326-.563.4a6.935,6.935,0,0,0,4.375.938c4.744-.683,7.078-2.267,5.253-3.718-1.563-1.244-5.709-2.02-10.14-2.02-1.2,0-2.416.057-3.609.177" fill="none" stroke="#fffee9" stroke-width="1"/>
    </clipPath>
  </defs>
  <g id="_00_portada_ilustracion" data-name="00_portada_ilustracion" transform="translate(-0.125 -0.126)">
    <g id="Grupo_191" data-name="Grupo 191">
      <g id="Grupo_190" data-name="Grupo 190" clip-path="url(#clip-path)">
        <path id="Trazado_1281" data-name="Trazado 1281" d="M155.246,18.258c-4.084.621-7.029,9.337-7.024,22.383-16.584,1.66-25.269,6.793-19.4,11.464a33.3,33.3,0,0,1,19.863-29.97C146.7,20.555,149.638,18.819,155.246,18.258Z" fill="none" stroke="#fffee9" stroke-miterlimit="10" stroke-width="0.25"/>
        <path id="Trazado_1282" data-name="Trazado 1282" d="M151.609,21.438c-11.287,1.13-17.2,4.623-13.2,7.8" fill="none" stroke="#fffee9" stroke-miterlimit="10" stroke-width="0.25"/>
        <path id="Trazado_1283" data-name="Trazado 1283" d="M149.133,29.178c-15.155,1.517-23.092,6.207-17.727,10.476" fill="none" stroke="#fffee9" stroke-miterlimit="10" stroke-width="0.25"/>
        <path id="Trazado_1284" data-name="Trazado 1284" d="M150.612,19.162c-9.352,1.648-16.1,11.106-16.094,24.152" fill="none" stroke="#fffee9" stroke-miterlimit="10" stroke-width="0.25"/>
        <path id="Trazado_1285" data-name="Trazado 1285" d="M148.258,20.553a27.619,27.619,0,0,0-20.7,26.874" fill="none" stroke="#fffee9" stroke-miterlimit="10" stroke-width="0.25"/>
        <path id="Trazado_1286" data-name="Trazado 1286" d="M148.686,22.135A33.3,33.3,0,0,0,128.823,52.1c5.871,4.671,24.074,7.112,40.658,5.452-.005-13.046-2.959-26.456-7.046-33.579C156.827,24.54,150.671,23.714,148.686,22.135Z" fill="none" stroke="#fffee9" stroke-miterlimit="10" stroke-width="0.25"/>
        <path id="Trazado_1287" data-name="Trazado 1287" d="M138.406,29.24c3.995,3.179,16.384,4.84,27.671,3.71" fill="none" stroke="#fffee9" stroke-miterlimit="10" stroke-width="0.25"/>
        <path id="Trazado_1288" data-name="Trazado 1288" d="M131.406,39.654c5.365,4.268,22,6.5,37.154,4.982" fill="none" stroke="#fffee9" stroke-miterlimit="10" stroke-width="0.25"/>
        <path id="Trazado_1289" data-name="Trazado 1289" d="M151.887,23.44c-7.9,6.51-13.6,19.478-13.6,32.524" fill="none" stroke="#fffee9" stroke-miterlimit="10" stroke-width="0.25"/>
        <path id="Trazado_1290" data-name="Trazado 1290" d="M156.819,24.1c-2.3,7.262-3.95,20.772-3.945,33.818" fill="none" stroke="#fffee9" stroke-miterlimit="10" stroke-width="0.25"/>
        <path id="Trazado_1291" data-name="Trazado 1291" d="M162.435,23.978c4.087,7.123,7.041,20.532,7.046,33.578,16.584-1.66,25.269-6.793,19.4-11.463-.005-13.046-8.341-23.275-19.885-25.992C170.98,21.681,168.043,23.417,162.435,23.978Z" fill="none" stroke="#fffee9" stroke-miterlimit="10" stroke-width="0.25"/>
        <path id="Trazado_1292" data-name="Trazado 1292" d="M166.077,32.95c11.287-1.13,17.2-4.623,13.2-7.8" fill="none" stroke="#fffee9" stroke-miterlimit="10" stroke-width="0.25"/>
        <path id="Trazado_1293" data-name="Trazado 1293" d="M168.561,44.636c15.155-1.517,23.092-6.207,17.727-10.476" fill="none" stroke="#fffee9" stroke-miterlimit="10" stroke-width="0.25"/>
        <path id="Trazado_1294" data-name="Trazado 1294" d="M167.069,23.075c9.355,6.1,16.111,18.764,16.116,31.81" fill="none" stroke="#fffee9" stroke-miterlimit="10" stroke-width="0.25"/>
        <path id="Trazado_1295" data-name="Trazado 1295" d="M169.423,21.684c12.03,4.515,20.717,16.042,20.722,29.088" fill="none" stroke="#fffee9" stroke-miterlimit="10" stroke-width="0.25"/>
        <path id="Trazado_1296" data-name="Trazado 1296" d="M168.995,20.1c11.544,2.716,19.88,12.945,19.885,25.991-5.871-4.671-24.074-7.111-40.658-5.451-.005-13.046,2.94-21.762,7.024-22.383C160.854,17.7,167.01,18.522,168.995,20.1Z" fill="none" stroke="#fffee9" stroke-miterlimit="10" stroke-width="0.25"/>
        <path id="Trazado_1297" data-name="Trazado 1297" d="M179.28,25.148c-3.995-3.179-16.384-4.84-27.671-3.71" fill="none" stroke="#fffee9" stroke-miterlimit="10" stroke-width="0.25"/>
        <path id="Trazado_1298" data-name="Trazado 1298" d="M186.288,34.16c-5.365-4.268-22-6.5-37.154-4.982" fill="none" stroke="#fffee9" stroke-miterlimit="10" stroke-width="0.25"/>
        <path id="Trazado_1299" data-name="Trazado 1299" d="M165.794,18.8c7.906,1.233,13.616,10.392,13.621,23.438" fill="none" stroke="#fffee9" stroke-miterlimit="10" stroke-width="0.25"/>
        <path id="Trazado_1300" data-name="Trazado 1300" d="M148.222,40.642c.005,13.046,2.959,26.456,7.046,33.578-5.608.562-8.544,2.3-6.559,3.877-11.544-2.716-19.88-12.946-19.886-25.991C122.953,47.435,131.638,42.3,148.222,40.642Z" fill="none" stroke="#fffee9" stroke-miterlimit="10" stroke-width="0.25"/>
        <path id="Trazado_1301" data-name="Trazado 1301" d="M149.143,53.562c-15.155,1.517-23.092,6.207-17.727,10.476" fill="none" stroke="#fffee9" stroke-miterlimit="10" stroke-width="0.25"/>
        <path id="Trazado_1302" data-name="Trazado 1302" d="M151.626,65.248c-11.287,1.13-17.2,4.623-13.2,7.8" fill="none" stroke="#fffee9" stroke-miterlimit="10" stroke-width="0.25"/>
        <path id="Trazado_1303" data-name="Trazado 1303" d="M134.518,43.313c0,13.046,6.761,25.714,16.117,31.81" fill="none" stroke="#fffee9" stroke-miterlimit="10" stroke-width="0.25"/>
        <path id="Trazado_1304" data-name="Trazado 1304" d="M127.558,47.426c.005,13.046,8.692,24.573,20.723,29.088" fill="none" stroke="#fffee9" stroke-miterlimit="10" stroke-width="0.25"/>
        <path id="Trazado_1305" data-name="Trazado 1305" d="M128.824,52.1c0,13.046,8.341,23.275,19.885,25.991,1.985,1.579,8.141,2.4,13.749,1.843,4.084-.62,7.029-9.337,7.024-22.383C152.9,59.217,134.7,56.776,128.824,52.1Z" fill="none" stroke="#fffee9" stroke-miterlimit="10" stroke-width="0.25"/>
        <path id="Trazado_1306" data-name="Trazado 1306" d="M131.416,64.038c5.365,4.268,22,6.5,37.154,4.982" fill="none" stroke="#fffee9" stroke-miterlimit="10" stroke-width="0.25"/>
        <path id="Trazado_1307" data-name="Trazado 1307" d="M138.424,73.05c4,3.179,16.384,4.84,27.671,3.71" fill="none" stroke="#fffee9" stroke-miterlimit="10" stroke-width="0.25"/>
        <path id="Trazado_1308" data-name="Trazado 1308" d="M138.288,55.963c.005,13.046,5.715,22.2,13.621,23.437" fill="none" stroke="#fffee9" stroke-miterlimit="10" stroke-width="0.25"/>
        <path id="Trazado_1309" data-name="Trazado 1309" d="M152.874,57.919c.005,13.046,1.668,21.662,3.967,22.143" fill="none" stroke="#fffee9" stroke-miterlimit="10" stroke-width="0.25"/>
        <path id="Trazado_1310" data-name="Trazado 1310" d="M169.481,57.556c0,13.046-2.94,21.762-7.024,22.383,5.608-.561,8.545-2.3,6.56-3.876A33.3,33.3,0,0,0,188.88,46.092C194.75,50.763,186.065,55.9,169.481,57.556Z" fill="none" stroke="#fffee9" stroke-miterlimit="10" stroke-width="0.25"/>
        <path id="Trazado_1311" data-name="Trazado 1311" d="M168.57,69.02c15.155-1.517,23.092-6.207,17.727-10.476" fill="none" stroke="#fffee9" stroke-miterlimit="10" stroke-width="0.25"/>
        <path id="Trazado_1312" data-name="Trazado 1312" d="M166.1,76.76c11.287-1.13,17.2-4.623,13.2-7.8" fill="none" stroke="#fffee9" stroke-miterlimit="10" stroke-width="0.25"/>
        <path id="Trazado_1313" data-name="Trazado 1313" d="M183.186,54.884c0,13.046-6.742,22.5-16.094,24.152" fill="none" stroke="#fffee9" stroke-miterlimit="10" stroke-width="0.25"/>
        <path id="Trazado_1314" data-name="Trazado 1314" d="M190.145,50.772a27.617,27.617,0,0,1-20.7,26.873" fill="none" stroke="#fffee9" stroke-miterlimit="10" stroke-width="0.25"/>
        <path id="Trazado_1315" data-name="Trazado 1315" d="M188.88,46.093a33.3,33.3,0,0,1-19.863,29.97c-1.985-1.579-8.141-2.4-13.748-1.843-4.088-7.123-7.042-20.532-7.047-33.578C164.806,38.981,183.009,41.422,188.88,46.093Z" fill="none" stroke="#fffee9" stroke-miterlimit="10" stroke-width="0.25"/>
        <path id="Trazado_1316" data-name="Trazado 1316" d="M186.3,58.544c-5.365-4.268-22-6.5-37.154-4.981" fill="none" stroke="#fffee9" stroke-miterlimit="10" stroke-width="0.25"/>
        <path id="Trazado_1317" data-name="Trazado 1317" d="M179.3,68.958c-3.995-3.179-16.384-4.84-27.671-3.71" fill="none" stroke="#fffee9" stroke-miterlimit="10" stroke-width="0.25"/>
        <path id="Trazado_1318" data-name="Trazado 1318" d="M179.415,42.235c.005,13.046-5.7,26.014-13.6,32.524" fill="none" stroke="#fffee9" stroke-miterlimit="10" stroke-width="0.25"/>
        <path id="Trazado_1319" data-name="Trazado 1319" d="M153.941,18.417c-4.745.682-7.079,2.266-5.255,3.718,1.986,1.58,8.141,2.405,13.749,1.844s8.545-2.3,6.56-3.877a12.04,12.04,0,0,0-5.266-1.69,32.287,32.287,0,0,1,8.707,2.515,32.151,32.151,0,0,1,3.652,1.948c.906.6,2.1,1.428,2.959,2.086.542.413,1.218,1.023,1.726,1.479.479.43,1.1,1.029,1.528,1.51.765.855,1.743,2.033,2.45,2.936a30.482,30.482,0,0,1,2.176,3.408,29.879,29.879,0,0,1,1.709,3.664,30.909,30.909,0,0,1,1.218,3.886c.161.614.33,1.445.426,2.072.142.931.288,2.179.366,3.118a30.887,30.887,0,0,1-1.669,12.284,28.68,28.68,0,0,1-1.6,3.736c-.311.565-.695,1.336-1.042,1.879-.619.969-1.491,2.232-2.174,3.157a31.135,31.135,0,0,1-5.917,5.765,31.99,31.99,0,0,1-6.708,3.8,32.437,32.437,0,0,1-7.774,2.123q-.625.09-1.3.158a36.473,36.473,0,0,1-8.482-.153,32.778,32.778,0,0,1-8.707-2.515,31.391,31.391,0,0,1-7.586-4.843,28.35,28.35,0,0,1-2.9-2.854c-.407-.485-.976-1.112-1.35-1.623-.682-.933-1.549-2.208-2.165-3.185a30.712,30.712,0,0,1-4.281-15.776,30.042,30.042,0,0,1,.3-4.191c.2-1.179.526-2.743.809-3.906.149-.615.424-1.415.631-2.013a31.005,31.005,0,0,1,1.6-3.736c.31-.565.7-1.336,1.041-1.879.619-.969,1.491-2.232,2.174-3.157a31.219,31.219,0,0,1,12.625-9.569A32.438,32.438,0,0,1,153.941,18.417Z" fill="none" stroke="#fffee9" stroke-miterlimit="10" stroke-width="0.25"/>
      </g>
    </g>
    <g id="Grupo_193" data-name="Grupo 193">
      <g id="Grupo_192" data-name="Grupo 192" clip-path="url(#clip-path-2)">
        <path id="Trazado_1321" data-name="Trazado 1321" d="M155.246,18.258c-4.084.621-7.029,9.337-7.024,22.383-16.584,1.66-25.269,6.793-19.4,11.464a33.3,33.3,0,0,1,19.863-29.97C146.7,20.555,149.638,18.819,155.246,18.258Z" fill="none" stroke="#fffee9" stroke-miterlimit="10" stroke-width="0.25"/>
        <path id="Trazado_1322" data-name="Trazado 1322" d="M151.609,21.438c-11.287,1.13-17.2,4.623-13.2,7.8" fill="none" stroke="#fffee9" stroke-miterlimit="10" stroke-width="0.25"/>
        <path id="Trazado_1323" data-name="Trazado 1323" d="M149.133,29.178c-15.155,1.517-23.092,6.207-17.727,10.476" fill="none" stroke="#fffee9" stroke-miterlimit="10" stroke-width="0.25"/>
        <path id="Trazado_1324" data-name="Trazado 1324" d="M150.612,19.162c-9.352,1.648-16.1,11.106-16.094,24.152" fill="none" stroke="#fffee9" stroke-miterlimit="10" stroke-width="0.25"/>
        <path id="Trazado_1325" data-name="Trazado 1325" d="M148.258,20.553a27.619,27.619,0,0,0-20.7,26.874" fill="none" stroke="#fffee9" stroke-miterlimit="10" stroke-width="0.25"/>
        <path id="Trazado_1326" data-name="Trazado 1326" d="M148.686,22.135A33.3,33.3,0,0,0,128.823,52.1c5.871,4.671,24.074,7.112,40.658,5.452-.005-13.046-2.959-26.456-7.046-33.579C156.827,24.54,150.671,23.714,148.686,22.135Z" fill="none" stroke="#fffee9" stroke-miterlimit="10" stroke-width="0.25"/>
        <path id="Trazado_1327" data-name="Trazado 1327" d="M138.406,29.24c3.995,3.179,16.384,4.84,27.671,3.71" fill="none" stroke="#fffee9" stroke-miterlimit="10" stroke-width="0.25"/>
        <path id="Trazado_1328" data-name="Trazado 1328" d="M131.406,39.654c5.365,4.268,22,6.5,37.154,4.982" fill="none" stroke="#fffee9" stroke-miterlimit="10" stroke-width="0.25"/>
        <path id="Trazado_1329" data-name="Trazado 1329" d="M151.887,23.44c-7.9,6.51-13.6,19.478-13.6,32.524" fill="none" stroke="#fffee9" stroke-miterlimit="10" stroke-width="0.25"/>
        <path id="Trazado_1330" data-name="Trazado 1330" d="M148.222,40.642c.005,13.046,2.959,26.456,7.046,33.578-5.608.562-8.544,2.3-6.559,3.877-11.544-2.716-19.88-12.946-19.886-25.991C122.953,47.435,131.638,42.3,148.222,40.642Z" fill="none" stroke="#fffee9" stroke-miterlimit="10" stroke-width="0.25"/>
        <path id="Trazado_1331" data-name="Trazado 1331" d="M149.143,53.562c-15.155,1.517-23.092,6.207-17.727,10.476" fill="none" stroke="#fffee9" stroke-miterlimit="10" stroke-width="0.25"/>
        <path id="Trazado_1332" data-name="Trazado 1332" d="M151.626,65.248c-11.287,1.13-17.2,4.623-13.2,7.8" fill="none" stroke="#fffee9" stroke-miterlimit="10" stroke-width="0.25"/>
        <path id="Trazado_1333" data-name="Trazado 1333" d="M134.518,43.313c0,13.046,6.761,25.714,16.117,31.81" fill="none" stroke="#fffee9" stroke-miterlimit="10" stroke-width="0.25"/>
        <path id="Trazado_1334" data-name="Trazado 1334" d="M127.558,47.426c.005,13.046,8.692,24.573,20.723,29.088" fill="none" stroke="#fffee9" stroke-miterlimit="10" stroke-width="0.25"/>
        <path id="Trazado_1335" data-name="Trazado 1335" d="M128.824,52.1c0,13.046,8.341,23.275,19.885,25.991,1.985,1.579,8.141,2.4,13.749,1.843,4.084-.62,7.029-9.337,7.024-22.383C152.9,59.217,134.7,56.776,128.824,52.1Z" fill="none" stroke="#fffee9" stroke-miterlimit="10" stroke-width="0.25"/>
        <path id="Trazado_1336" data-name="Trazado 1336" d="M131.416,64.038c5.365,4.268,22,6.5,37.154,4.982" fill="none" stroke="#fffee9" stroke-miterlimit="10" stroke-width="0.25"/>
        <path id="Trazado_1337" data-name="Trazado 1337" d="M138.424,73.05c4,3.179,16.384,4.84,27.671,3.71" fill="none" stroke="#fffee9" stroke-miterlimit="10" stroke-width="0.25"/>
        <path id="Trazado_1338" data-name="Trazado 1338" d="M138.288,55.963c.005,13.046,5.715,22.2,13.621,23.437" fill="none" stroke="#fffee9" stroke-miterlimit="10" stroke-width="0.25"/>
        <path id="Trazado_1339" data-name="Trazado 1339" d="M126.989,49.112a30.25,30.25,0,0,1,.281-4.188c.2-1.181.515-2.747.793-3.912a18.139,18.139,0,0,1,.618-2c.223-.587.491-1.383.753-1.953.487-1.057,1.152-2.462,1.741-3.465a31.254,31.254,0,0,1,17.5-13.969,34.512,34.512,0,0,1,5.27-1.207q.626-.09,1.305-.158c-4.084.621-7.029,9.337-7.024,22.383s2.959,26.455,7.046,33.578c-5.608.561-8.544,2.3-6.559,3.876a12.014,12.014,0,0,0,5.266,1.69,33.781,33.781,0,0,1-4.941-1.1,30.05,30.05,0,0,1-5.184-2.1,32.381,32.381,0,0,1-4.528-2.837,30.52,30.52,0,0,1-4.349-3.967,32.148,32.148,0,0,1-3.6-4.846c-.329-.55-.764-1.289-1.037-1.869s-.642-1.327-.892-1.907c-.231-.54-.5-1.277-.71-1.825a18.339,18.339,0,0,1-.631-2.009c-.284-1.164-.61-2.728-.812-3.909A31.835,31.835,0,0,1,126.989,49.112Z" fill="none" stroke="#fffee9" stroke-miterlimit="10" stroke-width="0.25"/>
      </g>
    </g>
    <g id="Grupo_195" data-name="Grupo 195">
      <g id="Grupo_194" data-name="Grupo 194" clip-path="url(#clip-path-3)">
        <path id="Trazado_1341" data-name="Trazado 1341" d="M162.435,23.978c4.087,7.123,7.041,20.532,7.046,33.578,16.584-1.66,25.269-6.793,19.4-11.463-.005-13.046-8.341-23.275-19.885-25.992C170.98,21.681,168.043,23.417,162.435,23.978Z" fill="none" stroke="#fffee9" stroke-miterlimit="10" stroke-width="0.25"/>
        <path id="Trazado_1342" data-name="Trazado 1342" d="M166.077,32.95c11.287-1.13,17.2-4.623,13.2-7.8" fill="none" stroke="#fffee9" stroke-miterlimit="10" stroke-width="0.25"/>
        <path id="Trazado_1343" data-name="Trazado 1343" d="M168.561,44.636c15.155-1.517,23.092-6.207,17.727-10.476" fill="none" stroke="#fffee9" stroke-miterlimit="10" stroke-width="0.25"/>
        <path id="Trazado_1344" data-name="Trazado 1344" d="M167.069,23.075c9.355,6.1,16.111,18.764,16.116,31.81" fill="none" stroke="#fffee9" stroke-miterlimit="10" stroke-width="0.25"/>
        <path id="Trazado_1345" data-name="Trazado 1345" d="M169.423,21.684c12.03,4.515,20.717,16.042,20.722,29.088" fill="none" stroke="#fffee9" stroke-miterlimit="10" stroke-width="0.25"/>
        <path id="Trazado_1346" data-name="Trazado 1346" d="M168.995,20.1c11.544,2.716,19.88,12.945,19.885,25.991-5.871-4.671-24.074-7.111-40.658-5.451-.005-13.046,2.94-21.762,7.024-22.383C160.854,17.7,167.01,18.522,168.995,20.1Z" fill="none" stroke="#fffee9" stroke-miterlimit="10" stroke-width="0.25"/>
        <path id="Trazado_1347" data-name="Trazado 1347" d="M179.28,25.148c-3.995-3.179-16.384-4.84-27.671-3.71" fill="none" stroke="#fffee9" stroke-miterlimit="10" stroke-width="0.25"/>
        <path id="Trazado_1348" data-name="Trazado 1348" d="M186.288,34.16c-5.365-4.268-22-6.5-37.154-4.982" fill="none" stroke="#fffee9" stroke-miterlimit="10" stroke-width="0.25"/>
        <path id="Trazado_1349" data-name="Trazado 1349" d="M165.794,18.8c7.906,1.233,13.616,10.392,13.621,23.438" fill="none" stroke="#fffee9" stroke-miterlimit="10" stroke-width="0.25"/>
        <path id="Trazado_1350" data-name="Trazado 1350" d="M160.862,18.136c2.3.482,3.962,9.1,3.967,22.143" fill="none" stroke="#fffee9" stroke-miterlimit="10" stroke-width="0.25"/>
        <path id="Trazado_1351" data-name="Trazado 1351" d="M169.481,57.556c0,13.046-2.94,21.762-7.024,22.383,5.608-.561,8.545-2.3,6.56-3.876A33.3,33.3,0,0,0,188.88,46.092C194.75,50.763,186.065,55.9,169.481,57.556Z" fill="none" stroke="#fffee9" stroke-miterlimit="10" stroke-width="0.25"/>
        <path id="Trazado_1352" data-name="Trazado 1352" d="M168.57,69.02c15.155-1.517,23.092-6.207,17.727-10.476" fill="none" stroke="#fffee9" stroke-miterlimit="10" stroke-width="0.25"/>
        <path id="Trazado_1353" data-name="Trazado 1353" d="M166.1,76.76c11.287-1.13,17.2-4.623,13.2-7.8" fill="none" stroke="#fffee9" stroke-miterlimit="10" stroke-width="0.25"/>
        <path id="Trazado_1354" data-name="Trazado 1354" d="M183.186,54.884c0,13.046-6.742,22.5-16.094,24.152" fill="none" stroke="#fffee9" stroke-miterlimit="10" stroke-width="0.25"/>
        <path id="Trazado_1355" data-name="Trazado 1355" d="M190.145,50.772a27.617,27.617,0,0,1-20.7,26.873" fill="none" stroke="#fffee9" stroke-miterlimit="10" stroke-width="0.25"/>
        <path id="Trazado_1356" data-name="Trazado 1356" d="M188.88,46.093a33.3,33.3,0,0,1-19.863,29.97c-1.985-1.579-8.141-2.4-13.748-1.843-4.088-7.123-7.042-20.532-7.047-33.578C164.806,38.981,183.009,41.422,188.88,46.093Z" fill="none" stroke="#fffee9" stroke-miterlimit="10" stroke-width="0.25"/>
        <path id="Trazado_1357" data-name="Trazado 1357" d="M186.3,58.544c-5.365-4.268-22-6.5-37.154-4.981" fill="none" stroke="#fffee9" stroke-miterlimit="10" stroke-width="0.25"/>
        <path id="Trazado_1358" data-name="Trazado 1358" d="M179.3,68.958c-3.995-3.179-16.384-4.84-27.671-3.71" fill="none" stroke="#fffee9" stroke-miterlimit="10" stroke-width="0.25"/>
        <path id="Trazado_1359" data-name="Trazado 1359" d="M179.415,42.235c.005,13.046-5.7,26.014-13.6,32.524" fill="none" stroke="#fffee9" stroke-miterlimit="10" stroke-width="0.25"/>
        <path id="Trazado_1360" data-name="Trazado 1360" d="M164.829,40.279c.005,13.046-1.649,26.556-3.945,33.818" fill="none" stroke="#fffee9" stroke-miterlimit="10" stroke-width="0.25"/>
        <path id="Trazado_1361" data-name="Trazado 1361" d="M179.047,24.961a31.052,31.052,0,0,1,5.7,5.925c.657.953,1.494,2.251,2.085,3.245.327.549.682,1.325.972,1.894a28.511,28.511,0,0,1,1.48,3.787,31.306,31.306,0,0,1,.972,3.986c.1.634.237,1.479.292,2.117.082.949.145,2.219.163,3.172a30.18,30.18,0,0,1-1.107,8.218,30.581,30.581,0,0,1-1.339,3.836,29.762,29.762,0,0,1-1.823,3.606,30.446,30.446,0,0,1-2.285,3.343c-.728.872-1.731,2.009-2.514,2.831-.448.471-1.1,1.048-1.586,1.475a31.781,31.781,0,0,1-16.3,7.386c4.745-.683,7.08-2.266,5.255-3.718-1.985-1.58-8.14-2.405-13.748-1.844-4.088-7.122-7.041-20.532-7.047-33.578s2.94-21.762,7.024-22.383a36.489,36.489,0,0,1,8.484.153,33.1,33.1,0,0,1,7.872,2.153,30.583,30.583,0,0,1,3.787,1.888A31.389,31.389,0,0,1,179.047,24.961Z" fill="none" stroke="#fffee9" stroke-miterlimit="10" stroke-width="0.25"/>
      </g>
    </g>
    <g id="Grupo_197" data-name="Grupo 197">
      <g id="Grupo_196" data-name="Grupo 196" clip-path="url(#clip-path-4)">
        <path id="Trazado_1363" data-name="Trazado 1363" d="M155.268,74.22C143.353,60.869,105.92,20.026,105.915,6.98,23.324,15.249-19.929,40.809,9.307,64.07c.006,13.046,105.744,13.524,139.4,14.026C146.723,76.517,149.66,74.781,155.268,74.22Z" fill="none" stroke="#fffee9" stroke-miterlimit="10" stroke-width="0.25"/>
        <path id="Trazado_1364" data-name="Trazado 1364" d="M137.179,53.753C103.351,57.14,85.636,67.609,97.611,77.136" fill="none" stroke="#fffee9" stroke-miterlimit="10" stroke-width="0.25"/>
        <path id="Trazado_1365" data-name="Trazado 1365" d="M116.065,27.244C49.3,33.928,14.339,54.59,37.972,73.393" fill="none" stroke="#fffee9" stroke-miterlimit="10" stroke-width="0.25"/>
        <path id="Trazado_1366" data-name="Trazado 1366" d="M150.634,75.123C123.359,64.767,37.67,33.332,37.664,20.286" fill="none" stroke="#fffee9" stroke-miterlimit="10" stroke-width="0.25"/>
        <path id="Trazado_1367" data-name="Trazado 1367" d="M148.281,76.514C113.206,70.767,3.012,53.814,3.007,40.768" fill="none" stroke="#fffee9" stroke-miterlimit="10" stroke-width="0.25"/>
        <path id="Trazado_1368" data-name="Trazado 1368" d="M148.709,78.1c-33.657-.5-139.4-.98-139.4-14.026C38.544,87.332,129.2,99.486,211.789,91.218c.005,13.046-37.419-5.671-49.332-11.279C156.85,80.5,150.694,79.675,148.709,78.1Z" fill="none" stroke="#fffee9" stroke-miterlimit="10" stroke-width="0.25"/>
        <path id="Trazado_1369" data-name="Trazado 1369" d="M97.61,77.136c11.975,9.528,49.1,14.506,82.932,11.119" fill="none" stroke="#fffee9" stroke-miterlimit="10" stroke-width="0.25"/>
        <path id="Trazado_1370" data-name="Trazado 1370" d="M37.972,73.393C61.6,92.2,134.886,102.022,201.649,95.338" fill="none" stroke="#fffee9" stroke-miterlimit="10" stroke-width="0.25"/>
        <path id="Trazado_1371" data-name="Trazado 1371" d="M151.909,79.4C128.86,83.223,56.448,96.33,56.443,83.285" fill="none" stroke="#fffee9" stroke-miterlimit="10" stroke-width="0.25"/>
        <path id="Trazado_1372" data-name="Trazado 1372" d="M156.842,80.062c-6.7,6.014-27.753,26.007-27.758,12.962" fill="none" stroke="#fffee9" stroke-miterlimit="10" stroke-width="0.25"/>
        <path id="Trazado_1373" data-name="Trazado 1373" d="M162.457,79.94c11.912,5.607,49.336,24.324,49.331,11.278,82.591-8.268,125.844-33.828,96.607-57.09.006,13.046-105.724,34.695-139.378,41.936C171,77.643,168.065,79.379,162.457,79.94Z" fill="none" stroke="#fffee9" stroke-miterlimit="10" stroke-width="0.25"/>
        <path id="Trazado_1374" data-name="Trazado 1374" d="M180.542,88.255C214.37,84.868,232.085,74.4,220.11,64.872" fill="none" stroke="#fffee9" stroke-miterlimit="10" stroke-width="0.25"/>
        <path id="Trazado_1375" data-name="Trazado 1375" d="M201.648,95.338c66.763-6.684,101.726-27.346,78.093-46.149" fill="none" stroke="#fffee9" stroke-miterlimit="10" stroke-width="0.25"/>
        <path id="Trazado_1376" data-name="Trazado 1376" d="M167.092,79.036c27.271,2.613,112.951,11.921,112.946-1.125" fill="none" stroke="#fffee9" stroke-miterlimit="10" stroke-width="0.25"/>
        <path id="Trazado_1377" data-name="Trazado 1377" d="M169.445,77.645c35.072-2,145.257-7.17,145.252-20.215" fill="none" stroke="#fffee9" stroke-miterlimit="10" stroke-width="0.25"/>
        <path id="Trazado_1378" data-name="Trazado 1378" d="M169.017,76.063C202.671,68.822,308.4,47.173,308.4,34.128,279.16,10.866,188.506-1.289,105.915,6.98c0,13.046,37.438,53.889,49.354,67.24C160.876,73.658,167.032,74.484,169.017,76.063Z" fill="none" stroke="#fffee9" stroke-miterlimit="10" stroke-width="0.25"/>
        <path id="Trazado_1379" data-name="Trazado 1379" d="M220.111,64.872c-11.975-9.528-49.1-14.506-82.932-11.119" fill="none" stroke="#fffee9" stroke-miterlimit="10" stroke-width="0.25"/>
        <path id="Trazado_1380" data-name="Trazado 1380" d="M279.741,49.189c-23.633-18.8-96.914-28.629-163.677-21.945" fill="none" stroke="#fffee9" stroke-miterlimit="10" stroke-width="0.25"/>
        <path id="Trazado_1381" data-name="Trazado 1381" d="M165.816,74.758c23.046-11.565,95.449-46.8,95.444-59.845" fill="none" stroke="#fffee9" stroke-miterlimit="10" stroke-width="0.25"/>
        <path id="Trazado_1382" data-name="Trazado 1382" d="M160.884,74.1c6.7-13.757,27.741-55.877,27.736-68.923" fill="none" stroke="#fffee9" stroke-miterlimit="10" stroke-width="0.25"/>
        <path id="Trazado_1383" data-name="Trazado 1383" d="M105.915,6.98c0-13.046,37.419,5.671,49.331,11.278-5.608.562-8.545,2.3-6.56,3.877C115.033,29.376,9.3,51.025,9.308,64.07-19.928,40.809,23.324,15.248,105.915,6.98Z" fill="none" stroke="#fffee9" stroke-miterlimit="10" stroke-width="0.25"/>
        <path id="Trazado_1384" data-name="Trazado 1384" d="M37.665,20.287C37.66,7.241,123.34,16.55,150.612,19.162" fill="none" stroke="#fffee9" stroke-miterlimit="10" stroke-width="0.25"/>
        <path id="Trazado_1385" data-name="Trazado 1385" d="M3.007,40.768C3,27.722,113.187,22.55,148.259,20.553" fill="none" stroke="#fffee9" stroke-miterlimit="10" stroke-width="0.25"/>
        <path id="Trazado_1386" data-name="Trazado 1386" d="M9.308,64.07c0-13.046,105.725-34.694,139.379-41.935,1.985,1.579,8.14,2.4,13.748,1.843,11.915,13.351,49.349,54.194,49.354,67.24C129.2,99.486,38.544,87.332,9.308,64.07Z" fill="none" stroke="#fffee9" stroke-miterlimit="10" stroke-width="0.25"/>
        <path id="Trazado_1387" data-name="Trazado 1387" d="M56.443,83.284c-.005-13.046,72.4-48.28,95.444-59.845" fill="none" stroke="#fffee9" stroke-miterlimit="10" stroke-width="0.25"/>
        <path id="Trazado_1388" data-name="Trazado 1388" d="M129.083,93.024c0-13.046,21.038-55.166,27.736-68.923" fill="none" stroke="#fffee9" stroke-miterlimit="10" stroke-width="0.25"/>
        <path id="Trazado_1389" data-name="Trazado 1389" d="M211.788,91.218c0-13.046-37.438-53.889-49.353-67.24,5.608-.561,8.545-2.3,6.559-3.876,33.657.5,139.4.98,139.4,14.026C337.632,57.389,294.379,82.95,211.788,91.218Z" fill="none" stroke="#fffee9" stroke-miterlimit="10" stroke-width="0.25"/>
        <path id="Trazado_1390" data-name="Trazado 1390" d="M280.039,77.911c-.005-13.046-85.694-44.48-112.969-54.837" fill="none" stroke="#fffee9" stroke-miterlimit="10" stroke-width="0.25"/>
        <path id="Trazado_1391" data-name="Trazado 1391" d="M314.7,57.43c-.005-13.046-110.2-30-145.274-35.746" fill="none" stroke="#fffee9" stroke-miterlimit="10" stroke-width="0.25"/>
        <path id="Trazado_1392" data-name="Trazado 1392" d="M308.4,34.128C308.391,21.082,202.652,20.6,168.995,20.1c-1.985-1.579-8.141-2.4-13.749-1.843C143.334,12.651,105.91-6.066,105.915,6.98,188.506-1.288,279.16,10.866,308.4,34.128Z" fill="none" stroke="#fffee9" stroke-miterlimit="10" stroke-width="0.25"/>
        <path id="Trazado_1393" data-name="Trazado 1393" d="M261.26,14.913c-.005-13.046-72.417.062-95.466,3.884" fill="none" stroke="#fffee9" stroke-miterlimit="10" stroke-width="0.25"/>
        <path id="Trazado_1394" data-name="Trazado 1394" d="M188.62,5.174c0-13.046-21.057,6.948-27.758,12.962" fill="none" stroke="#fffee9" stroke-miterlimit="10" stroke-width="0.25"/>
        <path id="Trazado_1395" data-name="Trazado 1395" d="M.171,49.162a16.94,16.94,0,0,1,1.975-7.631,28.958,28.958,0,0,1,6.318-7.87,62.3,62.3,0,0,1,9.721-7.021,110.9,110.9,0,0,1,13.6-6.682,171.163,171.163,0,0,1,16.549-5.837c7.623-2.3,13.382-3.618,18.953-4.889.9-.2,9.1-2.054,20.868-3.88C91.5,4.834,95.965,4.21,99.319,3.786c3.377-.428,7.891-.892,11.273-1.274-2.9.29-4.679,1.625-4.678,4.468.006,13.045,37.44,53.889,49.354,67.239-5.608.562-8.545,2.3-6.56,3.877s8.141,2.4,13.749,1.843,8.545-2.3,6.559-3.876-8.14-2.405-13.748-1.844C143.354,60.869,105.92,20.025,105.914,6.98c0-2.843,1.776-4.178,4.678-4.468,3.468-.347,8.095-.792,11.573-1.013C136.569.584,138.783.443,144.916.33,157.017.108,159.2.068,167.35.2c7.573.124,14.6.4,22.109.858,10.272.632,26.042,1.957,42.835,4.685,7.4,1.2,7.4,1.2,20.19,3.891,3.009.632,7,1.6,9.954,2.445,5.15,1.474,11.978,3.577,17.053,5.292,2.559.865,5.9,2.231,8.377,3.305,2.326,1.008,5.386,2.454,7.637,3.622,1.871.972,4.277,2.43,6.091,3.505a42.148,42.148,0,0,1,6.915,5.107,57.33,57.33,0,0,1,6.658,7.8A15.218,15.218,0,0,1,317,45.086a16.319,16.319,0,0,1,.151,7.3,20.248,20.248,0,0,1-4.083,8.078,42.383,42.383,0,0,1-8.261,7.647,83.646,83.646,0,0,1-11.977,7.023c-2.215,1.083-5.2,2.467-7.506,3.345-4.741,1.806-11.135,4.026-15.96,5.594-1.659.539-10.372,3.054-19.422,4.992-12.3,2.635-20.367,3.777-20.7,3.824-6.626.929-15.479,2.043-22.128,2.794-3.463.391-8.1.741-11.573,1.012-9.408.733-20.711,1.133-22.751,1.169-3.379.059-7.885.208-11.264.19-6.672-.035-15.569-.125-22.237-.366-3.314-.12-7.731-.35-11.042-.553-3.248-.2-7.573-.551-10.819-.788-3.274-.239-7.625-.734-10.893-1.051-2.351-.229-13.175-1.519-21.123-2.846-3.165-.528-7.391-1.212-10.533-1.868C69.18,89.395,61.61,87.693,55.961,86.3c-2.875-.708-6.661-1.839-9.491-2.712-2.5-.77-5.792-1.9-8.258-2.764a134.234,134.234,0,0,1-15.305-6.56A71.443,71.443,0,0,1,10.865,66.68a47.57,47.57,0,0,1-5.542-5.269,28.45,28.45,0,0,1-2.789-3.925A19.588,19.588,0,0,1,.7,53.112,16.751,16.751,0,0,1,.171,49.162Z" fill="none" stroke="#fffee9" stroke-miterlimit="10" stroke-width="0.25"/>
      </g>
    </g>
    <g id="Grupo_199" data-name="Grupo 199">
      <g id="Grupo_198" data-name="Grupo 198" clip-path="url(#clip-path-5)">
        <path id="Trazado_1397" data-name="Trazado 1397" d="M155.268,74.22C143.353,60.869,105.92,20.026,105.915,6.98,23.324,15.249-19.929,40.809,9.307,64.07c.006,13.046,105.744,13.524,139.4,14.026C146.723,76.517,149.66,74.781,155.268,74.22Z" fill="none" stroke="#fffee9" stroke-miterlimit="10" stroke-width="0.25"/>
        <path id="Trazado_1398" data-name="Trazado 1398" d="M150.634,75.123C123.359,64.767,37.67,33.332,37.664,20.286" fill="none" stroke="#fffee9" stroke-miterlimit="10" stroke-width="0.25"/>
        <path id="Trazado_1399" data-name="Trazado 1399" d="M148.281,76.514C113.206,70.767,3.012,53.814,3.007,40.768" fill="none" stroke="#fffee9" stroke-miterlimit="10" stroke-width="0.25"/>
        <path id="Trazado_1400" data-name="Trazado 1400" d="M148.709,78.1c-33.657-.5-139.4-.98-139.4-14.026C38.544,87.332,129.2,99.486,211.789,91.218c.005,13.046-37.419-5.671-49.332-11.279C156.85,80.5,150.694,79.675,148.709,78.1Z" fill="none" stroke="#fffee9" stroke-miterlimit="10" stroke-width="0.25"/>
        <path id="Trazado_1401" data-name="Trazado 1401" d="M151.909,79.4C128.86,83.223,56.448,96.33,56.443,83.285" fill="none" stroke="#fffee9" stroke-miterlimit="10" stroke-width="0.25"/>
        <path id="Trazado_1402" data-name="Trazado 1402" d="M156.842,80.062c-6.7,6.014-27.753,26.007-27.758,12.962" fill="none" stroke="#fffee9" stroke-miterlimit="10" stroke-width="0.25"/>
        <path id="Trazado_1403" data-name="Trazado 1403" d="M162.457,79.94c11.912,5.607,49.336,24.324,49.331,11.278,82.591-8.268,125.844-33.828,96.607-57.09.006,13.046-105.724,34.695-139.378,41.936C171,77.643,168.065,79.379,162.457,79.94Z" fill="none" stroke="#fffee9" stroke-miterlimit="10" stroke-width="0.25"/>
        <path id="Trazado_1404" data-name="Trazado 1404" d="M167.092,79.036c27.271,2.613,112.951,11.921,112.946-1.125" fill="none" stroke="#fffee9" stroke-miterlimit="10" stroke-width="0.25"/>
        <path id="Trazado_1405" data-name="Trazado 1405" d="M169.445,77.645c35.072-2,145.257-7.17,145.252-20.215" fill="none" stroke="#fffee9" stroke-miterlimit="10" stroke-width="0.25"/>
        <path id="Trazado_1406" data-name="Trazado 1406" d="M169.017,76.063C202.671,68.822,308.4,47.173,308.4,34.128,279.16,10.866,188.506-1.289,105.915,6.98c0,13.046,37.438,53.889,49.354,67.24C160.876,73.658,167.032,74.484,169.017,76.063Z" fill="none" stroke="#fffee9" stroke-miterlimit="10" stroke-width="0.25"/>
        <path id="Trazado_1407" data-name="Trazado 1407" d="M165.816,74.758c23.046-11.565,95.449-46.8,95.444-59.845" fill="none" stroke="#fffee9" stroke-miterlimit="10" stroke-width="0.25"/>
        <path id="Trazado_1408" data-name="Trazado 1408" d="M160.884,74.1c6.7-13.757,27.741-55.877,27.736-68.923" fill="none" stroke="#fffee9" stroke-miterlimit="10" stroke-width="0.25"/>
        <path id="Trazado_1409" data-name="Trazado 1409" d="M105.915,6.98c0-13.046,37.419,5.671,49.331,11.278-5.608.562-8.545,2.3-6.56,3.877C115.033,29.376,9.3,51.025,9.308,64.07-19.928,40.809,23.324,15.248,105.915,6.98Z" fill="none" stroke="#fffee9" stroke-miterlimit="10" stroke-width="0.25"/>
        <path id="Trazado_1410" data-name="Trazado 1410" d="M116.055,2.86C49.292,9.544,14.329,30.206,37.962,49.009" fill="none" stroke="#fffee9" stroke-miterlimit="10" stroke-width="0.25"/>
        <path id="Trazado_1411" data-name="Trazado 1411" d="M137.161,9.943C103.333,13.33,85.618,23.8,97.593,33.326" fill="none" stroke="#fffee9" stroke-miterlimit="10" stroke-width="0.25"/>
        <path id="Trazado_1412" data-name="Trazado 1412" d="M37.665,20.287C37.66,7.241,123.34,16.55,150.612,19.162" fill="none" stroke="#fffee9" stroke-miterlimit="10" stroke-width="0.25"/>
        <path id="Trazado_1413" data-name="Trazado 1413" d="M3.007,40.768C3,27.722,113.187,22.55,148.259,20.553" fill="none" stroke="#fffee9" stroke-miterlimit="10" stroke-width="0.25"/>
        <path id="Trazado_1414" data-name="Trazado 1414" d="M9.308,64.07c0-13.046,105.725-34.694,139.379-41.935,1.985,1.579,8.14,2.4,13.748,1.843,11.915,13.351,49.349,54.194,49.354,67.24C129.2,99.486,38.544,87.332,9.308,64.07Z" fill="none" stroke="#fffee9" stroke-miterlimit="10" stroke-width="0.25"/>
        <path id="Trazado_1415" data-name="Trazado 1415" d="M37.962,49.009c23.633,18.8,96.914,28.629,163.677,21.945" fill="none" stroke="#fffee9" stroke-miterlimit="10" stroke-width="0.25"/>
        <path id="Trazado_1416" data-name="Trazado 1416" d="M97.593,33.326c11.975,9.528,49.1,14.506,82.932,11.119" fill="none" stroke="#fffee9" stroke-miterlimit="10" stroke-width="0.25"/>
        <path id="Trazado_1417" data-name="Trazado 1417" d="M56.443,83.284c-.005-13.046,72.4-48.28,95.444-59.845" fill="none" stroke="#fffee9" stroke-miterlimit="10" stroke-width="0.25"/>
        <path id="Trazado_1418" data-name="Trazado 1418" d="M129.083,93.024c0-13.046,21.038-55.166,27.736-68.923" fill="none" stroke="#fffee9" stroke-miterlimit="10" stroke-width="0.25"/>
        <path id="Trazado_1419" data-name="Trazado 1419" d="M211.788,91.218c0-13.046-37.438-53.889-49.353-67.24,5.608-.561,8.545-2.3,6.559-3.876,33.657.5,139.4.98,139.4,14.026C337.632,57.389,294.379,82.95,211.788,91.218Z" fill="none" stroke="#fffee9" stroke-miterlimit="10" stroke-width="0.25"/>
        <path id="Trazado_1420" data-name="Trazado 1420" d="M201.639,70.954C268.4,64.27,303.365,43.608,279.732,24.805" fill="none" stroke="#fffee9" stroke-miterlimit="10" stroke-width="0.25"/>
        <path id="Trazado_1421" data-name="Trazado 1421" d="M180.525,44.445c33.828-3.387,51.543-13.856,39.568-23.383" fill="none" stroke="#fffee9" stroke-miterlimit="10" stroke-width="0.25"/>
        <path id="Trazado_1422" data-name="Trazado 1422" d="M280.039,77.911c-.005-13.046-85.694-44.48-112.969-54.837" fill="none" stroke="#fffee9" stroke-miterlimit="10" stroke-width="0.25"/>
        <path id="Trazado_1423" data-name="Trazado 1423" d="M314.7,57.43c-.005-13.046-110.2-30-145.274-35.746" fill="none" stroke="#fffee9" stroke-miterlimit="10" stroke-width="0.25"/>
        <path id="Trazado_1424" data-name="Trazado 1424" d="M308.4,34.128C308.391,21.082,202.652,20.6,168.995,20.1c-1.985-1.579-8.141-2.4-13.749-1.843C143.334,12.651,105.91-6.066,105.915,6.98,188.506-1.288,279.16,10.866,308.4,34.128Z" fill="none" stroke="#fffee9" stroke-miterlimit="10" stroke-width="0.25"/>
        <path id="Trazado_1425" data-name="Trazado 1425" d="M279.732,24.805C256.1,6,182.818-3.824,116.055,2.86" fill="none" stroke="#fffee9" stroke-miterlimit="10" stroke-width="0.25"/>
        <path id="Trazado_1426" data-name="Trazado 1426" d="M220.093,21.062c-11.975-9.528-49.1-14.506-82.932-11.119" fill="none" stroke="#fffee9" stroke-miterlimit="10" stroke-width="0.25"/>
        <path id="Trazado_1427" data-name="Trazado 1427" d="M261.26,14.913c-.005-13.046-72.417.062-95.466,3.884" fill="none" stroke="#fffee9" stroke-miterlimit="10" stroke-width="0.25"/>
        <path id="Trazado_1428" data-name="Trazado 1428" d="M188.62,5.174c0-13.046-21.057,6.948-27.758,12.962" fill="none" stroke="#fffee9" stroke-miterlimit="10" stroke-width="0.25"/>
        <path id="Trazado_1429" data-name="Trazado 1429" d="M10.866,66.681a47.591,47.591,0,0,1-4.259-3.852,25.729,25.729,0,0,1-4.073-5.342,31.435,31.435,0,0,1-2.356-7.9A12.487,12.487,0,0,1,.69,45.242c.586-2.327,2.341-5.1,3.641-7.121A31.807,31.807,0,0,1,7.673,34.4a37.985,37.985,0,0,1,4.742-3.969c1.5-1.122,3.63-2.443,5.207-3.458a75.364,75.364,0,0,1,6.652-3.621c2.217-1.1,5.207-2.5,7.514-3.4,4.706-1.823,11.058-4.057,15.855-5.626,2.835-.928,6.685-1.944,9.573-2.694,3.007-.781,7.029-1.786,10.074-2.407,6.086-1.241,14.231-2.752,20.354-3.8.087-.015,9.559-1.575,22.949-2.921,10.416-1.043,35.337,11.361,44.653,15.747-5.608.561-8.545,2.3-6.56,3.876s8.141,2.405,13.749,1.843,8.545-2.3,6.56-3.876-8.141-2.4-13.749-1.843c-9.316-4.386-34.237-16.79-44.653-15.747,3.432-.3,8-.784,11.44-1,3.421-.218,7.98-.546,11.4-.722S141.457.4,144.9.332C156.971.109,159.146.068,167.344.2c7.45.121,14.864.409,22.035.854,14.944.928,29.256,2.485,42.539,4.628,3.113.5,7.254,1.23,10.351,1.823,2.913.557,6.775,1.4,9.678,2.008,2.96.617,6.886,1.557,9.795,2.382,2.65.753,6.2,1.7,8.832,2.51,2.694.831,6.266,2.009,8.917,2.967,4.5,1.626,10.356,4.185,14.677,6.24,2.112,1,4.816,2.573,6.807,3.8,1.656,1.022,3.738,2.58,5.337,3.691a49.6,49.6,0,0,1,4.785,4.264,20.545,20.545,0,0,1,4.072,5.343,25.481,25.481,0,0,1,2.357,7.9,11.374,11.374,0,0,1-.513,4.347,30.032,30.032,0,0,1-3.64,7.121,40.915,40.915,0,0,1-8.085,7.687,81.38,81.38,0,0,1-11.859,7.08,137.73,137.73,0,0,1-15.115,6.307c-2.456.873-5.759,1.958-8.254,2.715-2.854.866-6.685,1.943-9.572,2.693A333.569,333.569,0,0,1,218.7,94.372c-22.507,2.864-42.181,3.414-45.9,3.495-4.526.1-15.124.33-22.446.13-3.322-.091-7.755-.14-11.074-.306-6.539-.326-15.253-.853-21.782-1.334-.092-.006-10.084-.8-21.447-2.328-11.636-1.567-19.737-3.16-20.623-3.336C69.943,89.6,63.72,88.359,55.962,86.3c-9.77-2.59-16.056-4.846-17.75-5.476a135.942,135.942,0,0,1-15.305-6.56c-1.889-.977-4.378-2.347-6.178-3.481A57.592,57.592,0,0,1,10.866,66.681Z" fill="none" stroke="#fffee9" stroke-miterlimit="10" stroke-width="0.25"/>
      </g>
    </g>
    <g id="Grupo_201" data-name="Grupo 201">
      <g id="Grupo_200" data-name="Grupo 200" clip-path="url(#clip-path-6)">
        <path id="Trazado_1431" data-name="Trazado 1431" d="M155.246,18.258a4.144,4.144,0,0,1,3.208,1.079c-.6.06-.916.246-.7.416a30.225,30.225,0,0,0-9.065,2.382C146.7,20.555,149.638,18.819,155.246,18.258Z" fill="none" stroke="#fffee9" stroke-miterlimit="10" stroke-width="0.25"/>
        <path id="Trazado_1432" data-name="Trazado 1432" d="M155.4,18.238c-.439.049-1.023.12-1.46.178q.624-.09,1.3-.158C155.3,18.25,155.351,18.243,155.4,18.238Z" fill="none" stroke="#fffee9" stroke-miterlimit="10" stroke-width="0.25"/>
      </g>
    </g>
    <g id="Grupo_203" data-name="Grupo 203">
      <g id="Grupo_202" data-name="Grupo 202" clip-path="url(#clip-path-7)">
        <path id="Trazado_1434" data-name="Trazado 1434" d="M155.246,18.258a4.144,4.144,0,0,1,3.208,1.079c-.6.06-.916.246-.7.416a30.225,30.225,0,0,0-9.065,2.382C146.7,20.555,149.638,18.819,155.246,18.258Z" fill="none" stroke="#fffee9" stroke-miterlimit="10" stroke-width="0.25"/>
        <path id="Trazado_1435" data-name="Trazado 1435" d="M156.277,18.272c-4,.4-6.093,1.638-4.677,2.764" fill="none" stroke="#fffee9" stroke-miterlimit="10" stroke-width="0.25"/>
        <path id="Trazado_1436" data-name="Trazado 1436" d="M157.349,18.627c-2.327.233-3.545.953-2.722,1.608" fill="none" stroke="#fffee9" stroke-miterlimit="10" stroke-width="0.25"/>
        <path id="Trazado_1437" data-name="Trazado 1437" d="M150.612,19.162a18.063,18.063,0,0,1,7.346.272" fill="none" stroke="#fffee9" stroke-miterlimit="10" stroke-width="0.25"/>
        <path id="Trazado_1438" data-name="Trazado 1438" d="M148.258,20.553a30.139,30.139,0,0,1,9.447-.969" fill="none" stroke="#fffee9" stroke-miterlimit="10" stroke-width="0.25"/>
        <path id="Trazado_1439" data-name="Trazado 1439" d="M148.686,22.135a30.217,30.217,0,0,1,9.065-2.382,2.617,2.617,0,0,0,1.474.2,14.1,14.1,0,0,1,3.21,4.027C156.827,24.54,150.671,23.714,148.686,22.135Z" fill="none" stroke="#fffee9" stroke-miterlimit="10" stroke-width="0.25"/>
        <path id="Trazado_1440" data-name="Trazado 1440" d="M151.6,21.036c1.415,1.126,5.8,1.715,9.8,1.314" fill="none" stroke="#fffee9" stroke-miterlimit="10" stroke-width="0.25"/>
        <path id="Trazado_1441" data-name="Trazado 1441" d="M154.627,20.235c.824.655,3.377,1,5.7.765" fill="none" stroke="#fffee9" stroke-miterlimit="10" stroke-width="0.25"/>
        <path id="Trazado_1442" data-name="Trazado 1442" d="M151.887,23.44a19.638,19.638,0,0,1,6.207-3.547" fill="none" stroke="#fffee9" stroke-miterlimit="10" stroke-width="0.25"/>
        <path id="Trazado_1443" data-name="Trazado 1443" d="M156.819,24.1a16.648,16.648,0,0,1,1.8-4.137" fill="none" stroke="#fffee9" stroke-miterlimit="10" stroke-width="0.25"/>
        <path id="Trazado_1444" data-name="Trazado 1444" d="M162.435,23.978a14.1,14.1,0,0,0-3.21-4.028c.6-.06.917-.246.7-.415a27.552,27.552,0,0,1,9.066.566C170.98,21.681,168.043,23.417,162.435,23.978Z" fill="none" stroke="#fffee9" stroke-miterlimit="10" stroke-width="0.25"/>
        <path id="Trazado_1445" data-name="Trazado 1445" d="M161.4,22.35c4-.4,6.093-1.638,4.677-2.764" fill="none" stroke="#fffee9" stroke-miterlimit="10" stroke-width="0.25"/>
        <path id="Trazado_1446" data-name="Trazado 1446" d="M160.331,21c2.327-.233,3.545-.953,2.722-1.608" fill="none" stroke="#fffee9" stroke-miterlimit="10" stroke-width="0.25"/>
        <path id="Trazado_1447" data-name="Trazado 1447" d="M167.069,23.075a23.411,23.411,0,0,0-7.347-3.221" fill="none" stroke="#fffee9" stroke-miterlimit="10" stroke-width="0.25"/>
        <path id="Trazado_1448" data-name="Trazado 1448" d="M169.423,21.684a31.674,31.674,0,0,0-9.448-1.979" fill="none" stroke="#fffee9" stroke-miterlimit="10" stroke-width="0.25"/>
        <path id="Trazado_1449" data-name="Trazado 1449" d="M168.995,20.1a27.525,27.525,0,0,0-9.066-.567,2.61,2.61,0,0,0-1.474-.2,4.142,4.142,0,0,0-3.209-1.079C160.854,17.7,167.01,18.522,168.995,20.1Z" fill="none" stroke="#fffee9" stroke-miterlimit="10" stroke-width="0.25"/>
        <path id="Trazado_1450" data-name="Trazado 1450" d="M166.081,19.586c-1.415-1.126-5.8-1.715-9.8-1.314" fill="none" stroke="#fffee9" stroke-miterlimit="10" stroke-width="0.25"/>
        <path id="Trazado_1451" data-name="Trazado 1451" d="M163.053,19.392c-.824-.655-3.378-1-5.7-.765" fill="none" stroke="#fffee9" stroke-miterlimit="10" stroke-width="0.25"/>
        <path id="Trazado_1452" data-name="Trazado 1452" d="M165.794,18.8a13.094,13.094,0,0,0-6.209.6" fill="none" stroke="#fffee9" stroke-miterlimit="10" stroke-width="0.25"/>
        <path id="Trazado_1453" data-name="Trazado 1453" d="M160.862,18.136c-.568-.119-1.175.258-1.8,1.188" fill="none" stroke="#fffee9" stroke-miterlimit="10" stroke-width="0.25"/>
        <path id="Trazado_1454" data-name="Trazado 1454" d="M158.455,19.337c1.121.892-.265.307-3.208-1.079-5.609.562-8.545,2.3-6.56,3.877,8.315-1.789,12.231-2.7,9.065-2.382C157.539,19.583,157.854,19.4,158.455,19.337Z" fill="none" stroke="#fffee9" stroke-miterlimit="10" stroke-width="0.25"/>
        <path id="Trazado_1455" data-name="Trazado 1455" d="M157.958,19.434c2.566.61-.608.373-7.346-.272" fill="none" stroke="#fffee9" stroke-miterlimit="10" stroke-width="0.25"/>
        <path id="Trazado_1456" data-name="Trazado 1456" d="M157.705,19.583c3.3.176-.782.476-9.447.969" fill="none" stroke="#fffee9" stroke-miterlimit="10" stroke-width="0.25"/>
        <path id="Trazado_1457" data-name="Trazado 1457" d="M157.751,19.753c3.167-.317-.75.593-9.065,2.382,1.985,1.579,8.141,2.405,13.749,1.843-2.944-3.3-4.331-4.919-3.21-4.027A2.617,2.617,0,0,1,157.751,19.753Z" fill="none" stroke="#fffee9" stroke-miterlimit="10" stroke-width="0.25"/>
        <path id="Trazado_1458" data-name="Trazado 1458" d="M158.094,19.893c2.169-.724-.514.689-6.207,3.547" fill="none" stroke="#fffee9" stroke-miterlimit="10" stroke-width="0.25"/>
        <path id="Trazado_1459" data-name="Trazado 1459" d="M158.623,19.964c.63-.93-.149.738-1.8,4.137" fill="none" stroke="#fffee9" stroke-miterlimit="10" stroke-width="0.25"/>
        <path id="Trazado_1460" data-name="Trazado 1460" d="M159.225,19.951c-1.121-.892.266.729,3.21,4.028,5.608-.562,8.545-2.3,6.559-3.877-8.315-.124-12.232-.25-9.066-.567C160.141,19.7,159.826,19.891,159.225,19.951Z" fill="none" stroke="#fffee9" stroke-miterlimit="10" stroke-width="0.25"/>
        <path id="Trazado_1461" data-name="Trazado 1461" d="M159.722,19.854c-2.566-.61.608.662,7.347,3.221" fill="none" stroke="#fffee9" stroke-miterlimit="10" stroke-width="0.25"/>
        <path id="Trazado_1462" data-name="Trazado 1462" d="M159.975,19.7c-3.3-.176.782.56,9.448,1.979" fill="none" stroke="#fffee9" stroke-miterlimit="10" stroke-width="0.25"/>
        <path id="Trazado_1463" data-name="Trazado 1463" d="M159.929,19.535c-3.167.317.75.443,9.066.567-1.985-1.58-8.141-2.4-13.749-1.844,2.943,1.386,4.33,1.971,3.209,1.079A2.618,2.618,0,0,1,159.929,19.535Z" fill="none" stroke="#fffee9" stroke-miterlimit="10" stroke-width="0.25"/>
        <path id="Trazado_1464" data-name="Trazado 1464" d="M159.586,19.4c-2.169.724.514.346,6.209-.6" fill="none" stroke="#fffee9" stroke-miterlimit="10" stroke-width="0.25"/>
        <path id="Trazado_1465" data-name="Trazado 1465" d="M159.057,19.324c-.63.93.15.3,1.8-1.188" fill="none" stroke="#fffee9" stroke-miterlimit="10" stroke-width="0.25"/>
        <path id="Trazado_1466" data-name="Trazado 1466" d="M153.944,18.416c.438-.058,1.022-.129,1.46-.178a4.241,4.241,0,0,1,3.051,1.1c-.6.06-.916.246-.7.416a2.612,2.612,0,0,0,1.475.2c.6-.06.916-.246.7-.415a2.609,2.609,0,0,0-1.474-.2,4.241,4.241,0,0,0-3.051-1.1,34.5,34.5,0,0,1,8.323.173,12.031,12.031,0,0,1,5.268,1.691c1.985,1.579-.952,3.315-6.56,3.876s-11.763-.264-13.748-1.843C146.861,20.682,149.2,19.1,153.944,18.416Z" fill="none" stroke="#fffee9" stroke-miterlimit="10" stroke-width="0.25"/>
      </g>
    </g>
    <g id="Grupo_205" data-name="Grupo 205">
      <g id="Grupo_204" data-name="Grupo 204" clip-path="url(#clip-path-8)">
        <path id="Trazado_1468" data-name="Trazado 1468" d="M168.995,20.1a27.525,27.525,0,0,0-9.066-.567,2.61,2.61,0,0,0-1.474-.2,4.142,4.142,0,0,0-3.209-1.079C160.854,17.7,167.01,18.522,168.995,20.1Z" fill="none" stroke="#fffee9" stroke-miterlimit="10" stroke-width="0.25"/>
        <path id="Trazado_1469" data-name="Trazado 1469" d="M160.862,18.136c-.568-.119-1.175.258-1.8,1.188" fill="none" stroke="#fffee9" stroke-miterlimit="10" stroke-width="0.25"/>
        <path id="Trazado_1470" data-name="Trazado 1470" d="M163.726,18.411a34.7,34.7,0,0,0-8.322-.173c-.053,0-.106.012-.158.02A36.456,36.456,0,0,1,163.726,18.411Z" fill="none" stroke="#fffee9" stroke-miterlimit="10" stroke-width="0.25"/>
      </g>
    </g>
    <g id="Grupo_207" data-name="Grupo 207">
      <g id="Grupo_206" data-name="Grupo 206" clip-path="url(#clip-path-9)">
        <path id="Trazado_1472" data-name="Trazado 1472" d="M148.709,78.1a27.525,27.525,0,0,0,9.066.567,2.61,2.61,0,0,0,1.474.2,4.14,4.14,0,0,0,3.208,1.079C156.85,80.5,150.694,79.675,148.709,78.1Z" fill="none" stroke="#fffee9" stroke-miterlimit="10" stroke-width="0.25"/>
        <path id="Trazado_1473" data-name="Trazado 1473" d="M156.842,80.062c.568.119,1.175-.258,1.805-1.188" fill="none" stroke="#fffee9" stroke-miterlimit="10" stroke-width="0.25"/>
        <path id="Trazado_1474" data-name="Trazado 1474" d="M162.457,79.94a4.144,4.144,0,0,1-3.208-1.079c.6-.06.916-.246.7-.416a30.224,30.224,0,0,0,9.065-2.381C171,77.643,168.065,79.379,162.457,79.94Z" fill="none" stroke="#fffee9" stroke-miterlimit="10" stroke-width="0.25"/>
        <path id="Trazado_1475" data-name="Trazado 1475" d="M153.973,79.786a34.4,34.4,0,0,0,9.792-.005q-.627.09-1.307.159A36.439,36.439,0,0,1,153.973,79.786Z" fill="none" stroke="#fffee9" stroke-miterlimit="10" stroke-width="0.25"/>
      </g>
    </g>
    <g id="Grupo_209" data-name="Grupo 209">
      <g id="Grupo_208" data-name="Grupo 208" clip-path="url(#clip-path-10)">
        <path id="Trazado_1477" data-name="Trazado 1477" d="M148.709,78.1a27.525,27.525,0,0,0,9.066.567,2.61,2.61,0,0,0,1.474.2,4.14,4.14,0,0,0,3.208,1.079C156.85,80.5,150.694,79.675,148.709,78.1Z" fill="none" stroke="#fffee9" stroke-miterlimit="10" stroke-width="0.25"/>
        <path id="Trazado_1478" data-name="Trazado 1478" d="M151.623,78.612c1.415,1.126,5.8,1.715,9.8,1.314" fill="none" stroke="#fffee9" stroke-miterlimit="10" stroke-width="0.25"/>
        <path id="Trazado_1479" data-name="Trazado 1479" d="M154.65,78.806c.824.655,3.377,1,5.7.765" fill="none" stroke="#fffee9" stroke-miterlimit="10" stroke-width="0.25"/>
        <path id="Trazado_1480" data-name="Trazado 1480" d="M156.842,80.062c.568.119,1.175-.258,1.805-1.188" fill="none" stroke="#fffee9" stroke-miterlimit="10" stroke-width="0.25"/>
        <path id="Trazado_1481" data-name="Trazado 1481" d="M162.457,79.94a4.144,4.144,0,0,1-3.208-1.079c.6-.06.916-.246.7-.416a30.224,30.224,0,0,0,9.065-2.381C171,77.643,168.065,79.379,162.457,79.94Z" fill="none" stroke="#fffee9" stroke-miterlimit="10" stroke-width="0.25"/>
        <path id="Trazado_1482" data-name="Trazado 1482" d="M161.426,79.926c4-.4,6.093-1.638,4.677-2.764" fill="none" stroke="#fffee9" stroke-miterlimit="10" stroke-width="0.25"/>
        <path id="Trazado_1483" data-name="Trazado 1483" d="M160.355,79.571c2.327-.233,3.545-.953,2.722-1.608" fill="none" stroke="#fffee9" stroke-miterlimit="10" stroke-width="0.25"/>
        <path id="Trazado_1484" data-name="Trazado 1484" d="M162.3,79.96a34.626,34.626,0,0,1-8.326-.174,6.905,6.905,0,0,0,4.366-.941,3.917,3.917,0,0,0,.91.016c.049,0,.1-.01.14-.017a6.931,6.931,0,0,0,4.376.937C163.325,79.84,162.74,79.916,162.3,79.96Z" fill="none" stroke="#fffee9" stroke-miterlimit="10" stroke-width="0.25"/>
      </g>
    </g>
    <g id="Grupo_211" data-name="Grupo 211">
      <g id="Grupo_210" data-name="Grupo 210" clip-path="url(#clip-path-11)">
        <path id="Trazado_1486" data-name="Trazado 1486" d="M155.268,74.22a14.1,14.1,0,0,0,3.21,4.028c-.6.06-.917.246-.7.415a27.5,27.5,0,0,1-9.066-.567C146.723,76.517,149.66,74.781,155.268,74.22Z" fill="none" stroke="#fffee9" stroke-miterlimit="10" stroke-width="0.25"/>
        <path id="Trazado_1487" data-name="Trazado 1487" d="M156.3,75.848c-4,.4-6.093,1.638-4.677,2.764" fill="none" stroke="#fffee9" stroke-miterlimit="10" stroke-width="0.25"/>
        <path id="Trazado_1488" data-name="Trazado 1488" d="M157.372,77.2c-2.327.233-3.545.953-2.722,1.608" fill="none" stroke="#fffee9" stroke-miterlimit="10" stroke-width="0.25"/>
        <path id="Trazado_1489" data-name="Trazado 1489" d="M150.634,75.123a23.411,23.411,0,0,0,7.347,3.221" fill="none" stroke="#fffee9" stroke-miterlimit="10" stroke-width="0.25"/>
        <path id="Trazado_1490" data-name="Trazado 1490" d="M148.281,76.514a31.643,31.643,0,0,0,9.448,1.979" fill="none" stroke="#fffee9" stroke-miterlimit="10" stroke-width="0.25"/>
        <path id="Trazado_1491" data-name="Trazado 1491" d="M148.709,78.1a27.525,27.525,0,0,0,9.066.567,2.61,2.61,0,0,0,1.474.2,4.14,4.14,0,0,0,3.208,1.079C156.85,80.5,150.694,79.675,148.709,78.1Z" fill="none" stroke="#fffee9" stroke-miterlimit="10" stroke-width="0.25"/>
        <path id="Trazado_1492" data-name="Trazado 1492" d="M151.623,78.612c1.415,1.126,5.8,1.715,9.8,1.314" fill="none" stroke="#fffee9" stroke-miterlimit="10" stroke-width="0.25"/>
        <path id="Trazado_1493" data-name="Trazado 1493" d="M154.65,78.806c.824.655,3.377,1,5.7.765" fill="none" stroke="#fffee9" stroke-miterlimit="10" stroke-width="0.25"/>
        <path id="Trazado_1494" data-name="Trazado 1494" d="M151.909,79.4a13.089,13.089,0,0,0,6.208-.6" fill="none" stroke="#fffee9" stroke-miterlimit="10" stroke-width="0.25"/>
        <path id="Trazado_1495" data-name="Trazado 1495" d="M158.339,78.844a6.914,6.914,0,0,1-4.366.942,12.03,12.03,0,0,1-5.264-1.69c-1.985-1.579.951-3.315,6.559-3.876a14.1,14.1,0,0,0,3.21,4.027c-.6.06-.916.246-.7.416A1.278,1.278,0,0,0,158.339,78.844Z" fill="none" stroke="#fffee9" stroke-miterlimit="10" stroke-width="0.25"/>
      </g>
    </g>
    <g id="Grupo_213" data-name="Grupo 213">
      <g id="Grupo_212" data-name="Grupo 212" clip-path="url(#clip-path-12)">
        <path id="Trazado_1497" data-name="Trazado 1497" d="M162.457,79.94a4.144,4.144,0,0,1-3.208-1.079c.6-.06.916-.246.7-.416a30.224,30.224,0,0,0,9.065-2.381C171,77.643,168.065,79.379,162.457,79.94Z" fill="none" stroke="#fffee9" stroke-miterlimit="10" stroke-width="0.25"/>
        <path id="Trazado_1498" data-name="Trazado 1498" d="M161.426,79.926c4-.4,6.093-1.638,4.677-2.764" fill="none" stroke="#fffee9" stroke-miterlimit="10" stroke-width="0.25"/>
        <path id="Trazado_1499" data-name="Trazado 1499" d="M160.355,79.571c2.327-.233,3.545-.953,2.722-1.608" fill="none" stroke="#fffee9" stroke-miterlimit="10" stroke-width="0.25"/>
        <path id="Trazado_1500" data-name="Trazado 1500" d="M167.092,79.036a18.069,18.069,0,0,1-7.347-.272" fill="none" stroke="#fffee9" stroke-miterlimit="10" stroke-width="0.25"/>
        <path id="Trazado_1501" data-name="Trazado 1501" d="M169.445,77.645a30.136,30.136,0,0,1-9.447.969" fill="none" stroke="#fffee9" stroke-miterlimit="10" stroke-width="0.25"/>
        <path id="Trazado_1502" data-name="Trazado 1502" d="M169.017,76.063a30.217,30.217,0,0,1-9.065,2.382,2.616,2.616,0,0,0-1.474-.2,14.071,14.071,0,0,1-3.209-4.027C160.876,73.658,167.032,74.484,169.017,76.063Z" fill="none" stroke="#fffee9" stroke-miterlimit="10" stroke-width="0.25"/>
        <path id="Trazado_1503" data-name="Trazado 1503" d="M166.1,77.162c-1.415-1.126-5.8-1.715-9.8-1.314" fill="none" stroke="#fffee9" stroke-miterlimit="10" stroke-width="0.25"/>
        <path id="Trazado_1504" data-name="Trazado 1504" d="M163.076,77.963c-.824-.655-3.377-1-5.7-.765" fill="none" stroke="#fffee9" stroke-miterlimit="10" stroke-width="0.25"/>
        <path id="Trazado_1505" data-name="Trazado 1505" d="M165.816,74.758a19.619,19.619,0,0,1-6.207,3.547" fill="none" stroke="#fffee9" stroke-miterlimit="10" stroke-width="0.25"/>
        <path id="Trazado_1506" data-name="Trazado 1506" d="M160.884,74.1a16.648,16.648,0,0,1-1.8,4.137" fill="none" stroke="#fffee9" stroke-miterlimit="10" stroke-width="0.25"/>
        <path id="Trazado_1507" data-name="Trazado 1507" d="M163.764,79.781a6.934,6.934,0,0,1-4.375-.937c.509-.074.759-.243.563-.4a2.617,2.617,0,0,0-1.474-.2,14.089,14.089,0,0,1-3.21-4.027c5.608-.562,11.764.264,13.749,1.843C170.841,77.515,168.508,79.1,163.764,79.781Z" fill="none" stroke="#fffee9" stroke-miterlimit="10" stroke-width="0.25"/>
      </g>
    </g>
  </g>
</svg>
