<svg xmlns="http://www.w3.org/2000/svg" xmlns:xlink="http://www.w3.org/1999/xlink" width="492.21" height="684.745" viewBox="0 0 492.21 684.745">
  <defs>
    <clipPath id="clip-path">
      <path id="Trazado_826" data-name="Trazado 826" d="M219.639,172.794a169.932,169.932,0,0,1-30.361,2.349,171.557,171.557,0,0,1-22.71-1.718c-9.087-1.528-9.087-1.528-12.573-2.414a82.379,82.379,0,0,1-11.944-3.815c-.238-.105-.551-.389-.809-.331.025.015.058.033.082.048a63.177,63.177,0,0,1,11.1,9.022,138,138,0,0,1,10.466,11.982,135.769,135.769,0,0,1,14.787,24.855c2.371,5.233,5.034,12.429,6.883,17.867a117.819,117.819,0,0,1,3.193,11.75c1.4,6.47,2.712,15.213,3.462,21.79.488,4.268.463,10.013.661,14.3.2-4.56.193-10.661.654-15.2.576-5.667,1.68-13.192,2.8-18.777a156.478,156.478,0,0,1,9.174-29.1,204.251,204.251,0,0,1,9.678-18.6,140.936,140.936,0,0,1,8.744-12.371,99.621,99.621,0,0,1,9.905-10.72c1.755-1.639,4.232-3.673,6.124-5.146a38.021,38.021,0,0,1,3.337-2.223c-6.132,3.006-16.036,5.356-22.654,6.455" transform="translate(-141.242 -166.339)" fill="none" stroke="#fffee9" stroke-width="1"/>
    </clipPath>
    <clipPath id="clip-path-2">
      <path id="Trazado_848" data-name="Trazado 848" d="M246.11,300.9q-.023-7.812-.766-15.451c.436,4.629.536,10.817.766,15.451m-.766-15.451-.006-.047c-.019-.211-.04-.422-.062-.637.022.224.046.46.068.684m.766,15.451c.057-5.782.485-13.484,1.069-19.255A164.525,164.525,0,0,0,246.11,300.9m1.076-19.333c0,.025-.006.053-.007.078q.32-2.795.734-5.56c-.3,1.927-.557,3.806-.727,5.482m-6.528-22.1a232.5,232.5,0,0,1,4.618,25.3,162.942,162.942,0,0,0-4.816-26.131c.071.283.136.56.2.831m-.2-.831c-.489-1.989-1.159-4.241-1.866-6.394q1,3.175,1.866,6.394m56.064-69.878h0M285.732,192.6c-3.831,1.078-8.846,2.111-11.935,2.623-4.336.72-10.159,1.464-14.541,1.8-6.352.489-9.3.5-15.752.535-.269,0-6.674.022-15.555-.844-5.114-.5-6.822-.794-14.008-2.036-.384-.066-3.384-.6-8.081-1.869C161.925,139.853,86.276,106.573.439,109.713c3.338,32.536,25.907,64.541,67.924,89.83,45.616,27.454,105.746,41.94,166.76,43.318.715,1.79,1.385,3.527,1.974,5.1.483,1.291,1,2.759,1.5,4.276-.992-3.155-2.079-6.287-3.257-9.373q10.6.235,21.214-.058a163.794,163.794,0,0,0-8.638,33.277c.493-3.164,1.105-6.452,1.648-9.164,1.111-5.557,3.286-12.817,4.989-18.222.564-1.788,1.334-3.86,2.137-5.9,57.388-1.607,114.131-14.818,158.841-39.748,46.66-26.017,71.8-60.1,75.161-94.768-3.148-.1-6.271-.145-9.39-.145-81.96,0-153.536,33.179-195.569,84.457" transform="translate(-0.439 -108.141)" fill="none" stroke="#fffee9" stroke-width="1"/>
    </clipPath>
    <clipPath id="clip-path-3">
      <path id="Trazado_864" data-name="Trazado 864" d="M75.675,40.041C21.616,70.185-3.561,111.155.56,151.316c135.357-4.952,245.357,80.642,245.671,191.186C245.917,231.958,325,98.112,422.842,43.554,374.825,14.654,310.715.124,246.435.125c-61.4,0-122.956,13.26-170.759,39.916" transform="translate(-0.125 -0.125)" fill="none" stroke="#fffee9" stroke-width="1"/>
    </clipPath>
    <clipPath id="clip-path-4">
      <path id="Trazado_872" data-name="Trazado 872" d="M177.8,330.426C177.485,219.883,287,133.65,422.38,137.814c3.686-38.036-18.852-76.776-67.97-106.336C256.563,86.036,177.485,219.883,177.8,330.426" transform="translate(-177.798 -31.478)" fill="none" stroke="#fffee9" stroke-width="1"/>
    </clipPath>
    <clipPath id="clip-path-5">
      <path id="Trazado_886" data-name="Trazado 886" d="M191.544,257.3c-.256,3.849-.838,8.961-1.244,12.8a122.188,122.188,0,0,1-2.2,12.417,153.541,153.541,0,0,1-11.756,34.078c-1.413,2.9-3.378,6.739-5.078,9.481a142.825,142.825,0,0,1-9.361,13.84c-1.59,1.949-3.686,4.571-5.394,6.419-1.956,2.118-4.712,4.8-6.8,6.793-1.14,1.085-2.774,2.413-4.029,3.366a41.886,41.886,0,0,1-4.279,2.948c.81-.439,2.479-1.1,2.8-1.233,1.049-.416,2.475-.892,3.536-1.273,1.251-.447,2.961-.917,4.24-1.28,3.858-1.1,9-2.161,12.144-2.682,2.481-.413,7.64-1.269,14.547-1.8,4.712-.363,11.02-.513,15.748-.536.267,0,6.672-.021,15.552.845,5.117.5,6.823.792,14.008,2.036a107.032,107.032,0,0,1,11.052,2.705,60.246,60.246,0,0,1,7.447,2.729l-.114-.086c-31.141-18.743-50.4-57.3-50.551-111.56,0,.058-.008,6-.273,10" transform="translate(-141.403 -247.301)" fill="none" stroke="#fffee9" stroke-width="1"/>
    </clipPath>
    <clipPath id="clip-path-6">
      <path id="Trazado_902" data-name="Trazado 902" d="M296.467,358.861l.08.048c-.025-.014-.057-.033-.08-.048M242.9,279.124c-1.015,4.625-2.322,10.821-3.8,15.321-1.086,3.3-2.431,7.152-3.88,10.945-57.348,1.622-114.044,14.832-158.724,39.746C22.435,375.28-2.742,416.251,1.379,456.412c87.556-3.2,164.288-43.508,207.481-101.493,3.326-.828,6.586-1.488,9.294-1.938a169.945,169.945,0,0,1,30.361-2.349,171.758,171.758,0,0,1,22.708,1.718c9.087,1.529,9.087,1.529,12.574,2.414a82.522,82.522,0,0,1,11.941,3.815c.24.105.553.391.809.331C328.841,378.3,373.89,376.4,423.661,348.647c-50.882-30.623-119.845-45.112-187.923-43.271a172.72,172.72,0,0,0,7.625-28.533c-.151.8-.308,1.563-.465,2.28m.465-2.28c.6-3.148,1.126-6.775,1.428-9.743q-.573,4.9-1.428,9.743m2.445-23.136c-.215,3.872-.6,9.026-.967,12.885-.017.166-.033.337-.05.508q.777-6.67,1.019-13.444l0,.051m0-.051c.049-.9.069-1.939.079-2.985-.018.995-.044,1.993-.079,2.985m.079-2.985c.019-1.123.028-2.244.025-3.37-.015,1.008-.014,2.194-.025,3.37" transform="translate(-0.944 -247.301)" fill="none" stroke="#fffee9" stroke-width="1"/>
    </clipPath>
    <clipPath id="clip-path-7">
      <path id="Trazado_924" data-name="Trazado 924" d="M1.258,456.412c3.338,32.534,25.907,64.54,67.924,89.829,93.882,56.5,249.314,58.075,347.167,3.511,46.66-26.017,71.8-60.1,75.161-94.767-135.382-4.164-245.4-97.151-245.715-207.685.312,110.534-109.179,204.158-244.537,209.111" transform="translate(-1.258 -247.301)" fill="none" stroke="#fffee9" stroke-width="1"/>
    </clipPath>
    <clipPath id="clip-path-8">
      <path id="Trazado_931" data-name="Trazado 931" d="M228.35,358.861c-1.607-1.061-3.73-2.514-5.214-3.743-2.141-1.769-4.866-4.283-6.845-6.231a129.4,129.4,0,0,1-10.063-11.764c-3.63-4.669-7.567-11.547-10.531-16.665-1.6-2.763-3.34-6.66-4.658-9.567-1.97-4.348-6.841-16.954-8.488-24.869-1.122-5.384-2.72-12.558-3.391-18.015-.759-6.179-1.148-14.485-1.36-20.707.152,54.261,19.41,92.818,50.551,111.56" transform="translate(-177.799 -247.301)" fill="none" stroke="#fffee9" stroke-width="1"/>
    </clipPath>
    <clipPath id="clip-path-9">
      <path id="Trazado_939" data-name="Trazado 939" d="M423.514,454.986c3.687-38.036-18.852-76.776-67.97-106.338-49.814,27.778-94.9,29.653-127.195,10.214-1.661-1.05-3.763-2.621-5.316-3.824a41.241,41.241,0,0,1-3.326-2.867c-1.49-1.464-3.571-3.323-4.964-4.879-2.655-2.963-6.072-7.027-8.516-10.167a133.314,133.314,0,0,1-15.19-26.232,225.375,225.375,0,0,1-7.84-22.351c-1.085-3.534-1.949-8.4-2.7-12.018-.118-.567-.234-1.164-.346-1.781,16.622,98.09,119.353,176.429,243.365,180.243M180.15,274.742q-.869-5.128-1.421-10.325c.309,3.162.823,7.044,1.421,10.325m-1.421-10.325c-.021-.212-.042-.421-.06-.626-.457-4.932-.766-11.537-.87-16.49a166.285,166.285,0,0,0,.929,17.116" transform="translate(-177.799 -247.301)" fill="none" stroke="#fffee9" stroke-width="1"/>
    </clipPath>
    <clipPath id="clip-path-10">
      <path id="Trazado_944" data-name="Trazado 944" d="M415.651,205.31C317.8,259.873,162.364,258.3,68.484,201.8,22.918,174.374.226,139.051.125,103.717l1.134,400.3c.1,35.332,22.793,70.655,68.359,98.08,93.882,56.5,249.314,58.076,347.167,3.511,50.361-28.081,75.657-65.558,75.549-103.024l-1.134-400.3c.107,37.467-25.188,74.942-75.549,103.025" transform="translate(-0.125 -102.285)" fill="none" stroke="#fffee9" stroke-width="1"/>
    </clipPath>
    <clipPath id="clip-path-11">
      <path id="Trazado_948" data-name="Trazado 948" d="M75.676,40.041C25.316,68.122.02,105.6.125,143.065c.341,120.089.794,280.209,1.134,400.3-.105-37.467,25.19-74.942,75.55-103.025,97.853-54.563,253.285-52.991,347.167,3.511L422.842,43.554C374.825,14.654,310.716.124,246.435.125c-61.4,0-122.956,13.26-170.759,39.916" transform="translate(-0.125 -0.125)" fill="none" stroke="#fffee9" stroke-width="1"/>
    </clipPath>
    <clipPath id="clip-path-12">
      <path id="Trazado_951" data-name="Trazado 951" d="M306.436,431.773C352,459.2,374.694,494.52,374.794,529.854c-.341-120.089-.794-280.207-1.134-400.3-.1-35.333-22.793-70.655-68.357-98.079Z" transform="translate(-305.302 -31.478)" fill="none" stroke="#fffee9" stroke-width="1"/>
    </clipPath>
  </defs>
  <g id="_04_skills_ilustracion" data-name="04_skills_ilustracion" transform="translate(-0.125 -0.125)">
    <g id="Grupo_89" data-name="Grupo 89" transform="translate(195.594 230.357)">
      <g id="Grupo_88" data-name="Grupo 88" clip-path="url(#clip-path)">
        <path id="Trazado_808" data-name="Trazado 808" d="M75.675,28.942C169.55,85.441,245.918,220.859,246.231,331.4c-.313-110.544-79.9-155.917-177.747-101.357C-25.4,173.542-22.179,83.506,75.675,28.942Z" transform="translate(-195.594 -219.258)" fill="none" stroke="#fffee9" stroke-miterlimit="10" stroke-width="0.25"/>
        <path id="Trazado_809" data-name="Trazado 809" d="M163.7,164.284c-13.361,7.449-13.8,19.744-.982,27.458" transform="translate(-136.564 -167.13)" fill="none" stroke="#fffee9" stroke-miterlimit="10" stroke-width="0.25"/>
        <path id="Trazado_810" data-name="Trazado 810" d="M5,127.9c131.868-18.594,239.04,55.939,239.353,166.483" transform="translate(-193.717 -182.239)" fill="none" stroke="#fffee9" stroke-miterlimit="10" stroke-width="0.25"/>
        <path id="Trazado_811" data-name="Trazado 811" d="M49.475,180.551c97.847-54.56,177.434-9.186,177.747,101.357-.313-110.544,75.546-154.345,169.421-97.846C298.789,238.627,143.357,237.054,49.475,180.551Z" transform="translate(-176.587 -169.764)" fill="none" stroke="#fffee9" stroke-miterlimit="10" stroke-width="0.25"/>
        <path id="Trazado_812" data-name="Trazado 812" d="M160.127,184.108c12.818,7.715,34.042,7.93,47.4.479" transform="translate(-133.968 -159.495)" fill="none" stroke="#fffee9" stroke-miterlimit="10" stroke-width="0.25"/>
        <path id="Trazado_813" data-name="Trazado 813" d="M128.879,213.454c37.107-75.627,67.447-47.335,67.76,63.209" transform="translate(-146.004 -164.518)" fill="none" stroke="#fffee9" stroke-miterlimit="10" stroke-width="0.25"/>
        <path id="Trazado_814" data-name="Trazado 814" d="M234.586,214.562c-31.673-76.322-57.1-48.594-56.786,61.95" transform="translate(-127.163 -164.365)" fill="none" stroke="#fffee9" stroke-miterlimit="10" stroke-width="0.25"/>
        <path id="Trazado_815" data-name="Trazado 815" d="M347.219,232.582c-93.875-56.5-169.734-12.7-169.421,97.846-.313-110.544,78.767-244.39,176.613-298.95C448.293,87.981,445.074,178.018,347.219,232.582Z" transform="translate(-127.163 -218.281)" fill="none" stroke="#fffee9" stroke-miterlimit="10" stroke-width="0.25"/>
        <path id="Trazado_816" data-name="Trazado 816" d="M194.348,192.089c13.361-7.449,13.8-19.744.982-27.458" transform="translate(-120.788 -166.997)" fill="none" stroke="#fffee9" stroke-miterlimit="10" stroke-width="0.25"/>
        <path id="Trazado_817" data-name="Trazado 817" d="M413.436,131.608C282.994,110.361,177.485,182.744,177.8,293.286" transform="translate(-127.162 -181.141)" fill="none" stroke="#fffee9" stroke-miterlimit="10" stroke-width="0.25"/>
        <path id="Trazado_818" data-name="Trazado 818" d="M245.914,247.3c.313,110.534-75.545,154.334-169.421,97.835C-21.36,399.7-24.58,489.738,69.3,546.241,167.149,491.681,246.227,357.835,245.914,247.3Z" transform="translate(-195.279 -135.156)" fill="none" stroke="#fffee9" stroke-miterlimit="10" stroke-width="0.25"/>
        <path id="Trazado_819" data-name="Trazado 819" d="M244.037,247.3c.313,110.534-106.351,215.22-238.219,233.814" transform="translate(-193.401 -135.156)" fill="none" stroke="#fffee9" stroke-miterlimit="10" stroke-width="0.25"/>
        <path id="Trazado_820" data-name="Trazado 820" d="M226.907,247.3c.313,110.534-78.765,244.38-176.613,298.94,93.882,56.5,249.314,58.075,347.168,3.511C303.588,493.253,227.22,357.835,226.907,247.3Z" transform="translate(-176.271 -135.156)" fill="none" stroke="#fffee9" stroke-miterlimit="10" stroke-width="0.25"/>
        <path id="Trazado_821" data-name="Trazado 821" d="M196.324,247.3c.313,110.534-29.519,261.461-66.626,337.087" transform="translate(-145.688 -135.156)" fill="none" stroke="#fffee9" stroke-miterlimit="10" stroke-width="0.25"/>
        <path id="Trazado_822" data-name="Trazado 822" d="M177.8,247.3c.313,110.534,26.247,262.026,57.92,338.348" transform="translate(-127.162 -135.156)" fill="none" stroke="#fffee9" stroke-miterlimit="10" stroke-width="0.25"/>
        <path id="Trazado_823" data-name="Trazado 823" d="M177.8,247.3c.313,110.534,76.681,245.952,170.555,302.451,97.854-54.564,101.073-144.6,7.192-201.1C257.7,403.207,178.111,357.835,177.8,247.3Z" transform="translate(-127.162 -135.156)" fill="none" stroke="#fffee9" stroke-miterlimit="10" stroke-width="0.25"/>
        <path id="Trazado_824" data-name="Trazado 824" d="M177.8,247.3c.313,110.534,106.33,217.371,236.773,238.619" transform="translate(-127.162 -135.156)" fill="none" stroke="#fffee9" stroke-miterlimit="10" stroke-width="0.25"/>
        <path id="Trazado_825" data-name="Trazado 825" d="M141.323,166.914c-.024-.015-.057-.035-.08-.048.255-.058.568.226.809.331a82.366,82.366,0,0,0,11.941,3.815c3.488.886,3.488.886,12.574,2.416a171.827,171.827,0,0,0,22.71,1.716,169.935,169.935,0,0,0,30.361-2.349c6.617-1.1,16.521-3.449,22.654-6.456a38.435,38.435,0,0,0-3.335,2.223c-1.894,1.475-4.372,3.509-6.125,5.146a99.741,99.741,0,0,0-9.905,10.72,140.884,140.884,0,0,0-8.745,12.372,204.263,204.263,0,0,0-9.678,18.6,156.584,156.584,0,0,0-9.174,29.1c-1.118,5.585-2.222,13.11-2.8,18.777-.461,4.541-.458,10.642-.655,15.2-.2-4.291-.17-10.037-.658-14.306-.751-6.575-2.065-15.32-3.463-21.789a117.73,117.73,0,0,0-3.193-11.75c-1.851-5.438-4.511-12.635-6.883-17.867a135.814,135.814,0,0,0-14.787-24.855,137.756,137.756,0,0,0-10.466-11.982A63.1,63.1,0,0,0,141.323,166.914Z" transform="translate(-141.242 -166.339)" fill="none" stroke="#fffee9" stroke-miterlimit="10" stroke-width="0.25"/>
      </g>
    </g>
    <g id="Grupo_91" data-name="Grupo 91" transform="translate(0.56 149.744)">
      <g id="Grupo_90" data-name="Grupo 90" clip-path="url(#clip-path-2)">
        <path id="Trazado_827" data-name="Trazado 827" d="M75.675,28.942C169.55,85.441,245.918,220.859,246.231,331.4c-.313-110.544-79.9-155.917-177.747-101.357C-25.4,173.542-22.179,83.506,75.675,28.942Z" transform="translate(-0.56 -138.645)" fill="none" stroke="#fffee9" stroke-miterlimit="10" stroke-width="0.25"/>
        <path id="Trazado_828" data-name="Trazado 828" d="M127.066,85.947C78.6,112.973,77,157.568,123.5,185.553" transform="translate(33.92 -116.689)" fill="none" stroke="#fffee9" stroke-miterlimit="10" stroke-width="0.25"/>
        <path id="Trazado_829" data-name="Trazado 829" d="M163.7,164.284c-13.361,7.449-13.8,19.744-.982,27.458" transform="translate(58.47 -86.517)" fill="none" stroke="#fffee9" stroke-miterlimit="10" stroke-width="0.25"/>
        <path id="Trazado_830" data-name="Trazado 830" d="M5,127.9c131.868-18.594,239.04,55.939,239.353,166.483" transform="translate(1.317 -101.625)" fill="none" stroke="#fffee9" stroke-miterlimit="10" stroke-width="0.25"/>
        <path id="Trazado_831" data-name="Trazado 831" d="M49.475,180.551c97.847-54.56,177.434-9.186,177.747,101.357-.313-110.544,75.546-154.345,169.421-97.846C298.789,238.627,143.357,237.054,49.475,180.551Z" transform="translate(18.447 -89.15)" fill="none" stroke="#fffee9" stroke-miterlimit="10" stroke-width="0.25"/>
        <path id="Trazado_832" data-name="Trazado 832" d="M114.089,157.858c46.5,27.986,123.485,28.764,171.952,1.74" transform="translate(43.334 -88.992)" fill="none" stroke="#fffee9" stroke-miterlimit="10" stroke-width="0.25"/>
        <path id="Trazado_833" data-name="Trazado 833" d="M160.127,184.108c12.818,7.715,34.042,7.93,47.4.479" transform="translate(61.066 -78.882)" fill="none" stroke="#fffee9" stroke-miterlimit="10" stroke-width="0.25"/>
        <path id="Trazado_834" data-name="Trazado 834" d="M128.879,213.454c37.107-75.627,67.447-47.335,67.76,63.209" transform="translate(49.03 -83.904)" fill="none" stroke="#fffee9" stroke-miterlimit="10" stroke-width="0.25"/>
        <path id="Trazado_835" data-name="Trazado 835" d="M234.586,214.562c-31.673-76.322-57.1-48.594-56.786,61.95" transform="translate(67.871 -83.752)" fill="none" stroke="#fffee9" stroke-miterlimit="10" stroke-width="0.25"/>
        <path id="Trazado_836" data-name="Trazado 836" d="M347.219,232.582c-93.875-56.5-169.734-12.7-169.421,97.846-.313-110.544,78.767-244.39,176.613-298.95C448.293,87.981,445.074,178.018,347.219,232.582Z" transform="translate(67.871 -137.668)" fill="none" stroke="#fffee9" stroke-miterlimit="10" stroke-width="0.25"/>
        <path id="Trazado_837" data-name="Trazado 837" d="M238.228,186.809c48.467-27.026,50.062-71.621,3.563-99.607" transform="translate(91.147 -116.205)" fill="none" stroke="#fffee9" stroke-miterlimit="10" stroke-width="0.25"/>
        <path id="Trazado_838" data-name="Trazado 838" d="M194.348,192.089c13.361-7.449,13.8-19.744.982-27.458" transform="translate(74.246 -86.384)" fill="none" stroke="#fffee9" stroke-miterlimit="10" stroke-width="0.25"/>
        <path id="Trazado_839" data-name="Trazado 839" d="M413.436,131.608C282.994,110.361,177.485,182.744,177.8,293.286" transform="translate(67.872 -100.528)" fill="none" stroke="#fffee9" stroke-miterlimit="10" stroke-width="0.25"/>
        <path id="Trazado_840" data-name="Trazado 840" d="M245.914,247.3c.313,110.534-75.545,154.334-169.421,97.835C-21.36,399.7-24.58,489.738,69.3,546.241,167.149,491.681,246.227,357.835,245.914,247.3Z" transform="translate(-0.245 -54.543)" fill="none" stroke="#fffee9" stroke-miterlimit="10" stroke-width="0.25"/>
        <path id="Trazado_841" data-name="Trazado 841" d="M244.037,247.3c.313,110.534-106.351,215.22-238.219,233.814" transform="translate(1.633 -54.543)" fill="none" stroke="#fffee9" stroke-miterlimit="10" stroke-width="0.25"/>
        <path id="Trazado_842" data-name="Trazado 842" d="M226.907,247.3c.313,110.534-78.765,244.38-176.613,298.94,93.882,56.5,249.314,58.075,347.168,3.511C303.588,493.253,227.22,357.835,226.907,247.3Z" transform="translate(18.763 -54.543)" fill="none" stroke="#fffee9" stroke-miterlimit="10" stroke-width="0.25"/>
        <path id="Trazado_843" data-name="Trazado 843" d="M196.324,247.3c.313,110.534-29.519,261.461-66.626,337.087" transform="translate(49.346 -54.543)" fill="none" stroke="#fffee9" stroke-miterlimit="10" stroke-width="0.25"/>
        <path id="Trazado_844" data-name="Trazado 844" d="M177.8,247.3c.313,110.534,26.247,262.026,57.92,338.348" transform="translate(67.872 -54.543)" fill="none" stroke="#fffee9" stroke-miterlimit="10" stroke-width="0.25"/>
        <path id="Trazado_845" data-name="Trazado 845" d="M177.8,247.3c.313,110.534,76.681,245.952,170.555,302.451,97.854-54.564,101.073-144.6,7.192-201.1C257.7,403.207,178.111,357.835,177.8,247.3Z" transform="translate(67.872 -54.543)" fill="none" stroke="#fffee9" stroke-miterlimit="10" stroke-width="0.25"/>
        <path id="Trazado_846" data-name="Trazado 846" d="M177.8,247.3c.313,110.534,106.33,217.371,236.773,238.619" transform="translate(67.872 -54.543)" fill="none" stroke="#fffee9" stroke-miterlimit="10" stroke-width="0.25"/>
        <path id="Trazado_847" data-name="Trazado 847" d="M246.109,300.9c-.231-4.65-.33-10.864-.77-15.5-.749-7.872-2.919-18.23-4.68-25.937a100.43,100.43,0,0,0-3.561-11.5c-1.838-4.909-4.457-11.405-6.773-16.108-1.4-2.848-3.362-6.609-5.029-9.31a130.07,130.07,0,0,0-8.668-12.868,142.651,142.651,0,0,0-9.966-11.326c-2.04-1.968-4.9-4.452-7.1-6.239a46.479,46.479,0,0,0-4.006-2.783c-.036-.024-.079-.06-.112-.086a60.185,60.185,0,0,0,7.445,2.729,107.13,107.13,0,0,0,11.052,2.705c7.186,1.244,8.894,1.539,14.009,2.038,8.88.864,15.285.845,15.554.844,6.455-.032,9.4-.046,15.753-.536,4.383-.338,10.206-1.08,14.541-1.8,3.144-.522,8.286-1.585,12.144-2.682,1.279-.364,2.989-.834,4.241-1.281,1.061-.38,2.486-.857,3.535-1.272.327-.13,2-.8,2.806-1.234-1.291.809-2.988,1.934-4.19,2.87-1.64,1.277-3.754,3.078-5.271,4.5A102.142,102.142,0,0,0,277,207.042a166.042,166.042,0,0,0-10.206,14.85,145.98,145.98,0,0,0-8.057,15.922c-1.36,3.222-3.132,7.546-4.183,10.882-1.705,5.406-3.878,12.665-4.991,18.223-.873,4.365-1.924,10.217-2.374,14.645-.587,5.78-1.021,13.525-1.078,19.334-.313-110.544,109.2-196.777,244.582-192.613-3.359,34.666-28.5,68.749-75.161,94.767-97.854,54.564-253.287,52.992-347.168-3.511C26.344,174.254,3.777,142.249.439,109.713,135.795,104.761,245.8,190.355,246.109,300.9Z" transform="translate(-0.439 -108.141)" fill="none" stroke="#fffee9" stroke-miterlimit="10" stroke-width="0.25"/>
      </g>
    </g>
    <g id="Grupo_93" data-name="Grupo 93" transform="translate(0.125 0.125)">
      <g id="Grupo_92" data-name="Grupo 92" clip-path="url(#clip-path-3)">
        <path id="Trazado_849" data-name="Trazado 849" d="M401.835,43.552C303.988,98.112,224.909,231.958,225.223,342.5,224.909,231.958,148.542,96.54,54.667,40.041,152.521-14.523,307.954-12.951,401.835,43.552Z" transform="translate(20.882 -0.125)" fill="none" stroke="#fffee9" stroke-miterlimit="10" stroke-width="0.25"/>
        <path id="Trazado_850" data-name="Trazado 850" d="M288.613,93.184c-46.5-27.986-123.485-28.764-171.952-1.74" transform="translate(44.759 27.433)" fill="none" stroke="#fffee9" stroke-miterlimit="10" stroke-width="0.25"/>
        <path id="Trazado_851" data-name="Trazado 851" d="M208.237,166.28c-12.818-7.715-34.042-7.93-47.4-.479" transform="translate(61.774 61.586)" fill="none" stroke="#fffee9" stroke-miterlimit="10" stroke-width="0.25"/>
        <path id="Trazado_852" data-name="Trazado 852" d="M244.426,3.937c-37.107,75.627-66.939,226.555-66.626,337.1" transform="translate(68.306 1.343)" fill="none" stroke="#fffee9" stroke-miterlimit="10" stroke-width="0.25"/>
        <path id="Trazado_853" data-name="Trazado 853" d="M135.983,3.027c31.673,76.322,57.607,227.814,57.92,338.357" transform="translate(52.201 0.993)" fill="none" stroke="#fffee9" stroke-miterlimit="10" stroke-width="0.25"/>
        <path id="Trazado_854" data-name="Trazado 854" d="M75.675,28.942C169.55,85.441,245.918,220.859,246.231,331.4c-.313-110.544-79.9-155.917-177.747-101.357C-25.4,173.542-22.179,83.506,75.675,28.942Z" transform="translate(-0.125 10.974)" fill="none" stroke="#fffee9" stroke-miterlimit="10" stroke-width="0.25"/>
        <path id="Trazado_855" data-name="Trazado 855" d="M127.066,85.947C78.6,112.973,77,157.568,123.5,185.553" transform="translate(34.354 32.93)" fill="none" stroke="#fffee9" stroke-miterlimit="10" stroke-width="0.25"/>
        <path id="Trazado_856" data-name="Trazado 856" d="M163.7,164.284c-13.361,7.449-13.8,19.744-.982,27.458" transform="translate(58.905 63.102)" fill="none" stroke="#fffee9" stroke-miterlimit="10" stroke-width="0.25"/>
        <path id="Trazado_857" data-name="Trazado 857" d="M6.862,75.025C137.3,96.273,243.322,203.11,243.635,313.654" transform="translate(2.47 28.723)" fill="none" stroke="#fffee9" stroke-miterlimit="10" stroke-width="0.25"/>
        <path id="Trazado_858" data-name="Trazado 858" d="M224.907,247.3c.313,110.534,79.9,155.906,177.747,101.348-93.882-56.5-249.314-58.075-347.168-3.513C149.362,401.635,225.22,357.835,224.907,247.3Z" transform="translate(21.198 95.076)" fill="none" stroke="#fffee9" stroke-miterlimit="10" stroke-width="0.25"/>
        <path id="Trazado_859" data-name="Trazado 859" d="M177.8,247.3c.313,110.534,30.653,138.826,67.76,63.2" transform="translate(68.307 95.076)" fill="none" stroke="#fffee9" stroke-miterlimit="10" stroke-width="0.25"/>
        <path id="Trazado_860" data-name="Trazado 860" d="M193.588,247.3c.313,110.534-25.113,138.262-56.786,61.939" transform="translate(52.517 95.076)" fill="none" stroke="#fffee9" stroke-miterlimit="10" stroke-width="0.25"/>
        <path id="Trazado_861" data-name="Trazado 861" d="M245.914,247.3c.313,110.534-75.545,154.334-169.421,97.835C-21.36,399.7-24.58,489.738,69.3,546.241,167.149,491.681,246.227,357.835,245.914,247.3Z" transform="translate(0.19 95.076)" fill="none" stroke="#fffee9" stroke-miterlimit="10" stroke-width="0.25"/>
        <path id="Trazado_862" data-name="Trazado 862" d="M243.319,247.3c.313,110.534-105.2,182.915-235.638,161.667" transform="translate(2.785 95.076)" fill="none" stroke="#fffee9" stroke-miterlimit="10" stroke-width="0.25"/>
        <path id="Trazado_863" data-name="Trazado 863" d="M246.23,342.5C245.917,231.958,135.916,146.364.56,151.316-3.562,111.155,21.614,70.185,75.674,40.041c97.854-54.564,253.287-52.992,347.168,3.511C325,98.112,245.917,231.958,246.23,342.5Z" transform="translate(-0.125 -0.125)" fill="none" stroke="#fffee9" stroke-miterlimit="10" stroke-width="0.25"/>
      </g>
    </g>
    <g id="Grupo_95" data-name="Grupo 95" transform="translate(246.23 43.554)">
      <g id="Grupo_94" data-name="Grupo 94" clip-path="url(#clip-path-4)">
        <path id="Trazado_865" data-name="Trazado 865" d="M347.219,232.582c-93.875-56.5-169.734-12.7-169.421,97.846-.313-110.544,78.767-244.39,176.613-298.95C448.293,87.981,445.074,178.018,347.219,232.582Z" transform="translate(-177.799 -31.478)" fill="none" stroke="#fffee9" stroke-miterlimit="10" stroke-width="0.25"/>
        <path id="Trazado_866" data-name="Trazado 866" d="M238.228,186.809c48.467-27.026,50.062-71.621,3.563-99.607" transform="translate(-154.523 -10.015)" fill="none" stroke="#fffee9" stroke-miterlimit="10" stroke-width="0.25"/>
        <path id="Trazado_867" data-name="Trazado 867" d="M194.348,192.089c13.361-7.449,13.8-19.744.982-27.458" transform="translate(-171.424 19.807)" fill="none" stroke="#fffee9" stroke-miterlimit="10" stroke-width="0.25"/>
        <path id="Trazado_868" data-name="Trazado 868" d="M416.017,78.494C284.149,97.088,177.485,201.774,177.8,312.318" transform="translate(-177.798 -13.37)" fill="none" stroke="#fffee9" stroke-miterlimit="10" stroke-width="0.25"/>
        <path id="Trazado_869" data-name="Trazado 869" d="M177.8,247.3c.313,110.534,76.681,245.952,170.555,302.451,97.854-54.564,101.073-144.6,7.192-201.1C257.7,403.207,178.111,357.835,177.8,247.3Z" transform="translate(-177.798 51.647)" fill="none" stroke="#fffee9" stroke-miterlimit="10" stroke-width="0.25"/>
        <path id="Trazado_870" data-name="Trazado 870" d="M177.8,247.3c.313,110.534,107.485,185.066,239.353,166.472" transform="translate(-177.798 51.647)" fill="none" stroke="#fffee9" stroke-miterlimit="10" stroke-width="0.25"/>
        <path id="Trazado_871" data-name="Trazado 871" d="M422.381,137.814C287,133.65,177.485,219.883,177.8,330.427c-.313-110.544,78.767-244.39,176.613-298.95C403.527,61.038,426.066,99.778,422.381,137.814Z" transform="translate(-177.799 -31.478)" fill="none" stroke="#fffee9" stroke-miterlimit="10" stroke-width="0.25"/>
      </g>
    </g>
    <g id="Grupo_97" data-name="Grupo 97" transform="translate(195.817 342.502)">
      <g id="Grupo_96" data-name="Grupo 96" clip-path="url(#clip-path-5)">
        <path id="Trazado_873" data-name="Trazado 873" d="M401.835,43.552C303.988,98.112,224.909,231.958,225.223,342.5,224.909,231.958,148.542,96.54,54.667,40.041,152.521-14.523,307.954-12.951,401.835,43.552Z" transform="translate(-174.81 -342.502)" fill="none" stroke="#fffee9" stroke-miterlimit="10" stroke-width="0.25"/>
        <path id="Trazado_874" data-name="Trazado 874" d="M244.426,3.937c-37.107,75.627-66.939,226.555-66.626,337.1" transform="translate(-127.386 -341.034)" fill="none" stroke="#fffee9" stroke-miterlimit="10" stroke-width="0.25"/>
        <path id="Trazado_875" data-name="Trazado 875" d="M135.983,3.027c31.673,76.322,57.607,227.814,57.92,338.357" transform="translate(-143.49 -341.384)" fill="none" stroke="#fffee9" stroke-miterlimit="10" stroke-width="0.25"/>
        <path id="Trazado_876" data-name="Trazado 876" d="M75.675,28.942C169.55,85.441,245.918,220.859,246.231,331.4c-.313-110.544-79.9-155.917-177.747-101.357C-25.4,173.542-22.179,83.506,75.675,28.942Z" transform="translate(-195.817 -331.403)" fill="none" stroke="#fffee9" stroke-miterlimit="10" stroke-width="0.25"/>
        <path id="Trazado_877" data-name="Trazado 877" d="M6.862,75.025C137.3,96.273,243.322,203.11,243.635,313.654" transform="translate(-193.222 -313.654)" fill="none" stroke="#fffee9" stroke-miterlimit="10" stroke-width="0.25"/>
        <path id="Trazado_878" data-name="Trazado 878" d="M224.907,247.3c.313,110.534,79.9,155.906,177.747,101.348-93.882-56.5-249.314-58.075-347.168-3.513C149.362,401.635,225.22,357.835,224.907,247.3Z" transform="translate(-174.494 -247.301)" fill="none" stroke="#fffee9" stroke-miterlimit="10" stroke-width="0.25"/>
        <path id="Trazado_879" data-name="Trazado 879" d="M208.65,312.139c-12.818-7.715-34.042-7.93-47.4-.479" transform="translate(-133.759 -224.612)" fill="none" stroke="#fffee9" stroke-miterlimit="10" stroke-width="0.25"/>
        <path id="Trazado_880" data-name="Trazado 880" d="M177.8,247.3c.313,110.534,30.653,138.826,67.76,63.2" transform="translate(-127.385 -247.301)" fill="none" stroke="#fffee9" stroke-miterlimit="10" stroke-width="0.25"/>
        <path id="Trazado_881" data-name="Trazado 881" d="M193.588,247.3c.313,110.534-25.113,138.262-56.786,61.939" transform="translate(-143.175 -247.301)" fill="none" stroke="#fffee9" stroke-miterlimit="10" stroke-width="0.25"/>
        <path id="Trazado_882" data-name="Trazado 882" d="M245.914,247.3c.313,110.534-75.545,154.334-169.421,97.835C-21.36,399.7-24.58,489.738,69.3,546.241,167.149,491.681,246.227,357.835,245.914,247.3Z" transform="translate(-195.502 -247.301)" fill="none" stroke="#fffee9" stroke-miterlimit="10" stroke-width="0.25"/>
        <path id="Trazado_883" data-name="Trazado 883" d="M164.117,310.143c-13.361,7.449-13.8,19.744-.982,27.458" transform="translate(-136.628 -223.097)" fill="none" stroke="#fffee9" stroke-miterlimit="10" stroke-width="0.25"/>
        <path id="Trazado_884" data-name="Trazado 884" d="M243.319,247.3c.313,110.534-105.2,182.915-235.638,161.667" transform="translate(-192.907 -247.301)" fill="none" stroke="#fffee9" stroke-miterlimit="10" stroke-width="0.25"/>
        <path id="Trazado_885" data-name="Trazado 885" d="M242.368,358.861l.112.086a60.194,60.194,0,0,0-7.445-2.729,106.939,106.939,0,0,0-11.052-2.705c-7.185-1.244-8.893-1.539-14.008-2.038-8.88-.864-15.285-.845-15.554-.844-4.726.024-11.034.172-15.748.536-6.905.532-12.066,1.389-14.546,1.8-3.146.522-8.286,1.585-12.144,2.683-1.279.363-2.989.833-4.24,1.28-1.062.38-2.488.859-3.536,1.272-.326.13-1.995.8-2.8,1.234a42.117,42.117,0,0,0,4.279-2.948c1.254-.953,2.888-2.281,4.029-3.367,2.087-1.989,4.845-4.672,6.8-6.791,1.706-1.848,3.8-4.47,5.394-6.419a143.24,143.24,0,0,0,9.361-13.84c1.7-2.743,3.664-6.581,5.078-9.481A153.514,153.514,0,0,0,188.1,282.512a122.277,122.277,0,0,0,2.2-12.414c.406-3.837.988-8.948,1.242-12.8.266-4,.273-9.941.273-10C191.969,301.56,211.226,340.119,242.368,358.861Z" transform="translate(-141.403 -247.301)" fill="none" stroke="#fffee9" stroke-miterlimit="10" stroke-width="0.25"/>
      </g>
    </g>
    <g id="Grupo_99" data-name="Grupo 99" transform="translate(1.26 342.502)">
      <g id="Grupo_98" data-name="Grupo 98" transform="translate(0)" clip-path="url(#clip-path-6)">
        <path id="Trazado_887" data-name="Trazado 887" d="M401.835,43.552C303.988,98.112,224.909,231.958,225.223,342.5,224.909,231.958,148.542,96.54,54.667,40.041,152.521-14.523,307.954-12.951,401.835,43.552Z" transform="translate(19.748 -342.502)" fill="none" stroke="#fffee9" stroke-miterlimit="10" stroke-width="0.25"/>
        <path id="Trazado_888" data-name="Trazado 888" d="M244.426,3.937c-37.107,75.627-66.939,226.555-66.626,337.1" transform="translate(67.172 -341.034)" fill="none" stroke="#fffee9" stroke-miterlimit="10" stroke-width="0.25"/>
        <path id="Trazado_889" data-name="Trazado 889" d="M135.983,3.027c31.673,76.322,57.607,227.814,57.92,338.357" transform="translate(51.067 -341.384)" fill="none" stroke="#fffee9" stroke-miterlimit="10" stroke-width="0.25"/>
        <path id="Trazado_890" data-name="Trazado 890" d="M75.675,28.942C169.55,85.441,245.918,220.859,246.231,331.4c-.313-110.544-79.9-155.917-177.747-101.357C-25.4,173.542-22.179,83.506,75.675,28.942Z" transform="translate(-1.259 -331.403)" fill="none" stroke="#fffee9" stroke-miterlimit="10" stroke-width="0.25"/>
        <path id="Trazado_891" data-name="Trazado 891" d="M6.862,75.025C137.3,96.273,243.322,203.11,243.635,313.654" transform="translate(1.335 -313.654)" fill="none" stroke="#fffee9" stroke-miterlimit="10" stroke-width="0.25"/>
        <path id="Trazado_892" data-name="Trazado 892" d="M224.907,247.3c.313,110.534,79.9,155.906,177.747,101.348-93.882-56.5-249.314-58.075-347.168-3.513C149.362,401.635,225.22,357.835,224.907,247.3Z" transform="translate(20.063 -247.301)" fill="none" stroke="#fffee9" stroke-miterlimit="10" stroke-width="0.25"/>
        <path id="Trazado_893" data-name="Trazado 893" d="M208.65,312.139c-12.818-7.715-34.042-7.93-47.4-.479" transform="translate(60.798 -224.612)" fill="none" stroke="#fffee9" stroke-miterlimit="10" stroke-width="0.25"/>
        <path id="Trazado_894" data-name="Trazado 894" d="M289.321,342.719c-46.5-27.986-123.485-28.764-171.952-1.74" transform="translate(43.898 -218.835)" fill="none" stroke="#fffee9" stroke-miterlimit="10" stroke-width="0.25"/>
        <path id="Trazado_895" data-name="Trazado 895" d="M177.8,247.3c.313,110.534,30.653,138.826,67.76,63.2" transform="translate(67.172 -247.301)" fill="none" stroke="#fffee9" stroke-miterlimit="10" stroke-width="0.25"/>
        <path id="Trazado_896" data-name="Trazado 896" d="M193.588,247.3c.313,110.534-25.113,138.262-56.786,61.939" transform="translate(51.382 -247.301)" fill="none" stroke="#fffee9" stroke-miterlimit="10" stroke-width="0.25"/>
        <path id="Trazado_897" data-name="Trazado 897" d="M245.914,247.3c.313,110.534-75.545,154.334-169.421,97.835C-21.36,399.7-24.58,489.738,69.3,546.241,167.149,491.681,246.227,357.835,245.914,247.3Z" transform="translate(-0.944 -247.301)" fill="none" stroke="#fffee9" stroke-miterlimit="10" stroke-width="0.25"/>
        <path id="Trazado_898" data-name="Trazado 898" d="M164.117,310.143c-13.361,7.449-13.8,19.744-.982,27.458" transform="translate(57.93 -223.097)" fill="none" stroke="#fffee9" stroke-miterlimit="10" stroke-width="0.25"/>
        <path id="Trazado_899" data-name="Trazado 899" d="M127.773,335.482c-48.467,27.026-50.061,71.621-3.563,99.607" transform="translate(33.492 -213.338)" fill="none" stroke="#fffee9" stroke-miterlimit="10" stroke-width="0.25"/>
        <path id="Trazado_900" data-name="Trazado 900" d="M243.319,247.3c.313,110.534-105.2,182.915-235.638,161.667" transform="translate(1.651 -247.301)" fill="none" stroke="#fffee9" stroke-miterlimit="10" stroke-width="0.25"/>
        <path id="Trazado_901" data-name="Trazado 901" d="M195.5,359.437c4.15-2.406,8.384-6.373,10.659-8.5a106.777,106.777,0,0,0,8.9-9.821A131.587,131.587,0,0,0,230.9,315.647a197.146,197.146,0,0,0,8.2-21.2c1.479-4.5,2.786-10.7,3.8-15.321a115.979,115.979,0,0,0,1.942-12.532c.366-3.859.752-9.013.968-12.883.107-1.92.078-4.485.105-6.406.313,110.533-109.179,204.158-244.537,209.11-4.121-40.161,21.056-81.131,75.116-111.275,97.854-54.564,253.287-52.992,347.168,3.511-49.816,27.776-94.9,29.652-127.2,10.213l.082.05c-.256.058-.569-.226-.809-.332a82.692,82.692,0,0,0-11.941-3.815c-3.488-.885-3.488-.885-12.573-2.414a171.6,171.6,0,0,0-22.71-1.716,169.683,169.683,0,0,0-30.361,2.349C211.537,354.081,201.635,356.43,195.5,359.437Z" transform="translate(-0.944 -247.301)" fill="none" stroke="#fffee9" stroke-miterlimit="10" stroke-width="0.25"/>
      </g>
    </g>
    <g id="Grupo_101" data-name="Grupo 101" transform="translate(1.694 342.502)">
      <g id="Grupo_100" data-name="Grupo 100" clip-path="url(#clip-path-7)">
        <path id="Trazado_903" data-name="Trazado 903" d="M75.675,28.942C169.55,85.441,245.918,220.859,246.231,331.4c-.313-110.544-79.9-155.917-177.747-101.357C-25.4,173.542-22.179,83.506,75.675,28.942Z" transform="translate(-1.694 -331.403)" fill="none" stroke="#fffee9" stroke-miterlimit="10" stroke-width="0.25"/>
        <path id="Trazado_904" data-name="Trazado 904" d="M5,127.9c131.868-18.594,239.04,55.939,239.353,166.483" transform="translate(0.183 -294.384)" fill="none" stroke="#fffee9" stroke-miterlimit="10" stroke-width="0.25"/>
        <path id="Trazado_905" data-name="Trazado 905" d="M49.475,180.551c97.847-54.56,177.434-9.186,177.747,101.357-.313-110.544,75.546-154.345,169.421-97.846C298.789,238.627,143.357,237.054,49.475,180.551Z" transform="translate(17.313 -281.908)" fill="none" stroke="#fffee9" stroke-miterlimit="10" stroke-width="0.25"/>
        <path id="Trazado_906" data-name="Trazado 906" d="M128.879,213.454c37.107-75.627,67.447-47.335,67.76,63.209" transform="translate(47.896 -276.663)" fill="none" stroke="#fffee9" stroke-miterlimit="10" stroke-width="0.25"/>
        <path id="Trazado_907" data-name="Trazado 907" d="M234.586,214.562c-31.673-76.322-57.1-48.594-56.786,61.95" transform="translate(66.737 -276.51)" fill="none" stroke="#fffee9" stroke-miterlimit="10" stroke-width="0.25"/>
        <path id="Trazado_908" data-name="Trazado 908" d="M347.219,232.582c-93.875-56.5-169.734-12.7-169.421,97.846-.313-110.544,78.767-244.39,176.613-298.95C448.293,87.981,445.074,178.018,347.219,232.582Z" transform="translate(66.737 -330.426)" fill="none" stroke="#fffee9" stroke-miterlimit="10" stroke-width="0.25"/>
        <path id="Trazado_909" data-name="Trazado 909" d="M413.436,131.608C282.994,110.361,177.485,182.744,177.8,293.286" transform="translate(66.737 -293.286)" fill="none" stroke="#fffee9" stroke-miterlimit="10" stroke-width="0.25"/>
        <path id="Trazado_910" data-name="Trazado 910" d="M245.914,247.3c.313,110.534-75.545,154.334-169.421,97.835C-21.36,399.7-24.58,489.738,69.3,546.241,167.149,491.681,246.227,357.835,245.914,247.3Z" transform="translate(-1.379 -247.301)" fill="none" stroke="#fffee9" stroke-miterlimit="10" stroke-width="0.25"/>
        <path id="Trazado_911" data-name="Trazado 911" d="M164.117,310.143c-13.361,7.449-13.8,19.744-.982,27.458" transform="translate(57.495 -223.097)" fill="none" stroke="#fffee9" stroke-miterlimit="10" stroke-width="0.25"/>
        <path id="Trazado_912" data-name="Trazado 912" d="M127.773,335.482c-48.467,27.026-50.061,71.621-3.563,99.607" transform="translate(33.058 -213.338)" fill="none" stroke="#fffee9" stroke-miterlimit="10" stroke-width="0.25"/>
        <path id="Trazado_913" data-name="Trazado 913" d="M244.037,247.3c.313,110.534-106.351,215.22-238.219,233.814" transform="translate(0.498 -247.301)" fill="none" stroke="#fffee9" stroke-miterlimit="10" stroke-width="0.25"/>
        <path id="Trazado_914" data-name="Trazado 914" d="M226.907,247.3c.313,110.534-78.765,244.38-176.613,298.94,93.882,56.5,249.314,58.075,347.168,3.511C303.588,493.253,227.22,357.835,226.907,247.3Z" transform="translate(17.628 -247.301)" fill="none" stroke="#fffee9" stroke-miterlimit="10" stroke-width="0.25"/>
        <path id="Trazado_915" data-name="Trazado 915" d="M160.54,329.967c12.818,7.715,34.042,7.93,47.4.479" transform="translate(60.09 -215.462)" fill="none" stroke="#fffee9" stroke-miterlimit="10" stroke-width="0.25"/>
        <path id="Trazado_916" data-name="Trazado 916" d="M114.8,407.392c46.5,27.986,123.485,28.764,171.952,1.74" transform="translate(42.472 -185.641)" fill="none" stroke="#fffee9" stroke-miterlimit="10" stroke-width="0.25"/>
        <path id="Trazado_917" data-name="Trazado 917" d="M196.324,247.3c.313,110.534-29.519,261.461-66.626,337.087" transform="translate(48.211 -247.301)" fill="none" stroke="#fffee9" stroke-miterlimit="10" stroke-width="0.25"/>
        <path id="Trazado_918" data-name="Trazado 918" d="M177.8,247.3c.313,110.534,26.247,262.026,57.92,338.348" transform="translate(66.737 -247.301)" fill="none" stroke="#fffee9" stroke-miterlimit="10" stroke-width="0.25"/>
        <path id="Trazado_919" data-name="Trazado 919" d="M177.8,247.3c.313,110.534,76.681,245.952,170.555,302.451,97.854-54.564,101.073-144.6,7.192-201.1C257.7,403.207,178.111,357.835,177.8,247.3Z" transform="translate(66.737 -247.301)" fill="none" stroke="#fffee9" stroke-miterlimit="10" stroke-width="0.25"/>
        <path id="Trazado_920" data-name="Trazado 920" d="M194.761,337.948c13.361-7.449,13.8-19.744.982-27.458" transform="translate(73.271 -222.963)" fill="none" stroke="#fffee9" stroke-miterlimit="10" stroke-width="0.25"/>
        <path id="Trazado_921" data-name="Trazado 921" d="M238.936,436.344C287.4,409.319,289,364.724,242.5,336.738" transform="translate(90.285 -212.854)" fill="none" stroke="#fffee9" stroke-miterlimit="10" stroke-width="0.25"/>
        <path id="Trazado_922" data-name="Trazado 922" d="M177.8,247.3c.313,110.534,106.33,217.371,236.773,238.619" transform="translate(66.737 -247.301)" fill="none" stroke="#fffee9" stroke-miterlimit="10" stroke-width="0.25"/>
        <path id="Trazado_923" data-name="Trazado 923" d="M245.793,247.3c.313,110.534,110.334,203.519,245.717,207.683-3.359,34.668-28.5,68.751-75.161,94.768-97.854,54.564-253.287,52.99-347.168-3.511C27.163,520.952,4.6,488.947,1.258,456.412,136.614,451.459,246.106,357.835,245.793,247.3Z" transform="translate(-1.258 -247.301)" fill="none" stroke="#fffee9" stroke-miterlimit="10" stroke-width="0.25"/>
      </g>
    </g>
    <g id="Grupo_103" data-name="Grupo 103" transform="translate(246.231 342.502)">
      <g id="Grupo_102" data-name="Grupo 102" clip-path="url(#clip-path-8)">
        <path id="Trazado_925" data-name="Trazado 925" d="M347.219,232.582c-93.875-56.5-169.734-12.7-169.421,97.846-.313-110.544,78.767-244.39,176.613-298.95C448.293,87.981,445.074,178.018,347.219,232.582Z" transform="translate(-177.8 -330.426)" fill="none" stroke="#fffee9" stroke-miterlimit="10" stroke-width="0.25"/>
        <path id="Trazado_926" data-name="Trazado 926" d="M416.017,78.494C284.149,97.088,177.485,201.774,177.8,312.318" transform="translate(-177.799 -312.318)" fill="none" stroke="#fffee9" stroke-miterlimit="10" stroke-width="0.25"/>
        <path id="Trazado_927" data-name="Trazado 927" d="M177.8,247.3c.313,110.534,76.681,245.952,170.555,302.451,97.854-54.564,101.073-144.6,7.192-201.1C257.7,403.207,178.111,357.835,177.8,247.3Z" transform="translate(-177.799 -247.301)" fill="none" stroke="#fffee9" stroke-miterlimit="10" stroke-width="0.25"/>
        <path id="Trazado_928" data-name="Trazado 928" d="M194.761,337.948c13.361-7.449,13.8-19.744.982-27.458" transform="translate(-171.266 -222.963)" fill="none" stroke="#fffee9" stroke-miterlimit="10" stroke-width="0.25"/>
        <path id="Trazado_929" data-name="Trazado 929" d="M177.8,247.3c.313,110.534,107.485,185.066,239.353,166.472" transform="translate(-177.799 -247.301)" fill="none" stroke="#fffee9" stroke-miterlimit="10" stroke-width="0.25"/>
        <path id="Trazado_930" data-name="Trazado 930" d="M177.8,247.3c.213,6.222.6,14.527,1.36,20.707.67,5.459,2.27,12.631,3.391,18.015,1.648,7.915,6.519,20.52,8.49,24.869,1.317,2.907,3.058,6.8,4.658,9.567,2.963,5.118,6.9,12,10.531,16.665a129.576,129.576,0,0,0,10.062,11.764c1.981,1.946,4.705,4.462,6.845,6.232,1.483,1.226,3.608,2.68,5.215,3.741C197.208,340.119,177.952,301.56,177.8,247.3Z" transform="translate(-177.799 -247.301)" fill="none" stroke="#fffee9" stroke-miterlimit="10" stroke-width="0.25"/>
      </g>
    </g>
    <g id="Grupo_105" data-name="Grupo 105" transform="translate(246.231 342.502)">
      <g id="Grupo_104" data-name="Grupo 104" clip-path="url(#clip-path-9)">
        <path id="Trazado_932" data-name="Trazado 932" d="M347.219,232.582c-93.875-56.5-169.734-12.7-169.421,97.846-.313-110.544,78.767-244.39,176.613-298.95C448.293,87.981,445.074,178.018,347.219,232.582Z" transform="translate(-177.8 -330.426)" fill="none" stroke="#fffee9" stroke-miterlimit="10" stroke-width="0.25"/>
        <path id="Trazado_933" data-name="Trazado 933" d="M416.017,78.494C284.149,97.088,177.485,201.774,177.8,312.318" transform="translate(-177.799 -312.318)" fill="none" stroke="#fffee9" stroke-miterlimit="10" stroke-width="0.25"/>
        <path id="Trazado_934" data-name="Trazado 934" d="M177.8,247.3c.313,110.534,76.681,245.952,170.555,302.451,97.854-54.564,101.073-144.6,7.192-201.1C257.7,403.207,178.111,357.835,177.8,247.3Z" transform="translate(-177.799 -247.301)" fill="none" stroke="#fffee9" stroke-miterlimit="10" stroke-width="0.25"/>
        <path id="Trazado_935" data-name="Trazado 935" d="M194.761,337.948c13.361-7.449,13.8-19.744.982-27.458" transform="translate(-171.266 -222.963)" fill="none" stroke="#fffee9" stroke-miterlimit="10" stroke-width="0.25"/>
        <path id="Trazado_936" data-name="Trazado 936" d="M238.936,436.344C287.4,409.319,289,364.724,242.5,336.738" transform="translate(-154.252 -212.854)" fill="none" stroke="#fffee9" stroke-miterlimit="10" stroke-width="0.25"/>
        <path id="Trazado_937" data-name="Trazado 937" d="M177.8,247.3c.313,110.534,107.485,185.066,239.353,166.472" transform="translate(-177.799 -247.301)" fill="none" stroke="#fffee9" stroke-miterlimit="10" stroke-width="0.25"/>
        <path id="Trazado_938" data-name="Trazado 938" d="M228.351,358.861c32.3,19.439,77.38,17.564,127.195-10.213,49.116,29.561,71.655,68.3,67.97,106.336C288.133,450.82,178.111,357.835,177.8,247.3c.105,4.953.414,11.558.87,16.49a126.276,126.276,0,0,0,1.828,12.732c.752,3.618,1.618,8.484,2.7,12.018a225.727,225.727,0,0,0,7.841,22.351,133.238,133.238,0,0,0,15.19,26.232c2.443,3.14,5.861,7.2,8.516,10.167,1.393,1.556,3.474,3.414,4.964,4.879a41.5,41.5,0,0,0,3.326,2.867C224.587,356.239,226.69,357.813,228.351,358.861Z" transform="translate(-177.799 -247.301)" fill="none" stroke="#fffee9" stroke-miterlimit="10" stroke-width="0.25"/>
      </g>
    </g>
    <g id="Grupo_107" data-name="Grupo 107" transform="translate(0.125 141.632)">
      <g id="Grupo_106" data-name="Grupo 106" clip-path="url(#clip-path-10)">
        <path id="Trazado_940" data-name="Trazado 940" d="M76.81,429.238,75.676,28.943C-22.179,83.5-25.4,173.543,68.482,230.047l1.136,400.295C-24.263,573.838-21.044,483.8,76.81,429.238Z" transform="translate(-0.125 -130.533)" fill="none" stroke="#fffee9" stroke-miterlimit="10" stroke-width="0.25"/>
        <line id="Línea_17" data-name="Línea 17" x1="1.134" y1="400.296" transform="translate(6.752 34.388)" fill="none" stroke="#fffee9" stroke-miterlimit="10" stroke-width="0.25"/>
        <path id="Trazado_941" data-name="Trazado 941" d="M50.61,574.424l-1.134-400.3c93.882,56.5,249.314,58.075,347.167,3.511l1.136,400.3C299.924,632.5,144.492,630.927,50.61,574.424Z" transform="translate(18.883 -74.614)" fill="none" stroke="#fffee9" stroke-miterlimit="10" stroke-width="0.25"/>
        <line id="Línea_18" data-name="Línea 18" x1="1.134" y1="400.296" transform="translate(178.345 137.662)" fill="none" stroke="#fffee9" stroke-miterlimit="10" stroke-width="0.25"/>
        <line id="Línea_19" data-name="Línea 19" x1="1.134" y1="400.296" transform="translate(302.892 138.922)" fill="none" stroke="#fffee9" stroke-miterlimit="10" stroke-width="0.25"/>
        <path id="Trazado_942" data-name="Trazado 942" d="M301.244,632.878l-1.134-400.3c97.853-54.564,101.073-144.6,7.192-201.105l1.135,400.3C402.318,488.277,399.1,578.314,301.244,632.878Z" transform="translate(115.416 -129.557)" fill="none" stroke="#fffee9" stroke-miterlimit="10" stroke-width="0.25"/>
        <line id="Línea_20" data-name="Línea 20" x1="1.134" y1="400.296" transform="translate(481.744 39.193)" fill="none" stroke="#fffee9" stroke-miterlimit="10" stroke-width="0.25"/>
        <path id="Trazado_943" data-name="Trazado 943" d="M1.26,504.014.126,103.718c.1,35.333,22.791,70.655,68.356,98.08,93.882,56.5,249.314,58.075,347.168,3.511,50.36-28.081,75.654-65.558,75.549-103.024l1.134,400.3c.107,37.466-25.189,74.942-75.549,103.024C318.93,660.17,163.5,658.6,69.616,602.094,24.052,574.671,1.359,539.347,1.26,504.014Z" transform="translate(-0.125 -102.285)" fill="none" stroke="#fffee9" stroke-miterlimit="10" stroke-width="0.25"/>
      </g>
    </g>
    <g id="Grupo_109" data-name="Grupo 109" transform="translate(0.125 0.125)">
      <g id="Grupo_108" data-name="Grupo 108" clip-path="url(#clip-path-11)">
        <path id="Trazado_945" data-name="Trazado 945" d="M402.971,443.85l-1.134-400.3c-93.882-56.5-249.314-58.077-347.168-3.513l1.134,400.3C153.657,385.774,309.089,387.346,402.971,443.85Z" transform="translate(20.883 -0.125)" fill="none" stroke="#fffee9" stroke-miterlimit="10" stroke-width="0.25"/>
        <line id="Línea_21" data-name="Línea 21" x1="1.134" y1="400.296" transform="translate(312.732 5.28)" fill="none" stroke="#fffee9" stroke-miterlimit="10" stroke-width="0.25"/>
        <line id="Línea_22" data-name="Línea 22" x1="1.134" y1="400.296" transform="translate(188.185 4.02)" fill="none" stroke="#fffee9" stroke-miterlimit="10" stroke-width="0.25"/>
        <path id="Trazado_946" data-name="Trazado 946" d="M76.81,429.238,75.676,28.943C-22.179,83.5-25.4,173.543,68.482,230.047l1.136,400.295C-24.263,573.838-21.044,483.8,76.81,429.238Z" transform="translate(-0.125 10.974)" fill="none" stroke="#fffee9" stroke-miterlimit="10" stroke-width="0.25"/>
        <line id="Línea_23" data-name="Línea 23" x1="1.134" y1="400.296" transform="translate(9.333 103.749)" fill="none" stroke="#fffee9" stroke-miterlimit="10" stroke-width="0.25"/>
        <path id="Trazado_947" data-name="Trazado 947" d="M.125,143.065C.018,105.6,25.314,68.122,75.674,40.041c97.854-54.564,253.287-52.992,347.168,3.511l1.134,400.3c-93.882-56.5-249.314-58.075-347.167-3.513C26.449,468.418,1.154,505.895,1.26,543.361.92,423.272.466,263.154.125,143.065Z" transform="translate(-0.125 -0.125)" fill="none" stroke="#fffee9" stroke-miterlimit="10" stroke-width="0.25"/>
      </g>
    </g>
    <g id="Grupo_111" data-name="Grupo 111" transform="translate(422.843 43.554)">
      <g id="Grupo_110" data-name="Grupo 110" clip-path="url(#clip-path-12)">
        <path id="Trazado_949" data-name="Trazado 949" d="M301.244,632.878l-1.134-400.3c97.853-54.564,101.073-144.6,7.192-201.105l1.135,400.3C402.318,488.277,399.1,578.314,301.244,632.878Z" transform="translate(-307.302 -31.478)" fill="none" stroke="#fffee9" stroke-miterlimit="10" stroke-width="0.25"/>
        <line id="Línea_24" data-name="Línea 24" x1="1.134" y1="400.296" transform="translate(61.607 65.125)" fill="none" stroke="#fffee9" stroke-miterlimit="10" stroke-width="0.25"/>
        <path id="Trazado_950" data-name="Trazado 950" d="M374.795,529.854c-.1-35.333-22.791-70.657-68.357-98.08L305.3,31.478c45.565,27.423,68.256,62.746,68.357,98.08C374,249.647,374.454,409.765,374.795,529.854Z" transform="translate(-305.302 -31.478)" fill="none" stroke="#fffee9" stroke-miterlimit="10" stroke-width="0.25"/>
      </g>
    </g>
  </g>
</svg>
