<svg id="_08_nextlevel_ilustracion" data-name="08_nextlevel_ilustracion" xmlns="http://www.w3.org/2000/svg" xmlns:xlink="http://www.w3.org/1999/xlink" width="89.735" height="51.84" viewBox="0 0 89.735 51.84">
  <defs>
    <clipPath id="clip-path">
      <rect id="Rectángulo_53" data-name="Rectángulo 53" width="89.735" height="51.84" fill="none" stroke="#fffee9" stroke-width="1"/>
    </clipPath>
  </defs>
  <g id="Grupo_183" data-name="Grupo 183" clip-path="url(#clip-path)">
    <path id="Trazado_1268" data-name="Trazado 1268" d="M103.942,38.188A43.951,43.951,0,0,1,84.107,56.18q-1.89.86-3.874,1.542a43.5,43.5,0,0,1-9.61,2.122,44.507,44.507,0,0,1-9.224,0,43.5,43.5,0,0,1-9.61-2.122q-1.982-.682-3.874-1.542A43.951,43.951,0,0,1,28.081,38.188,43.951,43.951,0,0,1,47.916,20.2a43.366,43.366,0,0,1,8.832-2.92,44.135,44.135,0,0,1,18.528,0,43.366,43.366,0,0,1,8.832,2.92A43.951,43.951,0,0,1,103.942,38.188Z" transform="translate(-21.144 -12.268)" fill="none" stroke="#fffee9" stroke-miterlimit="10" stroke-width="0.5"/>
    <path id="Trazado_1269" data-name="Trazado 1269" d="M103.942,38.188A43.951,43.951,0,0,1,84.107,56.18q-1.89.86-3.874,1.542a43.5,43.5,0,0,1-9.61,2.122,44.507,44.507,0,0,1-9.224,0,43.5,43.5,0,0,1-9.61-2.122q-1.982-.682-3.874-1.542A43.951,43.951,0,0,1,28.081,38.188,43.951,43.951,0,0,1,47.916,20.2a43.366,43.366,0,0,1,8.832-2.92,44.135,44.135,0,0,1,18.528,0,43.366,43.366,0,0,1,8.832,2.92A43.951,43.951,0,0,1,103.942,38.188Z" transform="translate(-21.144 -12.268)" fill="none" stroke="#fffee9" stroke-miterlimit="10" stroke-width="0.5"/>
    <path id="Trazado_1270" data-name="Trazado 1270" d="M129.359,38.188a25.6,25.6,0,0,1-.133,2.626v0a25.388,25.388,0,0,1-3.263,10.1s0,0,0,0a25.564,25.564,0,0,1-4.024,5.259q-1.89.86-3.874,1.542a43.5,43.5,0,0,1-9.61,2.122,44.507,44.507,0,0,1-9.224,0,43.5,43.5,0,0,1-9.61-2.122q-1.982-.682-3.874-1.542A25.563,25.563,0,0,1,81.72,50.92s0,0,0,0a25.388,25.388,0,0,1-3.263-10.1v0A25.454,25.454,0,0,1,84.9,21.093c.274-.306.558-.605.847-.9a43.366,43.366,0,0,1,8.832-2.92,44.135,44.135,0,0,1,18.528,0,43.366,43.366,0,0,1,8.832,2.92c.289.292.573.59.847.9a25.419,25.419,0,0,1,6.576,17.1Z" transform="translate(-58.973 -12.268)" fill="none" stroke="#fffee9" stroke-miterlimit="10" stroke-width="0.5"/>
    <circle id="Elipse_21" data-name="Elipse 21" cx="18.125" cy="18.125" r="18.125" transform="translate(26.719 44.022) rotate(-89.927)" fill="none" stroke="#fffee9" stroke-miterlimit="10" stroke-width="0.5"/>
    <circle id="Elipse_22" data-name="Elipse 22" cx="10.73" cy="10.73" r="10.73" transform="translate(34.138 15.19)" fill="none" stroke="#fffee9" stroke-miterlimit="10" stroke-width="0.5"/>
    <path id="Trazado_1271" data-name="Trazado 1271" d="M168.753,85.772a6.283,6.283,0,1,1-6.283-6.283,6.283,6.283,0,0,1,6.283,6.283" transform="translate(-117.603 -59.852)" fill="#fffee9" stroke="#fffee9" stroke-width="1"/>
    <path id="Trazado_1272" data-name="Trazado 1272" d="M181.621,16.243V38.111" transform="translate(-136.754 -12.23)" fill="none" stroke="#fffee9" stroke-miterlimit="10" stroke-width="0.5"/>
    <path id="Trazado_1273" data-name="Trazado 1273" d="M190.917,20.227l-6.786,15.244-2.51,5.64" transform="translate(-136.753 -15.231)" fill="none" stroke="#fffee9" stroke-miterlimit="10" stroke-width="0.5"/>
    <line id="Línea_34" data-name="Línea 34" y1="17.073" x2="18.961" transform="translate(44.867 8.808)" fill="none" stroke="#fffee9" stroke-miterlimit="10" stroke-width="0.5"/>
    <line id="Línea_35" data-name="Línea 35" y1="7.884" x2="24.266" transform="translate(44.867 17.996)" fill="none" stroke="#fffee9" stroke-miterlimit="10" stroke-width="0.5"/>
    <line id="Línea_36" data-name="Línea 36" x2="25.375" y2="2.667" transform="translate(44.867 25.88)" fill="none" stroke="#fffee9" stroke-miterlimit="10" stroke-width="0.5"/>
    <line id="Línea_37" data-name="Línea 37" x2="22.096" y2="12.757" transform="translate(44.867 25.88)" fill="none" stroke="#fffee9" stroke-miterlimit="10" stroke-width="0.5"/>
    <path id="Trazado_1274" data-name="Trazado 1274" d="M181.621,104.763l3.733,5.14.057.08,2.572,3.539,4.375,6.02,3.484,4.794" transform="translate(-136.754 -78.883)" fill="none" stroke="#fffee9" stroke-miterlimit="10" stroke-width="0.5"/>
    <path id="Trazado_1275" data-name="Trazado 1275" d="M181.621,104.763l1.322,6.219.025.117.907,4.263,1.546,7.28.812,3.816" transform="translate(-136.754 -78.883)" fill="none" stroke="#fffee9" stroke-miterlimit="10" stroke-width="0.5"/>
    <path id="Trazado_1276" data-name="Trazado 1276" d="M167.563,104.763l-1.322,6.219-.025.117-.907,4.263-1.546,7.28-.812,3.816" transform="translate(-122.696 -78.883)" fill="none" stroke="#fffee9" stroke-miterlimit="10" stroke-width="0.5"/>
    <path id="Trazado_1277" data-name="Trazado 1277" d="M138.2,104.763l-3.733,5.14-.057.08-2.572,3.539-4.375,6.02-3.508,4.826" transform="translate(-93.335 -78.883)" fill="none" stroke="#fffee9" stroke-miterlimit="10" stroke-width="0.5"/>
    <line id="Línea_38" data-name="Línea 38" x1="22.096" y2="12.757" transform="translate(22.771 25.88)" fill="none" stroke="#fffee9" stroke-miterlimit="10" stroke-width="0.5"/>
    <line id="Línea_39" data-name="Línea 39" x1="25.375" y2="2.667" transform="translate(19.492 25.88)" fill="none" stroke="#fffee9" stroke-miterlimit="10" stroke-width="0.5"/>
    <line id="Línea_40" data-name="Línea 40" x1="24.266" y1="7.884" transform="translate(20.602 17.996)" fill="none" stroke="#fffee9" stroke-miterlimit="10" stroke-width="0.5"/>
    <line id="Línea_41" data-name="Línea 41" x1="18.961" y1="17.073" transform="translate(25.906 8.808)" fill="none" stroke="#fffee9" stroke-miterlimit="10" stroke-width="0.5"/>
    <path id="Trazado_1278" data-name="Trazado 1278" d="M143.991,20.227l6.786,15.244,2.51,5.64" transform="translate(-108.42 -15.231)" fill="none" stroke="#fffee9" stroke-miterlimit="10" stroke-width="0.5"/>
    <path id="Trazado_1279" data-name="Trazado 1279" d="M181.621,16.243V38.111" transform="translate(-136.754 -12.23)" fill="none" stroke="#fffee9" stroke-miterlimit="10" stroke-width="0.5"/>
    <path id="Trazado_1280" data-name="Trazado 1280" d="M89.88,26.108A51.908,51.908,0,0,1,66.455,47.357q-2.232,1.015-4.575,1.821a51.376,51.376,0,0,1-11.349,2.506,52.52,52.52,0,0,1-5.447.283,52.525,52.525,0,0,1-5.447-.283,51.374,51.374,0,0,1-11.349-2.506q-2.341-.806-4.575-1.821A51.908,51.908,0,0,1,.288,26.108,51.908,51.908,0,0,1,23.713,4.86a51.23,51.23,0,0,1,10.43-3.449,52.128,52.128,0,0,1,21.882,0A51.235,51.235,0,0,1,66.455,4.86,51.908,51.908,0,0,1,89.88,26.108Z" transform="translate(-0.217 -0.188)" fill="none" stroke="#fffee9" stroke-miterlimit="10" stroke-width="0.5"/>
    <line id="Línea_42" data-name="Línea 42" x2="6.866" transform="translate(82.798 25.92)" fill="none" stroke="#fffee9" stroke-miterlimit="10" stroke-width="0.5"/>
    <line id="Línea_43" data-name="Línea 43" x1="6.866" transform="translate(0.071 25.92)" fill="none" stroke="#fffee9" stroke-miterlimit="10" stroke-width="0.5"/>
  </g>
</svg>
