<svg xmlns="http://www.w3.org/2000/svg" width="328" height="50" viewBox="0 0 328 50">
  <g id="_08_nextlevel_iconos" data-name="08_nextlevel_iconos" transform="translate(-960 -801)">
    <g id="Grupo_172" data-name="Grupo 172" transform="translate(960 801)">
      <path id="Trazado_1259" data-name="Trazado 1259" d="M26.272,25a7.8,7.8,0,1,1-7.8-7.854A7.828,7.828,0,0,1,26.272,25Zm8.557,0c0,4.083-1.747,7.393-3.9,7.393s-3.9-3.311-3.9-7.393,1.747-7.393,3.9-7.393S34.829,20.918,34.829,25Zm3.5,0c0,3.658-.614,6.624-1.371,6.624S35.585,28.657,35.585,25s.614-6.624,1.372-6.624S38.328,21.342,38.328,25Z" fill="#fffee9"/>
      <circle id="Elipse_16" data-name="Elipse 16" cx="24" cy="24" r="24" transform="translate(1 1)" fill="none" stroke="#fffee9" stroke-miterlimit="10" stroke-width="2"/>
    </g>
    <g id="Grupo_175" data-name="Grupo 175" transform="translate(1072.441 801)">
      <g id="Grupo_174" data-name="Grupo 174">
        <g id="Grupo_173" data-name="Grupo 173">
          <path id="Trazado_1260" data-name="Trazado 1260" d="M132.333,33.742h-4.222V26.551c0-1.972-.749-3.074-2.31-3.074-1.7,0-2.584,1.147-2.584,3.074v7.191h-4.069v-13.7h4.069v1.845a4.778,4.778,0,0,1,4.13-2.264c2.906,0,4.986,1.775,4.986,5.445ZM114.294,18.249a2.528,2.528,0,1,1,2.508-2.528A2.518,2.518,0,0,1,114.294,18.249Zm-2.1,15.493h4.242v-13.7h-4.242Z" fill="#fffee9" fill-rule="evenodd"/>
        </g>
      </g>
      <circle id="Elipse_17" data-name="Elipse 17" cx="24" cy="24" r="24" transform="translate(97.559 1)" fill="none" stroke="#fffee9" stroke-miterlimit="10" stroke-width="2"/>
    </g>
    <g id="Grupo_176" data-name="Grupo 176" transform="translate(836.883 801)">
      <path id="Trazado_1261" data-name="Trazado 1261" d="M221.725,31.069a3.849,3.849,0,0,1,1.09,2.99c0,2.16-.03,3.9-.03,4.43a.709.709,0,0,0,.01.14v.65h-7.94v-.67a.486.486,0,0,0,.01-.12c0-.15-.01-.47-.01-.88-.01-.57-.02-1.33-.02-2.11-4.45.96-5.38-1.92-5.38-1.92a4.087,4.087,0,0,0-1.78-2.35c-1.45-.98.11-.98.11-.98a3.371,3.371,0,0,1,2.47,1.65,3.383,3.383,0,0,0,4.66,1.34,3.5,3.5,0,0,1,1.01-2.17c-3.55-.37-7.29-1.76-7.29-7.95a6.36,6.36,0,0,1,1.64-4.33,5.934,5.934,0,0,1,.16-4.27s1.35-.43,4.4,1.65a15.858,15.858,0,0,1,4-.53,15.679,15.679,0,0,1,4,.53c3.05-2.08,4.4-1.65,4.4-1.65a5.82,5.82,0,0,1,.16,4.27,6.221,6.221,0,0,1,1.64,4.33C229.035,29.309,225.3,30.669,221.725,31.069Z" fill="#fffee9" fill-rule="evenodd"/>
      <path id="Trazado_1262" data-name="Trazado 1262" d="M214.865,38.489a.486.486,0,0,1-.01.12v-1C214.855,38.019,214.865,38.339,214.865,38.489Z" fill="#fffee9" fill-rule="evenodd"/>
      <line id="Línea_33" data-name="Línea 33" y1="0.85" transform="translate(222.795 37.779)" fill="none"/>
      <path id="Trazado_1263" data-name="Trazado 1263" d="M231.515,5.079a23.927,23.927,0,0,0-12.16-4.05A23.528,23.528,0,0,1,231.515,5.079Z" fill="#fffee9" fill-rule="evenodd"/>
      <circle id="Elipse_18" data-name="Elipse 18" cx="24" cy="24" r="24" transform="translate(194.117 1)" fill="none" stroke="#fffee9" stroke-miterlimit="10" stroke-width="2"/>
    </g>
    <g id="Grupo_178" data-name="Grupo 178" transform="translate(809.324 801)">
      <circle id="Elipse_19" data-name="Elipse 19" cx="24" cy="24" r="24" transform="translate(290.676 1)" fill="none" stroke="#fffee9" stroke-miterlimit="10" stroke-width="2"/>
      <g id="Grupo_177" data-name="Grupo 177">
        <path id="Trazado_1264" data-name="Trazado 1264" d="M302.924,27.086V22.914A5.046,5.046,0,0,1,313,22.97h-2.97a2.07,2.07,0,0,0-4.135.094v3.872a2.071,2.071,0,0,0,4.135.132H313a5.047,5.047,0,0,1-10.076.018Z" fill="#fffee9"/>
        <path id="Trazado_1265" data-name="Trazado 1265" d="M315.073,18.42h3.308l2.294,9.137h.151l2.331-9.137h3.271l-3.873,13.16h-3.646Z" fill="#fffee9"/>
      </g>
    </g>
    <g id="Grupo_181" data-name="Grupo 181" transform="translate(851.765 801)">
      <g id="Grupo_179" data-name="Grupo 179">
        <circle id="Elipse_20" data-name="Elipse 20" cx="24" cy="24" r="24" transform="translate(387.235 1)" fill="none" stroke="#fffee9" stroke-miterlimit="10" stroke-width="2"/>
      </g>
      <g id="Grupo_180" data-name="Grupo 180">
        <path id="Trazado_1266" data-name="Trazado 1266" d="M411.24,28.675l9.47-5.33v8.56H401.76v-8.56Z" fill="#fffee9"/>
        <path id="Trazado_1267" data-name="Trazado 1267" d="M420.71,18.095v2.45l-9.47,5.33-9.48-5.33v-2.45Z" fill="#fffee9"/>
      </g>
    </g>
  </g>
</svg>
