<svg id="_01_about_logo_uncuyo" data-name="01_about_logo_uncuyo" xmlns="http://www.w3.org/2000/svg" xmlns:xlink="http://www.w3.org/1999/xlink" width="223.202" height="74.599" viewBox="0 0 223.202 74.599">
  <defs>
    <clipPath id="clip-path">
      <rect id="Rectángulo_33" data-name="Rectángulo 33" width="223.202" height="74.599" fill="#fffee9"/>
    </clipPath>
  </defs>
  <g id="Grupo_28" data-name="Grupo 28" clip-path="url(#clip-path)">
    <path id="Trazado_324" data-name="Trazado 324" d="M59.533,186.288c9.872-.081,16.837-8.039,19.813-16.674H39.559c3.071,8.7,10.016,16.674,19.974,16.674m.17-13.654v-.117a19.288,19.288,0,0,1,2.632-.821,13.4,13.4,0,0,1,2-.307c.06,0,.811-.034,1.13-.029.077,0,.685.034,1.191.084h.011c0,.093,0,.19,0,.285.02,3.9.045,9.792.045,9.792a12.252,12.252,0,0,0-7.029,1.395Zm-8.016-1.1,0-.135c.5-.04,1.271-.1,1.377-.1.146,0,.686.028.81.037a15.518,15.518,0,0,1,2.116.313,11.076,11.076,0,0,1,2.887.87v.11l.02,10.286c-3.171-1.259-5.759-1.609-6.981-1.395l-.266-9.747c-.025,0,.041-.158.041-.158Z" transform="translate(-28.331 -121.474)" fill="#fffee9"/>
    <path id="Trazado_325" data-name="Trazado 325" d="M30.85,0C13.839,0,0,16.732,0,37.3S13.839,74.6,30.85,74.6,61.7,57.867,61.7,37.3,47.861,0,30.85,0m.02,68.588c-13.751,0-24.938-14.01-24.938-31.229S17.119,6.131,30.87,6.131,55.808,20.138,55.808,37.358,44.621,68.588,30.87,68.588" transform="translate(0)" fill="#fffee9"/>
    <path id="Trazado_326" data-name="Trazado 326" d="M89.588,131.94c-.3-.539-.7-.317-.7-.317.017.224-1.207.188-1.207.188a.82.82,0,0,0-.3-.472c-.259-.2-.612.526-.758.637a1.3,1.3,0,0,0-.726.824c-.258.671.037.655.037.655-.151.991.262,1.232.466,1.289s.091-.391.091-.391c.131-.036.184-.263.184-.263.425-.13.5-.374.5-.374a2.633,2.633,0,0,0,.685-.111,1.19,1.19,0,0,0,.592-.506,4.328,4.328,0,0,1,.539-.3.88.88,0,0,1,.573-.075,1.131,1.131,0,0,0,.019-.784" transform="translate(-61.443 -94.036)" fill="#fffee9"/>
    <path id="Trazado_327" data-name="Trazado 327" d="M83.321,101.979a13.225,13.225,0,0,1-1.872-.077c-.816-.111-8.6-3.533-9.227-3.721s-.911-.5-1.742-.24a44.548,44.548,0,0,1-5.174.506,1.717,1.717,0,0,0-1.221.765,14.732,14.732,0,0,1-2.445,2.618c-.206.056-.761-.318-.856-.469a10.951,10.951,0,0,1-.609-2.059,2.738,2.738,0,0,0-.923-1.719c-.249-.2-3.672-3.44-4.135-3.853a1.191,1.191,0,0,0-.911-.333l-2.388.01H49.876l-.73.025c-1.33.013-3.737.036-3.908.036a13.857,13.857,0,0,1-1.372-.264c-.244.022-.129.192.254.639a3.912,3.912,0,0,0,2.545.487c.684-.1.144.167.144.167a4.22,4.22,0,0,1-1.887,0c-.314,0-.037.224.481.577a5.808,5.808,0,0,0,2.911.248c1-.1.24.093.24.093a5.842,5.842,0,0,1-2.445.206c-.74-.056.332.747,1.035.859s1.781-.523,2.075-.336-.681.354-1.278.505-.98.277-.053.633,1.8-.186,2.3-.242.167.188.167.188c-.891.318-.537,0-1.111.277s.63.507.979.467a15.144,15.144,0,0,0,1.594-.354c.133-.037.389-.17.133.15a2.322,2.322,0,0,1-1.112.447s-1.067.384-.259.62a1.763,1.763,0,0,0,1.371-.113c.335-.21,1.222-.6,1.023-.438-.936.767-.619.912-.619.912.8.525,1.669-.373,2.024-.443s-.609.635-.429.938c.324.539,1.947-.07,1.947-.07s-.749.3-.414.8c.144.216.837.194,1.058-.012s.131.036.1.225a.823.823,0,0,0,.128.792c.307.309.408.1.408-.125a1.088,1.088,0,0,1,.405-.667c.094,0-.072.469-.072.933s2.094,1.1,2.094,1.218-.263.261-.427.373a3.692,3.692,0,0,1-.591.2c-.222.1-.649.436-.5.7s.223-.019.223-.019c.035-.466,1.853-.955,2.215.495.217.867-.693,1.283-.9,1.318s-.3.166-.167.188a9.316,9.316,0,0,0,1.316.17c.794.056.817-.319,1.28-.358s.351-.2.669-.2.182.242-.04.561-.479.58-.239.75.48-.239.609-.332.037.505.28.667c.308.205.39-.45.464-.711s.2-.094.2-.094c.017.84.24.947.5.968s.15-.613.15-.821.056-.373.116-.148.594,1.074.889,1.113.258-.328.181-.534a.745.745,0,0,1-.036-.376s.771.813,1.021.73c.558-.187.442-.222.368-.671a23.675,23.675,0,0,0-1.8-2.918c-.092-.169-.128-.28.244-.151a.948.948,0,0,0,1.032-.413c.152-.3-.013-.615.1-.615a15.135,15.135,0,0,1,1.592,1.089c.612.425.822.579,1.414.465s.108-.278-.021-.58.274-.033.274-.033.855.462,1.021.557.91.13.611-.221a.737.737,0,0,1-.2-.693c0-.207.548.534.881.79,1.119.867,1.156.01,1.156.01a6.093,6.093,0,0,0,3.671,2.359c.515.015.417-.4.227-.491s-.71-.2-.895-.48-.038-.264.169-.148a4.787,4.787,0,0,0,1.628.592c.556.021.577-.36.075-.688a19.186,19.186,0,0,1-1.614-1.291c-.258-.243.112-.261.224-.169s.846.524,1.669,1.163a1.489,1.489,0,0,0,1.957.012c.141-.251-.685-.434-1.326-.912-.709-.531-1.963-1.156-2.411-1.5s.371-.038.371-.038a13.388,13.388,0,0,0,3.742,1.5c.521.059,1.543-.014,1.689-.486s-.556-.147-1.484-.372a10.327,10.327,0,0,1-2.518-.956c-.429-.316.24-.094.24-.094,2.7,1.16,3.8.807,3.8.807,1.464-.429.628-.861.628-.861" transform="translate(-31.325 -66.751)" fill="#fffee9"/>
    <path id="Trazado_328" data-name="Trazado 328" d="M47.183,46.734a8.636,8.636,0,0,0,5.9-1.539c2.833-2.04,3.4-5.036,6.679-4.788s2.58.275,5.59,4.419S69.358,49,70,49.213c.488.163,8.967.073,10.13.073l-.106-.42S74,32.2,60.012,32.2C46.7,32.2,40.685,46.734,40.685,46.734s3.739-.041,6.5,0" transform="translate(-29.138 -23.058)" fill="#fffee9"/>
    <path id="Trazado_329" data-name="Trazado 329" d="M372.666,29.781c0,9.157,5.135,15.593,14.03,15.593s14.03-6.436,14.03-15.593c0-8.944-5.178-15.6-14.03-15.6s-14.03,6.652-14.03,15.6m4.426,0c0-6.135,3.173-11.836,9.6-11.794,6.431-.042,9.6,5.659,9.6,11.794,0,6-2.882,11.791-9.6,11.791s-9.6-5.789-9.6-11.791M360.416,44.855h4.175V32.241L375.948,14.7h-4.884l-8.477,13.52L353.9,14.7h-4.884l11.4,17.537ZM346.713,14.7h-4.177V31.809c0,5.789-1.754,9.762-7.14,9.762s-7.139-3.974-7.139-9.762V14.7h-4.176V32.372c0,8.465,4.133,13,11.315,13s11.317-4.535,11.317-13Zm-25.814.777a15.618,15.618,0,0,0-6.557-1.3c-8.893,0-15.407,6.178-15.407,15.464,0,9.59,6.137,15.724,15.365,15.724a17.622,17.622,0,0,0,6.639-1.081l-.25-4.189a13.959,13.959,0,0,1-6.348,1.469c-6.054,0-10.981-4.707-10.981-11.791,0-6.783,4.468-11.794,11.192-11.794a11.412,11.412,0,0,1,6.012,1.686ZM273.38,44.855h4.176V20.06h.084l13.194,24.795h5.345V14.7H292V38.98h-.084L279.058,14.7H273.38ZM270.509,14.7h-4.176V31.809c0,5.789-1.754,9.762-7.14,9.762s-7.14-3.974-7.14-9.762V14.7h-4.176V32.372c0,8.465,4.134,13,11.316,13s11.316-4.535,11.316-13Z" transform="translate(-177.524 -10.159)" fill="#fffee9"/>
    <path id="Trazado_330" data-name="Trazado 330" d="M248.556,144.362v6.855c0,2.6,1.151,3.7,2.7,3.7,1.719,0,2.818-1.135,2.818-3.7v-6.855h1.512v6.753c0,3.556-1.873,5.017-4.382,5.017-2.371,0-4.159-1.358-4.159-4.949v-6.821Z" transform="translate(-176.927 -103.389)" fill="#fffee9"/>
    <path id="Trazado_331" data-name="Trazado 331" d="M289.306,155.943V144.362h1.633l3.71,5.86a32.717,32.717,0,0,1,2.079,3.763l.034-.018c-.137-1.546-.172-2.956-.172-4.759v-4.846H298v11.581h-1.512l-3.678-5.876a36.834,36.834,0,0,1-2.164-3.866l-.051.017c.086,1.461.12,2.852.12,4.776v4.949Z" transform="translate(-207.194 -103.389)" fill="#fffee9"/>
    <rect id="Rectángulo_30" data-name="Rectángulo 30" width="1.495" height="11.581" transform="translate(94.278 40.974)" fill="#fffee9"/>
    <path id="Trazado_332" data-name="Trazado 332" d="M349.086,155.943,345.3,144.362h1.615l1.8,5.705c.5,1.563.928,2.972,1.237,4.329H350c.326-1.339.807-2.8,1.323-4.313l1.958-5.721h1.6l-4.141,11.581Z" transform="translate(-247.299 -103.389)" fill="#fffee9"/>
    <path id="Trazado_333" data-name="Trazado 333" d="M392.473,150.513h-4.5v4.174h5.018v1.255h-6.511V144.361h6.254v1.255h-4.76v3.659h4.5Z" transform="translate(-276.786 -103.388)" fill="#fffee9"/>
    <path id="Trazado_334" data-name="Trazado 334" d="M419.289,144.3a15.575,15.575,0,0,1,2.869-.24,4.737,4.737,0,0,1,3.351.945,2.884,2.884,0,0,1,.911,2.2,3.039,3.039,0,0,1-2.182,2.956v.052a2.885,2.885,0,0,1,1.7,2.336,18.561,18.561,0,0,0,.893,3.179h-1.546a15,15,0,0,1-.773-2.766c-.344-1.6-.962-2.2-2.32-2.252h-1.409v5.018h-1.495Zm1.495,5.275h1.529c1.6,0,2.612-.876,2.612-2.2,0-1.495-1.082-2.148-2.663-2.165a6.155,6.155,0,0,0-1.478.137Z" transform="translate(-300.285 -103.172)" fill="#fffee9"/>
    <path id="Trazado_335" data-name="Trazado 335" d="M453.209,153.645a5.3,5.3,0,0,0,2.681.756c1.529,0,2.422-.808,2.422-1.976,0-1.083-.618-1.7-2.181-2.3-1.89-.67-3.058-1.65-3.058-3.282,0-1.805,1.495-3.145,3.746-3.145a5.266,5.266,0,0,1,2.56.567l-.414,1.22a4.608,4.608,0,0,0-2.2-.55c-1.581,0-2.182.944-2.182,1.736,0,1.082.7,1.614,2.3,2.234,1.958.756,2.956,1.7,2.956,3.4,0,1.787-1.324,3.334-4.056,3.334a6,6,0,0,1-2.956-.739Z" transform="translate(-324.307 -102.912)" fill="#fffee9"/>
    <rect id="Rectángulo_31" data-name="Rectángulo 31" width="1.495" height="11.581" transform="translate(138.438 40.974)" fill="#fffee9"/>
    <path id="Trazado_336" data-name="Trazado 336" d="M505.259,144.3a21.385,21.385,0,0,1,3.179-.241,6.633,6.633,0,0,1,4.691,1.444,5.332,5.332,0,0,1,1.631,4.158,6.125,6.125,0,0,1-1.667,4.5,7.13,7.13,0,0,1-5.12,1.666,24.146,24.146,0,0,1-2.715-.137Zm1.495,10.24a9.443,9.443,0,0,0,1.512.086c3.2,0,4.932-1.787,4.932-4.914.017-2.732-1.529-4.468-4.691-4.468a8.487,8.487,0,0,0-1.753.155Z" transform="translate(-361.855 -103.172)" fill="#fffee9"/>
    <path id="Trazado_337" data-name="Trazado 337" d="M544.394,152.3l-1.2,3.643h-1.547l3.935-11.581h1.8l3.952,11.581h-1.6L548.5,152.3Zm3.8-1.168-1.134-3.334c-.258-.755-.43-1.444-.6-2.114h-.034c-.172.688-.361,1.392-.584,2.1l-1.134,3.35Z" transform="translate(-387.914 -103.389)" fill="#fffee9"/>
    <path id="Trazado_338" data-name="Trazado 338" d="M581.785,144.3a21.389,21.389,0,0,1,3.179-.241,6.634,6.634,0,0,1,4.691,1.444,5.333,5.333,0,0,1,1.631,4.158,6.125,6.125,0,0,1-1.667,4.5,7.131,7.131,0,0,1-5.12,1.666,24.136,24.136,0,0,1-2.715-.137Zm1.495,10.24a9.441,9.441,0,0,0,1.512.086c3.2,0,4.932-1.787,4.932-4.914.017-2.732-1.53-4.468-4.691-4.468a8.485,8.485,0,0,0-1.753.155Z" transform="translate(-416.661 -103.172)" fill="#fffee9"/>
    <path id="Trazado_339" data-name="Trazado 339" d="M247.107,216.486V204.9h1.633l3.71,5.86a32.722,32.722,0,0,1,2.079,3.763l.034-.018c-.137-1.546-.172-2.956-.172-4.759V204.9H255.8v11.581h-1.512l-3.676-5.876a36.612,36.612,0,0,1-2.165-3.867l-.051.017c.086,1.461.12,2.852.12,4.776v4.949Z" transform="translate(-176.972 -146.748)" fill="#fffee9"/>
    <path id="Trazado_340" data-name="Trazado 340" d="M286.6,212.844l-1.2,3.643h-1.547l3.935-11.581h1.8l3.952,11.581h-1.6l-1.237-3.643Zm3.8-1.168-1.134-3.333c-.258-.755-.429-1.444-.6-2.114h-.034c-.172.688-.361,1.392-.584,2.1l-1.134,3.35Z" transform="translate(-203.29 -146.749)" fill="#fffee9"/>
    <path id="Trazado_341" data-name="Trazado 341" d="M329.446,215.631a7.417,7.417,0,0,1-3.058.55c-3.265,0-5.722-2.062-5.722-5.858a5.763,5.763,0,0,1,6.048-6.083,6.2,6.2,0,0,1,2.749.516l-.361,1.22a5.446,5.446,0,0,0-2.336-.481c-2.715,0-4.519,1.734-4.519,4.776,0,2.835,1.633,4.657,4.449,4.657a5.982,5.982,0,0,0,2.44-.481Z" transform="translate(-229.654 -146.271)" fill="#fffee9"/>
    <rect id="Rectángulo_32" data-name="Rectángulo 32" width="1.495" height="11.581" transform="translate(101.666 58.157)" fill="#fffee9"/>
    <path id="Trazado_342" data-name="Trazado 342" d="M380.834,210.1c0,3.986-2.423,6.1-5.379,6.1-3.058,0-5.206-2.371-5.206-5.876,0-3.677,2.286-6.082,5.378-6.082,3.161,0,5.206,2.422,5.206,5.859m-8.986.189c0,2.474,1.34,4.691,3.695,4.691,2.37,0,3.711-2.183,3.711-4.811,0-2.3-1.2-4.707-3.695-4.707-2.474,0-3.711,2.284-3.711,4.828" transform="translate(-265.164 -146.273)" fill="#fffee9"/>
    <path id="Trazado_343" data-name="Trazado 343" d="M414.387,216.486V204.9h1.633l3.71,5.86a32.727,32.727,0,0,1,2.079,3.763l.034-.018c-.137-1.546-.172-2.956-.172-4.759V204.9h1.409v11.581h-1.512l-3.676-5.876a36.633,36.633,0,0,1-2.165-3.867l-.051.017c.086,1.461.12,2.852.12,4.776v4.949Z" transform="translate(-296.774 -146.748)" fill="#fffee9"/>
    <path id="Trazado_344" data-name="Trazado 344" d="M453.884,212.844l-1.2,3.643h-1.547l3.935-11.581h1.8l3.952,11.581h-1.6l-1.237-3.643Zm3.8-1.168-1.134-3.333c-.258-.755-.429-1.444-.6-2.114h-.034c-.171.688-.361,1.392-.584,2.1l-1.134,3.35Z" transform="translate(-323.092 -146.749)" fill="#fffee9"/>
    <path id="Trazado_345" data-name="Trazado 345" d="M491.276,204.905h1.495v10.326h4.948v1.254h-6.443Z" transform="translate(-351.841 -146.748)" fill="#fffee9"/>
    <path id="Trazado_346" data-name="Trazado 346" d="M532.686,204.844a21.39,21.39,0,0,1,3.179-.241,6.633,6.633,0,0,1,4.691,1.444,5.333,5.333,0,0,1,1.631,4.158,6.125,6.125,0,0,1-1.667,4.5,7.131,7.131,0,0,1-5.12,1.666,24.145,24.145,0,0,1-2.715-.137Zm1.495,10.24a9.443,9.443,0,0,0,1.512.086c3.2,0,4.932-1.787,4.932-4.914.017-2.732-1.53-4.468-4.691-4.468a8.489,8.489,0,0,0-1.753.155Z" transform="translate(-381.497 -146.532)" fill="#fffee9"/>
    <path id="Trazado_347" data-name="Trazado 347" d="M579.005,211.057h-4.5v4.174h5.017v1.254h-6.511V204.9h6.254v1.254H574.5v3.659h4.5Z" transform="translate(-410.376 -146.748)" fill="#fffee9"/>
    <path id="Trazado_348" data-name="Trazado 348" d="M621.988,215.631a7.417,7.417,0,0,1-3.058.55c-3.265,0-5.722-2.062-5.722-5.858a5.763,5.763,0,0,1,6.048-6.083,6.207,6.207,0,0,1,2.749.516l-.361,1.22a5.446,5.446,0,0,0-2.336-.481c-2.715,0-4.519,1.734-4.519,4.776,0,2.835,1.633,4.657,4.449,4.657a5.985,5.985,0,0,0,2.44-.481Z" transform="translate(-439.165 -146.271)" fill="#fffee9"/>
    <path id="Trazado_349" data-name="Trazado 349" d="M652.2,204.9v6.855c0,2.6,1.151,3.7,2.7,3.7,1.719,0,2.818-1.135,2.818-3.7V204.9h1.512v6.753c0,3.556-1.873,5.017-4.382,5.017-2.371,0-4.159-1.358-4.159-4.949V204.9Z" transform="translate(-466.004 -146.748)" fill="#fffee9"/>
    <path id="Trazado_350" data-name="Trazado 350" d="M689.761,216.486v-4.914L686.1,204.9h1.7l1.632,3.2c.447.876.791,1.581,1.151,2.388h.034c.326-.756.721-1.512,1.169-2.388l1.666-3.2h1.7l-3.882,6.649v4.932Z" transform="translate(-491.37 -146.748)" fill="#fffee9"/>
    <path id="Trazado_351" data-name="Trazado 351" d="M728.652,210.1c0,3.986-2.423,6.1-5.378,6.1-3.058,0-5.206-2.371-5.206-5.876,0-3.677,2.286-6.082,5.379-6.082,3.161,0,5.206,2.422,5.206,5.859m-8.986.189c0,2.474,1.34,4.691,3.695,4.691,2.37,0,3.711-2.183,3.711-4.811,0-2.3-1.2-4.707-3.694-4.707-2.474,0-3.711,2.284-3.711,4.828" transform="translate(-514.264 -146.273)" fill="#fffee9"/>
  </g>
</svg>
