<svg xmlns="http://www.w3.org/2000/svg" xmlns:xlink="http://www.w3.org/1999/xlink" width="167.241" height="137.408" viewBox="0 0 167.241 137.408">
  <defs>
    <clipPath id="clip-path">
      <path id="Trazado_683" data-name="Trazado 683" d="M241.12,141.111h0m-.207.047a9.532,9.532,0,0,1-1.593.142,9.755,9.755,0,0,1-1.748-.137c-6.427-2.729-14.446-1.213-22.455,3.591,13.318,7.458,34.582,7.5,48.079-.023l.224-.126c-5.311-3.139-10.617-4.845-15.457-4.845a17.632,17.632,0,0,0-7.05,1.4" transform="translate(-215.117 -139.76)" fill="none" stroke="#fffee9" stroke-width="1"/>
    </clipPath>
    <clipPath id="clip-path-2">
      <path id="Trazado_689" data-name="Trazado 689" d="M297.582,144.838a7.958,7.958,0,0,1-1.959-.181,6.55,6.55,0,0,1,.9.36c.3.141.7.355.99.516.062-.035.145-.083.208-.118a10.065,10.065,0,0,1,1.662-.765,8.635,8.635,0,0,1-1.8.188" transform="translate(-295.623 -144.65)" fill="none" stroke="#fffee9" stroke-width="1"/>
    </clipPath>
    <clipPath id="clip-path-3">
      <path id="Trazado_704" data-name="Trazado 704" d="M187.646,38.547c-13.8,7.7-14.258,20.4-1.015,28.368q.44.265.893.519c8.723-5.232,17.456-6.565,24.133-2.76,6.88-11.645,15.914-20.587,24.96-25.631-6.773-4.077-15.817-6.126-24.884-6.126-8.661,0-17.344,1.87-24.087,5.63" transform="translate(-176.989 -32.917)" fill="none" stroke="#fffee9" stroke-width="1"/>
    </clipPath>
    <clipPath id="clip-path-4">
      <path id="Trazado_711" data-name="Trazado 711" d="M302.455,80.717c6.661-3.846,15.41-2.566,24.169,2.611,13.584-7.709,13.962-20.315.791-28.242-9.046,5.044-18.081,13.986-24.96,25.631" transform="translate(-302.455 -55.086)" fill="none" stroke="#fffee9" stroke-width="1"/>
    </clipPath>
    <clipPath id="clip-path-5">
      <path id="Trazado_715" data-name="Trazado 715" d="M126.29,175.949q.436-.252.882-.5c27.141-15.134,69.985-14.96,96.59.2l-48.794-27.8Z" transform="translate(-126.29 -147.845)" fill="none" stroke="#fffee9" stroke-width="1"/>
    </clipPath>
    <clipPath id="clip-path-6">
      <path id="Trazado_718" data-name="Trazado 718" d="M352.6,176.44q-.668-.4-1.351-.791l-48.794-27.8Z" transform="translate(-302.455 -147.845)" fill="none" stroke="#fffee9" stroke-width="1"/>
    </clipPath>
    <clipPath id="clip-path-7">
      <path id="Trazado_723" data-name="Trazado 723" d="M72.78,175.949c-26.74,15.439-27.347,40.465-1.147,56.234,26.485,15.941,70.335,16.384,97.941.991s28.514-40.794,2.029-56.734l-50.145-28.595-48.678,28.1" transform="translate(-52.349 -147.845)" fill="none" stroke="#fffee9" stroke-width="1"/>
    </clipPath>
    <clipPath id="clip-path-8">
      <path id="Trazado_745" data-name="Trazado 745" d="M33.873,125.281c-.712-.436-1.506-.938-2.316-1.464q1.121.744,2.316,1.464M78.545.256A105.525,105.525,0,0,0,59.426,2.942,93.26,93.26,0,0,0,40.435,9.633a83.643,83.643,0,0,0-9.983,5.684,75.11,75.11,0,0,0-8.11,6.22,83.007,83.007,0,0,0-6.1,6.084,78.431,78.431,0,0,0-5.876,7.694A74.183,74.183,0,0,0,5.738,43.71,62.221,62.221,0,0,0,1.7,55.608C1.268,57.7.8,60.5.523,62.617.343,64,.242,65.867.194,67.264c-.072,2.042.033,4.77.159,6.81C.439,75.469.7,77.318.9,78.7c.3,2.034.93,4.707,1.439,6.7.349,1.368.987,3.143,1.416,4.488A64.628,64.628,0,0,0,6.578,96.54a55.994,55.994,0,0,0,3.97,6.9,77.784,77.784,0,0,0,6.03,7.784,69.947,69.947,0,0,0,7.073,6.824c1.188.965,2.768,2.261,4.017,3.145,1.138.805,2.536,1.746,3.889,2.624-24.09-16-22.43-40.34,4.345-55.27,27.606-15.393,71.456-14.95,97.941.991,13.759-23.29,13.688-48.572-.16-56.466q-.664-.4-1.344-.787c-2.265-1.215-5.309-2.8-7.648-3.86-1.94-.882-4.592-1.912-6.6-2.621a95.5,95.5,0,0,0-10.158-2.956c-1.551-.362-3.634-.784-5.2-1.069-1.413-.256-3.305-.55-4.73-.732C95.693.75,92.546.387,88.22.211c-.774-.032-2.284-.086-4.3-.086-1.535,0-3.362.032-5.378.131" transform="translate(-0.171 -0.125)" fill="none" stroke="#fffee9" stroke-width="1"/>
    </clipPath>
    <clipPath id="clip-path-9">
      <path id="Trazado_787" data-name="Trazado 787" d="M133.534,13.007l.062.035-.062-.035m-.118-.065.007,0-.007,0M124.27,10.7a32.44,32.44,0,0,0-15.208,4.371A32.435,32.435,0,0,1,124.27,10.7m.018,0h0M58.639,43.186C45.4,35.216,45.85,22.515,59.654,14.818s35.729-7.475,48.972.5,12.789,20.671-1.015,28.368c-6.744,3.761-15.425,5.631-24.087,5.631-9.066,0-18.111-2.05-24.884-6.126M78.486.259C77.038.336,75.109.466,73.665.6c-1.5.142-3.486.372-4.973.586-2.332.336-5.775.889-9.962,1.914-1.37.335-3.188.815-4.537,1.225-1.715.521-4,1.226-5.671,1.875-1.468.57-3.437,1.306-4.875,1.947C41.286,9.2,38.2,10.743,35.919,11.963c-1.334.714-3.055,1.771-4.328,2.589-1.3.836-3,2-4.243,2.92a90.816,90.816,0,0,0-7.731,6.566,75.082,75.082,0,0,0-6.452,7.277,63.42,63.42,0,0,0-4.51,6.713,64.943,64.943,0,0,0-4.193,8.6c-.753,2.011-1.652,4.732-2.248,6.794-.392,1.354-.76,3.2-1.041,4.583a45.834,45.834,0,0,0-.879,6.757C.244,66.162.1,68.024.129,69.421c.042,2.042.144,4.77.4,6.8a68.988,68.988,0,0,0,1.218,6.99c.335,1.371.867,3.177,1.249,4.535a49.341,49.341,0,0,0,2.843,7.323,81.171,81.171,0,0,0,4.677,8.378,73.644,73.644,0,0,0,5.906,7.644c1.441,1.611,3.5,3.633,5.077,5.111,1.112,1.042,2.7,2.319,3.876,3.281a98.551,98.551,0,0,0,8.466,5.8q.668.4,1.351.791c26.6,15.16,69.448,15.334,96.59.2q.446-.248.882-.5c2.291-1.394,5.34-3.278,7.482-4.892a87.756,87.756,0,0,0,7.73-6.566A65.566,65.566,0,0,0,161.1,96.1a64.443,64.443,0,0,0,2.79-6.676c.455-1.336,1.048-3.125,1.389-4.495.5-2,1.114-4.674,1.4-6.71a85.026,85.026,0,0,0,.684-9.286,57.335,57.335,0,0,0-.4-6.8,58.618,58.618,0,0,0-1.218-6.99,82.152,82.152,0,0,0-2.841-8.966c-.876-2.216-2.319-5.055-3.429-7.164-.671-1.277-1.7-2.9-2.5-4.106a84.5,84.5,0,0,0-5.906-7.645,60.616,60.616,0,0,0-5.076-5.109c-1.137-1.014-2.681-2.337-3.876-3.281s-2.857-2.164-4.124-3.033-2.8-2.77-4.342-2.77q-.664-.4-1.344-.787c-1.809-1.012-4.246-2.33-6.14-3.174-1.549-.69-3.622-1.6-5.2-2.225-1.259-.5-2.959-1.121-4.247-1.541-1.464-.477-3.424-1.086-4.907-1.5-1.354-.378-3.174-.831-4.545-1.141-4.253-.964-7.786-1.469-9.512-1.684C95.9.788,92.634.388,88.166.212,86.7.154,85.22.127,83.776.127c-1.881,0-3.693.046-5.29.132" transform="translate(-0.125 -0.127)" fill="none" stroke="#fffee9" stroke-width="1"/>
    </clipPath>
    <clipPath id="clip-path-10">
      <path id="Trazado_797" data-name="Trazado 797" d="M479.778,159.678A60.293,60.293,0,0,0,485.42,156c-1.907,1.294-3.943,2.622-5.642,3.676m1.147-56.234c24.21,14.57,25.529,37.046,4.495,52.558,1.045-.709,2.051-1.407,2.942-2.044,1.242-.888,2.781-2.227,3.93-3.231a74.793,74.793,0,0,0,6.109-6.091,61.246,61.246,0,0,0,5.875-7.693c1.5-2.454,3.4-5.794,4.626-8.395a62.779,62.779,0,0,0,2.81-7.358,52.457,52.457,0,0,0,1.722-6.939c.209-1.382.555-3.217.683-4.61.186-2.035.343-4.759.361-6.8a71.916,71.916,0,0,0-.737-9.282,57.743,57.743,0,0,0-1.439-6.7,59.07,59.07,0,0,0-2.283-6.772A84.271,84.271,0,0,0,505.77,71.5a63.2,63.2,0,0,0-4.544-6.676,82,82,0,0,0-6.484-7.228,95.1,95.1,0,0,0-7.775-6.531c-1.478-1.123-3.479-2.4-5.2-3.471,12.846,8.523,12.583,33.134-.838,55.852m.838-55.852q-.486-.322-1-.615c.317.195.652.4,1,.615" transform="translate(-479.778 -46.978)" fill="none" stroke="#fffee9" stroke-width="1"/>
    </clipPath>
  </defs>
  <g id="_01_about_ilustracion" data-name="01_about_ilustracion" transform="translate(-0.125 -0.125)">
    <g id="Grupo_66" data-name="Grupo 66" transform="translate(59.532 38.709)">
      <g id="Grupo_65" data-name="Grupo 65" clip-path="url(#clip-path)">
        <path id="Trazado_674" data-name="Trazado 674" d="M211.885,143.88c9.046-5.044,18.1-6.189,25.026-2.241,6.6-3.811,15.267-2.487,23.945,2.737C247.054,152.072,225.128,151.851,211.885,143.88Z" transform="translate(-212.778 -139.405)" fill="none" stroke="#fffee9" stroke-miterlimit="10" stroke-width="0.25"/>
        <path id="Trazado_675" data-name="Trazado 675" d="M244.347,142.566c8.492,5.111,22.552,5.253,31.4.318" transform="translate(-236.27 -141.791)" fill="none" stroke="#fffee9" stroke-miterlimit="10" stroke-width="0.25"/>
        <path id="Trazado_676" data-name="Trazado 676" d="M275.112,139.542c3.994,2.4,10.605,2.471,14.768.149" transform="translate(-258.534 -139.602)" fill="none" stroke="#fffee9" stroke-miterlimit="10" stroke-width="0.25"/>
        <path id="Trazado_677" data-name="Trazado 677" d="M268.033,153.275c3.431-6.991,6.872-10.085,9.512-7.622" transform="translate(-253.411 -143.418)" fill="none" stroke="#fffee9" stroke-miterlimit="10" stroke-width="0.25"/>
        <path id="Trazado_678" data-name="Trazado 678" d="M310.512,153.545c-2.928-7.056-5.845-10.213-8.057-7.8" transform="translate(-278.322 -143.511)" fill="none" stroke="#fffee9" stroke-miterlimit="10" stroke-width="0.25"/>
        <path id="Trazado_679" data-name="Trazado 679" d="M326.4,83.454c-8.678-5.223-17.346-6.548-23.945-2.737,6.88-11.645,15.914-20.587,24.96-25.631C340.658,63.056,340.2,75.757,326.4,83.454Z" transform="translate(-278.322 -78.483)" fill="none" stroke="#fffee9" stroke-miterlimit="10" stroke-width="0.25"/>
        <path id="Trazado_680" data-name="Trazado 680" d="M357.995,96.073c8.851-4.936,9.143-13.08.65-18.191" transform="translate(-318.515 -94.98)" fill="none" stroke="#fffee9" stroke-miterlimit="10" stroke-width="0.25"/>
        <path id="Trazado_681" data-name="Trazado 681" d="M328.558,117.678c4.163-2.321,4.3-6.151.306-8.555" transform="translate(-297.212 -117.589)" fill="none" stroke="#fffee9" stroke-miterlimit="10" stroke-width="0.25"/>
        <path id="Trazado_682" data-name="Trazado 682" d="M239.25,141.995c-.346-.187-.81-.431-1.167-.6a6.8,6.8,0,0,0-.721-.279,9.011,9.011,0,0,0,1.958.181,8.517,8.517,0,0,0,1.8-.188,9.784,9.784,0,0,0-1.87.883c6.661-3.846,15.41-2.567,24.169,2.611l-.224.126c-13.5,7.526-34.761,7.481-48.079.023C223.839,139.523,232.573,138.19,239.25,141.995Z" transform="translate(-215.117 -139.76)" fill="none" stroke="#fffee9" stroke-miterlimit="10" stroke-width="0.25"/>
      </g>
    </g>
    <g id="Grupo_68" data-name="Grupo 68" transform="translate(81.778 40.06)">
      <g id="Grupo_67" data-name="Grupo 67" clip-path="url(#clip-path-2)">
        <path id="Trazado_684" data-name="Trazado 684" d="M211.885,143.88c9.046-5.044,18.1-6.189,25.026-2.241,6.6-3.811,15.267-2.487,23.945,2.737C247.054,152.072,225.128,151.851,211.885,143.88Z" transform="translate(-235.024 -140.756)" fill="none" stroke="#fffee9" stroke-miterlimit="10" stroke-width="0.25"/>
        <path id="Trazado_685" data-name="Trazado 685" d="M268.033,153.275c3.431-6.991,6.872-10.085,9.512-7.622" transform="translate(-275.657 -144.769)" fill="none" stroke="#fffee9" stroke-miterlimit="10" stroke-width="0.25"/>
        <path id="Trazado_686" data-name="Trazado 686" d="M310.512,153.545c-2.928-7.056-5.845-10.213-8.057-7.8" transform="translate(-300.567 -144.862)" fill="none" stroke="#fffee9" stroke-miterlimit="10" stroke-width="0.25"/>
        <path id="Trazado_687" data-name="Trazado 687" d="M326.4,83.454c-8.678-5.223-17.346-6.548-23.945-2.737,6.88-11.645,15.914-20.587,24.96-25.631C340.658,63.056,340.2,75.757,326.4,83.454Z" transform="translate(-300.567 -79.834)" fill="none" stroke="#fffee9" stroke-miterlimit="10" stroke-width="0.25"/>
        <path id="Trazado_688" data-name="Trazado 688" d="M297.718,145.415c-.063.035-.146.083-.208.118-.293-.161-.686-.375-.99-.516a6.6,6.6,0,0,0-.9-.36,7.93,7.93,0,0,0,1.96.181,8.618,8.618,0,0,0,1.8-.188A10.064,10.064,0,0,0,297.718,145.415Z" transform="translate(-295.622 -144.65)" fill="none" stroke="#fffee9" stroke-miterlimit="10" stroke-width="0.25"/>
      </g>
    </g>
    <g id="Grupo_70" data-name="Grupo 70" transform="translate(48.997 9.186)">
      <g id="Grupo_69" data-name="Grupo 69" clip-path="url(#clip-path-3)">
        <path id="Trazado_690" data-name="Trazado 690" d="M264.529,39.042c-9.046,5.044-18.08,13.986-24.96,25.631-6.644-11.782-15.333-20.9-24.012-26.127C229.36,30.85,251.286,31.072,264.529,39.042Z" transform="translate(-204.9 -32.916)" fill="none" stroke="#fffee9" stroke-miterlimit="10" stroke-width="0.25"/>
        <path id="Trazado_691" data-name="Trazado 691" d="M278.105,67.595c-8.492-5.111-22.552-5.253-31.4-.318" transform="translate(-227.439 -55.17)" fill="none" stroke="#fffee9" stroke-miterlimit="10" stroke-width="0.25"/>
        <path id="Trazado_692" data-name="Trazado 692" d="M290.987,104.284c-3.994-2.4-10.605-2.471-14.768-.149" transform="translate(-248.8 -83.227)" fill="none" stroke="#fffee9" stroke-miterlimit="10" stroke-width="0.25"/>
        <path id="Trazado_693" data-name="Trazado 693" d="M311.9,35.612c-3.431,6.991-6.85,17.881-9.445,31.013" transform="translate(-267.786 -34.867)" fill="none" stroke="#fffee9" stroke-miterlimit="10" stroke-width="0.25"/>
        <path id="Trazado_694" data-name="Trazado 694" d="M273.056,34.969c2.928,7.056,5.867,18.01,8.124,31.19" transform="translate(-246.511 -34.402)" fill="none" stroke="#fffee9" stroke-miterlimit="10" stroke-width="0.25"/>
        <path id="Trazado_695" data-name="Trazado 695" d="M187.646,53.294c8.678,5.223,17.368,14.345,24.012,26.127-6.924-3.948-15.981-2.8-25.026,2.241C173.388,73.691,173.843,60.991,187.646,53.294Z" transform="translate(-176.989 -47.663)" fill="none" stroke="#fffee9" stroke-miterlimit="10" stroke-width="0.25"/>
        <path id="Trazado_696" data-name="Trazado 696" d="M228.8,76.733c-8.851,4.936-9.143,13.08-.65,18.191" transform="translate(-209.541 -64.626)" fill="none" stroke="#fffee9" stroke-miterlimit="10" stroke-width="0.25"/>
        <path id="Trazado_697" data-name="Trazado 697" d="M267.8,108.582c-4.163,2.321-4.3,6.151-.306,8.555" transform="translate(-240.383 -87.674)" fill="none" stroke="#fffee9" stroke-miterlimit="10" stroke-width="0.25"/>
        <path id="Trazado_698" data-name="Trazado 698" d="M181.753,85.88A61.387,61.387,0,0,1,215.106,103" transform="translate(-180.437 -71.245)" fill="none" stroke="#fffee9" stroke-miterlimit="10" stroke-width="0.25"/>
        <path id="Trazado_699" data-name="Trazado 699" d="M180.436,121.232c12.191-1.719,24.393.46,33.716,6.945" transform="translate(-179.484 -96.421)" fill="none" stroke="#fffee9" stroke-miterlimit="10" stroke-width="0.25"/>
        <path id="Trazado_700" data-name="Trazado 700" d="M211.885,143.88c9.046-5.044,18.1-6.189,25.026-2.241,6.6-3.811,15.267-2.487,23.945,2.737C247.054,152.072,225.128,151.851,211.885,143.88Z" transform="translate(-202.242 -109.882)" fill="none" stroke="#fffee9" stroke-miterlimit="10" stroke-width="0.25"/>
        <path id="Trazado_701" data-name="Trazado 701" d="M244.347,142.566c8.492,5.111,22.552,5.253,31.4.318" transform="translate(-225.735 -112.268)" fill="none" stroke="#fffee9" stroke-miterlimit="10" stroke-width="0.25"/>
        <path id="Trazado_702" data-name="Trazado 702" d="M275.112,139.542c3.994,2.4,10.605,2.471,14.768.149" transform="translate(-247.999 -110.079)" fill="none" stroke="#fffee9" stroke-miterlimit="10" stroke-width="0.25"/>
        <path id="Trazado_703" data-name="Trazado 703" d="M211.658,64.674c-6.677-3.8-15.411-2.472-24.133,2.76q-.453-.253-.893-.518c-13.243-7.97-12.789-20.671,1.015-28.368s35.729-7.475,48.972.5C227.572,44.087,218.537,53.029,211.658,64.674Z" transform="translate(-176.989 -32.917)" fill="none" stroke="#fffee9" stroke-miterlimit="10" stroke-width="0.25"/>
      </g>
    </g>
    <g id="Grupo_72" data-name="Grupo 72" transform="translate(83.665 15.312)">
      <g id="Grupo_71" data-name="Grupo 71" clip-path="url(#clip-path-4)">
        <path id="Trazado_705" data-name="Trazado 705" d="M326.4,83.454c-8.678-5.223-17.346-6.548-23.945-2.737,6.88-11.645,15.914-20.587,24.96-25.631C340.658,63.056,340.2,75.757,326.4,83.454Z" transform="translate(-302.455 -55.086)" fill="none" stroke="#fffee9" stroke-miterlimit="10" stroke-width="0.25"/>
        <path id="Trazado_706" data-name="Trazado 706" d="M357.995,96.073c8.851-4.936,9.143-13.08.65-18.191" transform="translate(-342.648 -71.583)" fill="none" stroke="#fffee9" stroke-miterlimit="10" stroke-width="0.25"/>
        <path id="Trazado_707" data-name="Trazado 707" d="M328.558,117.678c4.163-2.321,4.3-6.151.306-8.555" transform="translate(-321.345 -94.191)" fill="none" stroke="#fffee9" stroke-miterlimit="10" stroke-width="0.25"/>
        <path id="Trazado_708" data-name="Trazado 708" d="M335.741,123.238c-12.059-1.964-24.107-.03-33.286,6.268" transform="translate(-302.455 -103.874)" fill="none" stroke="#fffee9" stroke-miterlimit="10" stroke-width="0.25"/>
        <path id="Trazado_709" data-name="Trazado 709" d="M336.105,88.333a60.534,60.534,0,0,0-33.65,16.445" transform="translate(-302.455 -79.146)" fill="none" stroke="#fffee9" stroke-miterlimit="10" stroke-width="0.25"/>
        <path id="Trazado_710" data-name="Trazado 710" d="M326.624,83.328c-8.759-5.178-17.508-6.457-24.169-2.611,6.88-11.645,15.914-20.588,24.96-25.632C340.586,63.013,340.208,75.619,326.624,83.328Z" transform="translate(-302.455 -55.086)" fill="none" stroke="#fffee9" stroke-miterlimit="10" stroke-width="0.25"/>
      </g>
    </g>
    <g id="Grupo_74" data-name="Grupo 74" transform="translate(34.987 40.943)">
      <g id="Grupo_73" data-name="Grupo 73" clip-path="url(#clip-path-5)">
        <path id="Trazado_712" data-name="Trazado 712" d="M177.278,147.846l50.145,28.594c-26.485-15.94-70.335-16.384-97.941-.991Z" transform="translate(-128.6 -147.846)" fill="none" stroke="#fffee9" stroke-miterlimit="10" stroke-width="0.25"/>
        <line id="Línea_9" data-name="Línea 9" x2="19.116" y2="17.832" transform="translate(48.678 0)" fill="none" stroke="#fffee9" stroke-miterlimit="10" stroke-width="0.25"/>
        <line id="Línea_10" data-name="Línea 10" x1="16.02" y2="17.477" transform="translate(32.658 0)" fill="none" stroke="#fffee9" stroke-miterlimit="10" stroke-width="0.25"/>
        <path id="Trazado_713" data-name="Trazado 713" d="M121.458,147.846l-47.8,27.6c-27.606,15.393-28.514,40.794-2.029,56.734Z" transform="translate(-72.78 -147.846)" fill="none" stroke="#fffee9" stroke-miterlimit="10" stroke-width="0.25"/>
        <path id="Trazado_714" data-name="Trazado 714" d="M174.968,147.846l48.794,27.8c-26.605-15.16-69.448-15.334-96.59-.2q-.446.248-.882.5Z" transform="translate(-126.29 -147.846)" fill="none" stroke="#fffee9" stroke-miterlimit="10" stroke-width="0.25"/>
      </g>
    </g>
    <g id="Grupo_76" data-name="Grupo 76" transform="translate(83.665 40.943)">
      <g id="Grupo_75" data-name="Grupo 75" clip-path="url(#clip-path-6)">
        <path id="Trazado_716" data-name="Trazado 716" d="M177.278,147.846l50.145,28.594c-26.485-15.94-70.335-16.384-97.941-.991Z" transform="translate(-177.278 -147.846)" fill="none" stroke="#fffee9" stroke-miterlimit="10" stroke-width="0.25"/>
        <path id="Trazado_717" data-name="Trazado 717" d="M351.249,175.649q.683.389,1.351.791l-50.145-28.594Z" transform="translate(-302.455 -147.846)" fill="none" stroke="#fffee9" stroke-miterlimit="10" stroke-width="0.25"/>
      </g>
    </g>
    <g id="Grupo_78" data-name="Grupo 78" transform="translate(14.556 40.943)">
      <g id="Grupo_77" data-name="Grupo 77" clip-path="url(#clip-path-7)">
        <path id="Trazado_719" data-name="Trazado 719" d="M121.458,147.846l-47.8,27.6c-27.606,15.393-28.514,40.794-2.029,56.734Z" transform="translate(-52.349 -147.846)" fill="none" stroke="#fffee9" stroke-miterlimit="10" stroke-width="0.25"/>
        <line id="Línea_11" data-name="Línea 11" x1="66.477" y2="45.612" transform="translate(2.633 0)" fill="none" stroke="#fffee9" stroke-miterlimit="10" stroke-width="0.25"/>
        <line id="Línea_12" data-name="Línea 12" x1="67.205" y2="65.965" transform="translate(1.905 0)" fill="none" stroke="#fffee9" stroke-miterlimit="10" stroke-width="0.25"/>
        <path id="Trazado_720" data-name="Trazado 720" d="M171.965,147.846,122.14,232.184c26.485,15.94,70.335,16.384,97.941.991Z" transform="translate(-102.855 -147.846)" fill="none" stroke="#fffee9" stroke-miterlimit="10" stroke-width="0.25"/>
        <line id="Línea_13" data-name="Línea 13" x1="18.796" y2="95.1" transform="translate(50.314 0)" fill="none" stroke="#fffee9" stroke-miterlimit="10" stroke-width="0.25"/>
        <line id="Línea_14" data-name="Línea 14" x2="16.34" y2="95.455" transform="translate(69.11 0)" fill="none" stroke="#fffee9" stroke-miterlimit="10" stroke-width="0.25"/>
        <path id="Trazado_721" data-name="Trazado 721" d="M302.455,147.846l48.116,85.329c27.606-15.393,28.514-40.794,2.029-56.735Z" transform="translate(-233.345 -147.846)" fill="none" stroke="#fffee9" stroke-miterlimit="10" stroke-width="0.25"/>
        <line id="Línea_15" data-name="Línea 15" x2="66.797" y2="67.321" transform="translate(69.11 0)" fill="none" stroke="#fffee9" stroke-miterlimit="10" stroke-width="0.25"/>
        <line id="Línea_16" data-name="Línea 16" x2="67.525" y2="46.967" transform="translate(69.11 0)" fill="none" stroke="#fffee9" stroke-miterlimit="10" stroke-width="0.25"/>
        <path id="Trazado_722" data-name="Trazado 722" d="M121.458,147.846,171.6,176.44c26.485,15.94,25.577,41.341-2.029,56.735s-71.456,14.95-97.941-.991c-26.2-15.769-25.593-40.8,1.147-56.234Z" transform="translate(-52.349 -147.846)" fill="none" stroke="#fffee9" stroke-miterlimit="10" stroke-width="0.25"/>
      </g>
    </g>
    <g id="Grupo_80" data-name="Grupo 80" transform="translate(0.138 0.125)">
      <g id="Grupo_79" data-name="Grupo 79" transform="translate(0)" clip-path="url(#clip-path-8)">
        <path id="Trazado_724" data-name="Trazado 724" d="M201.2,71.358c13.759-23.29,13.688-48.572-.16-56.466C174.555-1.049,130.705-1.492,103.1,13.9c-13.2,7.621-13.127,32.9.16,56.466C130.865,54.974,174.715,55.417,201.2,71.358Z" transform="translate(-67.528 -1.945)" fill="none" stroke="#fffee9" stroke-miterlimit="10" stroke-width="0.25"/>
        <path id="Trazado_725" data-name="Trazado 725" d="M213.318,129.242c-31.361-18.875-83.284-19.4-115.972-1.173" transform="translate(-70.494 -83.066)" fill="none" stroke="#fffee9" stroke-miterlimit="10" stroke-width="0.25"/>
        <path id="Trazado_726" data-name="Trazado 726" d="M213.11,55.931c-31.361-18.875-83.284-19.4-115.972-1.173" transform="translate(-70.344 -30.012)" fill="none" stroke="#fffee9" stroke-miterlimit="10" stroke-width="0.25"/>
        <path id="Trazado_727" data-name="Trazado 727" d="M371.218,64.5c5.191-26.262,5.119-51.544-.16-56.466" transform="translate(-268.574 -5.846)" fill="none" stroke="#fffee9" stroke-miterlimit="10" stroke-width="0.25"/>
        <path id="Trazado_728" data-name="Trazado 728" d="M235.491,63.21c-4.513-26.36-4.584-51.642-.16-56.466" transform="translate(-167.983 -4.915)" fill="none" stroke="#fffee9" stroke-miterlimit="10" stroke-width="0.25"/>
        <path id="Trazado_729" data-name="Trazado 729" d="M73.244,99.858c-13.287-23.564-13.359-48.845-.16-56.466-27.606,15.393-28.514,40.794-2.029,56.735-13.759,23.288-13.688,48.57.16,56.466C44.729,140.652,45.638,115.252,73.244,99.858Z" transform="translate(-37.512 -31.436)" fill="none" stroke="#fffee9" stroke-miterlimit="10" stroke-width="0.25"/>
        <path id="Trazado_730" data-name="Trazado 730" d="M31.248,162.991c-32.688,18.227-33.764,48.3-2.4,67.179" transform="translate(-4.397 -117.988)" fill="none" stroke="#fffee9" stroke-miterlimit="10" stroke-width="0.25"/>
        <path id="Trazado_731" data-name="Trazado 731" d="M31.041,89.679c-32.688,18.227-33.764,48.3-2.4,67.179" transform="translate(-4.247 -64.933)" fill="none" stroke="#fffee9" stroke-miterlimit="10" stroke-width="0.25"/>
        <path id="Trazado_732" data-name="Trazado 732" d="M25.52,165.029C7.074,146.438,7,121.157,25.36,108.563" transform="translate(-8.47 -78.599)" fill="none" stroke="#fffee9" stroke-miterlimit="10" stroke-width="0.25"/>
        <path id="Trazado_733" data-name="Trazado 733" d="M22.491,238.688c-18.647-12.97-18.719-38.252-.16-56.466" transform="translate(-6.168 -131.905)" fill="none" stroke="#fffee9" stroke-miterlimit="10" stroke-width="0.25"/>
        <path id="Trazado_734" data-name="Trazado 734" d="M94.816,305.179c-13.848-7.9-13.919-33.178-.16-56.466,26.485,15.94,70.335,16.384,97.941.991,13.287,23.562,13.359,48.843.16,56.466C165.152,321.563,121.3,321.12,94.816,305.179Z" transform="translate(-61.114 -180.023)" fill="none" stroke="#fffee9" stroke-miterlimit="10" stroke-width="0.25"/>
        <path id="Trazado_735" data-name="Trazado 735" d="M88.651,406.111c31.361,18.875,83.284,19.4,115.972,1.173" transform="translate(-64.202 -293.928)" fill="none" stroke="#fffee9" stroke-miterlimit="10" stroke-width="0.25"/>
        <path id="Trazado_736" data-name="Trazado 736" d="M88.443,332.8c31.361,18.875,83.284,19.4,115.972,1.173" transform="translate(-64.051 -240.875)" fill="none" stroke="#fffee9" stroke-miterlimit="10" stroke-width="0.25"/>
        <path id="Trazado_737" data-name="Trazado 737" d="M226.844,14.891c-6.923-3.949-15.979-2.8-25.025,2.24-13.243-7.97-35.169-8.192-48.972-.5C144.169,11.413,135.5,10.089,128.9,13.9,156.509-1.493,200.359-1.049,226.844,14.891Z" transform="translate(-93.332 -1.945)" fill="none" stroke="#fffee9" stroke-miterlimit="10" stroke-width="0.25"/>
        <path id="Trazado_738" data-name="Trazado 738" d="M346.148,5.836c-2.639-2.463-6.081.63-9.511,7.621" transform="translate(-243.664 -3.651)" fill="none" stroke="#fffee9" stroke-miterlimit="10" stroke-width="0.25"/>
        <path id="Trazado_739" data-name="Trazado 739" d="M243.9,4.643c2.212-2.414,5.129.743,8.057,7.8" transform="translate(-176.552 -2.814)" fill="none" stroke="#fffee9" stroke-miterlimit="10" stroke-width="0.25"/>
        <path id="Trazado_740" data-name="Trazado 740" d="M73.083,37.659c6.6-3.812,15.266-2.487,23.944,2.736-13.8,7.7-14.258,20.4-1.015,28.368-9.046,5.044-18.08,13.986-24.959,25.63C44.569,78.453,45.477,53.052,73.083,37.659Z" transform="translate(-37.511 -25.703)" fill="none" stroke="#fffee9" stroke-miterlimit="10" stroke-width="0.25"/>
        <path id="Trazado_741" data-name="Trazado 741" d="M61.3,90.222c9.178-6.3,21.225-8.232,33.285-6.268" transform="translate(-44.406 -60.259)" fill="none" stroke="#fffee9" stroke-miterlimit="10" stroke-width="0.25"/>
        <path id="Trazado_742" data-name="Trazado 742" d="M58.663,139.154A60.528,60.528,0,0,1,92.311,122.71" transform="translate(-42.5 -88.837)" fill="none" stroke="#fffee9" stroke-miterlimit="10" stroke-width="0.25"/>
        <path id="Trazado_743" data-name="Trazado 743" d="M121.56,181.587c6.879-11.645,15.913-20.587,24.959-25.631,13.243,7.97,35.169,8.192,48.972.5,8.678,5.223,17.368,14.345,24.011,26.126C191.9,197.971,148.045,197.527,121.56,181.587Z" transform="translate(-88.018 -112.897)" fill="none" stroke="#fffee9" stroke-miterlimit="10" stroke-width="0.25"/>
        <path id="Trazado_744" data-name="Trazado 744" d="M133.683,13.071c13.848,7.894,13.919,33.176.16,56.466C107.358,53.6,63.508,53.154,35.9,68.547s-28.514,40.794-2.029,56.735c-1.9-1.165-4.385-2.8-6.2-4.088-1.25-.884-2.83-2.18-4.017-3.145a69.892,69.892,0,0,1-7.073-6.824,77.789,77.789,0,0,1-6.03-7.783,56.085,56.085,0,0,1-3.97-6.9,64.689,64.689,0,0,1-2.825-6.652c-.428-1.345-1.067-3.12-1.416-4.488C1.829,83.408,1.2,80.735.9,78.7c-.2-1.383-.46-3.232-.546-4.628-.126-2.04-.23-4.768-.159-6.81.049-1.4.15-3.261.329-4.647C.8,60.5,1.268,57.7,1.7,55.608a62.18,62.18,0,0,1,4.034-11.9,74.156,74.156,0,0,1,4.626-8.394,78.431,78.431,0,0,1,5.876-7.694,82.961,82.961,0,0,1,6.1-6.085,75.042,75.042,0,0,1,8.11-6.22,83.64,83.64,0,0,1,9.983-5.684A93.24,93.24,0,0,1,59.426,2.942,105.525,105.525,0,0,1,78.545.256C83.2.027,86.856.156,88.22.211,92.546.387,95.693.75,98,1.045c1.424.183,3.317.476,4.73.733,1.567.284,3.65.707,5.2,1.069A95.5,95.5,0,0,1,118.088,5.8c2.01.709,4.662,1.739,6.6,2.621,2.34,1.064,5.383,2.645,7.648,3.86Q133.018,12.671,133.683,13.071Z" transform="translate(-0.171 -0.125)" fill="none" stroke="#fffee9" stroke-miterlimit="10" stroke-width="0.25"/>
      </g>
    </g>
    <g id="Grupo_82" data-name="Grupo 82" transform="translate(0.125 0.126)">
      <g id="Grupo_81" data-name="Grupo 81" transform="translate(0 0)" clip-path="url(#clip-path-9)">
        <path id="Trazado_746" data-name="Trazado 746" d="M201.2,71.358c13.759-23.29,13.688-48.572-.16-56.466C174.555-1.049,130.705-1.492,103.1,13.9c-13.2,7.621-13.127,32.9.16,56.466C130.865,54.974,174.715,55.417,201.2,71.358Z" transform="translate(-67.515 -1.946)" fill="none" stroke="#fffee9" stroke-miterlimit="10" stroke-width="0.25"/>
        <path id="Trazado_747" data-name="Trazado 747" d="M213.318,129.242c-31.361-18.875-83.284-19.4-115.972-1.173" transform="translate(-70.482 -83.066)" fill="none" stroke="#fffee9" stroke-miterlimit="10" stroke-width="0.25"/>
        <path id="Trazado_748" data-name="Trazado 748" d="M213.11,55.931c-31.361-18.875-83.284-19.4-115.972-1.173" transform="translate(-70.331 -30.013)" fill="none" stroke="#fffee9" stroke-miterlimit="10" stroke-width="0.25"/>
        <path id="Trazado_749" data-name="Trazado 749" d="M371.218,64.5c5.191-26.262,5.119-51.544-.16-56.466" transform="translate(-268.561 -5.846)" fill="none" stroke="#fffee9" stroke-miterlimit="10" stroke-width="0.25"/>
        <path id="Trazado_750" data-name="Trazado 750" d="M235.491,63.21c-4.513-26.36-4.584-51.642-.16-56.466" transform="translate(-167.971 -4.916)" fill="none" stroke="#fffee9" stroke-miterlimit="10" stroke-width="0.25"/>
        <path id="Trazado_751" data-name="Trazado 751" d="M73.244,99.858c-13.287-23.564-13.359-48.845-.16-56.466-27.606,15.393-28.514,40.794-2.029,56.735-13.759,23.288-13.688,48.57.16,56.466C44.729,140.652,45.638,115.252,73.244,99.858Z" transform="translate(-37.499 -31.437)" fill="none" stroke="#fffee9" stroke-miterlimit="10" stroke-width="0.25"/>
        <path id="Trazado_752" data-name="Trazado 752" d="M31.248,162.991c-32.688,18.227-33.764,48.3-2.4,67.179" transform="translate(-4.384 -117.988)" fill="none" stroke="#fffee9" stroke-miterlimit="10" stroke-width="0.25"/>
        <path id="Trazado_753" data-name="Trazado 753" d="M31.041,89.679c-32.688,18.227-33.764,48.3-2.4,67.179" transform="translate(-4.235 -64.934)" fill="none" stroke="#fffee9" stroke-miterlimit="10" stroke-width="0.25"/>
        <path id="Trazado_754" data-name="Trazado 754" d="M25.52,165.029C7.074,146.438,7,121.157,25.36,108.563" transform="translate(-8.457 -78.6)" fill="none" stroke="#fffee9" stroke-miterlimit="10" stroke-width="0.25"/>
        <path id="Trazado_755" data-name="Trazado 755" d="M22.491,238.688c-18.647-12.97-18.719-38.252-.16-56.466" transform="translate(-6.156 -131.905)" fill="none" stroke="#fffee9" stroke-miterlimit="10" stroke-width="0.25"/>
        <path id="Trazado_756" data-name="Trazado 756" d="M94.816,305.179c-13.848-7.9-13.919-33.178-.16-56.466,26.485,15.94,70.335,16.384,97.941.991,13.287,23.562,13.359,48.843.16,56.466C165.152,321.563,121.3,321.12,94.816,305.179Z" transform="translate(-61.101 -180.023)" fill="none" stroke="#fffee9" stroke-miterlimit="10" stroke-width="0.25"/>
        <path id="Trazado_757" data-name="Trazado 757" d="M88.651,406.111c31.361,18.875,83.284,19.4,115.972,1.173" transform="translate(-64.189 -293.929)" fill="none" stroke="#fffee9" stroke-miterlimit="10" stroke-width="0.25"/>
        <path id="Trazado_758" data-name="Trazado 758" d="M88.443,332.8c31.361,18.875,83.284,19.4,115.972,1.173" transform="translate(-64.039 -240.875)" fill="none" stroke="#fffee9" stroke-miterlimit="10" stroke-width="0.25"/>
        <path id="Trazado_759" data-name="Trazado 759" d="M223.939,344.127c-5.279-4.924-5.351-30.206-.16-56.466" transform="translate(-159.195 -208.209)" fill="none" stroke="#fffee9" stroke-miterlimit="10" stroke-width="0.25"/>
        <path id="Trazado_760" data-name="Trazado 760" d="M361.171,345.413c4.424-4.826,4.352-30.108-.16-56.466" transform="translate(-261.291 -209.14)" fill="none" stroke="#fffee9" stroke-miterlimit="10" stroke-width="0.25"/>
        <path id="Trazado_761" data-name="Trazado 761" d="M476.167,160.179c13.2-7.623,13.127-32.9-.16-56.466,27.606-15.393,28.514-40.794,2.029-56.734,13.848,7.895,13.92,33.176.16,56.466C504.681,119.384,503.773,144.785,476.167,160.179Z" transform="translate(-344.511 -34.032)" fill="none" stroke="#fffee9" stroke-miterlimit="10" stroke-width="0.25"/>
        <path id="Trazado_762" data-name="Trazado 762" d="M508.352,234.416c32.688-18.227,33.764-48.3,2.4-67.179" transform="translate(-367.918 -121.061)" fill="none" stroke="#fffee9" stroke-miterlimit="10" stroke-width="0.25"/>
        <path id="Trazado_763" data-name="Trazado 763" d="M508.144,161.1c32.688-18.227,33.764-48.3,2.4-67.179" transform="translate(-367.768 -68.007)" fill="none" stroke="#fffee9" stroke-miterlimit="10" stroke-width="0.25"/>
        <path id="Trazado_764" data-name="Trazado 764" d="M543.773,243.594c18.358-12.6,18.286-37.877-.16-56.466" transform="translate(-393.436 -135.456)" fill="none" stroke="#fffee9" stroke-miterlimit="10" stroke-width="0.25"/>
        <path id="Trazado_765" data-name="Trazado 765" d="M546.408,169.935c18.559-18.216,18.487-43.5-.16-56.466" transform="translate(-395.343 -82.15)" fill="none" stroke="#fffee9" stroke-miterlimit="10" stroke-width="0.25"/>
        <path id="Trazado_766" data-name="Trazado 766" d="M226.844,14.891c-6.923-3.949-15.979-2.8-25.025,2.24-13.243-7.97-35.169-8.192-48.972-.5C144.169,11.413,135.5,10.089,128.9,13.9,156.509-1.493,200.359-1.049,226.844,14.891Z" transform="translate(-93.319 -1.945)" fill="none" stroke="#fffee9" stroke-miterlimit="10" stroke-width="0.25"/>
        <path id="Trazado_767" data-name="Trazado 767" d="M238.177,11.424C215.685-2.113,178.447-2.489,155,10.583" transform="translate(-112.207 -0.773)" fill="none" stroke="#fffee9" stroke-miterlimit="10" stroke-width="0.25"/>
        <path id="Trazado_768" data-name="Trazado 768" d="M250.979,19.9c-17.994-10.83-47.785-11.131-66.54-.673" transform="translate(-133.509 -8.41)" fill="none" stroke="#fffee9" stroke-miterlimit="10" stroke-width="0.25"/>
        <path id="Trazado_769" data-name="Trazado 769" d="M346.148,5.836c-2.639-2.463-6.081.63-9.511,7.621" transform="translate(-243.652 -3.652)" fill="none" stroke="#fffee9" stroke-miterlimit="10" stroke-width="0.25"/>
        <path id="Trazado_770" data-name="Trazado 770" d="M243.9,4.643c2.212-2.414,5.129.743,8.057,7.8" transform="translate(-176.539 -2.814)" fill="none" stroke="#fffee9" stroke-miterlimit="10" stroke-width="0.25"/>
        <path id="Trazado_771" data-name="Trazado 771" d="M73.083,37.659c6.6-3.812,15.266-2.487,23.944,2.736-13.8,7.7-14.258,20.4-1.015,28.368-9.046,5.044-18.08,13.986-24.959,25.63C44.569,78.453,45.477,53.052,73.083,37.659Z" transform="translate(-37.499 -25.703)" fill="none" stroke="#fffee9" stroke-miterlimit="10" stroke-width="0.25"/>
        <path id="Trazado_772" data-name="Trazado 772" d="M107.6,35.628C84.155,48.7,83.384,70.271,105.876,83.808" transform="translate(-64.803 -25.818)" fill="none" stroke="#fffee9" stroke-miterlimit="10" stroke-width="0.25"/>
        <path id="Trazado_773" data-name="Trazado 773" d="M146.515,39.26C127.76,49.718,127.143,66.975,145.137,77.8" transform="translate(-95.586 -28.447)" fill="none" stroke="#fffee9" stroke-miterlimit="10" stroke-width="0.25"/>
        <path id="Trazado_774" data-name="Trazado 774" d="M61.3,90.222c9.178-6.3,21.225-8.232,33.285-6.268" transform="translate(-44.394 -60.259)" fill="none" stroke="#fffee9" stroke-miterlimit="10" stroke-width="0.25"/>
        <path id="Trazado_775" data-name="Trazado 775" d="M58.663,139.154A60.528,60.528,0,0,1,92.311,122.71" transform="translate(-42.488 -88.838)" fill="none" stroke="#fffee9" stroke-miterlimit="10" stroke-width="0.25"/>
        <path id="Trazado_776" data-name="Trazado 776" d="M121.56,181.587c6.879-11.645,15.913-20.587,24.959-25.631,13.243,7.97,35.169,8.192,48.972.5,8.678,5.223,17.368,14.345,24.011,26.126C191.9,197.971,148.045,197.527,121.56,181.587Z" transform="translate(-88.005 -112.897)" fill="none" stroke="#fffee9" stroke-miterlimit="10" stroke-width="0.25"/>
        <path id="Trazado_777" data-name="Trazado 777" d="M148.768,209.992c22.492,13.537,59.73,13.914,83.174.841" transform="translate(-107.695 -152.002)" fill="none" stroke="#fffee9" stroke-miterlimit="10" stroke-width="0.25"/>
        <path id="Trazado_778" data-name="Trazado 778" d="M179.451,178.752c17.994,10.83,47.785,11.131,66.54.673" transform="translate(-129.9 -129.394)" fill="none" stroke="#fffee9" stroke-miterlimit="10" stroke-width="0.25"/>
        <path id="Trazado_779" data-name="Trazado 779" d="M233.853,206.443c2.595-13.131,6.014-24.02,9.445-31.012" transform="translate(-169.269 -126.991)" fill="none" stroke="#fffee9" stroke-miterlimit="10" stroke-width="0.25"/>
        <path id="Trazado_780" data-name="Trazado 780" d="M339.737,207.263c-2.256-13.179-5.2-24.134-8.123-31.189" transform="translate(-240.017 -127.456)" fill="none" stroke="#fffee9" stroke-miterlimit="10" stroke-width="0.25"/>
        <path id="Trazado_781" data-name="Trazado 781" d="M413.124,97.5c-6.643-11.782-15.332-20.9-24.011-26.126,13.8-7.7,14.258-20.4,1.015-28.368,9.046-5.044,18.1-6.189,25.025-2.24C441.638,56.71,440.73,82.111,413.124,97.5Z" transform="translate(-281.627 -27.824)" fill="none" stroke="#fffee9" stroke-miterlimit="10" stroke-width="0.25"/>
        <path id="Trazado_782" data-name="Trazado 782" d="M449.774,86.853c23.444-13.072,24.215-34.644,1.723-48.18" transform="translate(-325.527 -28.022)" fill="none" stroke="#fffee9" stroke-miterlimit="10" stroke-width="0.25"/>
        <path id="Trazado_783" data-name="Trazado 783" d="M420.258,80.241c18.755-10.458,19.372-27.715,1.379-38.545" transform="translate(-304.166 -30.21)" fill="none" stroke="#fffee9" stroke-miterlimit="10" stroke-width="0.25"/>
        <path id="Trazado_784" data-name="Trazado 784" d="M456.268,142.285a61.379,61.379,0,0,0-33.351-17.122" transform="translate(-306.091 -90.613)" fill="none" stroke="#fffee9" stroke-miterlimit="10" stroke-width="0.25"/>
        <path id="Trazado_785" data-name="Trazado 785" d="M457.949,93.8c-9.323-6.485-21.524-8.665-33.715-6.946" transform="translate(-307.044 -62.482)" fill="none" stroke="#fffee9" stroke-miterlimit="10" stroke-width="0.25"/>
        <path id="Trazado_786" data-name="Trazado 786" d="M132.306,12.285q.679.387,1.345.788c-6.923-3.949-15.979-2.8-25.025,2.24-13.243-7.97-35.169-8.192-48.972-.5S45.4,35.216,58.639,43.186s35.169,8.192,48.972.5,14.258-20.4,1.015-28.368c9.046-5.044,18.1-6.189,25.025-2.24,1.545,0,3.067,1.9,4.342,2.77s2.919,2.081,4.124,3.033,2.739,2.267,3.876,3.281a60.574,60.574,0,0,1,5.076,5.109,84.55,84.55,0,0,1,5.907,7.645c.795,1.2,1.828,2.83,2.5,4.106,1.109,2.109,2.552,4.948,3.429,7.164a82.157,82.157,0,0,1,2.841,8.966,58.663,58.663,0,0,1,1.218,6.99,57.336,57.336,0,0,1,.4,6.8,84.959,84.959,0,0,1-.684,9.286c-.286,2.036-.9,4.714-1.4,6.71-.341,1.369-.934,3.159-1.389,4.494A64.478,64.478,0,0,1,161.1,96.1a65.588,65.588,0,0,1-13.223,18.216,87.8,87.8,0,0,1-7.73,6.567c-2.142,1.613-5.191,3.5-7.482,4.892q-.436.252-.882.5c-27.142,15.134-69.985,14.96-96.59-.2q-.683-.389-1.351-.791a98.46,98.46,0,0,1-8.466-5.8c-1.181-.962-2.765-2.239-3.877-3.281-1.577-1.478-3.637-3.5-5.078-5.111a73.679,73.679,0,0,1-5.905-7.644,81.171,81.171,0,0,1-4.677-8.378A49.365,49.365,0,0,1,3,87.742c-.382-1.358-.914-3.164-1.249-4.535a69.015,69.015,0,0,1-1.218-6.99c-.255-2.027-.357-4.754-.4-6.8-.029-1.4.115-3.259.165-4.655a45.842,45.842,0,0,1,.879-6.757c.282-1.382.65-3.229,1.041-4.583.6-2.062,1.5-4.783,2.248-6.794a64.876,64.876,0,0,1,4.193-8.6,63.333,63.333,0,0,1,4.51-6.713,75.082,75.082,0,0,1,6.452-7.277,90.816,90.816,0,0,1,7.731-6.566c1.242-.92,2.943-2.085,4.243-2.92,1.273-.818,2.994-1.875,4.328-2.589,2.279-1.22,5.366-2.761,7.728-3.814,1.438-.641,3.407-1.377,4.875-1.947,1.67-.649,3.956-1.354,5.671-1.875,1.349-.41,3.168-.889,4.537-1.225,4.187-1.025,7.63-1.578,9.962-1.914C70.179.975,72.169.745,73.665.6,75.109.466,77.038.336,78.487.258,81.308.108,84.8.079,88.166.212c4.468.177,7.738.576,9.591.807,1.727.216,5.259.721,9.512,1.684,1.371.311,3.191.763,4.545,1.141,1.482.414,3.443,1.023,4.907,1.5,1.289.42,2.988,1.039,4.247,1.541,1.575.628,3.647,1.536,5.2,2.225C128.06,9.955,130.5,11.273,132.306,12.285Z" transform="translate(-0.125 -0.127)" fill="none" stroke="#fffee9" stroke-miterlimit="10" stroke-width="0.25"/>
      </g>
    </g>
    <g id="Grupo_84" data-name="Grupo 84" transform="translate(132.664 13.071)">
      <g id="Grupo_83" data-name="Grupo 83" clip-path="url(#clip-path-10)">
        <path id="Trazado_788" data-name="Trazado 788" d="M476.167,160.179c13.2-7.623,13.127-32.9-.16-56.466,27.606-15.393,28.514-40.794,2.029-56.734,13.848,7.895,13.92,33.176.16,56.466C504.681,119.384,503.773,144.785,476.167,160.179Z" transform="translate(-477.049 -46.978)" fill="none" stroke="#fffee9" stroke-miterlimit="10" stroke-width="0.25"/>
        <path id="Trazado_789" data-name="Trazado 789" d="M508.352,234.416c32.688-18.227,33.764-48.3,2.4-67.179" transform="translate(-500.456 -134.007)" fill="none" stroke="#fffee9" stroke-miterlimit="10" stroke-width="0.25"/>
        <path id="Trazado_790" data-name="Trazado 790" d="M508.144,161.1c32.688-18.227,33.764-48.3,2.4-67.179" transform="translate(-500.306 -80.953)" fill="none" stroke="#fffee9" stroke-miterlimit="10" stroke-width="0.25"/>
        <path id="Trazado_791" data-name="Trazado 791" d="M543.773,243.594c18.358-12.6,18.286-37.877-.16-56.466" transform="translate(-525.974 -148.402)" fill="none" stroke="#fffee9" stroke-miterlimit="10" stroke-width="0.25"/>
        <path id="Trazado_792" data-name="Trazado 792" d="M546.408,169.935c18.559-18.216,18.487-43.5-.16-56.466" transform="translate(-527.881 -95.096)" fill="none" stroke="#fffee9" stroke-miterlimit="10" stroke-width="0.25"/>
        <path id="Trazado_793" data-name="Trazado 793" d="M413.124,97.5c-6.643-11.782-15.332-20.9-24.011-26.126,13.8-7.7,14.258-20.4,1.015-28.368,9.046-5.044,18.1-6.189,25.025-2.24C441.638,56.71,440.73,82.111,413.124,97.5Z" transform="translate(-414.166 -40.77)" fill="none" stroke="#fffee9" stroke-miterlimit="10" stroke-width="0.25"/>
        <path id="Trazado_794" data-name="Trazado 794" d="M456.268,142.285a61.379,61.379,0,0,0-33.351-17.122" transform="translate(-438.629 -103.559)" fill="none" stroke="#fffee9" stroke-miterlimit="10" stroke-width="0.25"/>
        <path id="Trazado_795" data-name="Trazado 795" d="M457.949,93.8c-9.323-6.485-21.524-8.665-33.715-6.946" transform="translate(-439.582 -75.428)" fill="none" stroke="#fffee9" stroke-miterlimit="10" stroke-width="0.25"/>
        <path id="Trazado_796" data-name="Trazado 796" d="M479.778,159.678c26.74-15.438,27.347-40.465,1.147-56.234,13.759-23.29,13.688-48.572-.16-56.466,1.9,1.164,4.428,2.738,6.2,4.085a95.1,95.1,0,0,1,7.775,6.531,81.967,81.967,0,0,1,6.484,7.228A63.276,63.276,0,0,1,505.77,71.5a84.313,84.313,0,0,1,4.247,8.586,59.018,59.018,0,0,1,2.284,6.772,57.807,57.807,0,0,1,1.439,6.7,72.025,72.025,0,0,1,.737,9.282c-.018,2.044-.175,4.768-.361,6.8-.127,1.392-.474,3.227-.683,4.61a52.507,52.507,0,0,1-1.722,6.938,62.715,62.715,0,0,1-2.81,7.358c-1.227,2.6-3.127,5.941-4.626,8.395a61.244,61.244,0,0,1-5.874,7.693,74.88,74.88,0,0,1-6.109,6.091c-1.149,1-2.689,2.343-3.93,3.231C485.845,155.758,482.407,158.046,479.778,159.678Z" transform="translate(-479.778 -46.978)" fill="none" stroke="#fffee9" stroke-miterlimit="10" stroke-width="0.25"/>
      </g>
    </g>
  </g>
</svg>
